<svg id="svg" version="1.1" xmlns="http://www.w3.org/2000/svg" xmlns:xlink="http://www.w3.org/1999/xlink" width="400" height="226.8041237113402" viewBox="0, 0, 400,226.8041237113402"><g id="svgg"><path id="path0" d="M148.213 108.360 C 146.909 109.741,146.768 111.935,147.930 112.762 C 149.072 113.576,148.604 115.064,147.362 114.565 C 146.184 114.091,143.396 114.320,143.126 114.913 C 142.985 115.223,142.679 115.536,142.447 115.610 C 142.215 115.684,141.871 116.043,141.682 116.409 C 141.493 116.774,141.190 117.073,141.010 117.073 C 140.829 117.073,140.529 117.366,140.344 117.725 C 140.159 118.083,139.799 118.431,139.544 118.498 C 138.697 118.719,138.866 121.820,139.762 122.483 C 140.302 122.882,140.442 123.157,140.442 123.813 C 140.442 124.459,140.596 124.769,141.139 125.225 C 142.098 126.029,141.870 126.601,140.588 126.606 C 139.511 126.610,139.257 126.737,138.873 127.467 C 138.534 128.111,137.699 128.062,137.400 127.380 C 137.286 127.121,136.903 126.743,136.549 126.539 C 135.931 126.185,135.905 126.100,135.905 124.458 C 135.905 123.516,135.822 122.745,135.721 122.745 C 134.406 122.745,134.148 120.251,135.394 119.595 C 135.847 119.356,135.905 119.152,135.905 117.789 C 135.905 116.237,135.974 116.081,137.085 115.116 C 137.247 114.975,137.551 114.669,137.761 114.435 C 137.970 114.201,138.302 113.879,138.498 113.718 C 138.707 113.546,138.854 113.072,138.854 112.569 C 138.854 111.879,138.988 111.615,139.541 111.205 C 140.406 110.566,140.232 110.267,138.997 110.267 C 138.188 110.267,137.951 110.377,137.529 110.947 C 137.059 111.583,136.928 111.628,135.537 111.628 L 134.049 111.628 132.368 113.299 C 131.443 114.217,130.686 115.085,130.686 115.227 C 130.686 115.369,130.587 115.485,130.467 115.485 C 130.346 115.485,129.733 115.983,129.105 116.591 L 127.964 117.697 127.964 120.367 L 127.964 123.036 129.325 124.351 C 130.483 125.471,130.686 125.786,130.686 126.468 C 130.686 127.095,130.834 127.379,131.367 127.773 C 132.500 128.610,132.187 129.325,130.687 129.325 C 130.194 129.325,129.710 129.668,128.617 130.793 C 126.991 132.466,126.375 132.431,126.375 130.667 C 126.375 129.973,126.245 129.717,125.695 129.325 C 125.044 128.861,125.014 128.767,125.014 127.167 C 125.014 125.548,125.036 125.480,125.695 125.092 L 126.375 124.689 126.375 119.682 L 126.375 114.675 125.695 114.273 C 125.320 114.052,125.014 113.722,125.014 113.539 C 125.014 113.356,124.770 113.095,124.472 112.959 C 124.174 112.823,123.823 112.477,123.692 112.190 C 123.561 111.902,123.260 111.606,123.022 111.530 C 122.785 111.455,122.455 111.140,122.290 110.830 C 122.041 110.365,121.819 110.267,121.019 110.267 C 119.580 110.267,119.602 110.611,121.134 112.060 C 122.837 113.670,123.091 114.950,121.838 115.598 C 121.463 115.792,121.157 116.057,121.157 116.188 C 121.157 116.491,120.580 117.073,120.279 117.073 C 120.152 117.073,119.867 117.379,119.646 117.754 L 119.244 118.434 117.024 118.434 L 114.804 118.434 113.914 119.325 C 113.424 119.815,112.910 120.427,112.772 120.686 C 112.551 121.098,112.308 121.157,110.841 121.157 C 109.236 121.157,109.142 121.187,108.678 121.838 C 107.858 122.990,107.090 122.510,107.090 120.845 C 107.090 120.408,106.990 119.987,106.867 119.912 C 106.391 119.617,93.704 132.668,93.704 133.453 C 93.704 134.405,93.117 135.063,92.541 134.755 C 92.159 134.551,92.116 134.230,92.116 131.614 C 92.116 129.339,92.043 128.640,91.785 128.426 C 91.062 127.825,90.981 128.402,90.981 134.192 C 90.981 140.464,90.926 140.211,92.304 140.219 C 93.394 140.225,93.582 140.520,93.704 142.419 L 93.817 144.186 94.896 144.255 C 95.827 144.315,96.021 144.415,96.320 144.993 C 96.510 145.360,96.772 145.661,96.902 145.661 C 97.208 145.661,97.659 146.119,97.850 146.625 C 97.933 146.843,98.113 147.022,98.251 147.022 C 98.568 147.022,99.149 147.595,99.149 147.908 C 99.149 148.038,99.455 148.303,99.830 148.497 C 100.204 148.690,100.510 148.977,100.510 149.134 C 100.510 149.292,100.817 149.601,101.191 149.822 C 101.566 150.043,101.872 150.374,101.872 150.557 C 101.872 150.739,102.116 151.000,102.414 151.136 C 102.712 151.272,103.086 151.625,103.245 151.921 C 103.403 152.218,103.704 152.514,103.914 152.581 C 104.123 152.647,104.419 152.934,104.571 153.217 C 104.722 153.500,105.070 153.830,105.344 153.950 C 105.741 154.125,105.857 154.392,105.912 155.265 C 105.972 156.205,106.077 156.415,106.648 156.740 C 107.014 156.948,107.315 157.234,107.316 157.374 C 107.316 157.515,107.452 157.742,107.617 157.879 C 108.154 158.324,108.452 157.684,108.452 156.087 C 108.452 153.785,108.940 153.462,110.351 154.833 L 111.401 155.854 111.401 157.556 C 111.401 159.534,111.223 159.730,109.431 159.725 C 107.935 159.720,107.450 159.558,107.195 158.976 C 107.075 158.703,106.754 158.382,106.481 158.262 C 106.208 158.143,105.883 157.820,105.758 157.545 C 105.632 157.270,105.335 156.983,105.096 156.907 C 104.858 156.831,104.548 156.516,104.407 156.207 C 104.020 155.359,100.865 155.342,100.481 156.186 C 100.345 156.484,99.998 156.835,99.711 156.966 C 99.424 157.097,99.127 157.399,99.051 157.638 C 98.975 157.876,98.660 158.186,98.351 158.327 C 97.897 158.534,97.787 158.750,97.784 159.439 C 97.781 160.390,97.657 160.633,96.994 160.998 C 96.734 161.141,96.513 161.530,96.478 161.906 C 96.358 163.172,96.206 163.509,95.638 163.768 C 95.174 163.979,95.065 164.192,95.062 164.885 C 95.058 165.874,94.920 166.137,94.207 166.512 C 93.710 166.774,93.691 166.884,93.753 169.212 L 93.817 171.639 94.785 171.709 C 95.548 171.764,95.856 171.920,96.245 172.447 L 96.739 173.114 101.808 173.114 C 106.168 173.114,106.896 173.065,107.012 172.764 C 107.203 172.265,106.985 172.128,105.776 171.989 C 104.945 171.893,104.657 171.751,104.481 171.346 C 104.356 171.060,104.024 170.768,103.742 170.697 C 103.460 170.626,103.174 170.349,103.107 170.081 C 103.040 169.812,102.683 169.420,102.315 169.209 C 101.555 168.773,101.492 168.535,102.001 168.025 C 102.512 167.515,102.749 167.579,103.187 168.348 C 103.400 168.722,103.695 169.028,103.844 169.029 C 103.993 169.029,104.296 169.336,104.517 169.711 C 104.851 170.276,105.064 170.391,105.778 170.391 C 106.610 170.391,107.544 170.991,107.544 171.526 C 107.544 171.651,107.952 171.753,108.450 171.753 C 109.259 171.753,109.499 171.899,110.685 173.114 L 112.012 174.475 114.152 174.475 C 116.262 174.475,116.300 174.466,116.911 173.769 C 118.186 172.317,121.146 172.978,121.154 174.716 C 121.156 175.349,121.305 175.634,121.838 176.028 C 122.475 176.499,122.518 176.627,122.518 178.036 L 122.518 179.541 123.880 180.828 L 125.241 182.115 125.241 185.624 C 125.241 188.050,125.325 189.216,125.513 189.404 C 126.091 189.982,134.253 189.768,134.569 189.166 C 134.984 188.379,135.182 188.323,137.534 188.319 C 139.714 188.315,139.735 188.310,140.216 187.635 C 140.597 187.099,140.870 186.954,141.499 186.954 C 142.103 186.954,142.444 186.788,142.896 186.273 C 143.364 185.740,143.681 185.593,144.361 185.593 C 145.087 185.593,145.291 185.482,145.615 184.914 C 145.987 184.259,146.060 184.234,147.618 184.233 C 148.812 184.232,149.313 184.138,149.532 183.874 C 149.982 183.332,149.440 183.105,147.691 183.100 C 146.010 183.097,145.661 182.877,145.661 181.822 C 145.661 180.326,145.814 180.374,141.099 180.374 C 135.939 180.374,135.905 180.359,135.905 178.043 C 135.905 176.744,135.845 176.566,135.224 176.021 C 134.721 175.579,134.543 175.225,134.543 174.660 C 134.543 174.088,134.365 173.739,133.833 173.272 C 132.478 172.083,133.212 171.776,137.580 171.701 C 141.032 171.643,141.248 171.613,141.443 171.169 C 141.557 170.910,141.940 170.532,142.294 170.328 C 142.671 170.112,142.938 169.766,142.938 169.494 C 142.938 169.091,143.081 169.030,144.027 169.030 C 145.732 169.030,145.834 168.687,144.510 167.405 C 143.887 166.801,143.279 166.307,143.158 166.307 C 143.037 166.307,142.938 165.868,142.938 165.332 C 142.938 164.021,142.661 163.812,140.927 163.812 L 139.461 163.812 138.174 162.450 L 136.886 161.089 135.410 161.089 C 133.541 161.089,132.817 160.546,133.617 159.746 C 133.877 159.486,134.175 159.274,134.280 159.274 C 134.385 159.274,134.587 159.019,134.729 158.707 C 134.937 158.250,135.152 158.140,135.829 158.140 C 136.566 158.140,136.847 157.957,138.102 156.665 C 139.386 155.342,139.625 155.190,140.426 155.190 C 141.094 155.190,141.353 155.085,141.452 154.773 C 141.525 154.543,141.836 154.220,142.144 154.056 C 142.452 153.891,142.765 153.562,142.841 153.325 C 142.916 153.088,143.213 152.786,143.500 152.655 C 143.788 152.524,144.152 152.175,144.311 151.879 C 144.469 151.583,144.787 151.281,145.016 151.208 C 145.246 151.135,145.434 150.989,145.434 150.882 C 145.434 150.776,145.791 150.352,146.228 149.940 C 146.898 149.308,147.022 149.038,147.022 148.208 C 147.022 147.323,147.089 147.202,147.694 146.991 C 148.063 146.863,148.422 146.578,148.491 146.359 C 148.561 146.140,148.870 145.826,149.178 145.661 C 149.485 145.496,149.795 145.179,149.866 144.955 C 149.937 144.732,150.177 144.492,150.401 144.421 C 150.624 144.350,150.942 144.038,151.108 143.729 C 151.274 143.419,151.487 143.165,151.582 143.165 C 152.414 143.165,152.848 140.799,152.070 140.505 C 150.966 140.086,150.867 139.509,151.787 138.854 C 152.612 138.266,152.639 138.015,151.913 137.684 C 150.953 137.247,150.921 136.420,151.848 136.013 C 152.264 135.831,152.354 135.609,152.354 134.770 L 152.354 133.749 151.446 133.676 C 150.254 133.579,149.745 133.095,149.745 132.055 C 149.745 131.396,149.605 131.122,149.064 130.722 C 148.527 130.325,148.383 130.047,148.383 129.402 C 148.383 128.696,148.197 128.408,147.022 127.301 L 145.661 126.017 145.661 124.510 C 145.661 123.089,145.621 122.975,144.969 122.511 C 144.331 122.056,144.283 121.928,144.345 120.850 L 144.413 119.682 146.086 119.615 C 148.410 119.522,149.880 118.214,149.651 116.445 C 149.482 115.145,149.482 114.829,149.653 113.164 C 149.779 111.934,149.755 111.850,149.211 111.602 C 148.176 111.130,148.273 110.724,149.758 109.311 C 150.914 108.211,151.104 107.928,150.874 107.651 C 150.317 106.980,149.246 107.266,148.213 108.360 M140.594 109.057 C 140.281 109.369,140.459 109.813,140.896 109.813 C 141.199 109.813,141.350 109.662,141.350 109.359 C 141.350 108.922,140.906 108.744,140.594 109.057 M125.006 116.896 C 125.011 117.235,124.810 117.877,124.560 118.321 C 124.311 118.765,124.107 119.404,124.107 119.741 C 124.107 120.686,120.633 124.107,119.673 124.107 C 119.197 124.107,118.772 124.317,118.341 124.766 L 117.710 125.425 116.654 125.075 C 116.073 124.882,115.437 124.586,115.240 124.416 C 114.496 123.773,113.449 124.034,112.387 125.128 C 111.585 125.953,111.243 126.149,110.604 126.149 C 109.636 126.149,109.617 125.968,110.493 125.128 C 110.868 124.769,111.174 124.344,111.174 124.183 C 111.174 124.023,111.455 123.745,111.798 123.567 C 112.141 123.388,112.670 122.977,112.972 122.653 C 113.311 122.291,113.766 122.065,114.158 122.065 C 114.507 122.065,115.128 121.861,115.536 121.612 C 115.945 121.363,116.438 121.158,116.632 121.158 C 116.826 121.158,117.331 120.902,117.754 120.590 C 118.633 119.942,118.986 119.899,119.830 120.339 C 120.595 120.739,122.152 119.312,122.546 117.852 C 122.678 117.361,123.156 116.576,123.607 116.107 L 124.429 115.255 124.714 115.767 C 124.870 116.049,125.002 116.557,125.006 116.896 M134.473 116.264 C 134.431 116.390,134.149 116.552,133.847 116.623 C 133.545 116.694,133.261 116.944,133.216 117.178 C 133.171 117.411,132.788 117.929,132.364 118.329 C 131.940 118.728,131.594 119.202,131.594 119.381 C 131.594 119.842,130.096 121.239,129.798 121.056 C 129.322 120.761,129.496 118.710,130.012 118.546 C 130.265 118.466,130.648 118.025,130.864 117.566 C 131.188 116.876,131.398 116.713,132.087 116.619 C 132.650 116.543,133.085 116.294,133.430 115.853 C 133.937 115.205,134.723 115.514,134.473 116.264 M148.061 116.489 C 147.917 117.257,147.861 117.300,147.012 117.300 C 146.518 117.300,146.115 117.391,146.115 117.502 C 146.115 117.614,145.834 117.775,145.492 117.861 C 144.706 118.058,144.305 118.389,144.055 119.049 C 143.946 119.335,143.696 119.569,143.499 119.569 C 143.303 119.569,142.993 119.926,142.810 120.363 C 142.433 121.266,142.341 121.303,141.765 120.782 C 140.668 119.789,142.688 116.619,144.417 116.619 C 144.801 116.619,145.243 116.492,145.398 116.336 C 145.815 115.917,147.784 115.285,148.015 115.496 C 148.124 115.596,148.145 116.043,148.061 116.489 M108.930 117.383 C 108.736 117.617,108.745 117.754,108.967 117.938 C 109.359 118.263,109.918 117.901,109.740 117.436 C 109.569 116.991,109.272 116.972,108.930 117.383 M107.607 118.689 C 107.299 118.997,107.479 119.569,107.884 119.569 C 108.220 119.569,108.515 118.948,108.325 118.641 C 108.155 118.365,107.915 118.381,107.607 118.689 M105.559 124.428 C 105.559 125.226,103.777 127.102,103.559 126.533 C 103.340 125.963,103.592 125.513,104.177 125.429 C 104.589 125.370,104.735 125.150,104.890 124.364 C 105.100 123.296,105.559 123.340,105.559 124.428 M116.811 126.149 C 117.211 126.548,117.730 126.829,118.069 126.829 C 118.404 126.829,118.937 127.114,119.340 127.508 C 119.779 127.937,120.378 128.242,120.966 128.336 C 121.574 128.433,121.934 128.621,122.000 128.877 C 122.057 129.092,122.341 129.396,122.631 129.551 C 122.974 129.735,123.247 130.183,123.410 130.832 C 123.549 131.381,123.862 132.030,124.107 132.275 C 124.351 132.519,124.669 133.184,124.812 133.752 C 124.955 134.320,125.256 134.914,125.481 135.072 C 125.747 135.258,125.916 135.713,125.963 136.369 L 126.035 137.379 127.359 137.448 C 129.294 137.548,129.325 137.495,129.325 134.055 C 129.325 130.524,129.482 130.328,131.063 131.887 L 132.105 132.914 131.423 133.267 C 130.696 133.643,130.340 134.216,130.696 134.436 C 130.816 134.510,130.913 134.411,130.913 134.216 C 130.913 133.815,131.489 133.736,131.718 134.106 C 131.812 134.259,131.988 134.178,132.191 133.889 C 132.374 133.627,132.658 133.483,132.848 133.556 C 133.285 133.724,133.271 134.069,132.807 134.582 C 132.454 134.972,132.460 134.997,132.912 134.997 C 133.178 134.997,133.515 134.770,133.666 134.488 C 133.815 134.208,134.276 133.651,134.689 133.250 L 135.440 132.521 136.797 133.921 L 138.155 135.321 138.731 134.779 C 139.146 134.390,139.308 134.003,139.308 133.405 C 139.308 132.859,139.465 132.430,139.763 132.160 C 140.377 131.605,140.170 131.465,139.441 131.942 C 138.982 132.243,138.854 132.513,138.854 133.180 C 138.854 134.609,138.336 134.766,137.266 133.663 C 136.341 132.709,136.142 132.275,136.633 132.275 C 137.228 132.275,138.854 130.181,138.854 129.415 C 138.854 129.009,139.017 128.514,139.216 128.315 C 139.729 127.802,141.463 129.524,141.258 130.343 C 141.111 130.926,141.483 131.181,142.204 130.993 C 142.478 130.921,142.700 131.011,142.784 131.228 C 142.944 131.646,142.597 131.913,142.128 131.733 C 141.845 131.624,141.838 131.677,142.082 132.079 C 142.241 132.341,142.545 132.874,142.757 133.265 L 143.143 133.976 143.154 133.232 C 143.161 132.766,143.301 132.435,143.528 132.348 C 143.985 132.173,144.337 132.682,144.223 133.352 C 144.092 134.120,144.468 133.966,144.640 133.182 C 144.722 132.808,144.863 132.501,144.954 132.501 C 145.244 132.501,146.651 134.072,146.936 134.715 L 147.212 135.337 147.231 134.511 C 147.276 132.495,148.383 133.416,148.383 135.469 C 148.383 137.190,148.549 137.425,149.838 137.533 C 151.232 137.649,151.333 138.143,150.190 139.264 C 149.058 140.373,148.900 140.411,148.609 139.646 C 148.490 139.332,148.135 138.958,147.821 138.815 C 147.371 138.610,147.245 138.381,147.230 137.740 L 147.212 136.926 146.881 137.683 C 146.608 138.310,146.493 138.394,146.219 138.166 C 145.952 137.945,145.888 137.961,145.888 138.247 C 145.888 138.443,146.168 138.737,146.512 138.901 C 146.878 139.076,147.167 139.419,147.212 139.733 C 147.253 140.027,147.470 140.316,147.693 140.374 C 147.917 140.433,148.319 140.778,148.588 141.142 C 148.987 141.681,149.246 141.804,149.986 141.804 C 151.263 141.804,151.330 142.260,150.216 143.374 C 149.122 144.468,148.957 144.498,148.563 143.676 C 148.158 142.830,147.388 142.830,147.291 143.675 C 147.234 144.170,147.340 144.345,147.801 144.521 C 148.642 144.840,148.542 145.105,147.022 146.568 C 146.024 147.530,145.661 148.042,145.661 148.487 C 145.661 149.588,145.254 150.084,144.735 149.615 C 144.226 149.154,143.629 149.536,143.023 150.708 C 142.656 151.418,141.929 151.535,141.605 150.936 C 141.047 149.903,139.598 148.602,139.345 148.906 C 138.956 149.375,138.943 151.560,139.328 151.804 C 139.555 151.948,139.438 152.008,138.924 152.010 C 137.091 152.019,135.175 149.763,135.941 148.497 C 136.330 147.855,136.329 147.803,135.913 147.098 L 135.481 146.367 136.240 146.116 C 137.580 145.674,137.593 144.299,136.258 144.299 C 135.287 144.299,134.760 143.747,135.503 143.509 C 135.983 143.355,135.988 143.336,135.575 143.229 C 135.278 143.152,134.975 143.310,134.659 143.707 C 134.064 144.453,133.556 144.462,133.223 143.732 C 132.854 142.922,132.126 142.984,132.001 143.837 C 131.938 144.261,132.013 144.551,132.202 144.624 C 132.388 144.695,132.501 144.569,132.501 144.292 C 132.501 143.757,132.851 143.701,133.044 144.205 C 133.339 144.974,133.122 146.341,132.704 146.341 C 132.593 146.341,132.501 146.140,132.501 145.895 C 132.501 145.618,132.388 145.492,132.202 145.563 C 131.541 145.817,132.042 146.951,132.977 147.318 C 133.763 147.627,133.863 147.753,133.863 148.432 C 133.863 149.045,134.111 149.466,135.112 150.549 C 135.799 151.292,136.313 152.028,136.254 152.184 C 136.194 152.340,136.313 152.467,136.518 152.467 C 137.046 152.467,137.720 153.138,137.720 153.665 C 137.720 154.026,137.782 154.060,138.044 153.842 C 138.303 153.627,138.418 153.664,138.612 154.026 C 138.978 154.710,138.911 154.947,138.270 155.239 C 137.949 155.385,137.538 155.792,137.357 156.142 C 137.081 156.676,136.883 156.778,136.135 156.778 C 135.611 156.778,135.121 156.922,134.949 157.126 C 134.517 157.641,134.190 157.981,133.718 158.407 C 133.486 158.617,133.164 158.949,133.003 159.145 C 132.557 159.687,132.112 159.571,131.981 158.877 C 131.916 158.534,131.796 158.045,131.715 157.791 C 131.596 157.421,131.723 157.255,132.349 156.956 C 133.304 156.500,133.783 154.056,132.918 154.056 C 132.799 154.056,132.765 154.159,132.843 154.285 C 133.183 154.834,132.703 155.417,131.912 155.417 C 130.698 155.417,130.553 154.157,131.729 153.834 C 131.967 153.769,132.171 153.588,132.184 153.432 C 132.236 152.779,132.294 152.694,132.692 152.694 C 132.921 152.694,133.222 152.941,133.360 153.244 C 133.539 153.637,133.738 153.759,134.061 153.675 C 134.941 153.445,134.812 152.303,133.827 151.604 C 133.597 151.441,133.409 151.054,133.409 150.746 C 133.409 149.821,132.432 149.602,132.240 150.484 C 132.092 151.169,131.722 151.550,131.197 151.556 C 131.041 151.558,130.913 151.662,130.913 151.787 C 130.913 152.671,129.006 153.252,127.954 152.689 C 127.607 152.503,127.546 152.524,127.649 152.794 C 127.721 152.979,127.999 153.211,128.268 153.309 C 128.632 153.441,128.408 153.516,127.396 153.601 C 124.952 153.806,125.644 155.644,128.166 155.644 C 129.176 155.644,129.509 155.943,129.077 156.464 C 128.562 157.084,120.983 156.648,119.652 155.921 C 118.585 155.338,118.725 154.633,119.953 154.403 C 120.688 154.265,121.123 154.006,122.462 152.909 C 122.618 152.781,122.745 152.314,122.745 151.872 C 122.745 151.238,122.913 150.919,123.539 150.364 L 124.334 149.661 124.334 146.041 C 124.334 142.889,124.384 142.384,124.721 142.138 C 125.638 141.467,124.988 139.075,123.935 139.245 C 122.705 139.443,122.653 139.511,123.290 140.102 C 123.864 140.633,123.886 140.734,123.739 142.166 C 123.486 144.632,122.157 145.631,118.552 146.065 C 117.248 146.222,117.173 146.267,116.663 147.192 C 115.981 148.430,113.971 148.650,113.111 147.582 C 112.811 147.209,112.331 146.961,111.741 146.874 C 111.242 146.800,110.732 146.620,110.607 146.474 C 110.093 145.870,109.213 145.434,108.509 145.434 C 107.939 145.434,107.713 145.311,107.564 144.919 C 107.456 144.635,107.076 144.252,106.718 144.068 C 106.361 143.884,105.998 143.634,105.911 143.512 C 105.556 143.015,105.500 143.628,105.829 144.416 C 106.566 146.180,106.219 150.199,105.330 150.199 C 104.926 150.199,104.141 149.136,104.141 148.589 C 104.141 148.085,103.358 147.177,100.057 143.846 L 95.973 139.725 95.973 138.172 C 95.973 135.501,97.708 134.859,98.003 137.420 C 98.247 139.547,98.581 138.544,98.695 135.340 L 98.809 132.166 99.433 131.868 C 99.925 131.632,100.057 131.413,100.057 130.830 C 100.057 130.211,100.712 129.098,101.078 129.098 C 102.268 129.098,102.264 131.343,101.069 133.652 C 100.453 134.844,100.630 136.851,101.418 137.606 C 101.860 138.030,102.099 138.483,102.099 138.900 C 102.099 139.520,104.049 141.804,104.579 141.804 C 104.692 141.804,104.964 141.873,105.184 141.957 C 105.561 142.102,105.562 142.080,105.203 141.566 C 104.993 141.267,104.821 140.785,104.821 140.494 C 104.821 139.860,104.218 138.627,103.908 138.627 C 103.382 138.627,103.658 135.425,104.223 134.981 C 104.561 134.715,104.803 134.236,104.877 133.685 C 104.942 133.197,105.244 132.541,105.559 132.201 C 105.870 131.865,106.179 131.252,106.246 130.837 C 106.408 129.841,108.019 128.191,108.831 128.191 C 109.209 128.191,109.686 127.907,110.168 127.396 C 110.752 126.777,111.095 126.602,111.728 126.602 C 112.310 126.602,112.678 126.442,113.032 126.035 C 113.805 125.145,115.870 125.207,116.811 126.149 M135.331 127.521 C 136.262 128.462,136.416 128.729,136.214 129.050 C 135.825 129.665,135.359 129.505,135.086 128.661 C 134.948 128.234,134.627 127.807,134.372 127.713 C 133.794 127.499,133.558 127.133,133.722 126.705 C 133.918 126.194,134.120 126.296,135.331 127.521 M135.905 131.598 C 135.905 131.720,135.759 131.821,135.581 131.821 C 135.403 131.821,135.005 132.142,134.698 132.535 C 133.816 133.662,133.409 133.311,133.409 131.419 C 133.409 129.268,133.694 129.068,134.926 130.353 C 135.464 130.915,135.905 131.475,135.905 131.598 M147.022 132.145 C 147.022 133.335,146.539 133.380,145.451 132.292 C 144.485 131.326,144.207 130.189,144.794 129.602 C 145.270 129.126,147.022 131.127,147.022 132.145 M114.577 131.367 C 114.577 131.492,115.030 131.594,115.582 131.594 C 116.662 131.594,117.300 132.015,117.300 132.728 C 117.300 133.412,116.660 133.863,115.691 133.863 C 114.966 133.863,114.747 133.966,114.548 134.405 C 114.412 134.703,114.031 135.084,113.702 135.251 C 113.143 135.534,113.227 135.562,114.957 135.673 C 115.976 135.738,116.849 135.842,116.897 135.905 C 116.945 135.967,117.159 136.299,117.374 136.642 C 117.589 136.985,117.918 137.266,118.105 137.266 C 118.292 137.266,118.543 137.523,118.662 137.836 C 118.782 138.150,119.136 138.523,119.451 138.667 C 119.947 138.893,120.023 139.072,120.023 140.025 C 120.023 140.850,120.107 141.123,120.363 141.123 C 120.620 141.123,120.703 140.846,120.703 139.993 C 120.703 138.977,120.761 138.849,121.271 138.721 C 122.292 138.464,121.951 137.947,120.760 137.945 C 119.801 137.944,119.640 137.869,119.296 137.265 C 119.083 136.891,118.749 136.585,118.553 136.585 C 117.969 136.585,117.677 135.488,118.093 134.853 C 118.376 134.421,118.643 134.317,119.461 134.317 C 120.592 134.317,120.767 134.068,119.909 133.677 C 119.597 133.535,119.342 133.266,119.342 133.079 C 119.342 132.893,119.049 132.588,118.690 132.403 C 118.332 132.217,117.984 131.858,117.917 131.603 C 117.785 131.097,114.577 130.871,114.577 131.367 M97.788 133.636 C 98.122 134.260,97.703 134.997,97.014 134.997 C 96.376 134.997,95.863 134.453,96.113 134.043 C 96.705 133.075,97.398 132.906,97.788 133.636 M143.241 134.657 C 143.362 135.023,144.004 135.049,144.141 134.693 C 144.230 134.460,144.108 134.376,143.716 134.398 C 143.413 134.416,143.199 134.532,143.241 134.657 M110.277 135.999 C 110.115 136.300,109.792 136.597,109.558 136.658 C 109.178 136.758,109.132 137.009,109.132 138.968 C 109.132 140.926,109.178 141.178,109.558 141.277 C 109.792 141.338,110.110 141.624,110.264 141.913 C 110.418 142.201,110.840 142.655,111.200 142.921 C 111.560 143.188,111.855 143.556,111.855 143.739 C 111.855 143.923,111.957 144.073,112.082 144.073 C 112.206 144.073,112.309 143.927,112.309 143.748 C 112.309 143.162,113.000 142.711,113.900 142.711 C 114.382 142.711,114.841 142.609,114.918 142.484 C 115.006 142.341,114.466 142.258,113.456 142.258 C 111.049 142.258,110.947 142.102,110.947 138.400 C 110.947 135.438,110.820 134.984,110.277 135.999 M130.621 138.022 C 130.152 139.230,130.749 140.596,131.480 139.989 C 131.912 139.630,131.923 139.283,131.497 139.446 C 131.263 139.536,131.120 139.300,130.978 138.588 C 130.831 137.851,130.742 137.710,130.621 138.022 M113.367 138.098 C 112.758 138.707,113.238 139.762,114.124 139.762 C 114.783 139.762,115.031 139.668,115.031 139.418 C 115.031 139.229,115.337 138.888,115.711 138.661 C 116.085 138.434,116.323 138.180,116.240 138.097 C 116.044 137.901,113.564 137.901,113.367 138.098 M116.052 140.896 C 115.967 141.033,116.281 141.123,116.846 141.123 C 117.411 141.123,117.725 141.033,117.640 140.896 C 117.563 140.771,117.206 140.669,116.846 140.669 C 116.487 140.669,116.129 140.771,116.052 140.896 M140.871 143.597 C 140.212 144.134,140.849 144.580,141.604 144.108 C 141.835 143.964,142.199 143.846,142.413 143.846 C 142.893 143.846,142.564 143.501,141.892 143.299 C 141.583 143.206,141.221 143.311,140.871 143.597 M113.263 144.907 C 112.555 145.191,113.516 145.661,114.804 145.661 C 116.152 145.661,117.045 145.192,116.266 144.893 C 115.836 144.728,113.685 144.738,113.263 144.907 M122.179 146.969 C 122.477 147.187,123.653 148.925,123.653 149.148 C 123.653 149.243,123.347 149.578,122.972 149.893 C 122.511 150.281,122.292 150.673,122.292 151.108 C 122.292 152.045,122.073 152.467,121.587 152.467 C 121.150 152.467,120.893 147.362,121.308 146.946 C 121.505 146.749,121.893 146.759,122.179 146.969 M125.984 148.610 C 125.984 149.172,126.028 149.402,126.082 149.121 C 126.136 148.840,126.136 148.381,126.082 148.100 C 126.028 147.819,125.984 148.049,125.984 148.610 M115.095 154.348 C 115.341 154.994,115.012 155.233,113.998 155.149 C 113.266 155.088,113.106 154.978,112.963 154.436 C 112.869 154.083,111.972 152.941,110.970 151.897 C 109.112 149.961,108.639 149.091,109.126 148.505 C 109.415 148.156,114.711 153.339,115.095 154.348 M119.429 150.169 C 119.884 150.672,118.106 152.795,117.350 152.651 C 116.696 152.526,116.728 151.604,117.398 151.299 C 117.718 151.153,117.981 150.948,117.981 150.843 C 117.981 150.124,118.971 149.663,119.429 150.169 M120.817 153.261 C 120.817 153.635,120.642 153.728,119.827 153.786 C 118.378 153.890,118.036 153.713,118.562 153.132 C 119.144 152.490,120.817 152.585,120.817 153.261 M118.208 155.555 L 118.208 156.778 116.984 156.778 C 116.116 156.778,115.723 156.681,115.632 156.444 C 115.509 156.124,115.598 155.996,116.537 155.149 C 116.770 154.940,117.088 154.611,117.245 154.420 C 117.791 153.753,118.208 154.244,118.208 155.555 M105.525 158.589 C 107.398 160.447,107.557 160.862,106.396 160.862 C 105.674 160.862,105.501 161.180,106.098 161.409 C 106.412 161.530,106.378 161.633,105.871 162.103 C 105.543 162.407,105.274 162.788,105.272 162.950 C 105.269 163.161,105.206 163.148,105.048 162.904 C 104.861 162.614,104.828 162.622,104.825 162.963 C 104.823 163.183,105.026 163.537,105.275 163.751 C 105.525 163.965,105.729 164.378,105.729 164.669 C 105.729 165.619,106.230 167.215,106.528 167.215 C 106.910 167.215,107.317 166.017,107.317 164.893 C 107.317 164.108,107.400 163.968,107.998 163.742 C 108.372 163.601,108.678 163.388,108.678 163.269 C 108.678 162.926,107.959 162.223,107.607 162.223 C 107.392 162.223,107.310 162.019,107.359 161.600 C 107.429 160.993,107.475 160.974,109.019 160.906 L 110.607 160.836 111.350 161.700 C 112.329 162.839,112.762 162.399,112.762 160.268 C 112.762 157.705,113.916 157.345,114.164 159.830 C 114.284 161.030,114.443 161.503,114.884 161.967 C 115.195 162.295,115.518 162.938,115.602 163.395 C 115.686 163.853,116.001 164.458,116.301 164.740 C 116.601 165.021,116.846 165.490,116.846 165.780 C 116.846 166.604,117.925 166.522,118.110 165.683 C 118.524 163.806,119.020 163.436,120.750 163.713 C 121.868 163.893,122.634 163.658,122.289 163.241 C 121.922 162.800,122.831 162.368,123.797 162.525 C 124.659 162.665,124.830 162.318,124.050 162.013 C 123.348 161.738,122.518 160.917,122.518 160.497 C 122.518 159.930,121.921 159.501,121.134 159.501 C 120.364 159.501,119.569 158.965,119.569 158.445 C 119.569 158.277,119.432 158.140,119.264 158.140 C 118.704 158.140,118.058 157.238,118.444 156.995 C 118.904 156.704,118.978 156.719,119.631 157.232 C 120.083 157.588,120.551 157.686,121.800 157.686 C 123.408 157.686,124.031 158.027,124.390 159.102 C 124.438 159.247,125.133 159.402,125.969 159.456 C 127.299 159.540,127.514 159.622,127.946 160.206 C 128.353 160.757,128.592 160.862,129.430 160.862 C 130.270 160.862,130.453 160.943,130.579 161.373 C 130.661 161.653,131.051 162.165,131.445 162.509 C 132.343 163.293,131.889 163.812,130.303 163.812 L 129.325 163.812 129.325 165.381 C 129.325 167.235,129.194 167.669,128.633 167.669 C 128.110 167.669,127.856 168.057,128.143 168.416 C 128.264 168.567,128.548 169.507,128.775 170.505 C 129.020 171.584,129.404 172.585,129.721 172.975 C 130.128 173.474,130.239 173.853,130.187 174.563 L 130.119 175.496 128.767 175.566 C 126.429 175.686,126.375 175.644,126.375 173.686 C 126.375 172.405,126.287 171.927,126.010 171.705 C 124.880 170.801,124.333 170.140,124.325 169.671 C 124.317 169.202,124.282 169.222,124.008 169.850 C 123.817 170.289,123.476 170.613,123.109 170.705 C 122.309 170.906,122.308 171.922,123.108 172.872 C 123.824 173.723,124.051 175.086,123.581 175.715 C 123.102 176.355,122.520 175.817,122.515 174.731 C 122.511 173.813,122.384 173.568,121.724 173.204 C 121.418 173.036,121.247 172.669,121.197 172.073 C 121.076 170.619,120.014 170.015,119.581 171.155 C 119.346 171.773,118.922 171.980,117.891 171.980 C 117.340 171.980,117.034 172.148,116.655 172.660 C 116.163 173.326,116.108 173.341,114.180 173.341 L 112.207 173.341 110.912 171.980 C 109.840 170.853,109.486 170.618,108.864 170.615 C 107.983 170.611,107.783 170.492,107.250 169.654 C 106.916 169.129,106.695 169.030,105.861 169.030 C 104.790 169.030,104.594 168.820,104.594 167.666 C 104.594 166.459,102.800 165.751,102.051 166.664 C 101.890 166.860,101.310 167.447,100.761 167.968 C 100.212 168.490,99.443 169.245,99.050 169.646 C 98.126 170.592,96.027 170.943,95.288 170.274 C 94.764 169.800,94.635 167.282,95.111 166.807 C 95.554 166.363,96.200 166.477,96.200 166.999 C 96.200 167.773,96.889 168.928,97.127 168.553 C 97.576 167.843,97.367 166.536,96.767 166.307 C 96.298 166.129,96.200 165.941,96.200 165.224 C 96.200 163.518,97.363 163.240,97.768 164.849 C 97.928 165.482,98.137 165.851,98.306 165.796 C 98.638 165.687,98.820 164.492,98.505 164.492 C 98.383 164.492,98.338 164.288,98.403 164.039 C 98.485 163.723,98.410 163.585,98.155 163.585 C 97.488 163.585,97.653 161.452,98.360 160.937 C 98.737 160.663,98.983 160.210,99.080 159.615 C 99.338 158.021,100.764 156.804,102.389 156.790 L 103.700 156.778 105.525 158.589 M115.485 157.342 C 115.485 157.770,114.860 158.210,114.467 158.059 C 114.030 157.891,114.031 157.584,114.471 157.144 C 114.852 156.763,115.485 156.886,115.485 157.342 M116.767 157.808 C 116.925 158.219,118.011 158.820,118.596 158.820 C 118.821 158.820,119.130 159.019,119.282 159.263 C 119.436 159.509,119.939 159.774,120.415 159.859 C 121.894 160.125,122.027 160.335,120.918 160.654 C 120.363 160.814,119.638 161.130,119.307 161.357 C 118.448 161.946,117.613 161.886,117.166 161.202 C 116.961 160.891,116.660 160.635,116.495 160.635 C 116.051 160.635,115.880 159.842,116.054 158.580 C 116.207 157.467,116.511 157.138,116.767 157.808 M130.434 158.677 C 130.631 158.913,130.608 159.057,130.339 159.280 C 129.906 159.640,129.422 159.260,129.628 158.722 C 129.796 158.284,130.095 158.267,130.434 158.677 M131.885 159.784 C 132.049 160.242,131.615 160.862,131.132 160.862 C 130.854 160.862,130.686 160.708,130.686 160.454 C 130.686 159.693,131.657 159.150,131.885 159.784 M107.317 162.880 C 107.317 163.361,106.812 163.638,106.296 163.440 C 105.943 163.304,105.844 162.865,106.107 162.602 C 106.454 162.255,107.317 162.454,107.317 162.880 M126.693 162.767 C 126.466 163.361,126.821 163.585,127.993 163.585 C 129.042 163.585,129.124 163.545,129.057 163.074 C 128.966 162.431,126.924 162.166,126.693 162.767 M137.190 162.734 C 137.288 162.890,137.339 163.196,137.303 163.415 C 137.256 163.701,137.390 163.812,137.781 163.812 C 138.100 163.812,138.577 164.094,138.932 164.492 C 139.409 165.028,139.726 165.173,140.420 165.173 C 141.356 165.173,141.577 165.418,141.577 166.457 C 141.577 167.249,139.768 169.048,139.138 168.884 C 138.587 168.740,138.264 169.159,138.607 169.573 C 139.199 170.286,138.193 170.601,135.101 170.668 L 132.161 170.732 132.093 171.909 C 132.033 172.942,132.089 173.119,132.547 173.361 C 133.218 173.715,133.402 174.003,133.402 174.702 C 133.402 175.563,133.164 175.778,132.023 175.949 C 130.742 176.141,130.518 175.804,131.146 174.632 C 131.507 173.959,131.525 173.793,131.260 173.573 C 131.087 173.430,130.791 172.857,130.601 172.300 C 130.411 171.743,130.047 171.021,129.790 170.695 C 129.082 169.794,129.129 167.954,129.865 167.769 C 130.832 167.526,131.681 167.750,131.965 168.323 C 132.384 169.167,132.678 169.250,135.281 169.253 C 139.065 169.259,138.544 168.636,134.657 168.509 L 132.615 168.443 134.931 168.396 C 136.721 168.360,137.315 168.268,137.541 167.993 C 137.702 167.797,138.000 167.451,138.204 167.225 C 138.414 166.992,138.499 166.693,138.400 166.534 C 138.276 166.333,138.045 166.455,137.595 166.961 L 136.964 167.669 134.506 167.669 L 132.048 167.669 132.048 165.740 C 132.048 163.660,132.832 162.861,133.402 164.359 C 133.638 164.981,134.468 165.339,134.832 164.976 C 135.004 164.803,134.916 164.674,134.529 164.531 L 133.984 164.330 134.494 164.168 C 135.133 163.965,134.931 163.585,134.183 163.585 C 133.540 163.585,133.186 162.957,133.660 162.658 C 134.157 162.343,136.983 162.404,137.190 162.734 M108.678 165.601 C 108.678 167.241,108.724 167.419,109.226 167.748 C 109.527 167.946,109.838 168.402,109.917 168.761 C 110.520 171.508,115.160 172.990,116.835 170.972 C 116.997 170.777,117.273 170.618,117.449 170.618 C 117.624 170.618,118.120 170.471,118.550 170.292 L 119.332 169.965 118.827 169.354 C 118.549 169.018,117.989 168.384,117.584 167.944 C 117.178 167.505,116.846 167.008,116.846 166.840 C 116.846 166.672,116.696 166.534,116.513 166.534 C 116.329 166.534,115.953 166.228,115.676 165.854 C 115.015 164.960,114.519 164.994,113.994 165.967 C 113.374 167.120,112.762 166.742,112.762 165.206 C 112.762 163.880,112.656 163.812,110.583 163.812 L 108.678 163.812 108.678 165.601 M106.747 164.724 C 106.620 164.929,106.536 164.923,106.396 164.698 C 106.157 164.311,106.392 163.930,106.688 164.226 C 106.812 164.351,106.839 164.575,106.747 164.724 M111.354 167.056 C 111.274 169.007,110.756 169.441,110.305 167.935 C 109.750 166.080,110.092 164.715,110.992 165.197 C 111.361 165.395,111.411 165.650,111.354 167.056 M115.213 166.807 C 115.579 167.173,115.559 168.686,115.185 168.997 C 114.748 169.359,114.351 168.875,114.351 167.982 C 114.351 166.690,114.666 166.260,115.213 166.807 M142.597 168.120 C 142.791 168.730,142.567 169.030,141.917 169.030 C 141.620 169.030,141.313 169.134,141.234 169.261 C 141.026 169.598,140.669 169.301,140.669 168.790 C 140.669 168.512,140.939 168.233,141.407 168.028 C 142.394 167.597,142.432 167.600,142.597 168.120 M101.218 170.383 C 102.187 171.309,102.020 171.708,100.737 171.533 C 100.237 171.465,99.376 170.598,99.376 170.163 C 99.376 169.282,100.165 169.376,101.218 170.383 M130.571 176.554 C 130.969 176.924,130.260 177.138,128.108 177.297 C 125.236 177.509,125.242 177.506,125.238 178.631 C 125.228 181.242,124.022 180.564,123.927 177.895 L 123.861 176.031 127.103 176.187 C 128.887 176.274,130.447 176.438,130.571 176.554 M134.414 176.420 C 134.669 176.676,134.770 177.222,134.770 178.353 C 134.770 179.796,134.816 179.951,135.313 180.177 C 135.611 180.313,135.985 180.668,136.145 180.967 C 136.428 181.495,136.510 181.509,139.330 181.509 C 142.485 181.509,142.938 181.670,142.938 182.788 C 142.938 184.094,141.982 184.729,141.585 183.686 C 141.317 182.980,140.898 182.729,140.647 183.125 C 140.290 183.689,140.424 184.197,140.951 184.272 C 141.721 184.382,141.721 185.077,140.950 185.520 C 140.586 185.729,140.196 186.111,140.082 186.370 C 139.895 186.795,139.652 186.847,137.560 186.905 C 135.282 186.969,135.236 186.981,134.765 187.643 L 134.286 188.315 130.582 188.315 C 126.220 188.315,126.602 188.644,126.602 184.895 L 126.602 182.193 125.922 181.586 C 124.569 180.382,124.897 180.147,127.932 180.147 C 130.348 180.147,130.702 180.095,131.392 179.635 C 131.815 179.353,132.442 178.998,132.785 178.846 C 133.327 178.605,133.409 178.440,133.409 177.589 C 133.409 177.049,133.531 176.486,133.681 176.336 C 134.020 175.997,133.987 175.993,134.414 176.420 M132.955 177.392 L 132.955 178.266 131.380 178.526 C 129.264 178.875,128.302 178.854,127.966 178.449 C 127.614 178.024,127.823 177.945,129.623 177.818 C 130.677 177.744,131.065 177.604,131.547 177.121 C 132.449 176.219,132.955 176.316,132.955 177.392 M144.526 183.562 C 144.526 183.844,143.783 184.033,143.558 183.808 C 143.095 183.345,143.612 182.566,144.093 183.002 C 144.331 183.218,144.526 183.470,144.526 183.562 M138.514 184.639 C 137.837 184.774,137.685 185.007,138.003 185.422 C 138.255 185.752,138.371 185.759,139.024 185.478 C 140.148 184.995,139.778 184.387,138.514 184.639 " stroke="none" fill="#cb2939" fill-rule="evenodd"></path><path id="path1" d="M139.216 128.315 C 139.017 128.514,138.854 129.009,138.854 129.415 C 138.854 130.181,137.228 132.275,136.633 132.275 C 136.142 132.275,136.341 132.709,137.266 133.663 C 138.312 134.741,138.854 134.609,138.854 133.276 C 138.854 132.516,140.496 130.459,141.103 130.459 C 141.607 130.459,141.324 129.752,140.464 128.866 C 139.653 128.031,139.547 127.984,139.216 128.315 M133.678 129.601 C 133.523 129.755,133.409 130.527,133.409 131.419 C 133.409 133.311,133.816 133.662,134.698 132.535 C 135.005 132.142,135.403 131.821,135.581 131.821 C 136.127 131.821,135.948 131.420,134.926 130.353 C 134.171 129.566,133.885 129.393,133.678 129.601 M144.794 129.602 C 144.207 130.189,144.485 131.326,145.451 132.292 C 146.539 133.380,147.022 133.335,147.022 132.145 C 147.022 131.127,145.270 129.126,144.794 129.602 M129.476 131.064 C 129.393 131.148,129.325 132.513,129.325 134.100 C 129.325 137.540,129.307 137.568,127.184 137.459 C 125.492 137.372,124.678 137.821,125.159 138.575 C 125.365 138.899,125.683 138.954,126.973 138.890 C 129.116 138.784,129.787 139.366,128.600 140.298 C 127.617 141.069,127.903 141.657,129.309 141.761 C 130.532 141.851,130.913 142.633,130.913 145.051 C 130.913 146.427,130.993 146.797,131.359 147.128 C 131.604 147.350,131.961 148.069,132.152 148.725 C 132.393 149.555,132.637 149.954,132.954 150.037 C 133.251 150.115,133.409 150.346,133.409 150.704 C 133.409 151.005,133.664 151.473,133.976 151.744 C 134.288 152.016,134.543 152.340,134.543 152.466 C 134.543 152.800,135.522 152.745,136.017 152.383 C 136.438 152.075,134.693 149.518,134.062 149.518 C 133.952 149.518,133.863 149.101,133.863 148.592 C 133.863 147.726,133.806 147.644,132.973 147.317 C 131.927 146.906,131.670 145.895,132.011 143.543 C 132.210 142.179,132.102 141.884,131.227 141.394 C 130.707 141.103,130.471 139.697,130.465 136.854 C 130.459 134.077,130.624 133.508,131.531 133.163 L 132.121 132.938 131.120 131.930 C 130.143 130.946,129.784 130.757,129.476 131.064 M141.905 131.160 C 141.691 131.505,142.155 131.909,142.579 131.746 C 142.783 131.668,142.874 131.464,142.797 131.262 C 142.642 130.859,142.128 130.800,141.905 131.160 M143.255 132.593 C 143.054 133.119,143.258 134.388,143.561 134.488 C 143.930 134.609,144.361 133.458,144.194 132.794 C 144.050 132.221,143.448 132.092,143.255 132.593 M132.288 133.733 C 132.107 133.951,132.130 134.103,132.375 134.306 C 132.750 134.617,133.182 134.446,133.182 133.987 C 133.182 133.554,132.579 133.382,132.288 133.733 M147.533 133.572 C 146.902 133.798,147.161 138.514,147.821 138.815 C 148.135 138.958,148.490 139.332,148.609 139.646 C 148.900 140.411,149.058 140.373,150.190 139.264 C 151.333 138.143,151.232 137.649,149.838 137.533 C 148.546 137.425,148.383 137.192,148.383 135.451 C 148.383 133.921,148.129 133.358,147.533 133.572 M134.992 138.529 C 134.870 138.849,134.770 139.910,134.770 140.887 C 134.770 142.961,134.843 143.029,136.816 142.806 C 138.267 142.642,139.081 142.932,139.081 143.612 C 139.081 143.849,139.188 144.323,139.318 144.665 L 139.554 145.288 140.169 144.422 C 140.534 143.906,141.180 143.385,141.766 143.134 C 143.104 142.559,142.895 142.159,141.219 142.086 C 139.351 142.004,138.906 141.872,138.740 141.347 C 138.660 141.096,138.296 140.737,137.931 140.548 C 137.224 140.182,137.037 139.400,137.538 138.900 C 137.993 138.445,143.975 138.527,144.347 138.993 C 144.508 139.195,144.972 139.673,145.377 140.056 C 146.841 141.440,146.241 143.392,144.352 143.392 C 143.175 143.392,142.951 143.724,143.825 144.175 C 144.603 144.578,145.026 145.987,144.712 147.134 C 144.425 148.183,144.492 149.434,144.851 149.732 C 145.249 150.062,145.661 149.430,145.661 148.487 C 145.661 148.042,146.024 147.530,147.022 146.568 C 148.538 145.108,148.641 144.840,147.810 144.524 C 147.078 144.246,146.861 143.682,147.314 143.230 C 147.766 142.778,148.330 142.994,148.608 143.726 C 148.904 144.504,149.137 144.453,150.216 143.374 C 151.330 142.260,151.263 141.804,149.986 141.804 C 149.240 141.804,148.988 141.682,148.574 141.123 C 148.298 140.749,147.933 140.442,147.763 140.442 C 147.593 140.442,147.281 140.137,147.068 139.763 C 146.856 139.390,146.557 139.083,146.403 139.083 C 146.250 139.082,145.958 138.826,145.753 138.514 L 145.382 137.947 140.297 137.947 L 135.213 137.947 134.992 138.529 M121.308 146.946 C 120.893 147.362,121.150 152.467,121.587 152.467 C 122.073 152.467,122.292 152.045,122.292 151.108 C 122.292 150.673,122.511 150.281,122.972 149.893 C 123.802 149.195,123.802 149.195,123.030 148.055 C 122.198 146.828,121.729 146.526,121.308 146.946 M127.056 149.124 C 127.056 149.281,127.286 149.511,127.567 149.634 C 127.983 149.817,128.098 150.089,128.191 151.106 C 128.302 152.332,128.318 152.355,129.070 152.427 C 130.239 152.539,130.460 152.129,129.636 151.376 C 129.165 150.946,128.895 150.440,128.791 149.791 C 128.639 148.836,127.056 148.228,127.056 149.124 M118.562 153.132 C 118.036 153.713,118.378 153.890,119.827 153.786 C 120.642 153.728,120.817 153.635,120.817 153.261 C 120.817 152.585,119.144 152.490,118.562 153.132 M133.732 153.857 C 133.645 153.998,133.576 154.534,133.579 155.048 C 133.585 156.098,133.241 156.605,132.241 157.019 C 131.693 157.246,131.589 157.395,131.711 157.777 C 131.795 158.039,131.916 158.534,131.981 158.877 C 132.112 159.571,132.557 159.687,133.003 159.145 C 133.164 158.949,133.486 158.617,133.718 158.407 C 134.190 157.981,134.517 157.641,134.949 157.126 C 135.122 156.921,135.612 156.778,136.145 156.778 C 136.896 156.778,137.094 156.679,137.315 156.194 C 137.461 155.873,137.868 155.462,138.218 155.281 C 138.925 154.915,139.007 154.578,138.543 153.944 C 138.250 153.543,138.202 153.565,137.692 154.352 C 136.892 155.587,135.150 155.612,134.642 154.396 C 134.302 153.581,134.009 153.408,133.732 153.857 M117.245 154.420 C 117.088 154.611,116.770 154.940,116.537 155.149 C 115.598 155.996,115.509 156.124,115.632 156.444 C 115.723 156.681,116.116 156.778,116.984 156.778 L 118.208 156.778 118.208 155.555 C 118.208 154.244,117.791 153.753,117.245 154.420 M100.152 157.756 C 99.507 158.422,99.182 158.985,99.080 159.615 C 98.983 160.210,98.737 160.663,98.360 160.937 C 97.442 161.606,97.514 163.488,98.466 163.698 C 99.403 163.903,99.485 164.150,98.920 165.064 C 98.278 166.102,98.073 166.061,97.764 164.833 C 97.364 163.243,96.200 163.528,96.200 165.215 C 96.200 165.983,96.284 166.110,96.994 166.406 C 97.893 166.782,97.940 167.007,97.353 168.109 L 96.937 168.890 96.568 168.177 C 96.366 167.785,96.200 167.255,96.200 166.999 C 96.200 166.477,95.554 166.363,95.111 166.807 C 94.635 167.282,94.764 169.800,95.288 170.274 C 96.027 170.943,98.126 170.592,99.050 169.646 C 99.443 169.245,100.212 168.490,100.761 167.968 C 101.310 167.447,101.890 166.860,102.051 166.664 C 102.800 165.751,104.594 166.459,104.594 167.666 C 104.594 168.820,104.790 169.030,105.861 169.030 C 106.695 169.030,106.916 169.129,107.250 169.654 C 107.783 170.492,107.983 170.611,108.864 170.615 C 109.486 170.618,109.840 170.853,110.912 171.980 L 112.207 173.341 114.180 173.341 C 116.108 173.341,116.163 173.326,116.655 172.660 C 117.034 172.148,117.340 171.980,117.891 171.980 C 118.922 171.980,119.346 171.773,119.581 171.155 C 120.014 170.015,121.076 170.619,121.197 172.073 C 121.247 172.669,121.418 173.036,121.724 173.204 C 122.384 173.568,122.511 173.813,122.515 174.731 C 122.520 175.817,123.102 176.355,123.581 175.715 C 124.051 175.086,123.824 173.723,123.108 172.872 C 122.352 171.974,122.355 171.191,123.115 170.537 C 123.951 169.818,123.511 169.081,122.187 168.984 C 121.307 168.919,121.260 168.877,121.013 167.896 C 120.852 167.253,120.417 166.510,119.840 165.892 L 118.925 164.910 118.453 165.382 C 118.193 165.641,117.981 165.956,117.981 166.081 C 117.981 166.205,117.725 166.307,117.413 166.307 C 116.971 166.307,116.846 166.191,116.846 165.780 C 116.846 165.490,116.601 165.021,116.301 164.740 C 116.001 164.458,115.686 163.853,115.602 163.395 C 115.518 162.938,115.195 162.295,114.884 161.967 C 114.443 161.503,114.284 161.030,114.164 159.830 C 113.916 157.345,112.762 157.705,112.762 160.268 C 112.762 162.399,112.329 162.839,111.350 161.700 L 110.607 160.836 109.019 160.906 C 107.475 160.974,107.429 160.993,107.359 161.600 C 107.310 162.019,107.392 162.223,107.607 162.223 C 107.959 162.223,108.678 162.926,108.678 163.269 C 108.678 163.388,108.372 163.601,107.998 163.742 C 107.400 163.968,107.317 164.108,107.317 164.893 C 107.317 166.017,106.910 167.215,106.528 167.215 C 106.228 167.215,105.729 165.618,105.729 164.661 C 105.729 164.329,105.473 163.935,105.059 163.628 C 103.481 162.462,103.942 160.862,105.857 160.862 C 107.596 160.862,107.559 160.607,105.525 158.589 L 103.700 156.778 102.389 156.790 C 101.152 156.801,101.025 156.856,100.152 157.756 M114.471 157.144 C 114.031 157.584,114.030 157.891,114.467 158.059 C 114.860 158.210,115.485 157.770,115.485 157.342 C 115.485 156.886,114.852 156.763,114.471 157.144 M118.444 156.995 C 118.058 157.238,118.704 158.140,119.264 158.140 C 119.432 158.140,119.569 158.277,119.569 158.445 C 119.569 158.965,120.364 159.501,121.134 159.501 C 121.921 159.501,122.518 159.930,122.518 160.497 C 122.518 160.947,123.352 161.726,124.230 162.097 C 124.610 162.257,125.113 162.683,125.348 163.043 C 125.582 163.404,125.926 163.811,126.112 163.949 C 126.483 164.225,126.336 164.897,125.870 165.054 C 125.711 165.107,125.134 165.265,124.588 165.405 C 123.173 165.768,123.720 166.192,125.614 166.200 C 127.009 166.206,127.135 166.251,127.701 166.940 C 128.846 168.332,129.325 167.872,129.325 165.381 L 129.325 163.812 130.303 163.812 C 131.889 163.812,132.343 163.293,131.445 162.509 C 131.051 162.165,130.661 161.653,130.579 161.373 C 130.453 160.943,130.270 160.862,129.430 160.862 C 128.592 160.862,128.353 160.757,127.946 160.206 C 127.514 159.622,127.299 159.540,125.969 159.456 C 125.133 159.402,124.438 159.247,124.390 159.102 C 124.031 158.027,123.408 157.686,121.800 157.686 C 120.551 157.686,120.083 157.588,119.631 157.232 C 118.978 156.719,118.904 156.704,118.444 156.995 M130.959 159.773 C 130.809 159.923,130.686 160.229,130.686 160.454 C 130.686 160.988,131.509 160.996,131.782 160.465 C 132.183 159.687,131.564 159.167,130.959 159.773 M106.107 162.602 C 105.635 163.073,106.289 163.704,106.977 163.440 C 107.543 163.222,107.396 162.450,106.788 162.450 C 106.497 162.450,106.190 162.518,106.107 162.602 M129.057 163.074 C 129.124 163.545,129.042 163.585,127.993 163.585 C 126.821 163.585,126.466 163.361,126.693 162.767 C 126.924 162.166,128.966 162.431,129.057 163.074 M133.660 162.658 C 132.747 163.235,133.608 163.650,135.386 163.489 C 137.377 163.308,137.618 163.215,137.249 162.770 C 136.948 162.407,134.192 162.321,133.660 162.658 M112.625 164.171 C 112.700 164.368,112.762 164.834,112.762 165.206 C 112.762 166.742,113.374 167.120,113.994 165.967 C 114.519 164.994,115.015 164.960,115.676 165.854 C 115.953 166.228,116.329 166.534,116.513 166.534 C 116.696 166.534,116.846 166.672,116.846 166.840 C 116.846 167.008,117.178 167.505,117.584 167.944 C 117.989 168.384,118.549 169.018,118.827 169.354 L 119.332 169.965 118.550 170.292 C 118.120 170.471,117.624 170.618,117.449 170.618 C 117.273 170.618,116.997 170.777,116.835 170.972 C 115.160 172.990,110.520 171.508,109.917 168.761 C 109.838 168.402,109.527 167.946,109.226 167.748 C 108.724 167.419,108.678 167.241,108.678 165.601 L 108.678 163.812 110.583 163.812 C 112.110 163.812,112.514 163.883,112.625 164.171 M132.048 165.740 L 132.048 167.669 134.506 167.669 C 136.961 167.669,136.965 167.668,137.582 166.976 C 138.368 166.093,139.918 166.070,140.347 166.935 C 140.487 167.218,140.666 167.514,140.743 167.592 C 141.018 167.866,141.577 167.152,141.577 166.525 C 141.577 165.414,141.370 165.173,140.420 165.173 C 139.726 165.173,139.409 165.028,138.932 164.492 C 138.250 163.727,137.720 163.608,137.720 164.220 C 137.720 165.524,133.888 165.638,133.397 164.348 C 132.832 162.860,132.048 163.669,132.048 165.740 M129.609 167.814 C 129.129 168.016,129.255 170.015,129.790 170.695 C 130.047 171.021,130.411 171.743,130.601 172.300 C 130.791 172.857,131.087 173.430,131.260 173.573 C 131.525 173.793,131.507 173.959,131.146 174.632 C 130.518 175.804,130.742 176.141,132.023 175.949 C 133.164 175.778,133.402 175.563,133.402 174.702 C 133.402 174.003,133.218 173.715,132.547 173.361 C 132.089 173.119,132.033 172.942,132.093 171.909 L 132.161 170.732 135.101 170.668 C 140.081 170.560,140.416 169.260,135.464 169.253 C 132.675 169.250,132.387 169.173,131.965 168.323 C 131.699 167.787,130.359 167.497,129.609 167.814 M139.182 168.369 C 139.098 168.505,139.139 168.725,139.273 168.859 C 139.556 169.142,140.292 168.657,140.086 168.324 C 139.914 168.044,139.366 168.072,139.182 168.369 M123.927 177.895 C 124.022 180.564,125.228 181.242,125.238 178.631 C 125.242 177.506,125.236 177.509,128.108 177.297 C 132.117 177.000,131.577 176.404,127.103 176.187 L 123.861 176.031 123.927 177.895 M133.681 176.336 C 133.531 176.486,133.409 177.049,133.409 177.589 C 133.409 178.440,133.327 178.605,132.785 178.846 C 132.442 178.998,131.815 179.353,131.392 179.635 C 130.702 180.095,130.348 180.147,127.932 180.147 C 124.897 180.147,124.569 180.382,125.922 181.586 L 126.602 182.193 126.602 184.895 C 126.602 188.644,126.220 188.315,130.582 188.315 L 134.286 188.315 134.765 187.643 C 135.236 186.981,135.282 186.969,137.560 186.905 C 139.652 186.847,139.895 186.795,140.082 186.370 C 140.196 186.111,140.586 185.729,140.950 185.520 C 141.727 185.074,141.719 184.382,140.937 184.271 C 140.271 184.176,140.052 183.618,140.503 183.166 C 140.918 182.752,141.300 182.935,141.585 183.686 C 141.982 184.729,142.938 184.094,142.938 182.788 C 142.938 181.670,142.485 181.509,139.330 181.509 C 136.510 181.509,136.428 181.495,136.145 180.967 C 135.985 180.668,135.611 180.313,135.313 180.177 C 134.816 179.951,134.770 179.796,134.770 178.353 C 134.770 177.222,134.669 176.676,134.414 176.420 C 133.987 175.993,134.020 175.997,133.681 176.336 M139.148 184.515 C 139.945 184.885,139.920 185.094,139.036 185.466 C 138.079 185.868,137.127 185.368,137.505 184.662 C 137.773 184.162,138.288 184.116,139.148 184.515 " stroke="none" fill="#0a114c" fill-rule="evenodd"></path><path id="path2" d="M148.789 107.456 C 148.629 107.657,148.165 108.136,147.760 108.519 C 146.899 109.332,146.646 111.975,147.370 112.583 C 148.363 113.417,148.405 113.484,148.137 113.807 C 147.946 114.037,147.277 114.125,145.690 114.127 L 143.505 114.131 141.180 116.485 L 138.854 118.838 138.854 120.444 C 138.854 121.967,138.890 122.078,139.535 122.554 C 140.080 122.957,140.216 123.226,140.216 123.906 C 140.216 124.716,140.571 125.322,141.160 125.518 C 141.715 125.703,141.146 126.375,140.435 126.375 C 139.642 126.375,138.854 126.727,138.854 127.080 C 138.854 127.210,139.015 127.155,139.211 126.959 C 139.425 126.745,139.959 126.602,140.548 126.602 C 141.871 126.602,142.112 126.040,141.139 125.225 C 140.596 124.769,140.442 124.459,140.442 123.813 C 140.442 123.157,140.302 122.882,139.762 122.483 C 138.866 121.820,138.697 118.719,139.544 118.498 C 139.799 118.431,140.159 118.083,140.344 117.725 C 140.529 117.366,140.829 117.073,141.010 117.073 C 141.190 117.073,141.493 116.774,141.682 116.409 C 141.871 116.043,142.215 115.684,142.447 115.610 C 142.679 115.536,142.985 115.223,143.126 114.913 C 143.396 114.320,146.184 114.091,147.362 114.565 C 148.604 115.064,149.072 113.576,147.930 112.762 C 146.217 111.543,147.765 107.317,149.924 107.317 C 151.319 107.317,151.273 107.869,149.758 109.311 C 148.273 110.724,148.176 111.130,149.211 111.602 C 149.755 111.850,149.779 111.934,149.653 113.164 C 149.482 114.829,149.482 115.145,149.651 116.445 C 149.880 118.214,148.410 119.522,146.086 119.615 L 144.413 119.682 144.345 120.850 C 144.283 121.928,144.331 122.056,144.969 122.511 C 145.621 122.975,145.661 123.089,145.661 124.510 L 145.661 126.017 147.022 127.301 C 148.197 128.408,148.383 128.696,148.383 129.402 C 148.383 130.047,148.527 130.325,149.064 130.722 C 149.605 131.122,149.745 131.396,149.745 132.055 C 149.745 133.095,150.254 133.579,151.446 133.676 L 152.354 133.749 152.354 134.770 C 152.354 135.609,152.264 135.831,151.848 136.013 C 151.569 136.136,151.286 136.380,151.219 136.556 C 150.987 137.160,151.294 137.076,151.994 136.343 C 153.313 134.964,152.784 133.182,151.056 133.182 C 150.185 133.182,149.972 132.917,149.972 131.840 C 149.972 131.432,149.736 131.005,149.291 130.609 C 148.785 130.158,148.610 129.803,148.610 129.225 C 148.610 128.571,148.392 128.236,147.249 127.132 L 145.888 125.818 145.886 124.338 C 145.884 122.967,145.834 122.819,145.205 122.323 C 144.740 121.955,144.526 121.586,144.526 121.150 C 144.526 119.903,144.673 119.796,146.384 119.796 C 147.952 119.796,147.974 119.787,148.969 118.793 L 149.972 117.790 149.974 114.879 L 149.976 111.968 149.250 111.371 L 148.524 110.775 149.928 109.458 C 150.701 108.734,151.333 108.066,151.333 107.973 C 151.333 107.177,149.337 106.772,148.789 107.456 M140.711 108.615 C 140.547 108.676,140.320 108.971,140.206 109.269 C 140.031 109.731,139.847 109.813,138.985 109.813 C 138.091 109.813,137.897 109.908,137.364 110.607 C 136.785 111.366,136.696 111.401,135.330 111.401 L 133.902 111.401 130.819 114.457 L 127.737 117.513 127.737 120.393 L 127.737 123.273 129.098 124.560 C 130.219 125.621,130.459 125.978,130.459 126.586 C 130.459 127.117,130.645 127.487,131.120 127.904 C 131.962 128.642,131.800 129.098,130.697 129.098 C 129.902 129.098,129.098 129.614,129.098 130.123 C 129.098 130.230,129.306 130.095,129.561 129.822 C 129.830 129.533,130.297 129.325,130.677 129.325 C 132.187 129.325,132.504 128.613,131.367 127.773 C 130.834 127.379,130.686 127.095,130.686 126.468 C 130.686 125.786,130.483 125.471,129.325 124.351 L 127.964 123.036 127.964 120.367 L 127.964 117.697 129.105 116.591 C 129.733 115.983,130.346 115.485,130.467 115.485 C 130.587 115.485,130.686 115.369,130.686 115.227 C 130.686 115.085,131.443 114.217,132.368 113.299 L 134.049 111.628 135.537 111.628 C 136.928 111.628,137.059 111.583,137.529 110.947 C 137.951 110.377,138.188 110.267,138.997 110.267 C 140.232 110.267,140.406 110.566,139.541 111.205 C 138.988 111.615,138.854 111.879,138.854 112.569 C 138.854 113.072,138.707 113.546,138.498 113.718 C 138.302 113.879,137.970 114.201,137.761 114.435 C 137.551 114.669,137.247 114.975,137.085 115.116 C 135.974 116.081,135.905 116.237,135.905 117.789 C 135.905 119.152,135.847 119.356,135.394 119.595 C 134.148 120.251,134.406 122.745,135.721 122.745 C 135.822 122.745,135.905 123.516,135.905 124.458 C 135.905 126.100,135.931 126.185,136.549 126.539 C 136.903 126.743,137.286 127.120,137.400 127.378 C 137.513 127.636,137.806 127.885,138.051 127.931 C 138.358 127.989,138.165 127.695,137.427 126.977 C 136.370 125.950,136.358 125.923,136.358 124.467 C 136.358 123.052,136.328 122.972,135.564 122.390 C 134.943 121.916,134.770 121.623,134.770 121.044 C 134.770 120.464,134.943 120.172,135.564 119.698 C 136.329 119.115,136.358 119.037,136.358 117.614 L 136.358 116.135 137.720 114.840 C 138.883 113.733,139.081 113.427,139.081 112.742 C 139.081 112.114,139.229 111.831,139.762 111.437 C 140.136 111.160,140.442 110.784,140.442 110.600 C 140.442 110.417,140.580 110.267,140.748 110.267 C 141.468 110.267,141.930 109.382,141.449 108.924 C 141.207 108.693,140.875 108.554,140.711 108.615 M141.350 109.359 C 141.350 109.662,141.199 109.813,140.896 109.813 C 140.459 109.813,140.281 109.369,140.594 109.057 C 140.906 108.744,141.350 108.922,141.350 109.359 M119.966 110.129 C 119.407 110.553,119.473 111.140,120.111 111.431 C 120.409 111.567,120.784 111.922,120.944 112.220 C 121.103 112.518,121.311 112.762,121.406 112.762 C 122.907 112.762,122.505 114.554,120.572 116.488 L 118.852 118.208 116.777 118.208 L 114.703 118.208 113.408 119.569 L 112.112 120.930 110.624 120.930 C 109.257 120.930,109.086 120.986,108.531 121.609 C 108.064 122.133,107.857 122.230,107.622 122.035 C 107.125 121.623,107.281 119.796,107.813 119.796 C 108.098 119.796,110.040 117.857,110.040 117.573 C 110.040 116.797,108.806 116.766,108.562 117.536 C 108.488 117.768,108.228 118.021,107.984 118.099 C 107.739 118.176,107.384 118.539,107.195 118.904 C 107.006 119.270,106.747 119.569,106.620 119.569 C 106.352 119.569,97.334 128.621,97.334 128.889 C 97.334 128.987,97.124 129.134,96.866 129.216 C 96.609 129.298,96.292 129.600,96.161 129.887 C 96.030 130.174,95.680 130.539,95.384 130.698 C 95.088 130.856,94.791 131.158,94.724 131.369 C 94.657 131.580,94.349 131.867,94.040 132.008 C 93.581 132.218,93.477 132.428,93.477 133.149 C 93.477 134.047,93.017 134.707,92.579 134.436 C 92.435 134.347,92.343 133.159,92.343 131.389 C 92.343 128.082,92.058 127.371,91.025 128.095 C 90.536 128.438,90.528 128.535,90.528 134.067 C 90.528 140.368,90.546 140.442,92.145 140.442 C 93.263 140.442,93.477 140.771,93.477 142.484 C 93.477 144.184,93.693 144.526,94.765 144.526 C 95.913 144.526,105.729 154.355,105.729 155.505 C 105.729 155.925,105.583 156.390,105.404 156.539 C 105.125 156.770,105.141 156.871,105.517 157.247 C 106.045 157.775,106.183 157.795,106.183 157.345 C 106.183 157.158,106.325 157.005,106.499 157.005 C 106.956 157.005,107.131 157.640,106.735 157.862 C 106.456 158.018,106.497 158.142,106.971 158.588 C 107.397 158.988,107.544 159.038,107.544 158.783 C 107.544 158.594,107.799 158.323,108.111 158.181 C 108.636 157.942,108.678 157.807,108.678 156.357 C 108.678 154.198,109.019 153.942,110.251 155.175 C 111.154 156.078,111.174 156.132,111.174 157.681 C 111.174 159.500,111.031 159.615,108.935 159.467 C 108.318 159.423,107.861 159.464,107.919 159.558 C 108.077 159.813,110.459 159.762,110.962 159.493 C 111.336 159.293,111.401 159.007,111.401 157.556 L 111.401 155.854 110.351 154.833 C 108.937 153.459,108.452 153.784,108.452 156.105 C 108.452 157.710,108.115 158.392,107.584 157.862 C 107.437 157.715,107.316 157.488,107.316 157.357 C 107.315 157.226,107.014 156.948,106.648 156.740 C 106.077 156.415,105.972 156.205,105.912 155.265 C 105.857 154.392,105.741 154.125,105.344 153.950 C 105.070 153.830,104.722 153.500,104.571 153.217 C 104.419 152.934,104.123 152.647,103.914 152.581 C 103.704 152.514,103.403 152.218,103.245 151.921 C 103.086 151.625,102.712 151.272,102.414 151.136 C 102.116 151.000,101.872 150.739,101.872 150.557 C 101.872 150.374,101.566 150.043,101.191 149.822 C 100.817 149.601,100.510 149.292,100.510 149.134 C 100.510 148.977,100.204 148.690,99.830 148.497 C 99.455 148.303,99.149 148.038,99.149 147.908 C 99.149 147.602,98.691 147.151,98.185 146.960 C 97.967 146.877,97.788 146.697,97.788 146.559 C 97.788 146.242,97.215 145.661,96.902 145.661 C 96.772 145.661,96.510 145.360,96.320 144.993 C 96.021 144.415,95.827 144.315,94.896 144.255 L 93.817 144.186 93.704 142.419 C 93.582 140.520,93.394 140.225,92.304 140.219 C 90.926 140.211,90.981 140.464,90.981 134.192 C 90.981 128.402,91.062 127.825,91.785 128.426 C 92.043 128.640,92.116 129.339,92.116 131.614 C 92.116 134.230,92.159 134.551,92.541 134.755 C 93.117 135.063,93.704 134.405,93.704 133.453 C 93.704 132.668,106.391 119.617,106.867 119.912 C 106.990 119.987,107.090 120.408,107.090 120.845 C 107.090 122.510,107.858 122.990,108.678 121.838 C 109.142 121.187,109.236 121.157,110.841 121.157 C 112.308 121.157,112.551 121.098,112.772 120.686 C 112.910 120.427,113.424 119.815,113.914 119.325 L 114.804 118.434 117.024 118.434 L 119.244 118.434 119.646 117.754 C 119.867 117.379,120.152 117.073,120.279 117.073 C 120.580 117.073,121.157 116.491,121.157 116.188 C 121.157 116.057,121.463 115.792,121.838 115.598 C 123.091 114.950,122.837 113.670,121.134 112.060 C 119.602 110.611,119.580 110.267,121.019 110.267 C 121.808 110.267,122.042 110.367,122.278 110.809 C 122.438 111.107,122.803 111.458,123.091 111.589 C 123.378 111.720,123.675 112.022,123.751 112.260 C 123.827 112.499,124.142 112.809,124.451 112.950 C 124.761 113.091,125.014 113.356,125.014 113.539 C 125.014 113.722,125.320 114.052,125.695 114.273 L 126.375 114.675 126.375 119.682 L 126.375 124.689 125.695 125.092 C 125.036 125.480,125.014 125.548,125.014 127.167 C 125.014 128.767,125.044 128.861,125.695 129.325 C 126.245 129.717,126.375 129.973,126.375 130.667 C 126.375 132.190,127.017 132.456,128.053 131.363 C 128.524 130.866,128.802 130.459,128.670 130.459 C 128.539 130.459,128.205 130.766,127.928 131.140 C 127.132 132.216,126.602 131.943,126.602 130.457 C 126.602 129.853,126.481 129.668,125.589 128.919 C 124.890 128.331,125.117 125.814,125.922 125.241 L 126.602 124.756 126.602 119.776 L 126.602 114.796 124.123 112.304 C 121.527 109.696,120.940 109.389,119.966 110.129 M123.607 116.107 C 123.156 116.576,122.678 117.361,122.546 117.852 C 122.152 119.312,120.595 120.739,119.830 120.339 C 118.986 119.899,118.633 119.942,117.754 120.590 C 117.331 120.902,116.826 121.158,116.632 121.158 C 116.438 121.158,115.945 121.363,115.536 121.612 C 115.128 121.861,114.507 122.065,114.158 122.065 C 113.766 122.065,113.311 122.291,112.972 122.653 C 112.670 122.977,112.141 123.388,111.798 123.567 C 111.455 123.745,111.174 124.023,111.174 124.183 C 111.174 124.344,110.868 124.769,110.493 125.128 C 109.617 125.968,109.636 126.149,110.604 126.149 C 111.243 126.149,111.585 125.953,112.387 125.128 C 113.449 124.034,114.496 123.773,115.240 124.416 C 115.437 124.586,116.073 124.882,116.654 125.075 L 117.710 125.425 118.341 124.766 C 118.772 124.317,119.197 124.107,119.673 124.107 C 120.633 124.107,124.107 120.686,124.107 119.741 C 124.107 119.404,124.311 118.765,124.560 118.321 C 125.076 117.404,125.129 116.515,124.714 115.767 L 124.429 115.255 123.607 116.107 M133.430 115.853 C 133.085 116.294,132.650 116.543,132.087 116.619 C 131.398 116.713,131.188 116.876,130.864 117.566 C 130.648 118.025,130.265 118.466,130.012 118.546 C 129.496 118.710,129.322 120.761,129.798 121.056 C 130.096 121.239,131.594 119.842,131.594 119.381 C 131.594 119.202,131.940 118.728,132.364 118.329 C 132.788 117.929,133.171 117.411,133.216 117.178 C 133.261 116.944,133.545 116.694,133.847 116.623 C 134.523 116.463,134.643 116.162,134.245 115.617 C 133.957 115.223,133.913 115.236,133.430 115.853 M146.748 115.683 C 146.161 115.886,145.553 116.180,145.398 116.336 C 145.243 116.492,144.801 116.619,144.417 116.619 C 142.688 116.619,140.668 119.789,141.765 120.782 C 142.341 121.303,142.433 121.266,142.810 120.363 C 142.993 119.926,143.303 119.569,143.499 119.569 C 143.696 119.569,143.946 119.335,144.055 119.049 C 144.305 118.389,144.706 118.058,145.492 117.861 C 145.834 117.775,146.115 117.614,146.115 117.502 C 146.115 117.391,146.518 117.300,147.012 117.300 C 147.861 117.300,147.917 117.257,148.061 116.489 C 148.265 115.400,148.014 115.246,146.748 115.683 M109.740 117.436 C 109.918 117.901,109.359 118.263,108.967 117.938 C 108.745 117.754,108.736 117.617,108.930 117.383 C 109.272 116.972,109.569 116.991,109.740 117.436 M108.325 118.641 C 108.515 118.948,108.220 119.569,107.884 119.569 C 107.479 119.569,107.299 118.997,107.607 118.689 C 107.915 118.381,108.155 118.365,108.325 118.641 M104.890 124.364 C 104.735 125.150,104.589 125.370,104.177 125.429 C 103.592 125.513,103.340 125.963,103.559 126.533 C 103.777 127.102,105.559 125.226,105.559 124.428 C 105.559 123.340,105.100 123.296,104.890 124.364 M133.722 126.705 C 133.558 127.133,133.794 127.499,134.372 127.713 C 134.627 127.807,134.948 128.234,135.086 128.661 C 135.359 129.505,135.825 129.665,136.214 129.050 C 136.416 128.729,136.262 128.462,135.331 127.521 C 134.120 126.296,133.918 126.194,133.722 126.705 M100.519 129.595 C 100.250 129.884,100.057 130.400,100.057 130.830 C 100.057 131.413,99.925 131.632,99.433 131.868 L 98.809 132.166 98.695 135.340 C 98.582 138.524,98.256 139.478,98.003 137.371 C 97.700 134.854,95.973 135.536,95.973 138.172 L 95.973 139.725 100.057 143.846 C 103.358 147.177,104.141 148.085,104.141 148.589 C 104.141 149.136,104.926 150.199,105.330 150.199 C 106.188 150.199,106.566 146.196,105.868 144.497 C 105.696 144.077,105.605 143.400,105.667 142.994 C 105.772 142.315,105.712 142.227,104.922 141.897 C 103.700 141.387,102.099 139.680,102.099 138.888 C 102.099 138.485,101.854 138.024,101.418 137.606 C 100.630 136.851,100.453 134.844,101.069 133.652 C 102.264 131.343,102.268 129.098,101.078 129.098 C 101.025 129.098,100.774 129.322,100.519 129.595 M140.599 130.948 C 140.388 131.066,140.216 131.295,140.216 131.457 C 140.216 131.618,140.011 131.935,139.762 132.161 C 139.465 132.430,139.308 132.860,139.308 133.405 C 139.308 134.003,139.146 134.390,138.731 134.779 L 138.155 135.321 136.797 133.921 L 135.440 132.521 134.689 133.250 C 134.276 133.651,133.815 134.208,133.666 134.488 C 133.307 135.158,132.617 135.134,132.005 134.430 C 130.826 133.074,130.249 135.203,130.932 138.389 C 131.202 139.646,131.226 139.664,132.048 139.195 C 132.360 139.016,132.877 138.867,133.197 138.862 C 133.571 138.857,134.031 138.570,134.482 138.060 L 135.185 137.266 140.179 137.266 L 145.172 137.266 145.869 137.852 L 146.565 138.438 146.813 137.795 C 147.349 136.407,146.980 134.411,146.001 133.409 C 144.901 132.282,144.864 132.284,144.556 133.466 C 144.066 135.348,143.380 135.503,142.930 133.833 C 142.788 133.305,142.425 132.550,142.124 132.155 C 141.823 131.761,141.577 131.331,141.577 131.200 C 141.577 130.844,141.034 130.704,140.599 130.948 M96.530 133.474 C 96.020 134.066,95.944 134.348,96.208 134.667 C 96.605 135.145,97.503 135.075,97.788 134.543 C 98.271 133.641,97.183 132.716,96.530 133.474 M152.137 137.813 C 152.569 138.128,152.569 138.140,152.124 138.640 L 151.673 139.147 152.184 138.879 C 152.899 138.504,152.710 137.493,151.925 137.493 C 151.801 137.493,151.897 137.637,152.137 137.813 M151.106 139.577 C 151.106 139.865,151.577 140.318,152.070 140.505 C 152.588 140.701,152.616 142.303,152.111 142.809 C 151.915 143.005,151.843 143.165,151.952 143.165 C 153.002 143.165,152.967 141.064,151.900 140.088 C 151.463 139.688,151.106 139.458,151.106 139.577 M124.731 142.120 C 124.382 142.384,124.334 142.859,124.334 146.041 L 124.334 149.661 123.539 150.364 C 122.913 150.919,122.745 151.238,122.745 151.872 C 122.745 152.314,122.618 152.781,122.462 152.909 C 121.123 154.006,120.688 154.265,119.953 154.403 C 118.725 154.633,118.585 155.338,119.652 155.921 C 120.983 156.648,128.562 157.084,129.077 156.464 C 129.509 155.943,129.176 155.644,128.166 155.644 C 125.641 155.644,124.960 153.820,127.396 153.583 C 128.145 153.511,128.637 153.434,128.490 153.413 C 127.953 153.336,127.510 152.642,127.510 151.876 C 127.510 151.277,127.316 150.897,126.695 150.276 C 125.933 149.514,125.889 149.394,126.017 148.412 C 126.719 143.011,126.294 140.933,124.731 142.120 M135.372 143.584 C 134.758 143.833,135.321 144.207,136.543 144.363 C 137.414 144.473,138.088 144.112,137.691 143.748 C 137.479 143.554,135.748 143.431,135.372 143.584 M150.813 144.079 C 150.602 144.325,150.518 144.526,150.627 144.526 C 150.876 144.526,151.432 143.869,151.296 143.734 C 151.241 143.678,151.023 143.834,150.813 144.079 M132.501 145.094 C 132.501 146.299,132.760 146.723,133.044 145.983 C 133.339 145.214,133.122 143.846,132.704 143.846 C 132.593 143.846,132.501 144.407,132.501 145.094 M141.407 144.226 C 140.653 144.751,140.781 144.980,141.828 144.980 C 142.584 144.980,142.734 144.913,142.622 144.621 C 142.546 144.424,142.484 144.169,142.484 144.054 C 142.484 143.743,141.984 143.823,141.407 144.226 M149.421 145.463 C 149.181 145.697,149.092 145.888,149.224 145.888 C 149.485 145.888,150.090 145.244,149.947 145.117 C 149.898 145.074,149.662 145.230,149.421 145.463 M136.323 146.047 L 135.493 146.387 135.919 147.108 C 136.328 147.803,136.329 147.855,135.941 148.497 C 135.175 149.763,137.091 152.019,138.924 152.010 C 139.322 152.008,139.544 151.932,139.417 151.840 C 139.289 151.748,139.066 151.401,138.919 151.067 C 138.723 150.621,138.534 150.492,138.201 150.579 C 137.622 150.731,137.413 149.765,137.526 147.452 C 137.615 145.634,137.541 145.548,136.323 146.047 M148.060 146.825 C 147.820 147.058,147.731 147.249,147.862 147.249 C 148.124 147.249,148.729 146.605,148.586 146.479 C 148.537 146.435,148.300 146.591,148.060 146.825 M143.130 147.482 C 142.773 147.691,142.746 148.905,143.075 149.946 C 143.261 150.533,144.073 149.524,144.073 148.707 C 144.073 147.381,143.834 147.071,143.130 147.482 M147.060 148.366 C 147.039 148.793,146.853 149.329,146.647 149.557 C 146.440 149.785,146.377 149.972,146.505 149.972 C 146.975 149.972,147.276 149.303,147.188 148.456 L 147.098 147.589 147.060 148.366 M109.126 148.505 C 108.639 149.091,109.112 149.961,110.970 151.897 C 111.972 152.941,112.869 154.083,112.963 154.436 C 113.106 154.978,113.266 155.088,113.998 155.149 C 115.945 155.311,115.640 154.629,112.157 151.031 C 109.862 148.659,109.351 148.233,109.126 148.505 M131.271 150.481 C 131.106 151.514,131.153 151.628,131.666 151.431 C 132.252 151.206,132.347 150.498,131.857 150.008 C 131.421 149.572,131.416 149.577,131.271 150.481 M118.434 150.199 C 118.185 150.448,117.981 150.738,117.981 150.843 C 117.981 150.948,117.718 151.153,117.398 151.299 C 116.693 151.620,116.703 152.531,117.413 152.656 C 117.863 152.734,117.863 152.732,117.422 152.399 C 117.040 152.111,117.021 152.010,117.284 151.692 C 117.559 151.362,117.633 151.359,117.969 151.662 C 118.602 152.236,120.020 150.822,119.446 150.188 C 118.955 149.645,118.988 149.645,118.434 150.199 M119.342 150.652 C 119.342 150.902,119.195 151.106,119.015 151.106 C 118.614 151.106,118.358 150.733,118.548 150.425 C 118.795 150.026,119.342 150.183,119.342 150.652 M142.484 150.425 C 142.484 150.550,142.370 150.627,142.229 150.596 C 142.089 150.564,141.927 150.666,141.870 150.822 C 141.808 150.992,141.956 151.106,142.239 151.106 C 142.560 151.106,142.711 150.961,142.711 150.652 C 142.711 150.403,142.660 150.199,142.598 150.199 C 142.535 150.199,142.484 150.301,142.484 150.425 M145.532 150.725 C 145.455 150.925,145.214 151.145,144.996 151.215 C 144.777 151.284,144.469 151.583,144.311 151.879 C 144.152 152.175,143.788 152.524,143.500 152.655 C 143.213 152.786,142.916 153.088,142.841 153.325 C 142.765 153.562,142.452 153.891,142.144 154.056 C 141.836 154.220,141.525 154.543,141.452 154.773 C 141.353 155.083,141.095 155.190,140.441 155.190 C 139.957 155.190,139.499 155.292,139.421 155.417 C 139.338 155.552,139.617 155.644,140.116 155.644 C 140.937 155.644,146.191 150.880,145.800 150.489 C 145.729 150.418,145.609 150.524,145.532 150.725 M131.149 154.158 C 130.650 154.760,130.961 155.298,131.850 155.372 C 132.738 155.446,133.085 155.049,132.832 154.251 C 132.668 153.735,131.551 153.674,131.149 154.158 M100.659 155.605 C 100.453 155.833,100.287 156.114,100.291 156.229 C 100.294 156.344,100.401 156.259,100.529 156.041 C 100.844 155.500,104.081 155.451,104.286 155.984 C 104.357 156.171,104.525 156.324,104.658 156.324 C 104.791 156.324,104.661 156.069,104.368 155.757 C 103.673 155.018,101.279 154.920,100.659 155.605 M138.400 156.439 C 138.107 156.750,137.972 157.005,138.099 157.005 C 138.389 157.005,139.193 156.134,139.043 155.984 C 138.982 155.922,138.692 156.127,138.400 156.439 M99.036 157.232 C 98.810 157.482,98.692 157.686,98.774 157.686 C 98.855 157.686,99.126 157.482,99.376 157.232 C 99.626 156.982,99.744 156.778,99.638 156.778 C 99.533 156.778,99.262 156.982,99.036 157.232 M137.165 157.672 C 136.944 157.916,136.392 158.154,135.937 158.203 L 135.111 158.290 136.040 158.328 C 136.905 158.364,138.026 157.690,137.679 157.343 C 137.617 157.280,137.385 157.429,137.165 157.672 M116.054 158.580 C 115.880 159.842,116.051 160.635,116.495 160.635 C 116.660 160.635,116.961 160.891,117.166 161.202 C 117.613 161.886,118.448 161.946,119.307 161.357 C 119.638 161.130,120.363 160.814,120.918 160.654 C 122.027 160.335,121.894 160.125,120.415 159.859 C 119.939 159.774,119.436 159.509,119.282 159.263 C 119.130 159.019,118.821 158.820,118.596 158.820 C 118.011 158.820,116.925 158.219,116.767 157.808 C 116.511 157.138,116.207 157.467,116.054 158.580 M97.843 158.423 C 97.556 158.780,97.362 160.408,97.607 160.408 C 97.706 160.408,97.788 160.005,97.788 159.512 C 97.788 158.898,97.913 158.543,98.185 158.385 C 98.403 158.257,98.467 158.150,98.326 158.146 C 98.185 158.143,97.968 158.267,97.843 158.423 M129.628 158.722 C 129.422 159.260,129.906 159.640,130.339 159.280 C 130.608 159.057,130.631 158.913,130.434 158.677 C 130.095 158.267,129.796 158.284,129.628 158.722 M133.522 160.635 C 133.853 161.001,134.221 161.089,135.412 161.089 C 136.498 161.089,137.008 161.194,137.337 161.486 C 137.772 161.873,137.776 161.869,137.470 161.373 C 137.196 160.925,136.969 160.862,135.639 160.862 C 134.593 160.862,134.016 160.757,133.782 160.522 C 133.273 160.013,133.048 160.111,133.522 160.635 M96.560 161.067 C 96.289 161.366,96.197 161.765,96.260 162.371 L 96.350 163.244 96.388 162.355 C 96.409 161.865,96.596 161.278,96.802 161.050 C 97.009 160.822,97.126 160.635,97.064 160.635 C 97.002 160.635,96.775 160.829,96.560 161.067 M105.057 162.280 L 105.066 163.244 105.391 162.647 C 105.569 162.319,105.878 161.988,106.077 161.912 C 106.585 161.717,106.266 161.316,105.602 161.316 C 105.100 161.316,105.049 161.407,105.057 162.280 M137.954 162.165 C 137.958 162.259,138.211 162.519,138.517 162.741 C 138.867 162.996,139.031 163.036,138.959 162.850 C 138.828 162.509,137.943 161.906,137.954 162.165 M122.428 162.746 C 121.849 163.169,122.378 163.548,123.665 163.632 C 124.545 163.690,124.683 163.637,124.742 163.217 C 124.847 162.485,123.234 162.156,122.428 162.746 M95.200 163.788 C 94.928 164.089,94.836 164.487,94.899 165.094 L 94.989 165.967 95.027 165.014 C 95.053 164.373,95.194 163.989,95.460 163.840 C 95.678 163.718,95.796 163.559,95.724 163.487 C 95.651 163.414,95.416 163.550,95.200 163.788 M140.773 163.754 C 142.684 163.851,142.938 164.035,142.938 165.314 C 142.938 165.860,143.037 166.307,143.158 166.307 C 143.279 166.307,143.887 166.801,144.510 167.405 C 145.834 168.687,145.732 169.030,144.027 169.030 C 143.081 169.030,142.938 169.091,142.938 169.494 C 142.938 169.766,142.671 170.112,142.294 170.328 C 141.940 170.532,141.557 170.910,141.443 171.169 C 141.248 171.613,141.032 171.643,137.580 171.701 C 134.271 171.758,133.885 171.806,133.517 172.212 C 133.047 172.732,133.276 172.826,133.782 172.320 C 134.055 172.047,134.815 171.980,137.638 171.980 L 141.154 171.980 142.443 170.632 C 143.526 169.500,143.874 169.273,144.617 169.214 C 146.170 169.090,146.158 168.593,144.565 167.043 C 143.534 166.041,143.165 165.521,143.165 165.072 C 143.165 163.776,142.865 163.581,140.945 163.629 L 139.195 163.674 140.773 163.754 M106.337 164.200 C 106.268 164.310,106.295 164.534,106.396 164.698 C 106.536 164.923,106.620 164.929,106.747 164.724 C 106.839 164.575,106.812 164.351,106.688 164.226 C 106.561 164.099,106.406 164.087,106.337 164.200 M134.354 164.237 C 134.128 164.381,134.185 164.465,134.581 164.571 C 135.399 164.790,135.780 164.748,136.258 164.386 C 136.767 164.001,134.951 163.859,134.354 164.237 M110.301 165.229 C 109.708 165.823,110.253 168.882,110.929 168.753 C 111.516 168.641,111.571 165.507,110.992 165.197 C 110.692 165.036,110.484 165.046,110.301 165.229 M93.749 166.580 C 93.464 166.865,93.355 170.944,93.615 171.621 C 93.708 171.863,94.039 171.980,94.634 171.980 C 95.327 171.980,95.645 172.125,96.122 172.660 L 96.728 173.341 101.780 173.341 L 106.832 173.341 107.308 172.674 C 107.655 172.185,108.010 171.982,108.628 171.918 L 109.472 171.829 108.532 171.791 C 107.871 171.764,107.547 171.635,107.440 171.356 C 107.294 170.978,107.276 170.978,107.064 171.356 C 106.790 171.842,105.229 171.903,104.846 171.442 C 104.498 171.023,104.924 170.684,105.957 170.560 C 106.733 170.466,106.729 170.463,105.810 170.428 C 105.169 170.403,104.824 170.272,104.726 170.016 C 104.596 169.677,104.552 169.681,104.272 170.064 C 104.001 170.435,103.915 170.448,103.575 170.166 C 103.212 169.864,103.219 169.817,103.689 169.437 C 103.996 169.188,104.071 169.030,103.882 169.029 C 103.712 169.028,103.400 168.722,103.187 168.348 C 102.974 167.974,102.678 167.669,102.528 167.669 C 102.363 167.669,102.419 167.850,102.671 168.128 C 103.268 168.788,102.765 169.292,102.104 168.695 C 101.826 168.443,101.645 168.387,101.645 168.552 C 101.645 168.702,101.946 168.997,102.315 169.209 C 102.683 169.420,103.040 169.812,103.107 170.081 C 103.174 170.349,103.460 170.626,103.742 170.697 C 104.024 170.768,104.356 171.060,104.481 171.346 C 104.657 171.751,104.945 171.893,105.776 171.989 C 106.985 172.128,107.203 172.265,107.012 172.764 C 106.896 173.065,106.168 173.114,101.808 173.114 L 96.739 173.114 96.245 172.447 C 95.856 171.920,95.548 171.764,94.785 171.709 L 93.817 171.639 93.752 169.260 C 93.696 167.219,93.743 166.840,94.079 166.594 C 94.295 166.436,94.370 166.307,94.246 166.307 C 94.123 166.307,93.899 166.430,93.749 166.580 M114.488 166.893 C 114.259 167.491,114.334 168.695,114.617 168.979 C 115.044 169.406,115.485 168.863,115.485 167.913 C 115.485 166.784,114.799 166.082,114.488 166.893 M137.921 167.499 C 137.506 168.286,137.312 168.341,134.884 168.364 C 131.971 168.391,132.340 168.513,135.729 168.642 C 138.284 168.739,138.395 168.724,138.535 168.262 C 138.615 167.998,138.838 167.604,139.030 167.385 C 139.351 167.019,139.332 166.988,138.784 166.988 C 138.398 166.988,138.095 167.167,137.921 167.499 M124.640 167.894 C 123.921 168.184,123.870 168.391,124.240 169.499 C 124.535 170.382,124.831 170.744,126.092 171.767 C 126.273 171.914,126.375 172.609,126.375 173.686 C 126.375 175.644,126.429 175.686,128.767 175.566 L 130.119 175.496 130.187 174.576 C 130.237 173.890,130.122 173.489,129.733 172.995 C 129.436 172.618,129.015 171.500,128.756 170.398 C 128.176 167.937,126.724 167.053,124.640 167.894 M141.407 168.028 C 140.939 168.233,140.669 168.512,140.669 168.790 C 140.669 169.301,141.026 169.598,141.234 169.261 C 141.313 169.134,141.620 169.030,141.917 169.030 C 142.567 169.030,142.791 168.730,142.597 168.120 C 142.432 167.600,142.394 167.597,141.407 168.028 M99.530 169.633 C 99.062 170.100,99.900 171.418,100.737 171.533 C 102.020 171.708,102.187 171.309,101.218 170.383 C 100.516 169.712,99.778 169.384,99.530 169.633 M110.040 172.887 C 110.173 173.137,110.397 173.341,110.537 173.341 C 110.676 173.341,110.606 173.137,110.380 172.887 C 110.154 172.638,109.931 172.433,109.883 172.433 C 109.836 172.433,109.906 172.638,110.040 172.887 M117.867 173.249 C 118.930 173.420,120.425 173.441,120.328 173.284 C 120.270 173.191,119.591 173.128,118.818 173.145 C 118.046 173.162,117.618 173.209,117.867 173.249 M134.129 173.478 C 134.337 173.715,134.551 174.265,134.603 174.702 C 134.694 175.466,134.699 175.460,134.734 174.540 C 134.764 173.758,134.677 173.535,134.260 173.316 C 133.771 173.059,133.766 173.066,134.129 173.478 M111.376 174.192 C 111.629 174.674,111.783 174.702,114.124 174.702 C 116.465 174.702,116.618 174.674,116.871 174.192 C 117.131 173.696,117.126 173.693,116.691 174.078 C 116.333 174.396,115.821 174.475,114.124 174.475 C 112.427 174.475,111.915 174.396,111.556 174.078 C 111.121 173.693,111.116 173.696,111.376 174.192 M120.890 174.687 C 120.964 175.459,121.838 176.783,121.838 176.123 C 121.838 175.992,121.685 175.826,121.497 175.755 C 121.273 175.668,121.157 175.313,121.157 174.709 C 121.157 174.206,121.078 173.795,120.981 173.795 C 120.884 173.795,120.843 174.196,120.890 174.687 M135.529 176.252 C 135.792 176.542,135.905 177.081,135.905 178.053 C 135.905 178.816,136.007 179.503,136.132 179.580 C 136.585 179.860,136.404 176.629,135.944 176.212 C 135.382 175.704,135.061 175.734,135.529 176.252 M122.242 177.822 C 122.331 179.624,122.453 180.074,122.901 180.246 C 123.264 180.385,123.264 180.368,122.903 179.969 C 122.622 179.659,122.518 179.135,122.518 178.031 C 122.518 177.198,122.442 176.517,122.348 176.517 C 122.255 176.517,122.207 177.104,122.242 177.822 M131.547 177.121 C 131.065 177.604,130.677 177.744,129.623 177.818 C 127.823 177.945,127.614 178.024,127.966 178.449 C 128.302 178.854,129.264 178.875,131.380 178.526 L 132.955 178.266 132.955 177.392 C 132.955 176.316,132.449 176.219,131.547 177.121 M136.734 180.204 C 136.792 180.298,138.762 180.374,141.112 180.374 C 145.812 180.374,145.661 180.326,145.661 181.822 C 145.661 182.877,146.010 183.097,147.691 183.100 C 149.440 183.105,149.982 183.332,149.532 183.874 C 149.313 184.138,148.812 184.232,147.618 184.233 C 146.060 184.234,145.987 184.259,145.615 184.914 C 145.287 185.489,145.090 185.593,144.329 185.593 C 143.617 185.593,143.338 185.718,142.990 186.197 C 142.679 186.624,142.257 186.849,141.553 186.963 L 140.556 187.124 141.535 187.153 C 142.362 187.177,142.603 187.075,143.086 186.500 C 143.530 185.973,143.847 185.819,144.490 185.818 C 145.140 185.816,145.437 185.668,145.857 185.137 C 146.349 184.514,146.508 184.458,147.798 184.458 C 150.638 184.458,150.850 183.039,148.029 182.915 C 146.185 182.835,145.888 182.639,145.888 181.509 C 145.888 181.040,145.755 180.547,145.593 180.412 C 145.257 180.133,136.563 179.930,136.734 180.204 M123.653 180.774 C 123.653 181.034,124.270 181.736,124.498 181.736 C 124.571 181.736,124.437 181.506,124.201 181.225 C 123.965 180.944,123.745 180.672,123.712 180.620 C 123.679 180.568,123.653 180.637,123.653 180.774 M125.065 185.604 C 125.001 190.311,124.544 189.904,129.892 189.904 C 134.174 189.904,134.783 189.806,134.763 189.121 C 134.760 188.990,134.652 189.061,134.525 189.280 C 134.221 189.802,125.929 189.892,125.502 189.377 C 125.351 189.196,125.226 187.648,125.184 185.463 L 125.115 181.849 125.065 185.604 M143.503 183.103 C 143.315 183.698,143.629 184.073,144.148 183.874 C 144.638 183.686,144.625 183.484,144.093 183.002 C 143.680 182.628,143.653 182.633,143.503 183.103 M139.989 187.975 C 139.777 188.230,139.131 188.327,137.408 188.362 L 135.111 188.409 137.153 188.485 C 139.463 188.572,140.108 188.468,140.297 187.977 C 140.464 187.542,140.349 187.541,139.989 187.975 " stroke="none" fill="#ec9b2c" fill-rule="evenodd"></path><path id="path3" d="M113.032 126.035 C 112.678 126.442,112.310 126.602,111.728 126.602 C 111.095 126.602,110.752 126.777,110.168 127.396 C 109.686 127.907,109.209 128.191,108.831 128.191 C 108.019 128.191,106.408 129.841,106.246 130.837 C 106.179 131.252,105.870 131.865,105.559 132.201 C 105.244 132.541,104.942 133.197,104.877 133.685 C 104.803 134.236,104.561 134.715,104.223 134.981 C 103.658 135.425,103.382 138.627,103.908 138.627 C 104.206 138.627,104.821 139.850,104.821 140.443 C 104.821 140.705,105.022 141.297,105.266 141.759 C 105.511 142.220,105.762 142.853,105.825 143.165 C 105.896 143.523,106.198 143.847,106.643 144.042 C 107.031 144.212,107.441 144.595,107.554 144.893 C 107.713 145.312,107.928 145.434,108.509 145.434 C 109.213 145.434,110.093 145.870,110.607 146.474 C 110.732 146.620,111.242 146.800,111.741 146.874 C 112.331 146.961,112.811 147.209,113.111 147.582 C 113.971 148.650,115.981 148.430,116.663 147.192 C 117.173 146.267,117.248 146.222,118.552 146.065 C 122.157 145.631,123.486 144.632,123.739 142.166 C 123.885 140.743,123.861 140.630,123.308 140.118 C 122.668 139.524,122.742 139.389,123.766 139.282 C 124.759 139.179,125.014 139.440,125.014 140.557 C 125.014 141.418,125.098 141.593,125.638 141.854 L 126.262 142.156 126.262 146.100 L 126.262 150.044 126.886 150.253 C 127.440 150.440,127.510 150.575,127.510 151.457 C 127.510 152.208,127.617 152.509,127.949 152.686 C 130.164 153.872,132.252 151.182,130.232 149.744 L 129.552 149.260 129.552 146.439 C 129.552 144.888,129.641 143.619,129.750 143.619 C 130.021 143.619,130.233 144.782,130.233 146.268 C 130.233 147.481,130.715 148.837,131.146 148.837 C 131.268 148.837,131.367 148.971,131.367 149.134 C 131.367 149.701,132.015 150.348,132.241 150.005 C 132.510 149.597,131.947 147.753,131.364 147.133 C 131.000 146.745,130.913 146.337,130.913 145.015 C 130.913 142.635,130.526 141.851,129.309 141.761 C 127.903 141.657,127.617 141.069,128.600 140.298 C 129.787 139.366,129.116 138.784,126.973 138.890 C 125.073 138.984,124.558 138.575,125.419 137.659 C 126.071 136.964,126.118 135.456,125.499 135.069 C 125.267 134.924,124.959 134.336,124.814 133.763 C 124.670 133.189,124.351 132.519,124.107 132.275 C 123.862 132.030,123.549 131.381,123.410 130.832 C 123.247 130.183,122.974 129.735,122.631 129.551 C 122.341 129.396,122.057 129.092,122.000 128.877 C 121.934 128.621,121.574 128.433,120.966 128.336 C 120.378 128.242,119.779 127.937,119.340 127.508 C 118.937 127.114,118.404 126.829,118.069 126.829 C 117.730 126.829,117.211 126.548,116.811 126.149 C 115.870 125.207,113.805 125.145,113.032 126.035 M116.960 128.871 C 117.201 129.137,117.659 129.325,118.068 129.325 C 119.099 129.325,122.292 132.512,122.292 133.541 C 122.292 133.983,122.505 134.481,122.859 134.862 C 123.330 135.371,123.426 135.700,123.426 136.811 C 123.426 138.337,123.132 138.731,122.769 137.690 C 122.528 136.998,122.494 136.984,121.366 137.092 C 120.333 137.191,120.187 137.149,119.978 136.692 C 119.850 136.411,119.494 136.067,119.186 135.926 C 118.385 135.562,118.665 135.113,119.704 135.095 C 121.190 135.070,121.330 135.017,121.478 134.425 C 121.656 133.719,121.275 132.955,120.745 132.955 C 120.513 132.955,120.242 132.673,120.092 132.275 C 119.920 131.818,119.679 131.594,119.362 131.594 C 119.092 131.594,118.888 131.447,118.888 131.254 C 118.888 130.408,118.047 130.006,116.279 130.006 C 114.521 130.006,113.670 130.408,113.670 131.238 C 113.670 131.417,113.459 131.630,113.202 131.712 C 112.945 131.793,112.628 132.095,112.497 132.383 C 112.366 132.670,112.015 133.016,111.716 133.152 C 111.418 133.288,111.174 133.552,111.174 133.739 C 111.174 133.925,110.868 134.236,110.493 134.430 C 110.119 134.624,109.813 134.938,109.813 135.128 C 109.813 135.319,109.504 135.582,109.127 135.713 C 108.147 136.055,107.998 136.500,107.998 139.085 C 107.998 141.427,107.525 142.341,107.358 140.325 C 107.315 139.813,107.055 139.176,106.734 138.794 C 105.931 137.839,105.939 135.737,106.750 134.862 C 107.100 134.485,107.317 133.982,107.317 133.551 C 107.317 132.519,110.502 129.325,111.531 129.325 C 111.950 129.325,112.405 129.140,112.649 128.871 C 112.992 128.492,113.348 128.417,114.804 128.417 C 116.261 128.417,116.617 128.492,116.960 128.871 M117.917 131.603 C 117.984 131.858,118.332 132.217,118.690 132.403 C 119.049 132.588,119.342 132.893,119.342 133.079 C 119.342 133.266,119.597 133.535,119.909 133.677 C 120.767 134.068,120.592 134.317,119.461 134.317 C 118.643 134.317,118.376 134.421,118.093 134.853 C 117.677 135.488,117.969 136.585,118.553 136.585 C 118.749 136.585,119.083 136.891,119.296 137.265 C 119.640 137.869,119.801 137.944,120.760 137.945 C 121.951 137.947,122.292 138.464,121.271 138.721 C 120.761 138.849,120.703 138.977,120.703 139.993 C 120.703 140.846,120.620 141.123,120.363 141.123 C 120.107 141.123,120.023 140.850,120.023 140.025 C 120.023 139.072,119.947 138.893,119.451 138.667 C 119.136 138.523,118.782 138.150,118.662 137.836 C 118.543 137.523,118.292 137.266,118.105 137.266 C 117.918 137.266,117.589 136.985,117.374 136.642 C 117.159 136.299,116.945 135.967,116.897 135.905 C 116.849 135.842,115.976 135.738,114.957 135.673 C 113.227 135.562,113.143 135.534,113.702 135.251 C 114.031 135.084,114.412 134.703,114.548 134.405 C 114.747 133.966,114.966 133.863,115.691 133.863 C 116.660 133.863,117.300 133.412,117.300 132.728 C 117.300 132.015,116.662 131.594,115.582 131.594 C 115.030 131.594,114.577 131.492,114.577 131.367 C 114.577 130.871,117.785 131.097,117.917 131.603 M116.506 132.728 C 116.506 133.129,114.876 133.344,114.522 132.990 C 114.106 132.574,114.609 132.250,115.563 132.319 C 116.219 132.367,116.506 132.491,116.506 132.728 M113.749 133.969 C 113.893 134.343,113.558 134.641,113.226 134.436 C 112.985 134.287,113.162 133.636,113.443 133.636 C 113.541 133.636,113.679 133.786,113.749 133.969 M130.540 136.245 C 130.539 137.368,130.578 137.856,130.625 137.330 C 130.673 136.803,130.673 135.884,130.626 135.288 C 130.580 134.691,130.541 135.122,130.540 136.245 M112.416 135.430 C 112.656 136.190,113.243 136.469,114.842 136.585 C 116.942 136.738,116.920 137.125,114.804 137.266 C 112.670 137.408,112.535 137.501,112.539 138.811 C 112.544 140.217,112.722 140.441,113.984 140.626 C 115.571 140.859,115.369 141.227,113.611 141.304 C 111.719 141.387,111.628 141.232,111.628 137.950 C 111.628 135.242,111.989 134.087,112.416 135.430 M147.084 136.132 C 147.084 136.693,147.128 136.923,147.182 136.642 C 147.236 136.361,147.236 135.902,147.182 135.621 C 147.128 135.340,147.084 135.570,147.084 136.132 M110.947 138.400 C 110.947 142.102,111.049 142.258,113.456 142.258 C 114.466 142.258,115.006 142.341,114.918 142.484 C 114.841 142.609,114.382 142.711,113.900 142.711 C 113.000 142.711,112.309 143.162,112.309 143.748 C 112.309 143.927,112.206 144.073,112.082 144.073 C 111.957 144.073,111.855 143.923,111.855 143.739 C 111.855 143.556,111.560 143.188,111.200 142.921 C 110.840 142.655,110.418 142.201,110.264 141.913 C 110.110 141.624,109.792 141.338,109.558 141.277 C 109.178 141.178,109.132 140.926,109.132 138.968 C 109.132 137.009,109.178 136.758,109.558 136.658 C 109.792 136.597,110.115 136.300,110.277 135.999 C 110.820 134.984,110.947 135.438,110.947 138.400 M134.482 138.060 C 133.986 138.620,133.587 138.854,133.128 138.854 C 132.687 138.854,132.266 139.084,131.830 139.562 C 131.474 139.951,131.072 140.200,130.935 140.116 C 130.568 139.889,130.626 140.807,131.001 141.164 C 131.175 141.328,131.524 141.635,131.779 141.844 C 132.080 142.092,132.198 142.388,132.118 142.695 C 132.022 143.062,132.101 143.165,132.480 143.165 C 132.777 143.165,133.065 143.385,133.223 143.732 C 133.558 144.468,134.065 144.452,134.674 143.687 C 135.139 143.104,135.206 143.088,136.070 143.347 C 136.570 143.496,137.298 143.619,137.689 143.619 C 138.326 143.619,138.400 143.689,138.400 144.289 C 138.400 146.367,140.024 147.004,140.732 145.203 C 141.164 144.103,140.709 143.776,140.001 144.676 L 139.543 145.258 139.312 144.650 C 139.185 144.316,139.081 143.849,139.081 143.612 C 139.081 142.932,138.267 142.642,136.816 142.806 C 134.843 143.029,134.770 142.961,134.770 140.887 C 134.770 139.910,134.870 138.849,134.992 138.529 L 135.213 137.947 140.297 137.947 L 145.382 137.947 145.753 138.514 C 145.958 138.826,146.260 139.081,146.425 139.081 C 146.591 139.081,146.843 139.311,146.987 139.592 C 147.217 140.043,147.241 140.050,147.189 139.650 C 147.156 139.401,146.850 139.064,146.509 138.900 C 146.153 138.730,145.888 138.418,145.888 138.169 C 145.888 137.379,145.162 137.266,140.098 137.266 L 135.185 137.266 134.482 138.060 M116.240 138.097 C 116.323 138.180,116.085 138.434,115.711 138.661 C 115.337 138.888,115.031 139.229,115.031 139.418 C 115.031 139.668,114.783 139.762,114.124 139.762 C 113.238 139.762,112.758 138.707,113.367 138.098 C 113.564 137.901,116.044 137.901,116.240 138.097 M117.981 138.280 C 117.981 138.464,118.287 138.840,118.661 139.117 C 119.179 139.500,119.342 139.800,119.342 140.372 C 119.342 141.267,119.005 141.333,118.394 140.556 C 118.043 140.109,117.742 139.989,116.981 139.989 C 115.651 139.989,115.594 139.829,116.568 138.841 C 117.463 137.934,117.981 137.729,117.981 138.280 M137.538 138.900 C 137.032 139.405,137.224 140.182,137.947 140.556 C 138.321 140.749,138.627 141.000,138.627 141.113 C 138.627 141.720,139.397 142.031,140.899 142.031 C 142.624 142.031,143.069 142.326,142.261 142.935 L 141.746 143.324 142.252 143.456 C 142.536 143.530,142.691 143.695,142.606 143.832 C 142.325 144.288,142.722 144.980,143.264 144.980 C 143.835 144.980,144.269 146.399,143.851 146.902 C 143.727 147.052,143.729 147.283,143.855 147.484 C 143.971 147.666,144.067 148.148,144.069 148.554 C 144.071 148.959,144.175 149.291,144.299 149.291 C 144.424 149.291,144.526 148.958,144.526 148.552 C 144.526 148.146,144.610 147.508,144.712 147.134 C 145.026 145.987,144.603 144.578,143.825 144.175 C 142.942 143.719,143.178 143.392,144.391 143.392 C 146.241 143.392,146.823 141.423,145.377 140.056 C 144.972 139.673,144.508 139.195,144.347 138.993 C 143.975 138.527,137.993 138.445,137.538 138.900 M143.944 139.960 C 144.130 140.318,144.490 140.666,144.744 140.733 C 145.102 140.826,145.207 141.039,145.207 141.669 C 145.207 142.730,143.940 142.895,143.299 141.917 C 143.047 141.533,142.720 141.350,142.284 141.350 C 140.560 141.350,139.495 141.058,139.249 140.517 C 139.114 140.220,138.756 139.916,138.453 139.840 C 137.328 139.557,138.524 139.315,141.061 139.311 L 143.607 139.308 143.944 139.960 M122.151 140.853 C 122.226 140.973,122.135 141.198,121.949 141.352 C 121.657 141.594,121.614 141.481,121.630 140.527 C 121.647 139.601,121.680 139.520,121.833 140.028 C 121.934 140.361,122.077 140.732,122.151 140.853 M117.640 140.896 C 117.725 141.033,117.411 141.123,116.846 141.123 C 116.281 141.123,115.967 141.033,116.052 140.896 C 116.129 140.771,116.487 140.669,116.846 140.669 C 117.206 140.669,117.563 140.771,117.640 140.896 M117.698 142.218 C 117.895 142.343,117.737 142.517,117.188 142.778 C 116.750 142.987,116.393 143.313,116.393 143.502 C 116.393 143.781,116.085 143.838,114.748 143.804 C 113.321 143.767,113.261 143.751,114.296 143.678 C 115.411 143.600,115.510 143.544,115.816 142.813 C 116.149 142.016,116.970 141.756,117.698 142.218 M120.930 142.343 C 120.930 142.390,120.777 142.556,120.590 142.711 C 120.311 142.943,120.250 142.927,120.250 142.626 C 120.250 142.423,120.403 142.258,120.590 142.258 C 120.777 142.258,120.930 142.296,120.930 142.343 M119.569 143.704 C 119.569 143.752,119.416 143.917,119.229 144.073 C 118.950 144.304,118.888 144.288,118.888 143.987 C 118.888 143.784,119.041 143.619,119.229 143.619 C 119.416 143.619,119.569 143.657,119.569 143.704 M137.369 144.485 C 136.886 144.831,137.271 146.052,137.766 145.746 C 137.865 145.684,137.947 145.391,137.947 145.094 C 137.947 144.500,137.704 144.244,137.369 144.485 M131.821 145.094 C 131.821 145.477,131.925 145.664,132.104 145.604 C 132.260 145.552,132.388 145.322,132.388 145.094 C 132.388 144.865,132.260 144.635,132.104 144.583 C 131.925 144.523,131.821 144.710,131.821 145.094 M116.266 144.893 C 117.045 145.192,116.152 145.661,114.804 145.661 C 113.516 145.661,112.555 145.191,113.263 144.907 C 113.685 144.738,115.836 144.728,116.266 144.893 M138.829 147.419 C 138.371 148.607,138.311 150.295,138.714 150.630 C 139.042 150.902,139.081 150.839,139.081 150.045 C 139.081 148.355,140.478 148.848,141.605 150.936 C 141.915 151.509,142.678 151.428,142.968 150.791 C 143.145 150.401,143.146 150.129,142.970 149.826 C 142.763 149.469,142.724 149.535,142.718 150.255 C 142.713 150.920,142.622 151.106,142.303 151.106 C 141.939 151.106,141.903 150.913,141.964 149.308 C 142.047 147.105,141.829 146.795,140.194 146.795 C 139.177 146.795,139.047 146.855,138.829 147.419 M147.126 147.264 C 147.044 147.397,147.031 147.561,147.098 147.627 C 147.260 147.790,147.703 147.503,147.703 147.236 C 147.703 146.946,147.311 146.965,147.126 147.264 M128.791 149.791 C 128.895 150.440,129.165 150.946,129.636 151.376 C 130.460 152.129,130.239 152.539,129.070 152.427 C 128.318 152.355,128.302 152.332,128.191 151.106 C 128.098 150.089,127.983 149.817,127.567 149.634 C 126.780 149.289,126.939 148.837,127.848 148.837 C 128.602 148.837,128.646 148.882,128.791 149.791 M135.312 152.623 C 134.589 152.765,134.302 153.590,134.671 154.466 C 135.269 155.888,137.694 155.363,137.713 153.807 C 137.726 152.741,136.867 152.318,135.312 152.623 M132.173 153.085 C 132.077 153.335,132.171 153.578,132.432 153.756 C 132.658 153.909,133.020 154.210,133.239 154.425 C 133.615 154.795,133.636 154.790,133.636 154.333 C 133.636 153.067,132.539 152.132,132.173 153.085 M137.266 153.135 C 137.266 153.402,136.824 153.689,136.661 153.526 C 136.498 153.364,136.785 152.921,137.053 152.921 C 137.170 152.921,137.266 153.017,137.266 153.135 M133.182 155.644 C 133.182 156.058,133.276 156.293,133.409 156.211 C 133.534 156.134,133.636 155.879,133.636 155.644 C 133.636 155.409,133.534 155.154,133.409 155.077 C 133.276 154.995,133.182 155.230,133.182 155.644 M104.370 161.200 C 104.038 161.600,104.233 162.964,104.675 163.330 C 104.898 163.515,104.969 163.479,104.969 163.183 C 104.964 161.798,105.073 161.316,105.389 161.316 C 105.576 161.316,105.729 161.214,105.729 161.089 C 105.729 160.737,104.683 160.822,104.370 161.200 M124.694 163.500 C 124.616 163.703,124.661 163.999,124.793 164.159 C 124.966 164.367,124.951 164.477,124.740 164.550 C 124.289 164.707,123.895 164.489,124.024 164.154 C 124.235 163.605,119.186 163.415,118.662 163.952 C 118.195 164.430,118.118 165.472,118.568 165.221 C 119.175 164.881,120.664 166.510,121.013 167.896 C 121.260 168.877,121.307 168.919,122.187 168.984 C 123.250 169.062,123.877 169.734,123.411 170.296 C 123.229 170.515,123.222 170.618,123.390 170.618 C 123.786 170.618,124.139 169.752,124.063 168.964 C 124.002 168.331,124.090 168.193,124.738 167.908 C 125.151 167.727,125.435 167.457,125.376 167.303 C 125.258 166.995,125.661 166.776,126.079 166.923 C 126.228 166.975,126.301 167.146,126.241 167.302 C 126.105 167.655,127.744 168.206,128.043 167.908 C 128.792 167.158,126.657 165.958,125.037 166.217 C 123.672 166.435,123.298 165.736,124.600 165.402 C 126.058 165.029,126.147 164.987,126.291 164.611 C 126.432 164.244,125.539 163.142,125.095 163.135 C 124.953 163.133,124.772 163.297,124.694 163.500 M135.277 163.518 C 134.546 163.659,134.886 164.038,135.748 164.042 C 136.999 164.048,137.200 164.417,136.046 164.590 C 134.560 164.813,134.507 165.173,135.959 165.173 C 137.172 165.173,137.720 164.907,137.720 164.317 C 137.720 163.523,136.808 163.224,135.277 163.518 M98.484 164.095 C 98.534 164.972,98.841 165.295,99.124 164.766 C 99.274 164.486,99.335 164.156,99.260 164.034 C 99.061 163.713,98.466 163.760,98.484 164.095 M138.452 166.576 C 138.507 166.740,138.849 166.930,139.213 166.997 C 139.834 167.111,139.843 167.128,139.360 167.260 C 139.055 167.344,138.745 167.688,138.600 168.103 C 138.466 168.488,138.213 168.803,138.038 168.803 C 137.647 168.803,137.616 169.185,137.996 169.311 C 138.148 169.362,138.549 169.101,138.886 168.732 C 139.256 168.327,139.635 168.112,139.841 168.191 C 140.434 168.419,140.748 167.783,140.402 167.057 C 140.073 166.366,138.231 165.912,138.452 166.576 M97.349 167.226 C 97.364 167.961,97.380 167.978,97.614 167.491 C 97.799 167.108,97.795 166.904,97.599 166.708 C 97.397 166.507,97.338 166.630,97.349 167.226 M137.509 184.655 C 137.285 185.073,137.388 185.366,137.758 185.366 C 137.862 185.366,137.921 185.241,137.890 185.088 C 137.859 184.935,138.063 184.774,138.344 184.732 C 139.033 184.626,138.995 184.231,138.295 184.231 C 137.981 184.231,137.636 184.417,137.509 184.655 " stroke="none" fill="#7c7c7c" fill-rule="evenodd"></path></g></svg>