<svg id="svg" version="1.1" xmlns="http://www.w3.org/2000/svg" xmlns:xlink="http://www.w3.org/1999/xlink" width="400" height="226.8041237113402" viewBox="0, 0, 400,226.8041237113402"><g id="svgg"><path id="path0" d="M67.896 115.875 C 67.685 115.950,67.612 116.915,67.613 119.645 L 67.615 123.313 68.294 123.699 C 68.668 123.912,68.974 124.218,68.975 124.380 C 68.976 124.541,69.282 124.848,69.655 125.060 C 70.029 125.273,70.335 125.605,70.335 125.798 C 70.335 125.991,70.421 126.149,70.527 126.149 C 70.778 126.149,73.284 128.655,73.284 128.906 C 73.284 129.012,73.685 129.098,74.176 129.098 C 74.976 129.098,75.790 129.540,75.774 129.965 C 75.771 130.050,75.271 130.607,74.663 131.203 L 73.558 132.286 72.084 130.806 C 70.888 129.604,70.475 129.325,69.892 129.325 C 69.310 129.325,68.921 129.065,67.857 127.964 C 67.133 127.215,66.450 126.602,66.339 126.601 C 66.228 126.600,65.963 126.294,65.751 125.920 C 65.538 125.547,65.232 125.240,65.070 125.240 C 64.908 125.239,64.602 124.933,64.389 124.559 C 64.071 124.000,63.857 123.880,63.178 123.880 C 62.545 123.880,62.214 123.721,61.755 123.199 C 61.171 122.533,61.113 122.518,58.997 122.515 C 56.729 122.511,56.536 122.458,56.131 121.724 C 55.925 121.351,55.603 121.258,54.324 121.202 L 52.769 121.134 51.496 119.789 C 50.136 118.350,49.688 118.309,49.688 119.625 C 49.688 120.263,52.722 123.653,53.292 123.653 C 53.597 123.653,53.814 124.414,53.639 124.869 C 53.537 125.134,53.216 125.241,52.515 125.241 C 51.684 125.241,51.460 125.345,51.049 125.922 L 50.565 126.602 44.284 126.606 C 37.752 126.609,37.675 126.619,37.235 127.453 C 36.994 127.911,36.796 127.964,35.322 127.964 C 33.740 127.964,33.662 127.989,33.280 128.635 C 32.903 129.274,32.801 129.309,31.150 129.372 C 29.487 129.436,29.402 129.466,29.042 130.119 C 28.719 130.705,28.518 130.809,27.596 130.869 C 26.698 130.928,26.490 131.030,26.312 131.497 C 26.196 131.804,25.857 132.148,25.560 132.261 C 25.263 132.374,24.962 132.686,24.892 132.955 C 24.822 133.223,24.577 133.492,24.347 133.552 C 24.118 133.612,23.758 133.961,23.547 134.329 C 23.336 134.696,23.003 134.997,22.807 134.997 C 22.611 134.997,22.353 135.254,22.234 135.567 C 22.115 135.881,21.768 136.250,21.465 136.389 C 21.161 136.527,20.862 136.831,20.801 137.064 C 20.740 137.297,20.439 137.583,20.132 137.700 C 19.825 137.816,19.519 138.123,19.452 138.380 C 19.384 138.638,19.078 138.944,18.771 139.061 C 18.464 139.178,18.158 139.484,18.090 139.742 C 18.023 139.999,17.701 140.312,17.375 140.436 C 17.048 140.560,16.684 140.918,16.564 141.232 C 16.445 141.547,16.235 141.804,16.098 141.804 C 15.785 141.804,15.201 142.376,15.201 142.683 C 15.201 142.810,14.921 143.047,14.577 143.211 C 14.051 143.462,13.943 143.671,13.886 144.542 C 13.829 145.411,13.712 145.639,13.149 145.971 C 12.486 146.363,12.479 146.388,12.479 148.407 L 12.479 150.447 14.169 152.138 C 15.099 153.068,15.970 153.829,16.104 153.829 C 16.237 153.829,16.445 154.086,16.564 154.400 C 16.684 154.714,17.030 155.066,17.334 155.181 C 17.638 155.297,18.024 155.678,18.191 156.028 C 18.477 156.628,18.598 156.671,20.260 156.778 C 21.863 156.881,22.051 156.944,22.305 157.459 C 22.746 158.351,23.875 158.357,24.530 157.472 C 25.017 156.812,25.122 156.778,26.645 156.777 C 28.221 156.775,28.256 156.762,28.787 155.983 C 29.500 154.936,29.704 154.971,30.623 156.297 C 30.869 156.652,31.196 156.778,31.871 156.779 C 32.634 156.779,32.860 156.892,33.239 157.459 C 33.673 158.109,33.763 158.138,35.342 158.139 C 36.886 158.139,37.009 158.176,37.253 158.712 C 37.513 159.284,37.852 159.435,39.138 159.552 C 39.729 159.606,39.818 159.704,39.818 160.295 L 39.818 160.976 38.069 161.042 C 36.423 161.104,36.291 161.147,35.841 161.779 C 35.455 162.322,35.198 162.450,34.499 162.450 C 34.024 162.450,33.523 162.586,33.385 162.751 C 32.944 163.283,33.581 163.585,35.156 163.588 C 36.741 163.592,36.954 163.669,37.347 164.379 C 37.630 164.891,42.201 165.219,42.201 164.727 C 42.201 163.753,45.218 163.120,46.527 163.820 C 47.870 164.539,45.916 167.896,44.153 167.896 C 43.034 167.896,38.571 172.475,38.571 173.623 C 38.571 174.481,38.303 174.702,37.265 174.702 C 36.821 174.702,36.073 175.300,34.220 177.134 C 31.198 180.126,31.169 180.257,33.125 182.154 C 34.231 183.226,34.487 183.610,34.487 184.200 C 34.487 184.822,34.832 185.270,36.882 187.302 L 39.277 189.677 42.684 189.677 C 46.076 189.677,46.739 189.535,46.739 188.810 C 46.739 188.458,47.358 188.315,48.885 188.315 C 49.793 188.315,50.404 188.206,50.562 188.015 C 50.940 187.559,50.427 187.181,49.431 187.181 C 48.749 187.181,48.490 187.048,48.100 186.500 C 47.710 185.952,47.450 185.820,46.768 185.820 C 45.280 185.820,44.909 184.890,46.058 184.040 C 46.432 183.764,46.739 183.398,46.739 183.228 C 46.739 183.058,46.994 182.855,47.306 182.777 C 47.618 182.699,47.873 182.544,47.873 182.433 C 47.873 181.483,49.941 180.147,51.412 180.147 C 52.863 180.147,52.956 180.114,53.605 179.353 C 54.153 178.712,54.445 178.559,55.119 178.559 C 55.785 178.559,56.058 178.421,56.459 177.879 L 56.962 177.198 59.792 177.198 L 62.622 177.198 64.054 178.673 C 65.278 179.934,65.601 180.147,66.279 180.147 C 66.898 180.147,67.184 180.297,67.576 180.828 C 68.323 181.838,71.732 181.876,72.657 180.885 C 72.978 180.542,74.066 179.453,75.077 178.467 L 76.914 176.672 76.914 175.251 L 76.914 173.830 78.956 171.802 C 81.410 169.364,81.491 169.033,79.995 167.537 C 79.237 166.779,78.819 166.534,78.283 166.534 C 77.161 166.534,74.192 163.479,74.192 162.324 C 74.192 161.173,77.154 158.140,78.279 158.140 C 78.948 158.140,79.635 157.718,79.638 157.305 C 79.639 157.202,79.946 156.945,80.319 156.732 C 80.693 156.519,80.998 156.188,80.998 155.995 C 80.998 155.802,81.089 155.644,81.200 155.644 C 81.367 155.644,82.963 154.125,84.107 152.878 C 84.257 152.715,84.538 152.449,84.731 152.288 C 84.924 152.127,85.082 151.642,85.082 151.208 C 85.082 150.681,85.241 150.291,85.564 150.026 C 85.829 149.809,86.161 149.497,86.301 149.332 C 86.442 149.167,86.748 148.861,86.982 148.651 C 87.216 148.441,87.522 148.137,87.663 147.976 C 87.803 147.814,88.049 147.558,88.208 147.408 C 88.367 147.258,88.959 146.700,89.524 146.168 C 90.602 145.153,90.618 144.964,89.687 144.226 C 88.918 143.616,88.994 142.571,89.874 141.662 L 90.582 140.932 89.540 139.950 C 88.966 139.410,88.341 138.836,88.151 138.675 C 87.948 138.504,87.805 138.010,87.805 137.484 C 87.805 136.990,87.722 136.585,87.621 136.585 C 87.114 136.585,86.444 135.608,86.444 134.870 C 86.444 134.174,86.200 133.842,84.402 132.084 L 82.360 130.088 82.360 128.618 C 82.360 126.877,82.151 126.602,80.834 126.602 C 79.986 126.602,79.822 126.522,79.629 126.013 C 79.505 125.689,79.226 125.377,79.007 125.320 C 78.789 125.263,78.437 124.916,78.227 124.548 C 77.844 123.882,77.835 123.880,75.696 123.880 C 73.367 123.880,72.830 123.770,72.830 123.296 C 72.830 123.127,72.633 122.883,72.392 122.754 C 71.912 122.497,71.242 122.956,71.242 123.542 C 71.242 124.115,70.760 124.159,70.204 123.637 C 69.519 122.993,69.508 122.746,70.164 122.742 C 71.342 122.734,71.726 121.697,70.732 121.211 C 70.389 121.043,70.108 120.795,70.108 120.661 C 70.108 120.385,69.234 119.569,68.939 119.569 C 68.833 119.569,68.746 118.816,68.746 117.895 C 68.746 116.223,68.507 115.655,67.896 115.875 M58.624 125.031 C 58.947 125.577,58.973 125.783,58.752 126.048 C 58.448 126.415,57.856 126.111,57.856 125.588 C 57.856 125.435,57.448 125.149,56.948 124.953 C 55.940 124.557,55.773 124.181,56.551 124.057 C 57.387 123.923,58.193 124.302,58.624 125.031 M75.921 125.739 C 75.994 125.858,75.821 126.204,75.536 126.507 L 75.018 127.059 74.491 126.564 C 73.835 125.947,73.830 125.730,74.467 125.495 C 75.023 125.289,75.714 125.405,75.921 125.739 M64.976 127.057 C 65.462 127.594,65.797 128.198,65.797 128.537 C 65.797 128.934,65.965 129.173,66.346 129.318 C 66.648 129.433,67.030 129.809,67.197 130.154 C 67.404 130.585,67.738 130.831,68.261 130.938 C 69.230 131.135,69.658 131.566,69.719 132.405 C 69.779 133.232,69.295 133.290,68.904 132.501 C 68.718 132.126,68.395 131.908,67.950 131.857 C 67.109 131.761,65.203 129.838,64.939 128.818 C 64.827 128.385,64.499 127.961,64.111 127.746 C 63.465 127.388,63.418 127.275,63.609 126.546 C 63.766 125.944,64.076 126.060,64.976 127.057 M79.978 128.419 C 80.777 129.237,80.867 129.445,80.875 130.517 C 80.887 131.951,80.418 132.136,79.818 130.934 C 79.606 130.509,79.060 129.780,78.606 129.314 C 77.890 128.582,77.813 128.403,78.035 127.989 C 78.416 127.277,78.987 127.403,79.978 128.419 M54.453 128.732 C 54.453 129.107,55.780 129.779,56.520 129.779 C 56.811 129.779,57.251 130.038,57.508 130.360 C 57.819 130.750,58.274 130.982,58.888 131.064 C 59.591 131.159,59.890 131.339,60.180 131.844 C 60.388 132.206,60.704 132.501,60.884 132.501 C 61.258 132.501,61.486 132.977,61.486 133.760 C 61.486 134.057,61.778 134.636,62.134 135.046 C 62.491 135.456,62.854 136.180,62.941 136.655 C 63.028 137.130,63.298 137.689,63.541 137.897 C 64.073 138.353,64.122 139.513,63.647 140.431 C 63.262 141.176,63.606 141.726,64.216 141.340 C 64.399 141.225,64.460 141.128,64.351 141.127 C 63.627 141.114,64.889 140.442,65.637 140.442 C 67.212 140.442,67.385 140.103,67.385 137.023 C 67.385 133.233,67.588 132.953,69.200 134.517 C 70.274 135.559,70.312 135.782,69.484 136.178 C 69.039 136.390,68.842 136.670,68.798 137.154 C 68.743 137.770,68.762 137.791,69.002 137.379 C 69.148 137.130,69.298 136.889,69.335 136.843 C 69.373 136.798,69.678 136.976,70.013 137.240 C 70.840 137.891,71.090 137.849,71.782 136.941 C 72.312 136.247,72.615 135.591,72.227 135.978 C 71.813 136.393,71.469 135.531,71.469 134.077 C 71.469 132.054,71.913 131.825,73.272 133.144 C 74.368 134.208,74.399 134.403,73.527 134.764 C 73.162 134.915,72.808 135.183,72.740 135.358 C 72.577 135.784,72.815 135.762,73.318 135.307 C 73.698 134.963,73.739 134.963,73.871 135.307 C 74.051 135.775,74.419 135.791,74.419 135.330 C 74.419 135.139,74.573 134.924,74.761 134.851 C 75.608 134.527,77.141 132.652,77.141 131.942 C 77.141 130.666,77.566 130.585,78.656 131.655 C 79.593 132.575,79.893 133.182,79.410 133.182 C 79.047 133.182,79.149 133.574,79.552 133.729 C 79.755 133.807,80.044 133.769,80.193 133.645 C 80.375 133.494,80.552 133.507,80.731 133.687 C 81.307 134.262,80.811 135.047,80.194 134.535 C 79.667 134.097,79.812 134.464,80.431 135.132 C 80.743 135.469,81.013 135.959,81.030 136.221 C 81.048 136.484,81.125 136.290,81.201 135.791 C 81.309 135.081,81.437 134.884,81.792 134.884 C 82.148 134.884,82.276 135.081,82.384 135.791 C 82.460 136.290,82.537 136.540,82.554 136.345 C 82.681 134.958,84.396 135.651,85.093 137.370 C 85.265 137.794,85.282 137.785,85.295 137.255 C 85.345 135.225,86.670 136.284,86.670 138.354 C 86.670 140.016,86.964 140.423,88.174 140.435 C 89.416 140.448,89.476 140.907,88.375 141.978 C 87.232 143.090,86.967 143.151,86.669 142.368 C 86.550 142.055,86.195 141.681,85.881 141.538 C 85.492 141.361,85.304 141.089,85.294 140.690 C 85.278 140.104,85.278 140.103,85.032 140.613 C 84.763 141.170,84.279 141.288,84.098 140.839 C 84.011 140.624,83.979 140.622,83.966 140.833 C 83.956 140.985,84.254 141.336,84.628 141.613 C 85.003 141.890,85.309 142.291,85.309 142.505 C 85.309 142.733,85.591 142.992,85.990 143.131 C 86.364 143.262,86.670 143.523,86.670 143.712 C 86.670 144.158,87.370 144.526,88.216 144.526 C 89.434 144.526,89.481 145.015,88.366 146.096 C 87.383 147.048,86.670 147.214,86.670 146.490 C 86.670 145.931,86.043 145.561,85.649 145.888 C 85.090 146.352,85.245 146.955,85.990 147.215 C 86.917 147.538,86.871 147.670,85.309 149.123 C 84.157 150.195,83.948 150.509,83.948 151.166 C 83.948 152.098,83.154 153.028,82.907 152.385 C 82.675 151.779,82.296 151.974,81.389 153.165 C 80.575 154.234,79.637 154.472,79.637 153.610 C 79.637 153.499,79.184 152.934,78.629 152.356 L 77.622 151.304 77.361 152.173 C 76.879 153.783,77.104 154.385,78.219 154.466 C 79.678 154.571,79.373 154.963,77.832 154.963 C 76.204 154.963,75.085 154.326,74.152 152.870 L 73.545 151.922 74.001 151.282 L 74.457 150.642 73.987 149.845 C 73.646 149.266,73.594 149.021,73.797 148.949 C 75.064 148.505,75.326 148.354,75.326 148.067 C 75.326 147.326,75.036 147.022,74.326 147.022 C 73.310 147.022,72.891 146.563,73.566 146.188 C 73.993 145.951,74.010 145.902,73.670 145.896 C 73.446 145.891,73.026 146.143,72.737 146.455 C 72.448 146.767,72.107 147.022,71.980 147.022 C 71.852 147.022,71.581 146.767,71.377 146.455 C 70.800 145.576,70.108 145.700,70.108 146.682 C 70.108 147.633,70.386 147.712,70.706 146.852 L 70.938 146.228 71.221 147.136 C 71.583 148.298,71.158 149.818,70.729 148.894 C 70.599 148.613,70.406 148.383,70.300 148.383 C 70.065 148.383,70.052 149.305,70.282 149.668 C 70.374 149.812,70.756 149.965,71.129 150.008 C 71.744 150.078,71.816 150.172,71.880 150.993 C 71.939 151.757,72.169 152.123,73.342 153.312 C 74.107 154.089,74.661 154.796,74.572 154.885 C 74.484 154.974,74.719 155.176,75.095 155.334 C 75.539 155.520,75.780 155.785,75.780 156.084 C 75.780 156.428,75.910 156.532,76.290 156.492 C 77.584 156.355,76.128 158.983,74.589 159.564 C 74.370 159.646,74.192 159.863,74.192 160.045 C 74.192 160.228,73.891 160.592,73.524 160.853 C 72.995 161.230,72.841 161.528,72.786 162.285 C 72.729 163.071,72.606 163.294,72.093 163.539 C 71.675 163.738,71.469 164.012,71.469 164.367 C 71.469 164.739,71.305 164.938,70.917 165.035 C 69.897 165.291,69.883 166.534,70.900 166.534 C 71.319 166.534,71.455 166.673,71.511 167.158 C 71.571 167.678,71.705 167.794,72.320 167.853 C 73.157 167.934,73.349 167.476,72.564 167.270 L 72.070 167.141 72.564 166.958 C 73.287 166.691,73.166 166.347,72.320 166.265 C 71.755 166.211,71.566 166.075,71.510 165.683 C 71.440 165.188,71.495 165.173,73.382 165.173 C 74.768 165.173,75.336 165.254,75.361 165.457 C 75.380 165.613,75.408 165.842,75.423 165.967 C 75.483 166.447,75.797 166.714,76.182 166.614 C 76.442 166.545,76.763 166.752,77.096 167.202 C 77.462 167.697,77.796 167.896,78.264 167.896 C 79.421 167.896,79.637 168.091,79.637 169.140 C 79.637 170.126,79.152 170.891,78.843 170.391 C 78.608 170.011,78.074 170.550,78.201 171.040 C 78.362 171.655,77.733 172.085,77.301 171.653 C 76.997 171.349,76.926 171.352,76.653 171.682 C 76.414 171.973,76.409 172.074,76.631 172.149 C 77.103 172.308,76.951 172.823,76.290 173.303 C 75.732 173.710,75.655 173.932,75.553 175.415 C 75.453 176.873,75.375 177.106,74.905 177.339 C 74.611 177.485,74.251 177.844,74.105 178.138 C 73.959 178.432,73.613 178.705,73.335 178.745 C 73.036 178.788,72.830 178.977,72.830 179.210 C 72.830 179.983,72.344 180.147,70.068 180.147 L 67.851 180.147 67.499 179.467 C 67.199 178.887,67.016 178.786,66.261 178.786 C 65.430 178.786,64.663 178.345,64.663 177.868 C 64.663 177.756,64.369 177.512,64.011 177.326 C 63.652 177.141,63.304 176.781,63.238 176.526 C 63.124 176.090,62.946 176.064,60.075 176.064 L 57.033 176.064 56.381 176.744 C 55.914 177.232,55.516 177.425,54.979 177.425 C 54.432 177.425,54.065 177.609,53.623 178.106 C 52.718 179.121,50.520 179.118,49.524 178.099 C 48.802 177.361,48.227 177.369,48.030 178.121 C 47.940 178.464,47.714 178.559,46.991 178.559 C 46.134 178.559,45.935 178.694,44.239 180.419 C 42.176 182.519,42.062 183.026,43.360 184.315 C 43.721 184.673,44.016 185.050,44.016 185.153 C 44.016 185.256,44.322 185.521,44.697 185.742 C 45.251 186.070,45.377 186.295,45.377 186.958 C 45.377 188.227,45.156 188.315,41.982 188.315 L 39.131 188.315 37.489 186.652 C 36.142 185.288,35.848 184.860,35.848 184.265 C 35.848 183.675,35.596 183.302,34.487 182.248 C 32.535 180.393,32.571 179.935,34.841 177.730 C 36.203 176.407,36.698 176.064,37.241 176.064 C 38.257 176.064,39.932 174.338,39.932 173.291 C 39.932 172.495,40.262 171.980,40.771 171.980 C 40.934 171.980,41.066 172.111,41.066 172.273 C 41.066 172.434,41.424 172.945,41.860 173.408 C 42.297 173.871,42.655 174.351,42.655 174.476 C 42.655 174.600,42.789 174.702,42.953 174.702 C 43.117 174.702,43.571 175.034,43.961 175.440 C 44.858 176.371,45.992 177.320,46.164 177.282 C 46.236 177.266,46.588 177.194,46.945 177.123 C 47.417 177.028,47.663 176.794,47.847 176.267 C 48.217 175.206,48.164 174.942,47.533 174.702 C 47.193 174.573,46.965 174.308,46.965 174.041 C 46.965 173.277,47.446 173.250,48.125 173.976 C 48.821 174.721,49.986 174.697,50.416 173.928 C 50.516 173.750,51.130 173.427,51.779 173.211 C 53.494 172.642,54.165 171.724,53.415 170.975 C 52.836 170.395,50.219 170.583,50.451 171.187 C 50.921 172.410,47.746 173.623,47.042 172.490 C 46.829 172.147,46.477 171.662,46.260 171.412 C 45.598 170.652,45.490 169.788,46.022 169.503 C 46.923 169.021,47.503 167.947,47.087 167.531 C 46.674 167.118,46.916 166.653,47.667 166.414 C 47.905 166.339,48.100 166.126,48.100 165.941 C 48.100 165.757,48.390 165.439,48.744 165.236 C 49.098 165.033,49.481 164.655,49.595 164.396 C 49.848 163.819,50.822 163.613,50.822 164.136 C 50.822 164.946,52.119 164.104,52.491 163.053 C 52.573 162.823,52.818 162.584,53.036 162.523 C 53.428 162.414,54.580 160.864,54.272 160.860 C 54.184 160.859,53.847 161.181,53.523 161.575 C 52.790 162.467,52.411 162.276,52.411 161.013 C 52.411 160.233,52.537 159.945,53.091 159.458 C 53.602 159.010,53.772 158.665,53.772 158.074 C 53.772 157.069,54.392 156.456,54.769 157.088 C 55.113 157.664,56.890 159.500,57.110 159.506 C 57.208 159.509,57.544 159.711,57.856 159.955 C 58.277 160.284,58.784 160.400,59.826 160.403 C 61.581 160.410,62.337 160.685,62.433 161.351 C 62.516 161.928,63.120 162.166,64.590 162.201 C 65.372 162.220,65.624 162.343,66.024 162.904 L 66.508 163.585 68.956 163.585 L 71.404 163.585 71.552 162.174 C 71.712 160.639,72.308 159.867,73.546 159.588 C 75.149 159.228,74.381 158.087,72.667 158.284 C 71.383 158.431,70.337 158.084,70.173 157.456 C 69.991 156.761,69.654 156.922,69.654 157.705 C 69.654 158.680,69.098 158.437,69.047 157.439 C 68.963 155.793,68.825 155.642,67.415 155.658 C 66.267 155.671,66.195 155.699,66.704 155.935 C 67.496 156.301,65.381 156.461,64.377 156.111 C 63.506 155.807,62.394 155.800,62.394 156.098 C 62.394 156.222,62.709 156.324,63.094 156.324 C 63.665 156.324,63.842 156.451,64.053 157.009 C 64.306 157.680,65.221 158.135,66.322 158.138 C 67.320 158.141,68.049 159.058,67.287 159.350 C 66.467 159.665,64.189 159.741,62.847 159.498 C 62.036 159.352,60.824 159.146,60.154 159.042 C 57.773 158.671,56.515 156.281,58.530 155.959 C 59.151 155.860,59.476 155.675,59.574 155.366 C 59.652 155.119,60.114 154.507,60.601 154.005 C 61.088 153.504,61.486 152.959,61.486 152.796 C 61.486 152.632,61.680 152.436,61.917 152.361 C 62.279 152.246,62.369 151.925,62.480 150.361 C 62.553 149.336,62.703 147.578,62.813 146.455 C 63.080 143.743,62.364 143.160,61.663 145.518 C 61.086 147.456,58.874 148.837,56.347 148.837 C 55.450 148.837,55.333 148.908,54.856 149.743 C 54.186 150.916,52.056 151.107,51.082 150.081 C 50.765 149.747,50.294 149.518,49.922 149.518 C 49.569 149.518,48.924 149.222,48.440 148.837 C 47.969 148.463,47.327 148.157,47.014 148.157 C 46.233 148.157,44.569 146.378,44.374 145.334 C 44.292 144.898,43.977 144.350,43.667 144.107 C 43.360 143.865,43.108 143.449,43.108 143.182 C 43.108 142.402,42.481 141.123,42.099 141.123 C 41.436 141.123,41.617 138.491,42.322 137.879 C 42.676 137.571,42.952 137.032,43.041 136.474 C 43.128 135.931,43.390 135.408,43.697 135.167 C 43.978 134.946,44.274 134.434,44.356 134.030 C 44.616 132.735,44.721 132.501,45.039 132.501 C 45.211 132.501,45.526 132.207,45.739 131.846 C 46.036 131.343,46.342 131.162,47.055 131.066 C 47.657 130.985,48.144 130.748,48.439 130.391 C 48.723 130.047,49.234 129.790,49.801 129.705 C 50.380 129.618,50.873 129.365,51.163 129.007 C 51.700 128.342,54.453 128.112,54.453 128.732 M40.249 129.395 C 40.607 129.982,39.880 130.459,38.626 130.459 C 37.169 130.459,37.072 130.535,31.764 135.802 C 27.488 140.045,26.788 140.652,26.092 140.713 L 25.298 140.783 25.232 142.664 C 25.155 144.857,24.657 145.430,23.492 144.667 C 22.447 143.982,22.662 140.235,23.766 139.891 C 24.046 139.803,24.336 139.492,24.409 139.199 C 24.487 138.889,24.770 138.610,25.087 138.530 C 25.409 138.449,25.687 138.171,25.768 137.849 C 25.849 137.527,26.127 137.249,26.452 137.168 C 27.316 136.951,27.097 136.550,26.158 136.628 C 25.477 136.685,25.291 136.806,25.185 137.258 C 25.104 137.605,24.845 137.866,24.504 137.947 C 24.163 138.027,23.903 138.289,23.821 138.636 C 23.655 139.341,22.111 139.460,21.694 138.799 C 21.346 138.246,26.919 132.605,28.140 132.274 C 28.580 132.155,29.289 131.800,29.715 131.485 C 30.279 131.070,30.775 130.913,31.532 130.913 C 32.336 130.913,32.854 130.732,33.806 130.119 C 34.934 129.392,35.183 129.325,36.748 129.322 C 37.688 129.320,38.610 129.217,38.798 129.093 C 39.281 128.774,39.956 128.915,40.249 129.395 M39.660 132.093 C 40.036 132.470,40.000 133.070,39.579 133.419 C 38.947 133.944,38.118 132.900,38.677 132.283 C 39.162 131.747,39.289 131.722,39.660 132.093 M85.309 134.904 C 85.309 136.089,84.706 136.372,83.981 135.528 C 83.651 135.143,83.202 134.768,82.984 134.693 C 82.509 134.531,82.418 132.761,82.861 132.318 C 83.312 131.867,85.309 133.976,85.309 134.904 M52.864 134.090 C 52.864 134.214,53.322 134.317,53.880 134.317 C 55.230 134.317,55.869 135.100,55.268 136.018 C 54.962 136.484,54.714 136.585,53.875 136.585 C 52.984 136.585,52.825 136.661,52.629 137.175 C 52.506 137.499,52.202 137.817,51.954 137.882 C 51.050 138.118,51.537 138.400,52.850 138.400 C 54.469 138.400,55.272 138.671,55.466 139.283 C 55.545 139.534,55.810 139.802,56.055 139.880 C 56.299 139.957,56.654 140.320,56.843 140.685 C 57.032 141.051,57.340 141.350,57.527 141.350 C 57.953 141.350,58.310 142.257,58.310 143.339 C 58.310 144.498,58.717 143.988,58.806 142.717 C 58.862 141.921,58.991 141.644,59.402 141.441 C 60.203 141.043,60.019 140.794,58.831 140.669 C 57.988 140.581,57.695 140.439,57.488 140.021 C 57.342 139.728,56.983 139.368,56.689 139.222 C 55.345 138.556,55.912 137.295,57.662 137.058 C 58.820 136.901,58.850 136.880,58.307 136.614 C 57.994 136.461,57.565 136.034,57.353 135.666 C 57.142 135.298,56.828 134.997,56.655 134.997 C 56.482 134.997,56.224 134.742,56.082 134.430 C 55.811 133.835,52.864 133.523,52.864 134.090 M77.538 134.808 C 77.047 135.165,76.914 135.445,76.914 136.123 C 76.914 136.990,76.481 137.629,76.099 137.325 C 75.986 137.234,76.019 137.304,76.172 137.480 C 76.586 137.957,77.368 137.173,77.368 136.281 C 77.368 135.888,77.579 135.369,77.861 135.069 C 78.507 134.381,78.325 134.234,77.538 134.808 M38.526 135.370 C 38.574 135.700,38.374 136.014,37.903 136.350 C 36.832 137.112,36.822 140.869,37.890 141.500 C 38.462 141.837,38.571 142.043,38.571 142.790 C 38.571 143.630,39.174 144.526,39.740 144.526 C 39.845 144.526,39.932 144.935,39.932 145.435 C 39.932 146.718,44.239 151.106,45.498 151.106 C 46.215 151.106,47.192 151.785,47.192 152.283 C 47.192 152.385,47.575 152.469,48.043 152.471 C 49.026 152.475,49.291 152.614,49.662 153.318 C 49.915 153.798,50.074 153.829,52.297 153.829 C 54.520 153.829,54.680 153.798,54.932 153.318 C 55.428 152.378,55.905 152.244,56.278 152.940 C 56.502 153.358,56.361 153.581,55.038 154.890 C 54.217 155.703,53.545 156.454,53.545 156.558 C 53.545 156.662,53.357 156.807,53.128 156.880 C 52.898 156.953,52.577 157.261,52.415 157.564 C 51.951 158.432,51.484 158.472,50.876 157.695 C 50.372 157.051,50.237 157.005,48.841 157.005 L 47.345 157.005 46.068 155.655 L 44.791 154.304 43.105 154.237 C 41.659 154.179,41.385 154.101,41.183 153.696 C 41.054 153.435,40.056 152.348,38.965 151.279 L 36.982 149.336 36.982 147.254 L 36.982 145.171 35.979 144.168 C 34.578 142.767,33.462 143.158,34.593 144.653 C 35.957 146.457,33.359 148.664,31.720 147.093 C 30.067 145.510,30.980 143.165,33.249 143.165 C 34.496 143.165,34.642 142.561,33.579 141.804 C 32.198 140.820,32.522 139.902,35.224 137.156 C 37.600 134.740,38.377 134.320,38.526 135.370 M74.992 136.408 C 75.238 136.747,75.525 137.028,75.629 137.032 C 75.972 137.045,75.651 136.517,75.093 136.151 L 74.545 135.791 74.992 136.408 M71.179 136.386 C 71.532 136.739,71.283 137.266,70.764 137.266 C 70.499 137.266,70.335 137.107,70.335 136.850 C 70.335 136.152,70.728 135.935,71.179 136.386 M82.026 137.255 C 81.943 137.390,81.779 137.442,81.663 137.370 C 81.547 137.298,81.452 137.341,81.452 137.466 C 81.452 137.873,81.848 137.950,82.139 137.598 C 82.296 137.410,82.369 137.200,82.301 137.132 C 82.234 137.064,82.110 137.120,82.026 137.255 M48.489 138.625 C 48.424 138.873,48.105 139.176,47.781 139.300 C 47.204 139.519,47.192 139.567,47.192 141.679 L 47.192 143.834 47.873 144.186 C 48.247 144.380,48.554 144.691,48.554 144.877 C 48.554 145.064,48.811 145.334,49.126 145.478 C 49.441 145.621,49.759 145.976,49.832 146.267 C 50.007 146.966,50.278 146.934,50.642 146.171 C 50.896 145.639,51.098 145.537,52.015 145.478 C 53.674 145.372,53.289 145.040,51.397 144.944 C 49.119 144.829,49.135 144.854,49.047 141.226 C 48.978 138.412,48.782 137.501,48.489 138.625 M20.744 140.118 C 20.940 140.314,21.100 140.621,21.100 140.799 C 21.100 140.977,21.246 141.123,21.425 141.123 C 22.091 141.123,22.462 141.812,22.462 143.052 C 22.462 144.580,22.103 144.980,20.730 144.980 C 20.109 144.980,19.767 145.069,19.853 145.207 C 19.930 145.332,20.184 145.434,20.418 145.434 C 21.202 145.434,21.215 146.315,20.442 147.112 C 19.305 148.285,19.456 148.854,21.441 150.894 C 23.103 152.602,23.280 152.953,22.999 153.999 C 22.765 154.872,21.554 154.501,21.554 153.556 C 21.554 153.314,21.388 153.148,21.146 153.148 C 20.623 153.148,20.193 152.718,20.193 152.195 C 20.193 151.880,20.012 151.787,19.407 151.787 C 17.934 151.787,16.319 149.660,16.916 148.508 C 17.343 147.685,17.351 147.703,16.569 147.703 C 15.525 147.703,15.068 146.681,15.669 145.693 C 15.911 145.295,16.109 144.693,16.109 144.355 C 16.109 143.887,16.578 143.270,18.089 141.752 C 20.245 139.586,20.224 139.599,20.744 140.118 M51.427 140.821 C 51.344 140.904,51.276 141.312,51.276 141.728 C 51.276 142.736,52.912 142.900,53.351 141.936 C 53.488 141.635,53.792 141.338,54.027 141.277 C 54.261 141.216,54.453 141.054,54.453 140.917 C 54.453 140.647,51.689 140.559,51.427 140.821 M68.762 141.860 C 68.745 143.038,69.263 143.351,69.910 142.555 C 70.183 142.219,70.172 142.191,69.816 142.325 C 69.540 142.428,69.370 142.351,69.286 142.084 C 68.899 140.856,68.777 140.803,68.762 141.860 M61.543 142.058 C 60.606 142.328,60.617 142.429,61.632 142.853 C 62.560 143.241,63.275 142.880,62.999 142.162 C 62.846 141.763,62.619 141.747,61.543 142.058 M54.623 143.779 C 54.904 143.833,55.363 143.833,55.644 143.779 C 55.925 143.725,55.695 143.681,55.133 143.681 C 54.572 143.681,54.342 143.725,54.623 143.779 M27.861 146.682 C 27.927 147.783,27.994 147.881,30.117 150.019 C 32.276 152.193,32.299 152.228,31.886 152.685 C 31.263 153.373,31.180 153.328,28.803 150.993 C 27.596 149.807,26.454 148.837,26.264 148.837 C 25.875 148.837,25.646 148.184,25.641 147.064 C 25.633 144.985,27.738 144.623,27.861 146.682 M79.002 146.387 C 78.348 147.041,79.161 147.285,80.010 146.690 C 80.271 146.507,80.566 146.430,80.665 146.520 C 80.763 146.609,80.771 146.554,80.681 146.398 C 80.473 146.037,79.359 146.029,79.002 146.387 M51.384 147.713 C 51.084 148.197,51.665 148.407,53.114 148.338 C 54.223 148.286,54.566 148.190,54.566 147.930 C 54.566 147.501,51.638 147.302,51.384 147.713 M61.189 150.752 L 61.794 151.986 60.873 152.907 C 59.433 154.347,59.217 154.205,59.217 151.825 C 59.217 149.643,59.262 149.518,60.052 149.518 C 60.470 149.518,60.712 149.781,61.189 150.752 M70.410 152.978 C 70.557 153.578,70.094 154.291,69.503 154.378 C 68.853 154.473,68.863 155.150,69.520 155.449 C 69.838 155.594,70.156 155.891,70.225 156.109 C 70.395 156.644,71.091 156.440,71.918 155.614 C 72.557 154.974,72.434 154.282,71.680 154.282 C 71.564 154.282,71.469 154.035,71.469 153.731 C 71.469 153.168,70.943 152.467,70.521 152.467 C 70.391 152.467,70.341 152.697,70.410 152.978 M64.892 153.264 C 65.274 153.671,65.497 153.764,65.669 153.590 C 65.942 153.312,65.269 152.694,64.693 152.694 C 64.448 152.694,64.503 152.850,64.892 153.264 M35.695 154.241 C 36.348 154.923,36.297 155.190,35.515 155.190 C 34.846 155.190,34.535 154.814,34.660 154.157 C 34.796 153.447,34.945 153.459,35.695 154.241 M58.909 154.399 C 59.127 154.967,58.546 155.417,57.594 155.417 C 56.623 155.417,56.244 154.971,56.724 154.393 C 57.102 153.938,58.734 153.942,58.909 154.399 M56.156 155.646 C 56.403 156.047,56.026 156.778,55.572 156.778 C 55.075 156.778,54.974 156.120,55.406 155.689 C 55.738 155.357,55.969 155.343,56.156 155.646 M42.472 156.237 C 42.652 156.598,43.107 156.945,43.634 157.123 C 44.110 157.284,44.697 157.594,44.938 157.812 C 45.196 158.046,45.922 158.264,46.708 158.344 C 47.441 158.419,48.283 158.661,48.581 158.882 C 48.878 159.104,49.478 159.461,49.915 159.676 C 51.288 160.354,51.102 161.867,49.579 162.418 L 48.749 162.718 47.367 161.336 C 45.715 159.684,44.839 159.478,44.432 160.646 C 44.078 161.660,41.680 161.603,41.562 160.577 C 41.498 160.023,41.613 159.899,42.567 159.490 L 43.644 159.028 42.214 157.586 C 40.773 156.132,40.628 155.644,41.635 155.644 C 41.992 155.644,42.277 155.846,42.472 156.237 M71.075 161.373 C 71.505 162.505,69.988 163.110,68.942 162.224 C 68.416 161.778,68.414 161.764,68.847 161.430 C 69.380 161.017,70.924 160.978,71.075 161.373 M54.987 161.845 C 55.068 162.074,55.133 162.303,55.133 162.355 C 55.133 162.408,55.254 162.450,55.401 162.450 C 55.548 162.450,55.996 162.808,56.396 163.244 C 56.863 163.755,57.330 164.039,57.703 164.039 C 58.866 164.039,58.793 165.541,57.618 165.776 C 57.245 165.851,56.884 166.001,56.817 166.110 C 56.750 166.219,56.092 166.307,55.355 166.307 C 54.253 166.307,53.972 166.387,53.775 166.755 C 53.407 167.443,54.959 168.349,56.503 168.349 C 57.258 168.349,57.604 168.433,57.507 168.590 C 57.297 168.930,57.850 170.164,58.213 170.164 C 58.378 170.164,58.605 170.002,58.716 169.804 C 58.827 169.606,59.470 169.264,60.145 169.045 C 61.084 168.740,61.390 168.528,61.447 168.144 C 61.489 167.860,61.783 167.531,62.127 167.383 C 62.461 167.240,62.763 167.107,62.798 167.086 C 63.828 166.493,62.939 164.837,61.697 165.036 C 60.324 165.255,59.504 164.989,59.242 164.240 C 59.039 163.656,58.909 163.585,58.046 163.585 C 57.199 163.585,56.937 163.450,55.959 162.507 C 55.344 161.914,54.907 161.616,54.987 161.845 M52.076 162.687 C 52.259 162.983,51.781 163.585,51.362 163.585 C 51.043 163.585,50.927 162.876,51.201 162.602 C 51.429 162.373,51.911 162.420,52.076 162.687 M64.897 166.505 C 64.767 166.988,64.453 167.646,64.200 167.969 C 63.088 169.382,63.133 169.799,64.546 171.134 C 65.928 172.442,66.361 173.648,65.814 174.670 C 65.313 175.606,64.445 174.690,64.437 173.218 C 64.436 173.088,63.989 172.543,63.443 172.008 L 62.451 171.034 62.196 171.768 C 61.689 173.222,62.045 174.702,62.902 174.702 C 63.040 174.702,63.339 174.872,63.568 175.079 C 63.798 175.286,64.214 175.570,64.494 175.709 C 64.774 175.848,65.034 176.174,65.071 176.434 C 65.120 176.770,65.414 176.986,66.092 177.184 C 66.616 177.337,67.435 177.728,67.911 178.052 C 69.277 178.983,72.493 179.108,72.821 178.243 C 72.947 177.913,73.299 177.549,73.605 177.432 C 74.279 177.176,74.539 175.881,74.361 173.668 C 74.284 172.706,74.331 172.195,74.502 172.131 C 74.681 172.065,74.664 171.941,74.447 171.724 C 74.204 171.482,74.112 171.475,74.031 171.696 C 73.734 172.507,72.830 171.447,72.830 170.287 C 72.830 169.970,72.553 169.517,72.150 169.178 C 71.775 168.863,71.469 168.457,71.469 168.275 C 71.469 168.093,71.215 167.881,70.905 167.803 C 70.564 167.718,70.287 167.446,70.205 167.117 C 70.090 166.658,69.883 166.547,68.897 166.418 C 68.253 166.333,67.499 166.121,67.223 165.946 C 66.173 165.279,65.162 165.522,64.897 166.505 M67.802 166.775 C 68.521 166.929,69.119 167.233,69.473 167.625 C 69.776 167.961,70.446 168.614,70.962 169.076 C 71.924 169.938,72.604 170.998,72.604 171.638 C 72.604 171.837,72.882 172.276,73.222 172.614 C 74.266 173.650,74.147 175.797,72.988 176.860 C 71.806 177.943,69.540 178.042,68.756 177.045 C 68.494 176.712,68.053 176.327,67.775 176.189 C 67.388 175.997,67.255 175.705,67.199 174.924 C 67.159 174.366,66.982 173.749,66.805 173.553 C 66.628 173.358,66.415 172.847,66.331 172.418 C 66.248 171.990,66.119 171.586,66.045 171.521 C 65.971 171.456,65.578 171.042,65.172 170.601 L 64.433 169.800 64.795 168.737 C 65.085 167.885,66.190 166.534,66.597 166.534 C 66.644 166.534,67.186 166.642,67.802 166.775 M46.583 168.208 C 46.811 168.803,45.818 169.332,45.484 168.793 C 45.307 168.505,45.776 167.896,46.175 167.896 C 46.333 167.896,46.517 168.036,46.583 168.208 M75.799 169.624 C 75.543 169.951,75.391 170.313,75.463 170.429 C 75.603 170.655,76.687 169.606,76.687 169.245 C 76.687 168.847,76.270 169.025,75.799 169.624 M45.239 169.616 C 45.848 171.202,45.011 172.285,44.088 171.106 C 43.781 170.713,43.389 170.391,43.219 170.391 C 42.754 170.391,42.579 169.962,42.890 169.587 C 43.276 169.122,45.058 169.144,45.239 169.616 M42.428 171.059 C 42.428 171.585,42.080 171.842,41.613 171.663 C 41.348 171.561,41.327 171.433,41.518 171.075 C 41.830 170.492,42.428 170.481,42.428 171.059 M43.828 171.408 C 43.969 171.718,44.275 172.031,44.507 172.105 C 44.739 172.178,45.096 172.563,45.301 172.960 C 45.506 173.357,45.822 173.790,46.004 173.923 C 46.284 174.128,46.246 174.267,45.756 174.831 C 45.255 175.408,45.123 175.458,44.767 175.204 C 44.541 175.044,44.075 174.792,43.732 174.644 C 43.389 174.497,43.108 174.284,43.108 174.173 C 43.108 174.061,42.736 173.628,42.281 173.212 L 41.454 172.454 42.029 172.192 C 42.346 172.048,42.716 171.686,42.852 171.387 C 43.169 170.692,43.505 170.699,43.828 171.408 M46.513 172.437 C 46.708 172.800,46.683 172.923,46.393 173.034 C 45.926 173.213,45.503 172.798,45.680 172.335 C 45.868 171.847,46.221 171.890,46.513 172.437 M41.512 175.973 C 41.128 177.138,41.580 177.590,42.745 177.206 C 43.738 176.878,43.738 176.965,42.745 175.973 C 41.753 174.981,41.840 174.980,41.512 175.973 M46.543 180.244 C 46.179 180.627,45.812 181.171,45.727 181.452 C 45.643 181.733,45.402 181.966,45.192 181.970 C 44.982 181.974,44.612 182.127,44.370 182.310 C 44.127 182.493,43.744 182.643,43.519 182.643 C 42.926 182.643,43.013 182.008,43.617 181.922 C 43.911 181.880,44.160 181.659,44.208 181.395 C 44.327 180.750,44.684 180.374,45.178 180.374 C 45.437 180.374,45.604 180.214,45.604 179.966 C 45.604 179.286,46.036 179.013,46.659 179.297 L 47.205 179.545 46.543 180.244 M38.921 184.896 C 38.753 185.168,39.180 185.437,39.482 185.250 C 39.736 185.093,39.569 184.685,39.251 184.685 C 39.141 184.685,38.992 184.780,38.921 184.896 M40.701 186.150 C 39.892 186.742,41.790 187.286,42.820 186.758 C 43.423 186.448,43.551 186.293,43.320 186.150 C 42.799 185.829,41.141 185.829,40.701 186.150 " stroke="none" fill="#c6233f" fill-rule="evenodd"></path><path id="path1" d="M77.410 130.963 C 77.262 131.110,77.141 131.551,77.141 131.942 C 77.141 132.634,75.405 134.770,74.843 134.770 C 74.218 134.770,74.463 135.531,75.385 136.454 C 76.534 137.602,76.914 137.515,76.914 136.102 C 76.914 135.424,77.047 135.160,77.582 134.780 C 77.949 134.519,78.313 134.103,78.391 133.857 C 78.469 133.611,78.781 133.348,79.085 133.271 C 79.861 133.077,79.776 132.755,78.656 131.655 C 77.903 130.916,77.616 130.756,77.410 130.963 M82.861 132.318 C 82.418 132.761,82.509 134.531,82.984 134.693 C 83.202 134.768,83.651 135.143,83.981 135.528 C 84.706 136.372,85.309 136.089,85.309 134.904 C 85.309 133.976,83.312 131.867,82.861 132.318 M71.753 132.425 C 71.341 132.591,71.368 135.539,71.785 135.885 C 72.101 136.147,72.830 135.694,72.830 135.235 C 72.830 135.135,73.137 134.925,73.511 134.770 C 74.398 134.403,74.371 134.211,73.284 133.156 C 72.368 132.266,72.266 132.218,71.753 132.425 M80.125 133.708 C 79.809 134.089,80.337 134.925,80.737 134.678 C 81.090 134.460,81.067 133.975,80.688 133.661 C 80.454 133.466,80.316 133.478,80.125 133.708 M67.523 133.995 C 67.447 134.192,67.385 135.555,67.385 137.023 C 67.385 140.103,67.212 140.442,65.637 140.442 C 64.767 140.442,64.038 140.876,64.362 141.201 C 64.444 141.283,64.845 141.350,65.253 141.350 C 67.151 141.350,67.866 142.217,66.732 143.142 C 65.781 143.919,66.119 144.474,67.603 144.572 C 68.814 144.653,68.917 144.880,68.951 147.543 C 68.971 149.116,69.035 149.370,69.532 149.830 C 69.864 150.138,70.150 150.723,70.238 151.276 C 70.328 151.835,70.602 152.391,70.928 152.675 C 71.229 152.936,71.469 153.397,71.469 153.714 C 71.469 154.027,71.572 154.282,71.697 154.282 C 71.823 154.282,72.148 154.538,72.419 154.850 C 72.974 155.488,73.665 155.575,74.319 155.090 C 74.739 154.777,74.696 154.699,73.354 153.331 C 72.171 152.126,71.939 151.757,71.880 150.993 C 71.816 150.172,71.744 150.078,71.129 150.008 C 70.165 149.898,70.093 149.684,70.143 147.060 C 70.189 144.690,70.069 144.313,69.267 144.303 C 68.842 144.298,68.719 143.095,68.793 139.651 L 68.860 136.477 69.484 136.179 C 70.312 135.782,70.274 135.559,69.200 134.517 C 68.227 133.572,67.743 133.422,67.523 133.995 M81.384 134.914 C 81.115 135.183,81.208 136.703,81.521 137.130 C 81.977 137.754,82.404 137.077,82.317 135.867 C 82.249 134.932,81.813 134.485,81.384 134.914 M70.486 136.283 C 70.159 136.610,70.344 137.266,70.764 137.266 C 71.283 137.266,71.532 136.739,71.179 136.386 C 70.888 136.095,70.702 136.067,70.486 136.283 M85.578 136.407 C 84.982 137.003,85.232 141.242,85.881 141.538 C 86.195 141.681,86.550 142.055,86.669 142.368 C 86.967 143.151,87.232 143.090,88.375 141.978 C 89.476 140.907,89.416 140.448,88.174 140.435 C 86.964 140.423,86.670 140.016,86.670 138.354 C 86.670 136.753,86.154 135.832,85.578 136.407 M74.570 140.821 C 74.487 140.904,74.419 141.611,74.419 142.393 C 74.419 143.801,74.383 143.881,73.387 144.723 C 72.763 145.250,73.379 145.518,75.247 145.533 L 76.989 145.547 77.329 146.698 L 77.670 147.848 78.432 147.004 C 78.851 146.541,79.549 145.993,79.983 145.787 C 81.096 145.259,80.963 144.984,79.580 144.953 C 77.781 144.913,77.070 144.698,76.774 144.104 C 76.628 143.811,76.268 143.452,75.974 143.306 C 75.340 142.992,75.151 142.005,75.647 141.593 C 76.596 140.806,82.502 141.046,82.711 141.881 C 82.779 142.153,83.137 142.548,83.505 142.760 C 84.105 143.104,84.175 143.261,84.175 144.270 C 84.175 145.968,84.065 146.115,82.803 146.115 C 81.558 146.115,81.143 146.462,81.999 146.788 C 82.359 146.924,82.625 147.243,82.709 147.638 C 82.784 147.986,82.936 148.496,83.048 148.773 C 83.185 149.113,83.143 149.533,82.918 150.070 C 82.524 151.015,82.499 151.652,82.831 152.274 C 83.199 152.962,83.948 152.219,83.948 151.166 C 83.948 150.509,84.157 150.195,85.309 149.123 C 86.902 147.641,86.918 147.585,85.876 147.150 C 84.964 146.769,84.905 146.572,85.532 146.005 C 86.022 145.562,86.670 145.838,86.670 146.490 C 86.670 147.214,87.383 147.048,88.366 146.096 C 89.481 145.015,89.434 144.526,88.216 144.526 C 87.374 144.526,86.670 144.158,86.670 143.719 C 86.670 143.533,86.427 143.288,86.130 143.175 C 85.832 143.062,85.071 142.452,84.439 141.819 L 83.289 140.669 79.005 140.669 C 76.649 140.669,74.653 140.737,74.570 140.821 M59.369 149.669 C 59.285 149.752,59.217 150.722,59.217 151.825 C 59.217 154.205,59.433 154.347,60.873 152.907 L 61.794 151.986 61.189 150.752 C 60.606 149.563,59.897 149.141,59.369 149.669 M66.478 154.133 C 66.478 155.066,66.689 155.259,67.488 155.059 C 68.225 154.874,68.201 154.763,67.255 153.977 L 66.478 153.330 66.478 154.133 M56.724 154.393 C 56.244 154.971,56.623 155.417,57.594 155.417 C 58.546 155.417,59.127 154.967,58.909 154.399 C 58.734 153.942,57.102 153.938,56.724 154.393 M55.406 155.689 C 54.974 156.120,55.075 156.778,55.572 156.778 C 56.026 156.778,56.403 156.047,56.156 155.646 C 55.969 155.343,55.738 155.357,55.406 155.689 M70.423 156.648 C 70.010 157.724,70.880 158.507,71.767 157.858 C 72.155 157.574,72.149 157.529,71.645 156.942 C 71.059 156.260,70.613 156.153,70.423 156.648 M76.088 156.600 C 75.971 156.761,75.746 157.151,75.588 157.467 C 75.430 157.784,75.077 158.141,74.803 158.261 C 74.529 158.381,74.274 158.698,74.236 158.964 C 74.191 159.278,73.951 159.498,73.555 159.586 C 72.308 159.866,71.713 160.635,71.552 162.174 L 71.404 163.585 68.956 163.585 L 66.508 163.585 66.024 162.904 C 65.624 162.343,65.372 162.220,64.590 162.201 C 63.120 162.166,62.516 161.928,62.433 161.351 C 62.337 160.685,61.581 160.410,59.826 160.403 C 58.784 160.400,58.277 160.284,57.856 159.955 C 57.544 159.711,57.208 159.509,57.110 159.506 C 56.890 159.500,55.113 157.664,54.769 157.088 C 54.392 156.456,53.772 157.069,53.772 158.074 C 53.772 158.665,53.602 159.010,53.091 159.458 C 52.537 159.945,52.411 160.233,52.411 161.013 C 52.411 162.276,52.790 162.467,53.523 161.575 C 54.257 160.682,54.684 160.674,55.179 161.544 C 55.637 162.349,56.298 162.427,56.611 161.713 C 56.862 161.140,57.516 161.018,57.516 161.543 C 57.516 161.730,57.286 161.984,57.005 162.107 C 55.886 162.598,56.568 163.585,58.027 163.585 C 58.912 163.585,59.038 163.653,59.243 164.243 C 59.611 165.297,61.940 165.512,61.940 164.492 C 61.940 164.043,62.680 163.681,63.086 163.933 C 63.237 164.026,63.280 164.541,63.200 165.294 C 63.028 166.910,62.945 167.079,62.180 167.367 C 61.771 167.522,61.496 167.808,61.449 168.130 C 61.390 168.530,61.099 168.735,60.152 169.042 C 59.481 169.261,58.853 169.566,58.757 169.721 C 58.535 170.080,57.025 170.610,56.213 170.615 C 55.810 170.617,55.376 170.859,54.984 171.299 C 54.651 171.673,54.196 171.980,53.974 171.980 C 53.752 171.980,53.437 172.168,53.274 172.398 C 53.111 172.628,52.442 172.994,51.788 173.210 C 51.134 173.426,50.516 173.750,50.416 173.928 C 49.986 174.697,48.821 174.721,48.125 173.976 C 47.446 173.250,46.965 173.277,46.965 174.041 C 46.965 174.308,47.193 174.573,47.533 174.702 C 48.891 175.219,47.839 177.156,46.143 177.262 C 45.941 177.275,44.849 176.362,43.961 175.440 C 43.571 175.034,43.117 174.702,42.953 174.702 C 42.789 174.702,42.655 174.600,42.655 174.476 C 42.655 174.351,42.297 173.871,41.860 173.408 C 41.424 172.945,41.066 172.434,41.066 172.273 C 41.066 172.111,40.934 171.980,40.771 171.980 C 40.262 171.980,39.932 172.495,39.932 173.291 C 39.932 174.338,38.257 176.064,37.241 176.064 C 36.698 176.064,36.203 176.407,34.841 177.730 C 32.571 179.935,32.535 180.393,34.487 182.248 C 35.596 183.302,35.848 183.675,35.848 184.265 C 35.848 184.860,36.142 185.288,37.489 186.652 L 39.131 188.315 41.982 188.315 C 45.156 188.315,45.377 188.227,45.377 186.958 C 45.377 186.295,45.251 186.070,44.697 185.742 C 44.322 185.521,44.016 185.256,44.016 185.153 C 44.016 185.050,43.721 184.673,43.360 184.315 C 42.062 183.026,42.176 182.519,44.239 180.419 C 45.935 178.694,46.134 178.559,46.991 178.559 C 47.714 178.559,47.940 178.464,48.030 178.121 C 48.227 177.369,48.802 177.361,49.524 178.099 C 50.520 179.118,52.718 179.121,53.623 178.106 C 54.065 177.609,54.432 177.425,54.979 177.425 C 55.516 177.425,55.914 177.232,56.381 176.744 L 57.033 176.064 60.075 176.064 C 62.946 176.064,63.124 176.090,63.238 176.526 C 63.304 176.781,63.652 177.141,64.011 177.326 C 64.369 177.512,64.663 177.756,64.663 177.868 C 64.663 178.345,65.430 178.786,66.261 178.786 C 67.016 178.786,67.199 178.887,67.499 179.467 L 67.851 180.147 70.068 180.147 C 72.344 180.147,72.830 179.983,72.830 179.210 C 72.830 178.977,73.036 178.788,73.335 178.745 C 73.613 178.705,73.959 178.432,74.105 178.138 C 74.251 177.844,74.611 177.485,74.905 177.339 C 75.375 177.106,75.453 176.873,75.553 175.415 C 75.655 173.932,75.732 173.710,76.290 173.303 C 77.326 172.550,77.009 171.980,75.553 171.980 C 74.324 171.980,74.236 172.105,74.362 173.672 C 74.539 175.881,74.278 177.176,73.605 177.432 C 73.299 177.549,72.947 177.913,72.821 178.243 C 72.493 179.108,69.277 178.983,67.911 178.052 C 67.435 177.728,66.616 177.337,66.092 177.184 C 65.414 176.986,65.120 176.770,65.071 176.434 C 65.034 176.174,64.774 175.848,64.494 175.709 C 64.214 175.570,63.798 175.286,63.568 175.079 C 63.339 174.872,63.040 174.702,62.902 174.702 C 62.045 174.702,61.689 173.222,62.196 171.768 L 62.451 171.034 63.443 172.008 C 63.989 172.543,64.436 173.088,64.437 173.218 C 64.445 174.690,65.313 175.606,65.814 174.670 C 66.361 173.648,65.928 172.442,64.546 171.134 C 63.133 169.799,63.088 169.382,64.200 167.969 C 64.453 167.646,64.767 166.988,64.897 166.505 C 65.162 165.522,66.173 165.279,67.223 165.946 C 67.499 166.121,68.253 166.333,68.897 166.418 C 69.883 166.547,70.090 166.658,70.205 167.117 C 70.287 167.446,70.564 167.718,70.905 167.803 C 71.215 167.881,71.469 168.093,71.469 168.275 C 71.469 168.457,71.775 168.863,72.150 169.178 C 72.553 169.517,72.830 169.970,72.830 170.287 C 72.830 171.647,73.817 172.534,74.096 171.424 C 74.172 171.119,74.506 170.692,74.837 170.475 C 75.169 170.258,75.626 169.844,75.853 169.555 C 76.446 168.802,78.172 168.792,78.402 169.541 C 78.842 170.977,79.637 170.719,79.637 169.140 C 79.637 168.093,79.421 167.896,78.274 167.896 C 77.819 167.896,77.462 167.684,77.069 167.181 C 76.467 166.413,75.780 166.406,75.780 167.170 C 75.780 168.378,71.650 168.367,71.511 167.158 C 71.455 166.673,71.319 166.534,70.900 166.534 C 69.883 166.534,69.897 165.291,70.917 165.035 C 71.305 164.938,71.469 164.739,71.469 164.367 C 71.469 164.012,71.675 163.738,72.093 163.539 C 72.606 163.294,72.729 163.071,72.786 162.285 C 72.841 161.528,72.995 161.230,73.524 160.853 C 73.891 160.592,74.192 160.228,74.192 160.045 C 74.192 159.863,74.370 159.646,74.589 159.564 C 75.381 159.265,76.949 157.483,76.874 156.968 C 76.787 156.380,76.387 156.193,76.088 156.600 M51.201 162.602 C 50.927 162.876,51.043 163.585,51.362 163.585 C 51.781 163.585,52.259 162.983,52.076 162.687 C 51.911 162.420,51.429 162.373,51.201 162.602 M60.220 162.588 C 60.713 162.777,60.669 163.067,60.100 163.371 C 59.470 163.709,59.010 163.314,59.436 162.800 C 59.769 162.399,59.745 162.406,60.220 162.588 M49.733 164.084 C 49.584 164.234,49.461 164.463,49.460 164.594 C 49.459 164.725,49.153 165.007,48.779 165.219 C 48.405 165.432,48.099 165.738,48.098 165.900 C 48.098 166.062,47.792 166.367,47.420 166.579 C 46.969 166.836,46.789 167.081,46.879 167.316 C 47.081 167.843,48.040 167.760,48.218 167.201 C 48.299 166.944,48.612 166.621,48.914 166.484 C 49.215 166.347,49.461 166.152,49.461 166.052 C 49.461 165.951,49.767 165.556,50.142 165.173 C 50.516 164.790,50.822 164.327,50.822 164.144 C 50.822 163.743,50.113 163.704,49.733 164.084 M71.510 165.683 C 71.577 166.157,71.713 166.199,73.376 166.261 C 75.247 166.331,75.666 166.185,75.423 165.551 C 75.163 164.874,71.413 165.001,71.510 165.683 M45.612 168.226 C 45.109 168.833,45.882 169.342,46.449 168.776 C 46.755 168.469,46.577 167.896,46.175 167.896 C 46.016 167.896,45.763 168.044,45.612 168.226 M48.705 168.047 C 48.622 168.130,48.554 168.654,48.554 169.210 L 48.554 170.222 49.490 170.073 C 50.178 169.963,50.579 170.023,51.002 170.301 C 51.545 170.656,51.597 170.654,51.882 170.263 C 52.214 169.810,52.076 169.571,51.414 169.449 C 50.988 169.371,50.742 169.058,50.506 168.293 C 50.383 167.895,49.040 167.711,48.705 168.047 M52.773 168.063 C 52.699 168.137,52.638 168.393,52.638 168.631 C 52.638 169.164,53.392 169.089,53.497 168.546 C 53.568 168.176,53.024 167.812,52.773 168.063 M42.890 169.587 C 42.579 169.962,42.754 170.391,43.219 170.391 C 43.389 170.391,43.781 170.713,44.088 171.106 C 45.011 172.285,45.848 171.202,45.239 169.616 C 45.058 169.144,43.276 169.122,42.890 169.587 M54.056 169.417 C 53.648 169.568,53.706 170.091,54.150 170.261 C 54.705 170.474,55.082 170.011,54.670 169.623 C 54.488 169.452,54.212 169.359,54.056 169.417 M41.518 171.075 C 41.327 171.433,41.348 171.561,41.613 171.663 C 42.080 171.842,42.428 171.585,42.428 171.059 C 42.428 170.481,41.830 170.492,41.518 171.075 M77.214 171.208 C 77.138 171.408,77.214 171.658,77.384 171.763 C 77.742 171.984,78.276 171.622,78.276 171.158 C 78.276 170.722,77.385 170.765,77.214 171.208 M45.680 172.335 C 45.503 172.798,45.926 173.213,46.393 173.034 C 46.683 172.923,46.708 172.800,46.513 172.437 C 46.221 171.890,45.868 171.847,45.680 172.335 M42.745 175.973 C 43.738 176.965,43.738 176.878,42.745 177.206 C 41.580 177.590,41.128 177.138,41.512 175.973 C 41.840 174.980,41.753 174.981,42.745 175.973 M40.027 184.606 C 40.396 185.568,39.371 186.124,38.664 185.344 C 38.241 184.876,38.242 184.863,38.754 184.448 C 39.312 183.996,39.817 184.059,40.027 184.606 M42.937 185.962 L 43.651 186.331 42.831 186.752 C 41.527 187.421,39.745 186.636,41.010 185.949 C 41.815 185.513,42.072 185.514,42.937 185.962 " stroke="none" fill="#0a0c2c" fill-rule="evenodd"></path><path id="path2" d="M67.440 115.936 C 67.249 116.242,67.158 117.467,67.158 119.756 L 67.158 123.125 68.009 123.932 C 68.477 124.376,68.983 124.877,69.133 125.047 C 69.283 125.216,69.538 125.470,69.700 125.610 C 69.862 125.751,70.165 126.057,70.373 126.291 C 70.582 126.525,71.213 127.155,71.776 127.691 C 72.339 128.228,72.839 128.783,72.886 128.924 C 72.933 129.066,73.475 129.239,74.090 129.310 C 74.866 129.399,75.229 129.550,75.277 129.803 C 75.348 130.172,73.875 131.821,73.475 131.821 C 73.355 131.821,73.323 131.927,73.404 132.057 C 73.540 132.278,75.761 130.317,75.774 129.965 C 75.790 129.540,74.976 129.098,74.176 129.098 C 73.685 129.098,73.284 129.012,73.284 128.906 C 73.284 128.655,70.778 126.149,70.527 126.149 C 70.421 126.149,70.335 125.991,70.335 125.798 C 70.335 125.605,70.029 125.273,69.655 125.060 C 69.282 124.848,68.976 124.541,68.975 124.380 C 68.974 124.218,68.668 123.912,68.294 123.699 L 67.615 123.313 67.613 119.650 C 67.612 116.746,67.677 115.962,67.925 115.867 C 68.506 115.644,68.746 116.244,68.746 117.913 C 68.746 118.824,68.833 119.569,68.939 119.569 C 69.234 119.569,70.108 120.385,70.108 120.661 C 70.108 120.795,70.389 121.043,70.732 121.211 C 71.726 121.697,71.342 122.734,70.164 122.742 C 69.508 122.746,69.519 122.993,70.204 123.637 C 70.760 124.159,71.242 124.115,71.242 123.542 C 71.242 122.956,71.912 122.497,72.392 122.754 C 72.633 122.883,72.830 123.127,72.830 123.296 C 72.830 123.770,73.367 123.880,75.696 123.880 C 77.835 123.880,77.844 123.882,78.227 124.548 C 78.437 124.916,78.789 125.263,79.007 125.320 C 79.226 125.377,79.505 125.689,79.629 126.013 C 79.822 126.522,79.986 126.602,80.834 126.602 C 82.156 126.602,82.360 126.875,82.360 128.648 C 82.360 130.054,83.578 132.039,84.113 131.504 C 84.171 131.447,83.993 131.213,83.717 130.986 C 82.624 130.084,82.587 129.998,82.587 128.409 C 82.587 126.693,82.351 126.375,81.079 126.375 C 80.603 126.375,80.135 126.043,79.166 125.014 L 77.882 123.653 75.717 123.653 C 73.589 123.653,73.541 123.641,72.979 122.972 C 72.664 122.598,72.319 122.292,72.213 122.292 C 72.107 122.292,71.843 121.991,71.627 121.625 C 71.410 121.258,71.036 120.895,70.795 120.819 C 70.555 120.743,70.300 120.498,70.229 120.274 C 70.158 120.051,69.847 119.733,69.537 119.567 C 69.027 119.294,68.973 119.127,68.973 117.814 C 68.973 115.692,68.191 114.733,67.440 115.936 M49.733 118.480 C 48.888 119.325,49.378 120.447,51.493 122.509 C 53.663 124.623,53.778 125.014,52.231 125.014 C 51.661 125.014,51.308 125.190,50.865 125.695 L 50.268 126.375 44.008 126.375 L 37.748 126.375 37.096 127.056 C 36.508 127.670,36.304 127.737,35.032 127.737 C 33.741 127.737,33.570 127.795,33.047 128.417 C 32.518 129.046,32.360 129.098,30.993 129.098 C 29.561 129.098,28.588 129.574,28.588 130.275 C 28.588 130.377,28.197 130.459,27.720 130.459 C 27.141 130.459,26.706 130.613,26.415 130.921 C 26.175 131.175,25.787 131.558,25.554 131.772 C 25.320 131.986,25.014 132.296,24.873 132.461 C 24.732 132.625,24.429 132.932,24.199 133.141 C 23.656 133.635,20.873 136.419,20.379 136.961 C 20.169 137.191,19.863 137.495,19.698 137.635 C 19.534 137.776,19.227 138.082,19.018 138.316 C 18.808 138.550,18.502 138.856,18.337 138.997 C 18.172 139.137,17.873 139.444,17.673 139.677 C 17.472 139.911,17.115 140.274,16.879 140.483 C 16.642 140.693,16.334 140.999,16.193 141.164 C 16.053 141.329,15.746 141.637,15.513 141.849 C 15.279 142.061,14.955 142.367,14.793 142.530 C 14.631 142.692,14.299 143.003,14.056 143.222 C 13.789 143.461,13.613 143.912,13.613 144.357 C 13.613 144.883,13.418 145.280,12.933 145.737 C 12.271 146.362,12.252 146.439,12.252 148.494 L 12.252 150.608 15.391 153.807 L 18.530 157.005 19.992 157.005 C 21.332 157.005,21.503 157.062,22.050 157.686 C 22.501 158.199,22.843 158.366,23.442 158.366 C 24.046 158.366,24.374 158.203,24.809 157.686 C 25.338 157.057,25.496 157.005,26.865 157.005 C 28.249 157.005,28.381 156.960,28.850 156.324 C 29.451 155.512,29.838 155.464,30.202 156.154 C 30.566 156.845,30.839 156.998,31.722 157.002 C 32.277 157.004,32.624 157.184,33.047 157.686 C 33.575 158.313,33.735 158.366,35.089 158.366 C 36.443 158.366,36.603 158.420,37.131 159.047 C 37.519 159.508,37.911 159.728,38.345 159.728 C 39.200 159.728,39.705 159.938,39.705 160.295 C 39.705 160.719,39.168 160.862,37.574 160.862 C 36.272 160.862,36.121 160.915,35.667 161.530 C 35.281 162.051,34.967 162.212,34.229 162.267 C 31.967 162.435,32.681 163.812,35.031 163.812 C 36.417 163.812,36.548 163.857,37.018 164.492 C 37.521 165.172,37.525 165.173,39.854 165.173 C 42.183 165.173,42.188 165.172,42.690 164.492 C 43.734 163.081,46.602 163.557,46.797 165.174 C 46.889 165.937,46.894 165.931,46.929 165.011 C 46.975 163.805,46.615 163.585,44.598 163.585 C 43.123 163.585,42.201 164.024,42.201 164.727 C 42.201 165.219,37.630 164.891,37.347 164.379 C 36.954 163.668,36.741 163.592,35.138 163.588 C 34.171 163.586,33.546 163.478,33.385 163.284 C 33.007 162.829,33.521 162.450,34.517 162.450 C 35.196 162.450,35.458 162.318,35.841 161.779 C 36.291 161.147,36.423 161.104,38.069 161.042 L 39.818 160.976 39.818 160.295 C 39.818 159.704,39.729 159.606,39.138 159.552 C 37.852 159.435,37.513 159.284,37.253 158.712 C 37.009 158.176,36.886 158.139,35.342 158.139 C 33.763 158.138,33.673 158.109,33.239 157.459 C 32.860 156.892,32.634 156.779,31.871 156.779 C 31.196 156.778,30.869 156.652,30.623 156.297 C 29.704 154.971,29.500 154.936,28.787 155.983 C 28.256 156.762,28.221 156.775,26.645 156.777 C 25.122 156.778,25.017 156.812,24.530 157.472 C 23.875 158.357,22.746 158.351,22.305 157.459 C 22.051 156.944,21.863 156.881,20.260 156.778 C 18.598 156.671,18.477 156.628,18.191 156.028 C 18.024 155.678,17.638 155.297,17.334 155.181 C 17.030 155.066,16.684 154.714,16.564 154.400 C 16.445 154.086,16.237 153.829,16.104 153.829 C 15.970 153.829,15.099 153.068,14.169 152.138 L 12.479 150.447 12.479 148.407 C 12.479 146.388,12.486 146.363,13.149 145.971 C 13.712 145.639,13.829 145.411,13.886 144.542 C 13.943 143.671,14.051 143.462,14.577 143.211 C 14.921 143.047,15.201 142.810,15.201 142.683 C 15.201 142.376,15.785 141.804,16.098 141.804 C 16.235 141.804,16.445 141.547,16.564 141.232 C 16.684 140.918,17.040 140.563,17.357 140.442 C 17.673 140.322,18.025 139.981,18.138 139.683 C 18.251 139.386,18.554 139.088,18.811 139.021 C 19.069 138.953,19.375 138.647,19.492 138.340 C 19.609 138.033,19.924 137.724,20.192 137.654 C 20.461 137.584,20.729 137.339,20.789 137.110 C 20.849 136.880,21.199 136.520,21.567 136.309 C 21.934 136.098,22.235 135.765,22.235 135.569 C 22.235 135.373,22.491 135.115,22.805 134.996 C 23.118 134.877,23.488 134.531,23.627 134.227 C 23.765 133.923,24.078 133.622,24.321 133.558 C 24.565 133.495,24.822 133.223,24.892 132.955 C 24.962 132.686,25.263 132.374,25.560 132.261 C 25.857 132.148,26.196 131.804,26.312 131.497 C 26.490 131.030,26.698 130.928,27.596 130.869 C 28.518 130.809,28.719 130.705,29.042 130.119 C 29.402 129.466,29.487 129.436,31.150 129.372 C 32.801 129.309,32.903 129.274,33.280 128.635 C 33.662 127.989,33.740 127.964,35.322 127.964 C 36.796 127.964,36.994 127.911,37.235 127.453 C 37.675 126.619,37.752 126.609,44.284 126.606 L 50.565 126.602 51.049 125.922 C 51.461 125.343,51.683 125.241,52.524 125.241 C 53.290 125.241,53.545 125.146,53.648 124.819 C 53.804 124.328,53.592 123.653,53.283 123.653 C 52.719 123.653,49.688 120.257,49.688 119.625 C 49.688 118.309,50.136 118.350,51.496 119.789 L 52.769 121.134 54.324 121.202 C 55.603 121.258,55.925 121.351,56.131 121.724 C 56.536 122.458,56.729 122.511,58.997 122.515 C 61.113 122.518,61.171 122.533,61.755 123.199 C 62.214 123.721,62.545 123.880,63.178 123.880 C 63.857 123.880,64.071 124.000,64.389 124.559 C 64.602 124.933,64.908 125.239,65.070 125.240 C 65.232 125.240,65.538 125.547,65.751 125.920 C 65.963 126.294,66.228 126.600,66.339 126.601 C 66.450 126.602,67.133 127.215,67.857 127.964 C 68.925 129.069,69.309 129.325,69.897 129.325 C 70.468 129.325,70.862 129.569,71.751 130.472 C 72.372 131.103,72.937 131.563,73.005 131.494 C 73.332 131.167,70.889 129.099,70.176 129.098 C 69.550 129.098,69.079 128.724,66.751 126.375 C 64.301 123.905,63.976 123.653,63.238 123.653 C 62.593 123.653,62.324 123.512,61.940 122.972 C 61.457 122.295,61.445 122.292,59.217 122.292 C 56.990 122.292,56.977 122.288,56.495 121.611 C 56.040 120.972,55.917 120.930,54.514 120.930 L 53.017 120.930 51.730 119.569 C 50.383 118.145,50.180 118.034,49.733 118.480 M56.551 124.057 C 55.773 124.181,55.940 124.557,56.948 124.953 C 57.448 125.149,57.856 125.435,57.856 125.588 C 57.856 126.111,58.448 126.415,58.752 126.048 C 59.398 125.270,57.832 123.852,56.551 124.057 M74.467 125.495 C 73.830 125.730,73.835 125.947,74.491 126.564 L 75.018 127.059 75.536 126.507 C 76.292 125.702,75.622 125.067,74.467 125.495 M63.609 126.546 C 63.418 127.275,63.465 127.388,64.111 127.746 C 64.499 127.961,64.827 128.385,64.939 128.818 C 65.203 129.838,67.109 131.761,67.950 131.857 C 68.395 131.908,68.718 132.126,68.904 132.501 C 69.295 133.290,69.779 133.232,69.719 132.405 C 69.658 131.566,69.230 131.135,68.261 130.938 C 67.738 130.831,67.404 130.585,67.197 130.154 C 67.030 129.809,66.648 129.433,66.346 129.318 C 65.965 129.173,65.797 128.934,65.797 128.537 C 65.797 127.456,63.837 125.673,63.609 126.546 M78.035 127.989 C 77.813 128.403,77.890 128.582,78.606 129.314 C 79.060 129.780,79.606 130.509,79.818 130.934 C 80.418 132.136,80.887 131.951,80.875 130.517 C 80.860 128.595,78.727 126.697,78.035 127.989 M38.798 129.093 C 38.610 129.217,37.688 129.320,36.748 129.322 C 35.183 129.325,34.934 129.392,33.806 130.119 C 32.854 130.732,32.336 130.913,31.532 130.913 C 30.775 130.913,30.279 131.070,29.715 131.485 C 29.289 131.800,28.580 132.155,28.140 132.274 C 26.919 132.605,21.346 138.246,21.694 138.799 C 22.111 139.460,23.655 139.341,23.821 138.636 C 23.903 138.289,24.163 138.027,24.504 137.947 C 24.845 137.866,25.104 137.605,25.185 137.258 C 25.291 136.806,25.477 136.685,26.158 136.628 C 27.097 136.550,27.316 136.951,26.452 137.168 C 26.127 137.249,25.849 137.527,25.768 137.849 C 25.687 138.171,25.409 138.449,25.087 138.530 C 24.770 138.610,24.487 138.889,24.409 139.199 C 24.336 139.492,24.046 139.803,23.766 139.891 C 22.662 140.235,22.447 143.982,23.492 144.667 C 24.657 145.430,25.155 144.857,25.232 142.664 L 25.298 140.783 26.092 140.713 C 26.788 140.652,27.488 140.045,31.764 135.802 C 37.072 130.535,37.169 130.459,38.626 130.459 C 39.880 130.459,40.607 129.982,40.249 129.395 C 39.956 128.915,39.281 128.774,38.798 129.093 M38.677 132.283 C 38.270 132.732,38.272 132.757,38.743 133.228 C 39.279 133.765,39.932 133.500,39.932 132.746 C 39.932 131.872,39.269 131.628,38.677 132.283 M84.734 132.401 C 85.078 132.719,85.406 132.934,85.463 132.877 C 85.598 132.742,84.607 131.821,84.326 131.821 C 84.206 131.821,84.390 132.082,84.734 132.401 M39.604 132.521 C 39.838 132.900,39.312 133.333,38.999 133.020 C 38.737 132.759,38.901 132.275,39.251 132.275 C 39.361 132.275,39.520 132.386,39.604 132.521 M85.763 133.377 C 85.763 133.493,85.916 133.646,86.103 133.718 C 86.328 133.804,86.444 134.159,86.444 134.763 C 86.444 135.266,86.521 135.678,86.615 135.678 C 87.002 135.678,86.623 133.626,86.193 133.397 C 85.943 133.262,85.763 133.254,85.763 133.377 M78.623 133.775 C 78.432 133.966,78.276 134.252,78.276 134.411 C 78.276 134.570,78.071 134.885,77.822 135.111 C 77.549 135.358,77.368 135.809,77.368 136.245 C 77.368 136.922,76.810 137.720,76.335 137.720 C 76.224 137.720,75.553 137.111,74.846 136.368 L 73.559 135.016 72.344 136.363 C 70.980 137.875,70.872 137.916,70.003 137.232 C 68.972 136.421,68.514 137.846,68.952 140.499 C 69.279 142.481,69.346 142.590,69.982 142.173 C 70.264 141.988,70.875 141.765,71.340 141.678 C 71.804 141.591,72.406 141.286,72.677 141.001 C 73.829 139.790,82.608 139.439,83.813 140.556 C 85.755 142.356,85.976 137.978,84.040 136.042 C 83.110 135.113,82.587 135.274,82.587 136.490 C 82.587 136.764,82.395 137.225,82.162 137.513 L 81.737 138.037 81.368 137.323 C 81.165 136.930,80.998 136.414,80.998 136.176 C 80.998 135.938,80.751 135.477,80.449 135.151 C 80.146 134.825,79.836 134.360,79.759 134.118 C 79.568 133.516,79.041 133.357,78.623 133.775 M35.224 137.156 C 32.522 139.902,32.198 140.820,33.579 141.804 C 34.642 142.561,34.496 143.165,33.249 143.165 C 30.980 143.165,30.067 145.510,31.720 147.093 C 33.359 148.664,35.957 146.457,34.593 144.653 C 33.462 143.158,34.578 142.767,35.979 144.168 L 36.982 145.171 36.982 147.254 L 36.982 149.336 38.965 151.279 C 40.056 152.348,41.054 153.435,41.183 153.696 C 41.385 154.101,41.659 154.179,43.105 154.237 L 44.791 154.304 46.068 155.655 L 47.345 157.005 48.841 157.005 C 50.237 157.005,50.372 157.051,50.876 157.695 C 51.365 158.320,52.184 158.467,52.184 157.931 C 52.184 157.843,52.392 157.548,52.646 157.275 C 52.901 157.002,53.010 156.778,52.890 156.778 C 52.769 156.778,52.422 157.095,52.119 157.483 L 51.568 158.187 51.066 157.483 C 50.592 156.816,50.483 156.778,49.049 156.772 L 47.533 156.767 46.181 155.298 L 44.829 153.829 43.399 153.829 L 41.969 153.829 39.589 151.481 L 37.209 149.132 37.209 147.030 L 37.209 144.928 35.167 142.938 C 32.546 140.383,32.539 140.282,34.823 138.013 C 36.881 135.969,36.982 136.008,36.982 138.848 C 36.982 141.039,36.996 141.098,37.663 141.727 C 38.145 142.182,38.344 142.582,38.344 143.099 C 38.344 143.777,39.038 144.753,39.521 144.753 C 39.622 144.753,39.705 145.158,39.705 145.652 C 39.705 146.471,40.333 147.476,40.844 147.476 C 40.924 147.476,41.125 147.729,41.291 148.039 C 41.457 148.349,41.764 148.657,41.974 148.724 C 42.184 148.790,42.490 149.097,42.655 149.404 C 42.819 149.712,43.126 150.019,43.337 150.086 C 43.548 150.153,43.836 150.461,43.977 150.770 C 44.185 151.228,44.397 151.333,45.108 151.333 C 45.794 151.333,46.114 151.480,46.589 152.014 C 47.042 152.521,47.395 152.694,47.979 152.694 C 48.410 152.694,48.894 152.852,49.055 153.045 C 50.067 154.260,50.129 154.282,52.461 154.282 C 54.144 154.282,54.723 154.359,54.813 154.594 C 54.906 154.836,55.053 154.798,55.473 154.424 C 55.991 153.962,55.996 153.935,55.574 153.779 C 55.053 153.587,55.012 153.304,55.453 152.938 C 55.707 152.728,55.848 152.779,56.134 153.188 C 56.332 153.471,56.495 153.597,56.495 153.469 C 56.495 152.445,55.383 152.306,54.942 153.274 C 54.565 154.101,50.094 154.139,49.662 153.318 C 49.291 152.614,49.026 152.475,48.043 152.471 C 47.575 152.469,47.192 152.385,47.192 152.283 C 47.192 151.785,46.215 151.106,45.498 151.106 C 44.239 151.106,39.932 146.718,39.932 145.435 C 39.932 144.935,39.845 144.526,39.740 144.526 C 39.174 144.526,38.571 143.630,38.571 142.790 C 38.571 142.043,38.462 141.837,37.890 141.500 C 36.822 140.869,36.832 137.112,37.903 136.350 C 38.374 136.014,38.574 135.700,38.526 135.370 C 38.377 134.320,37.600 134.740,35.224 137.156 M38.188 135.310 C 38.254 135.482,38.196 135.735,38.059 135.872 C 37.732 136.199,37.188 135.770,37.361 135.321 C 37.519 134.908,38.032 134.901,38.188 135.310 M87.124 136.139 C 87.124 136.267,87.277 136.431,87.465 136.503 C 87.686 136.588,87.805 136.940,87.805 137.508 C 87.805 138.035,87.949 138.499,88.167 138.675 C 88.366 138.836,88.774 139.212,89.074 139.511 C 89.374 139.810,89.620 139.957,89.620 139.838 C 89.620 139.627,89.107 139.051,88.383 138.448 C 88.190 138.287,88.032 137.810,88.032 137.387 C 88.032 136.964,87.871 136.457,87.675 136.261 C 87.259 135.845,87.124 135.815,87.124 136.139 M18.089 141.752 C 16.578 143.270,16.109 143.887,16.109 144.355 C 16.109 144.693,15.911 145.295,15.669 145.693 C 15.068 146.681,15.525 147.703,16.569 147.703 C 17.351 147.703,17.343 147.685,16.916 148.508 C 16.319 149.660,17.934 151.787,19.407 151.787 C 20.012 151.787,20.193 151.880,20.193 152.195 C 20.193 152.718,20.623 153.148,21.146 153.148 C 21.388 153.148,21.554 153.314,21.554 153.556 C 21.554 154.501,22.765 154.872,22.999 153.999 C 23.280 152.953,23.103 152.602,21.441 150.894 C 19.456 148.854,19.305 148.285,20.442 147.112 C 21.215 146.315,21.202 145.434,20.418 145.434 C 20.184 145.434,19.930 145.332,19.853 145.207 C 19.767 145.069,20.109 144.980,20.730 144.980 C 22.103 144.980,22.462 144.580,22.462 143.052 C 22.462 141.812,22.091 141.123,21.425 141.123 C 21.246 141.123,21.100 140.977,21.100 140.799 C 21.100 140.465,20.510 139.762,20.229 139.762 C 20.141 139.762,19.179 140.657,18.089 141.752 M89.847 140.094 C 89.847 140.196,90.024 140.409,90.241 140.567 C 90.613 140.839,90.611 140.881,90.206 141.329 C 89.970 141.590,89.879 141.804,90.003 141.804 C 90.735 141.804,90.984 140.978,90.414 140.442 C 90.102 140.149,89.847 139.993,89.847 140.094 M89.317 142.182 C 89.081 142.418,89.140 143.803,89.393 143.959 C 89.532 144.045,89.620 143.697,89.620 143.065 C 89.620 142.013,89.586 141.913,89.317 142.182 M63.152 144.570 C 62.633 145.374,62.248 152.708,62.711 152.967 C 62.911 153.079,63.074 153.319,63.074 153.500 C 63.074 153.933,62.416 153.924,62.249 153.488 C 61.957 152.728,59.968 154.123,59.574 155.366 C 59.476 155.675,59.151 155.860,58.530 155.959 C 56.452 156.291,57.781 158.667,60.267 159.065 C 63.730 159.619,63.575 159.621,63.491 159.028 C 63.435 158.636,63.538 158.468,63.868 158.407 C 64.484 158.292,64.837 157.939,64.543 157.733 C 64.416 157.645,64.190 157.292,64.039 156.948 C 63.827 156.466,63.609 156.324,63.079 156.324 C 62.702 156.324,62.394 156.222,62.394 156.098 C 62.394 155.800,63.506 155.807,64.377 156.111 C 65.184 156.393,67.553 156.307,66.818 156.023 C 66.568 155.926,66.075 155.700,65.722 155.519 C 65.369 155.338,64.841 155.190,64.549 155.190 C 63.783 155.190,63.301 154.961,63.301 154.599 C 63.301 154.376,63.599 154.282,64.309 154.282 C 65.541 154.282,65.723 154.051,65.014 153.385 C 64.041 152.471,63.898 151.784,64.405 150.451 L 64.854 149.270 64.191 148.592 C 63.380 147.763,63.293 146.624,63.993 145.991 C 64.606 145.436,64.510 144.440,63.833 144.343 C 63.564 144.305,63.258 144.407,63.152 144.570 M90.171 144.656 C 90.619 145.104,90.624 145.411,90.187 145.579 C 90.000 145.651,89.847 145.818,89.847 145.952 C 89.847 146.085,90.102 145.954,90.414 145.661 C 90.977 145.132,90.738 144.299,90.022 144.299 C 89.908 144.299,89.975 144.460,90.171 144.656 M25.880 145.860 C 25.398 146.759,25.666 148.837,26.264 148.837 C 26.454 148.837,27.596 149.807,28.803 150.993 C 31.180 153.328,31.263 153.373,31.886 152.685 C 32.299 152.228,32.276 152.193,30.117 150.019 C 27.994 147.881,27.927 147.783,27.861 146.682 C 27.783 145.376,26.438 144.818,25.880 145.860 M73.331 146.258 C 72.805 146.488,73.505 147.022,74.333 147.022 C 74.754 147.022,75.099 147.128,75.099 147.257 C 75.099 147.416,75.245 147.414,75.553 147.249 C 76.112 146.950,76.150 146.342,75.610 146.339 C 75.391 146.338,74.855 146.290,74.419 146.233 C 73.982 146.176,73.493 146.187,73.331 146.258 M88.985 146.727 C 88.311 147.483,88.474 147.646,89.166 146.909 C 89.458 146.598,89.653 146.299,89.599 146.245 C 89.545 146.191,89.269 146.408,88.985 146.727 M70.718 146.651 C 70.495 147.233,70.531 148.664,70.779 149.056 C 71.273 149.838,71.608 147.963,71.162 146.916 C 70.917 146.343,70.851 146.304,70.718 146.651 M79.694 146.849 C 78.692 147.449,78.767 147.703,79.946 147.703 C 80.881 147.703,80.929 147.671,80.826 147.132 C 80.680 146.365,80.554 146.334,79.694 146.849 M87.521 148.132 C 87.055 148.605,87.005 148.869,87.413 148.712 C 87.745 148.585,88.349 147.696,88.090 147.716 C 87.996 147.724,87.740 147.911,87.521 148.132 M74.872 148.547 C 74.685 148.618,74.304 148.760,74.025 148.863 L 73.518 149.050 73.988 149.846 L 74.457 150.642 74.001 151.282 L 73.545 151.922 74.152 152.870 C 75.085 154.326,76.204 154.963,77.832 154.963 C 78.582 154.963,79.183 154.862,79.183 154.736 C 79.183 154.611,78.770 154.509,78.264 154.509 C 77.446 154.509,77.318 154.434,77.107 153.829 C 76.858 153.114,76.570 152.954,76.394 153.432 C 75.929 154.701,75.357 151.445,75.762 149.835 C 76.082 148.563,75.824 148.189,74.872 148.547 M86.160 149.494 C 85.693 149.967,85.644 150.230,86.051 150.074 C 86.383 149.946,86.988 149.057,86.729 149.078 C 86.634 149.085,86.378 149.272,86.160 149.494 M81.294 150.152 C 81.134 150.253,81.033 150.801,81.048 151.474 C 81.065 152.215,80.940 152.814,80.696 153.163 C 80.488 153.460,80.318 153.572,80.318 153.412 C 80.318 153.252,80.216 153.184,80.091 153.261 C 79.966 153.339,79.864 153.548,79.864 153.727 C 79.864 154.230,80.872 153.983,80.951 153.460 C 80.987 153.218,81.242 152.922,81.518 152.801 C 81.946 152.613,82.019 152.402,82.019 151.352 C 82.019 150.138,81.824 149.815,81.294 150.152 M85.082 151.203 C 85.082 151.631,84.917 152.147,84.715 152.349 C 84.264 152.800,84.380 152.983,84.884 152.615 C 85.256 152.343,85.585 150.425,85.258 150.425 C 85.162 150.425,85.082 150.775,85.082 151.203 M69.448 153.411 C 69.034 154.345,69.429 154.732,70.081 154.032 C 70.667 153.403,70.679 153.227,70.155 152.947 C 69.824 152.769,69.694 152.855,69.448 153.411 M82.619 154.413 C 81.950 155.090,81.312 155.644,81.201 155.644 C 81.089 155.644,80.998 155.802,80.998 155.995 C 80.998 156.188,80.693 156.519,80.319 156.732 C 79.946 156.945,79.639 157.202,79.638 157.305 C 79.635 157.718,78.971 158.113,78.137 158.199 L 77.255 158.290 78.184 158.328 C 78.987 158.361,84.175 153.943,84.175 153.226 C 84.175 152.960,83.685 153.333,82.619 154.413 M34.660 154.157 C 34.535 154.814,34.846 155.190,35.515 155.190 C 36.297 155.190,36.348 154.923,35.695 154.241 C 34.945 153.459,34.796 153.447,34.660 154.157 M53.884 155.645 C 53.291 156.300,53.555 156.365,54.221 155.728 C 54.530 155.432,54.674 155.190,54.540 155.190 C 54.406 155.190,54.111 155.395,53.884 155.645 M75.039 155.553 C 74.835 155.757,75.116 156.341,75.350 156.196 C 75.462 156.127,75.553 155.924,75.553 155.744 C 75.553 155.410,75.283 155.309,75.039 155.553 M40.939 155.894 C 40.853 156.033,41.415 156.779,42.214 157.586 L 43.644 159.028 42.567 159.490 C 41.613 159.899,41.498 160.023,41.562 160.577 C 41.680 161.603,44.078 161.660,44.432 160.646 C 44.839 159.478,45.715 159.684,47.367 161.336 L 48.749 162.718 49.579 162.418 C 51.102 161.867,51.288 160.354,49.915 159.676 C 49.478 159.461,48.878 159.104,48.581 158.882 C 48.283 158.661,47.441 158.419,46.708 158.344 C 45.922 158.264,45.196 158.046,44.938 157.812 C 44.697 157.594,44.110 157.284,43.634 157.123 C 43.107 156.945,42.652 156.598,42.472 156.237 C 42.163 155.618,41.237 155.411,40.939 155.894 M62.999 157.782 C 62.915 158.001,62.590 158.140,62.159 158.140 C 60.550 158.140,60.122 157.093,61.676 156.958 C 62.612 156.876,63.205 157.245,62.999 157.782 M69.016 157.498 C 69.118 158.538,69.654 158.616,69.654 157.591 C 69.654 157.005,69.555 156.778,69.299 156.778 C 69.037 156.778,68.963 156.966,69.016 157.498 M65.739 158.423 C 65.687 158.579,65.690 158.885,65.747 159.104 C 65.912 159.740,67.612 159.570,67.612 158.917 C 67.612 158.282,65.936 157.840,65.739 158.423 M76.525 159.217 C 75.974 159.778,76.133 159.904,76.789 159.424 C 77.017 159.257,77.164 159.028,77.116 158.914 C 77.067 158.800,76.802 158.936,76.525 159.217 M75.173 160.533 C 74.631 161.144,74.748 161.255,75.407 160.756 C 75.638 160.581,75.791 160.333,75.747 160.207 C 75.703 160.080,75.444 160.227,75.173 160.533 M53.835 161.733 C 53.617 162.114,53.258 162.472,53.039 162.530 C 52.819 162.587,52.573 162.823,52.492 163.053 C 52.411 163.283,52.093 163.744,51.785 164.077 C 51.105 164.814,51.275 165.173,52.305 165.173 C 52.882 165.173,53.176 165.318,53.453 165.740 C 53.836 166.325,56.502 166.618,56.817 166.110 C 56.884 166.001,57.245 165.851,57.618 165.776 C 58.793 165.541,58.866 164.039,57.703 164.039 C 57.330 164.039,56.863 163.755,56.396 163.244 C 55.996 162.808,55.555 162.450,55.416 162.450 C 55.277 162.450,55.102 162.255,55.026 162.017 C 54.735 161.100,54.263 160.987,53.835 161.733 M68.847 161.430 C 68.414 161.764,68.416 161.778,68.942 162.224 C 69.988 163.110,71.505 162.505,71.075 161.373 C 70.924 160.978,69.380 161.017,68.847 161.430 M74.231 162.207 C 74.197 163.090,74.288 163.301,74.986 163.940 C 75.426 164.342,75.780 164.534,75.780 164.368 C 75.780 164.204,75.479 163.855,75.112 163.594 C 74.591 163.223,74.425 162.908,74.358 162.160 L 74.271 161.202 74.231 162.207 M76.525 165.457 C 76.802 165.737,77.063 165.887,77.106 165.789 C 77.220 165.529,76.682 164.946,76.327 164.946 C 76.131 164.946,76.202 165.128,76.525 165.457 M45.600 166.653 C 45.161 167.182,45.474 167.281,45.943 166.763 C 46.170 166.512,46.250 166.307,46.121 166.307 C 45.992 166.307,45.757 166.463,45.600 166.653 M78.215 166.473 C 78.877 166.533,79.282 166.713,79.520 167.051 C 79.764 167.400,79.864 167.443,79.864 167.197 C 79.864 166.586,79.345 166.306,78.287 166.347 L 77.255 166.387 78.215 166.473 M65.835 167.105 C 65.462 167.418,64.994 168.153,64.795 168.737 L 64.433 169.800 65.172 170.601 C 65.578 171.042,65.971 171.456,66.045 171.521 C 66.119 171.586,66.248 171.990,66.331 172.418 C 66.415 172.847,66.628 173.358,66.805 173.553 C 66.982 173.749,67.159 174.366,67.199 174.924 C 67.255 175.705,67.388 175.997,67.775 176.189 C 68.053 176.327,68.494 176.712,68.756 177.045 C 69.540 178.042,71.806 177.943,72.988 176.860 C 74.147 175.797,74.266 173.650,73.222 172.614 C 72.882 172.276,72.604 171.837,72.604 171.638 C 72.604 170.998,71.924 169.938,70.962 169.076 C 70.446 168.614,69.776 167.961,69.473 167.625 C 69.028 167.133,67.451 166.534,66.597 166.534 C 66.551 166.534,66.207 166.791,65.835 167.105 M72.490 166.977 C 72.104 167.133,72.161 167.185,72.867 167.323 C 73.860 167.516,74.882 167.277,74.392 166.967 C 74.009 166.724,73.102 166.729,72.490 166.977 M42.803 168.084 C 42.243 168.702,42.349 168.955,42.938 168.406 C 43.219 168.144,43.806 167.887,44.243 167.835 C 45.027 167.742,45.026 167.741,44.108 167.705 C 43.462 167.680,43.064 167.795,42.803 168.084 M80.494 168.022 C 81.106 168.450,81.173 169.595,80.623 170.203 C 80.212 170.657,80.512 170.787,80.953 170.346 C 81.623 169.676,81.159 167.669,80.335 167.669 C 80.094 167.669,80.142 167.775,80.494 168.022 M46.443 169.062 C 45.520 170.024,45.486 170.491,46.269 171.412 C 46.481 171.662,46.829 172.147,47.042 172.490 C 47.639 173.452,48.681 173.354,49.776 172.233 C 50.715 171.271,50.672 171.162,49.274 170.939 C 48.114 170.753,47.923 170.532,47.832 169.270 C 47.739 167.992,47.504 167.957,46.443 169.062 M55.360 168.690 C 55.520 168.882,56.014 169.030,56.498 169.030 C 57.049 169.030,57.400 168.909,57.484 168.690 C 57.591 168.412,57.381 168.349,56.346 168.349 C 55.244 168.349,55.115 168.394,55.360 168.690 M41.405 169.485 C 40.799 170.155,41.124 170.261,41.748 169.596 C 42.040 169.285,42.176 169.030,42.049 169.030 C 41.921 169.030,41.632 169.235,41.405 169.485 M76.086 170.059 C 76.012 170.251,75.658 170.560,75.299 170.746 C 74.387 171.218,74.485 171.526,75.547 171.526 C 76.320 171.526,76.499 171.428,76.801 170.845 C 76.994 170.471,77.252 170.164,77.374 170.164 C 77.496 170.164,77.595 170.062,77.595 169.938 C 77.595 169.564,76.234 169.673,76.086 170.059 M40.044 170.847 C 39.438 171.517,39.762 171.622,40.387 170.958 C 40.679 170.646,40.815 170.391,40.687 170.391 C 40.560 170.391,40.271 170.596,40.044 170.847 M42.852 171.387 C 42.716 171.686,42.346 172.048,42.029 172.192 L 41.454 172.454 42.281 173.212 C 42.736 173.628,43.108 174.061,43.108 174.173 C 43.108 174.284,43.389 174.497,43.732 174.644 C 44.075 174.792,44.541 175.044,44.767 175.204 C 45.123 175.458,45.255 175.408,45.756 174.831 C 46.246 174.267,46.284 174.128,46.004 173.923 C 45.822 173.790,45.506 173.357,45.301 172.960 C 45.096 172.563,44.739 172.178,44.507 172.105 C 44.275 172.031,43.969 171.718,43.828 171.408 C 43.505 170.699,43.169 170.692,42.852 171.387 M79.343 171.436 C 79.119 171.735,79.026 171.980,79.137 171.980 C 79.450 171.980,80.144 171.131,79.935 171.004 C 79.834 170.943,79.567 171.137,79.343 171.436 M38.719 172.168 C 38.486 172.425,38.357 172.920,38.380 173.472 L 38.416 174.362 38.510 173.568 C 38.562 173.131,38.819 172.544,39.081 172.263 C 39.343 171.982,39.453 171.753,39.326 171.753 C 39.199 171.753,38.926 171.939,38.719 172.168 M77.981 172.795 C 77.757 173.095,77.668 173.341,77.784 173.341 C 78.078 173.341,78.561 172.719,78.467 172.462 C 78.424 172.345,78.206 172.494,77.981 172.795 M76.959 175.233 C 76.922 176.533,76.832 176.854,76.404 177.211 C 76.123 177.445,76.005 177.640,76.142 177.644 C 76.826 177.665,77.163 176.803,77.083 175.239 L 77.003 173.681 76.959 175.233 M35.997 174.890 C 35.437 175.509,35.543 175.762,36.132 175.212 C 36.412 174.950,36.999 174.694,37.436 174.642 C 38.221 174.549,38.219 174.548,37.301 174.512 C 36.655 174.486,36.258 174.602,35.997 174.890 M34.599 176.292 C 33.992 176.962,34.317 177.067,34.941 176.403 C 35.234 176.091,35.369 175.837,35.242 175.837 C 35.115 175.837,34.825 176.041,34.599 176.292 M33.238 177.653 C 32.631 178.323,32.956 178.429,33.580 177.764 C 33.873 177.453,34.008 177.198,33.881 177.198 C 33.754 177.198,33.464 177.403,33.238 177.653 M56.835 177.425 C 56.744 177.572,57.782 177.652,59.784 177.652 C 61.787 177.652,62.825 177.572,62.734 177.425 C 62.653 177.293,61.413 177.198,59.784 177.198 C 58.156 177.198,56.916 177.293,56.835 177.425 M56.186 178.219 C 56.100 178.442,55.746 178.559,55.154 178.559 C 54.658 178.559,54.189 178.661,54.112 178.786 C 53.781 179.323,55.733 179.015,56.268 178.446 C 56.561 178.134,56.692 177.879,56.558 177.879 C 56.425 177.879,56.258 178.032,56.186 178.219 M63.074 178.031 C 63.074 178.321,63.945 179.125,64.096 178.975 C 64.157 178.914,63.952 178.624,63.641 178.332 C 63.329 178.039,63.074 177.904,63.074 178.031 M75.098 178.447 C 74.806 178.758,74.670 179.013,74.798 179.013 C 75.087 179.013,75.892 178.142,75.742 177.992 C 75.680 177.930,75.391 178.135,75.098 178.447 M31.913 178.974 C 31.194 179.768,31.610 181.736,32.496 181.736 C 32.631 181.736,32.521 181.545,32.253 181.312 C 31.621 180.764,31.623 179.759,32.257 179.084 C 32.529 178.796,32.647 178.559,32.519 178.559 C 32.392 178.559,32.119 178.746,31.913 178.974 M45.859 179.303 C 45.719 179.443,45.604 179.741,45.604 179.966 C 45.604 180.214,45.437 180.374,45.178 180.374 C 44.684 180.374,44.327 180.750,44.208 181.395 C 44.160 181.659,43.911 181.880,43.617 181.922 C 43.013 182.008,42.926 182.643,43.519 182.643 C 43.744 182.643,44.127 182.493,44.370 182.310 C 44.612 182.127,44.982 181.974,45.192 181.970 C 45.402 181.966,45.643 181.733,45.727 181.452 C 45.812 181.171,46.179 180.627,46.543 180.244 L 47.205 179.545 46.659 179.297 C 46.261 179.115,46.045 179.117,45.859 179.303 M53.318 179.694 C 53.046 180.071,52.731 180.147,51.445 180.147 C 49.941 180.147,47.873 181.471,47.873 182.433 C 47.873 182.544,47.618 182.699,47.306 182.777 C 46.994 182.855,46.739 183.058,46.739 183.228 C 46.739 183.398,46.432 183.764,46.058 184.040 C 45.664 184.332,45.385 184.741,45.395 185.011 C 45.405 185.269,45.459 185.369,45.515 185.234 C 45.571 185.099,46.655 183.950,47.923 182.681 L 50.230 180.374 51.645 180.374 C 53.006 180.374,53.772 180.042,53.772 179.451 C 53.772 179.141,53.682 179.189,53.318 179.694 M64.436 179.392 C 64.436 179.905,65.287 180.373,66.155 180.338 L 67.045 180.302 66.251 180.208 C 65.814 180.156,65.227 179.899,64.946 179.637 C 64.665 179.375,64.436 179.265,64.436 179.392 M73.779 179.809 C 73.508 180.120,73.373 180.374,73.477 180.374 C 73.737 180.374,74.519 179.491,74.381 179.354 C 74.320 179.293,74.049 179.498,73.779 179.809 M67.158 180.776 C 67.158 181.793,71.868 182.220,72.718 181.281 C 72.945 181.030,73.079 180.774,73.017 180.712 C 72.954 180.650,72.718 180.803,72.491 181.054 C 71.860 181.752,68.438 181.725,67.683 181.015 C 67.395 180.744,67.158 180.636,67.158 180.776 M32.898 182.212 C 32.898 182.389,33.113 182.668,33.374 182.831 C 34.027 183.239,34.045 183.089,33.421 182.437 C 33.076 182.076,32.898 182.000,32.898 182.212 M34.299 184.191 C 34.260 185.177,34.616 185.820,35.202 185.820 C 35.363 185.820,35.274 185.665,35.004 185.475 C 34.665 185.238,34.485 184.833,34.426 184.171 L 34.339 183.210 34.299 184.191 M45.831 185.639 C 45.831 185.738,46.232 185.820,46.723 185.820 C 47.455 185.820,47.702 185.942,48.100 186.500 C 48.490 187.048,48.749 187.181,49.431 187.181 C 50.427 187.181,50.940 187.559,50.562 188.015 C 50.404 188.206,49.793 188.315,48.885 188.315 C 47.358 188.315,46.739 188.458,46.739 188.810 C 46.739 189.846,39.630 190.183,38.767 189.188 C 38.534 188.920,38.344 188.810,38.344 188.945 C 38.344 189.758,39.002 189.904,42.669 189.904 L 46.281 189.904 46.888 189.223 C 47.448 188.594,47.611 188.542,49.017 188.542 C 51.340 188.542,51.975 187.165,49.728 186.998 C 49.032 186.946,48.671 186.773,48.315 186.317 C 47.852 185.727,45.831 185.175,45.831 185.639 M35.628 186.234 C 35.644 186.556,36.284 187.225,36.503 187.148 C 36.630 187.104,36.483 186.846,36.177 186.574 C 35.871 186.303,35.624 186.150,35.628 186.234 M36.982 187.599 C 36.982 187.924,37.587 188.606,37.796 188.517 C 37.910 188.468,37.774 188.203,37.493 187.926 C 37.212 187.650,36.982 187.503,36.982 187.599 " stroke="none" fill="#ec942e" fill-rule="evenodd"></path><path id="path3" d="M51.163 129.007 C 50.873 129.365,50.380 129.618,49.801 129.705 C 49.234 129.790,48.723 130.047,48.439 130.391 C 48.144 130.748,47.657 130.985,47.055 131.066 C 46.342 131.162,46.036 131.343,45.739 131.846 C 45.526 132.207,45.211 132.501,45.039 132.501 C 44.721 132.501,44.616 132.735,44.356 134.030 C 44.274 134.434,43.978 134.946,43.697 135.167 C 43.390 135.408,43.128 135.931,43.041 136.474 C 42.952 137.032,42.676 137.571,42.322 137.879 C 41.617 138.491,41.436 141.123,42.099 141.123 C 42.481 141.123,43.108 142.402,43.108 143.182 C 43.108 143.449,43.360 143.865,43.667 144.107 C 43.977 144.350,44.292 144.898,44.374 145.334 C 44.569 146.378,46.233 148.157,47.014 148.157 C 47.327 148.157,47.969 148.463,48.440 148.837 C 48.924 149.222,49.569 149.518,49.922 149.518 C 50.294 149.518,50.765 149.747,51.082 150.081 C 52.056 151.107,54.186 150.916,54.856 149.743 C 55.333 148.908,55.450 148.837,56.347 148.837 C 58.874 148.837,61.086 147.456,61.663 145.518 C 61.996 144.398,62.485 143.905,62.912 144.259 C 63.250 144.539,63.884 144.238,63.673 143.897 C 63.596 143.772,63.663 143.562,63.822 143.431 C 64.175 143.137,64.785 143.464,64.561 143.826 C 64.056 144.644,64.289 146.103,65.042 146.834 C 66.095 147.854,66.088 150.645,65.035 149.771 C 64.743 149.529,64.656 149.616,64.452 150.353 C 64.007 151.954,64.117 152.423,65.028 152.803 C 65.669 153.072,65.810 153.232,65.680 153.544 C 64.994 155.183,65.412 155.728,67.306 155.666 C 68.494 155.628,68.746 155.683,68.746 155.983 C 68.746 156.182,69.050 156.519,69.421 156.732 C 69.792 156.945,70.138 157.272,70.189 157.459 C 70.240 157.646,70.292 157.442,70.305 157.005 C 70.331 156.088,70.188 155.814,69.489 155.446 C 69.054 155.217,69.000 155.046,69.102 154.220 C 69.232 153.161,69.146 152.979,68.236 152.400 C 67.395 151.865,67.262 146.341,68.090 146.341 C 68.202 146.341,68.293 147.146,68.293 148.129 C 68.293 150.008,68.696 151.405,69.305 151.639 C 69.497 151.712,69.654 151.974,69.654 152.220 C 69.654 152.466,69.768 152.738,69.906 152.823 C 70.742 153.340,70.386 150.626,69.511 149.812 C 69.039 149.374,68.971 149.097,68.951 147.543 C 68.917 144.880,68.814 144.653,67.603 144.572 C 66.119 144.474,65.781 143.919,66.732 143.142 C 67.960 142.141,67.039 141.262,64.882 141.377 C 63.461 141.452,63.215 141.267,63.642 140.441 C 64.122 139.514,64.075 138.355,63.541 137.897 C 63.298 137.689,63.028 137.130,62.941 136.655 C 62.854 136.180,62.491 135.456,62.134 135.046 C 61.778 134.636,61.486 134.057,61.486 133.760 C 61.486 132.977,61.258 132.501,60.884 132.501 C 60.704 132.501,60.388 132.206,60.180 131.844 C 59.890 131.339,59.591 131.159,58.888 131.064 C 58.274 130.982,57.819 130.750,57.508 130.360 C 57.251 130.038,56.811 129.779,56.520 129.779 C 55.780 129.779,54.453 129.107,54.453 128.732 C 54.453 128.112,51.700 128.342,51.163 129.007 M55.081 131.594 C 55.278 131.909,55.610 132.048,56.169 132.048 C 57.325 132.048,60.579 135.274,60.579 136.421 C 60.579 136.884,60.750 137.312,61.032 137.554 C 61.528 137.978,61.728 141.123,61.259 141.123 C 61.134 141.123,61.032 140.931,61.032 140.697 C 61.032 139.988,60.447 139.692,59.301 139.821 C 58.402 139.922,58.238 139.877,58.140 139.501 C 58.077 139.260,57.732 138.911,57.373 138.726 C 56.392 138.219,56.585 137.947,57.924 137.947 C 59.228 137.947,59.671 137.681,59.671 136.899 C 59.671 136.062,59.423 135.678,58.881 135.678 C 58.491 135.678,58.334 135.513,58.230 134.997 C 58.124 134.468,57.973 134.317,57.550 134.317 C 57.125 134.317,56.975 134.165,56.867 133.628 L 56.730 132.939 54.403 133.004 C 52.332 133.062,52.067 133.116,51.994 133.496 C 51.887 134.053,47.383 138.558,46.826 138.664 C 46.440 138.738,46.392 139.009,46.334 141.409 C 46.299 142.874,46.231 144.073,46.183 144.073 C 45.649 144.073,45.377 143.693,45.377 142.949 C 45.377 142.389,45.223 141.961,44.923 141.690 C 44.548 141.351,44.470 140.991,44.470 139.611 C 44.470 138.223,44.546 137.877,44.923 137.554 C 45.210 137.308,45.377 136.884,45.377 136.402 C 45.377 135.234,48.597 132.048,49.778 132.048 C 50.346 132.048,50.677 131.911,50.875 131.594 C 51.120 131.201,51.404 131.140,52.978 131.140 C 54.552 131.140,54.836 131.201,55.081 131.594 M56.082 134.430 C 56.224 134.742,56.482 134.997,56.655 134.997 C 56.828 134.997,57.142 135.298,57.353 135.666 C 57.565 136.034,57.994 136.461,58.307 136.614 C 58.850 136.880,58.820 136.901,57.662 137.058 C 55.912 137.295,55.345 138.556,56.689 139.222 C 56.983 139.368,57.342 139.728,57.488 140.021 C 57.695 140.439,57.988 140.581,58.831 140.669 C 60.019 140.794,60.203 141.043,59.402 141.441 C 58.991 141.644,58.862 141.921,58.806 142.717 C 58.717 143.988,58.310 144.498,58.310 143.339 C 58.310 142.257,57.953 141.350,57.527 141.350 C 57.340 141.350,57.032 141.051,56.843 140.685 C 56.654 140.320,56.299 139.957,56.055 139.880 C 55.810 139.802,55.545 139.534,55.466 139.283 C 55.272 138.671,54.469 138.400,52.850 138.400 C 51.537 138.400,51.050 138.118,51.954 137.882 C 52.202 137.817,52.506 137.499,52.629 137.175 C 52.825 136.661,52.984 136.585,53.875 136.585 C 54.714 136.585,54.962 136.484,55.268 136.018 C 55.869 135.100,55.230 134.317,53.880 134.317 C 53.322 134.317,52.864 134.214,52.864 134.090 C 52.864 133.523,55.811 133.835,56.082 134.430 M54.566 135.451 C 54.566 135.851,53.158 136.062,52.810 135.714 C 52.411 135.315,52.886 134.971,53.736 135.041 C 54.292 135.088,54.566 135.223,54.566 135.451 M51.905 136.855 C 51.765 137.275,51.276 137.345,51.276 136.945 C 51.276 136.747,51.438 136.585,51.635 136.585 C 51.833 136.585,51.954 136.707,51.905 136.855 M50.596 138.274 C 50.596 138.924,51.548 139.308,53.161 139.308 C 55.320 139.308,55.153 139.848,52.965 139.943 C 50.003 140.073,49.366 142.979,52.212 143.379 C 53.658 143.583,53.235 143.959,51.560 143.959 L 50.028 143.959 49.965 140.953 C 49.911 138.379,49.952 137.947,50.249 137.947 C 50.439 137.947,50.596 138.094,50.596 138.274 M49.047 141.226 C 49.135 144.854,49.119 144.829,51.397 144.944 C 53.289 145.040,53.674 145.372,52.015 145.478 C 51.098 145.537,50.896 145.639,50.642 146.171 C 50.278 146.934,50.007 146.966,49.832 146.267 C 49.759 145.976,49.441 145.621,49.126 145.478 C 48.811 145.334,48.554 145.064,48.554 144.877 C 48.554 144.691,48.247 144.380,47.873 144.186 L 47.192 143.834 47.192 141.679 C 47.192 139.567,47.204 139.519,47.781 139.300 C 48.105 139.176,48.424 138.873,48.489 138.625 C 48.782 137.501,48.978 138.412,49.047 141.226 M73.965 140.252 C 73.528 140.375,72.946 140.713,72.671 141.004 C 72.397 141.295,71.765 141.602,71.268 141.686 C 70.671 141.787,70.242 142.025,70.004 142.388 C 69.806 142.691,69.442 142.938,69.195 142.938 C 68.710 142.938,68.682 143.015,68.889 143.789 C 68.965 144.070,69.160 144.299,69.324 144.299 C 69.826 144.299,70.360 144.996,70.214 145.458 C 70.110 145.784,70.189 145.888,70.541 145.888 C 70.796 145.888,71.172 146.143,71.377 146.455 C 71.846 147.171,72.077 147.167,72.759 146.431 C 73.165 145.993,73.435 145.880,73.806 145.994 C 74.080 146.079,74.780 146.204,75.361 146.272 C 76.398 146.393,76.420 146.412,76.559 147.333 C 76.865 149.356,78.404 149.643,78.937 147.776 C 79.202 146.846,78.687 146.578,78.110 147.345 L 77.708 147.877 77.342 146.712 L 76.975 145.547 75.240 145.533 C 73.085 145.515,72.392 144.785,74.018 144.244 C 74.201 144.183,74.346 143.537,74.419 142.466 L 74.532 140.783 78.894 140.721 L 83.257 140.660 84.202 141.577 C 84.722 142.082,85.206 142.436,85.278 142.364 C 85.350 142.292,85.080 141.976,84.678 141.662 C 84.277 141.347,83.948 140.981,83.948 140.848 C 83.948 140.029,76.373 139.577,73.965 140.252 M54.453 140.917 C 54.453 141.054,54.261 141.216,54.027 141.277 C 53.792 141.338,53.488 141.635,53.351 141.936 C 52.912 142.900,51.276 142.736,51.276 141.728 C 51.276 141.312,51.344 140.904,51.427 140.821 C 51.689 140.559,54.453 140.647,54.453 140.917 M56.156 141.129 C 56.236 141.382,56.550 141.751,56.852 141.949 C 57.252 142.211,57.402 142.516,57.402 143.064 C 57.402 143.922,56.978 144.348,56.800 143.669 C 56.661 143.136,55.822 142.711,54.909 142.711 C 54.021 142.711,53.863 142.357,54.550 141.907 C 54.861 141.703,55.178 141.341,55.253 141.103 C 55.434 140.532,55.972 140.548,56.156 141.129 M76.420 141.284 C 75.226 141.467,74.934 142.789,75.974 143.306 C 76.268 143.452,76.628 143.811,76.774 144.104 C 77.070 144.698,77.781 144.913,79.580 144.953 C 80.882 144.983,81.125 145.302,80.147 145.698 L 79.524 145.951 80.090 146.100 C 80.491 146.205,80.691 146.444,80.772 146.919 C 80.855 147.396,81.034 147.610,81.396 147.662 C 81.951 147.741,82.182 148.313,82.101 149.404 C 82.004 150.702,82.134 152.014,82.360 152.014 C 82.484 152.014,82.587 151.755,82.587 151.439 C 82.587 151.123,82.736 150.507,82.918 150.070 C 83.143 149.533,83.185 149.113,83.048 148.773 C 82.936 148.496,82.784 147.986,82.709 147.638 C 82.625 147.243,82.359 146.924,81.999 146.788 C 81.143 146.462,81.558 146.115,82.803 146.115 C 84.065 146.115,84.175 145.968,84.175 144.270 C 84.175 143.261,84.105 143.104,83.505 142.760 C 83.137 142.548,82.781 142.159,82.714 141.894 C 82.544 141.214,79.073 140.878,76.420 141.284 M62.999 142.162 C 63.275 142.880,62.560 143.241,61.632 142.853 C 60.617 142.429,60.606 142.328,61.543 142.058 C 62.619 141.747,62.846 141.763,62.999 142.162 M81.085 142.181 C 81.646 142.274,82.004 142.469,82.069 142.718 C 82.125 142.933,82.418 143.241,82.719 143.402 C 83.668 143.910,83.502 145.207,82.488 145.207 C 81.916 145.207,81.672 145.090,81.569 144.765 C 81.403 144.242,81.145 144.157,79.136 143.960 C 77.892 143.839,77.589 143.730,77.472 143.361 C 77.393 143.113,77.061 142.789,76.733 142.641 L 76.137 142.371 76.923 142.231 C 78.028 142.033,80.045 142.009,81.085 142.181 M60.441 143.622 C 60.711 143.626,60.124 144.063,59.841 144.069 C 59.748 144.071,59.681 143.639,59.694 143.108 L 59.717 142.144 59.954 142.881 C 60.084 143.287,60.303 143.620,60.441 143.622 M65.688 142.706 C 65.258 143.182,64.889 143.126,64.889 142.584 C 64.889 142.382,65.119 142.258,65.492 142.258 C 66.077 142.258,66.083 142.270,65.688 142.706 M55.644 143.779 C 55.363 143.833,54.904 143.833,54.623 143.779 C 54.342 143.725,54.572 143.681,55.133 143.681 C 55.695 143.681,55.925 143.725,55.644 143.779 M55.985 145.150 C 56.039 145.314,55.886 145.434,55.622 145.434 C 55.372 145.434,54.965 145.689,54.720 146.001 C 54.321 146.508,54.122 146.565,52.832 146.533 L 51.390 146.497 52.501 146.363 C 53.580 146.232,53.807 146.057,54.094 145.137 C 54.244 144.654,55.826 144.666,55.985 145.150 M47.646 145.207 C 47.646 145.491,47.405 145.491,46.965 145.207 C 46.690 145.029,46.723 144.986,47.136 144.984 C 47.416 144.982,47.646 145.082,47.646 145.207 M59.198 145.044 C 59.146 145.080,58.925 145.245,58.707 145.412 C 58.367 145.673,58.310 145.663,58.310 145.348 C 58.310 145.122,58.499 144.980,58.801 144.980 C 59.072 144.980,59.250 145.009,59.198 145.044 M49.007 146.568 C 49.007 146.853,48.767 146.853,48.327 146.568 C 48.052 146.390,48.084 146.348,48.497 146.345 C 48.778 146.343,49.007 146.444,49.007 146.568 M57.629 146.427 C 57.629 146.474,57.476 146.640,57.289 146.795 C 57.010 147.027,56.948 147.011,56.948 146.710 C 56.948 146.507,57.102 146.341,57.289 146.341 C 57.476 146.341,57.629 146.380,57.629 146.427 M75.590 147.221 C 75.226 147.452,75.323 148.423,75.723 148.555 C 75.915 148.618,76.007 148.384,76.007 147.835 C 76.007 146.936,76.017 146.951,75.590 147.221 M54.566 147.930 C 54.566 148.190,54.223 148.286,53.114 148.338 C 51.665 148.407,51.084 148.197,51.384 147.713 C 51.638 147.302,54.566 147.501,54.566 147.930 M70.108 147.930 C 70.108 148.179,70.210 148.383,70.335 148.383 C 70.459 148.383,70.562 148.179,70.562 147.930 C 70.562 147.680,70.459 147.476,70.335 147.476 C 70.210 147.476,70.108 147.680,70.108 147.930 M77.189 149.801 C 76.693 150.400,76.407 152.900,76.790 153.283 C 77.107 153.600,77.141 153.592,77.141 153.198 C 77.141 152.958,77.254 152.439,77.392 152.044 L 77.642 151.325 78.640 152.366 C 79.188 152.939,79.640 153.528,79.644 153.675 C 79.648 153.822,79.771 153.738,79.919 153.488 C 80.318 152.813,80.139 150.173,79.671 149.817 C 79.184 149.447,77.491 149.436,77.189 149.801 M61.770 152.391 C 61.314 152.574,61.443 153.148,61.940 153.148 C 62.242 153.148,62.394 152.997,62.394 152.694 C 62.394 152.236,62.285 152.183,61.770 152.391 M80.841 152.770 C 80.927 152.998,80.998 153.299,80.998 153.439 C 80.998 153.624,81.068 153.622,81.256 153.435 C 81.448 153.243,81.408 153.073,81.099 152.766 C 80.698 152.368,80.689 152.368,80.841 152.770 M68.049 154.768 C 68.073 154.979,66.950 155.229,66.694 155.070 C 66.575 154.997,66.478 154.575,66.478 154.133 L 66.478 153.330 67.255 153.977 C 67.683 154.332,68.040 154.688,68.049 154.768 M71.828 155.644 C 71.272 156.297,71.255 156.496,71.712 157.023 L 72.172 157.554 71.650 157.961 C 71.139 158.360,71.170 158.367,73.128 158.278 C 74.227 158.229,75.166 158.149,75.213 158.101 C 75.261 158.053,75.445 157.735,75.622 157.394 C 75.984 156.696,75.876 155.302,75.510 155.956 C 75.196 156.516,74.564 156.448,74.864 155.886 C 75.212 155.236,75.219 155.239,73.608 155.273 C 72.594 155.294,72.025 155.412,71.828 155.644 M64.553 158.133 C 64.478 158.254,64.681 158.419,65.004 158.500 C 65.652 158.663,65.923 158.527,65.693 158.155 C 65.506 157.852,64.736 157.838,64.553 158.133 M63.528 159.444 C 63.528 159.633,63.906 159.728,64.663 159.728 C 65.419 159.728,65.797 159.633,65.797 159.444 C 65.797 159.255,65.419 159.161,64.663 159.161 C 63.906 159.161,63.528 159.255,63.528 159.444 M54.505 161.132 C 54.554 161.280,54.716 161.441,54.864 161.491 C 55.030 161.546,55.081 161.442,54.996 161.221 C 54.837 160.809,54.369 160.723,54.505 161.132 M56.770 161.358 C 56.618 161.510,56.495 161.759,56.495 161.912 C 56.495 162.065,56.326 162.223,56.119 162.264 C 55.769 162.332,55.769 162.359,56.119 162.648 C 56.438 162.912,56.495 162.912,56.495 162.645 C 56.495 162.473,56.724 162.230,57.005 162.107 C 57.530 161.877,57.698 161.301,57.280 161.162 C 57.151 161.119,56.921 161.207,56.770 161.358 M59.436 162.800 C 59.010 163.314,59.470 163.709,60.100 163.371 C 60.669 163.067,60.713 162.777,60.220 162.588 C 59.745 162.406,59.769 162.399,59.436 162.800 M62.223 163.959 C 61.748 164.155,61.903 164.883,62.450 165.030 C 63.266 165.249,63.335 165.208,63.260 164.551 C 63.190 163.945,62.799 163.722,62.223 163.959 M50.085 165.198 C 49.742 165.569,49.461 165.954,49.461 166.053 C 49.461 166.153,49.215 166.347,48.914 166.484 C 48.612 166.621,48.299 166.944,48.218 167.201 C 48.136 167.458,47.923 167.669,47.744 167.669 C 47.371 167.669,47.309 168.028,47.646 168.236 C 47.771 168.313,47.873 168.817,47.873 169.356 C 47.873 170.735,49.201 171.420,50.738 170.833 C 51.769 170.439,50.852 169.871,49.509 170.073 L 48.526 170.220 48.597 169.115 L 48.667 168.009 49.564 168.009 C 50.325 168.009,50.481 168.092,50.591 168.555 C 50.717 169.093,50.996 169.329,51.797 169.578 C 52.127 169.680,52.158 169.789,51.959 170.161 C 51.739 170.572,51.783 170.618,52.386 170.618 C 53.102 170.618,53.772 171.120,53.772 171.655 C 53.772 172.190,54.339 172.023,54.984 171.299 C 55.426 170.803,55.793 170.618,56.340 170.618 C 57.431 170.618,57.987 170.153,57.650 169.523 C 57.448 169.146,57.177 169.030,56.499 169.030 C 55.854 169.030,55.521 168.900,55.277 168.550 C 55.092 168.286,54.623 167.877,54.235 167.641 C 53.650 167.286,53.569 167.140,53.760 166.784 C 54.019 166.300,53.493 165.615,53.212 166.070 C 53.131 166.200,52.726 166.307,52.312 166.307 C 51.477 166.307,50.915 165.852,51.289 165.478 C 51.566 165.200,51.330 164.486,50.968 164.508 C 50.826 164.516,50.428 164.827,50.085 165.198 M73.057 166.485 C 73.057 166.595,73.542 166.785,74.135 166.907 L 75.213 167.129 74.135 167.311 C 72.854 167.528,72.747 167.817,73.869 168.027 C 74.987 168.237,75.824 167.776,75.734 167.001 C 75.666 166.418,73.057 165.915,73.057 166.485 M53.497 168.546 C 53.392 169.089,52.638 169.164,52.638 168.631 C 52.638 168.393,52.699 168.137,52.773 168.063 C 53.024 167.812,53.568 168.176,53.497 168.546 M76.687 169.370 C 76.687 169.589,76.910 169.713,77.311 169.716 L 77.935 169.721 77.451 170.113 C 77.185 170.328,76.850 170.735,76.706 171.015 C 76.501 171.415,76.249 171.526,75.545 171.526 C 74.537 171.526,74.405 171.287,75.141 170.798 C 75.413 170.618,75.538 170.409,75.418 170.335 C 74.977 170.062,74.055 171.014,74.328 171.460 C 74.748 172.142,76.249 172.121,76.904 171.423 C 77.203 171.105,77.570 170.845,77.720 170.845 C 78.200 170.845,78.560 170.196,78.410 169.600 C 78.242 168.929,76.687 168.722,76.687 169.370 M54.764 170.170 C 54.470 170.465,53.772 170.218,53.772 169.819 C 53.772 169.379,54.291 169.266,54.670 169.623 C 54.899 169.839,54.928 170.007,54.764 170.170 M38.754 184.448 C 38.242 184.863,38.241 184.876,38.664 185.344 C 39.201 185.937,39.620 185.949,39.923 185.382 C 40.429 184.437,39.593 183.769,38.754 184.448 M39.582 184.896 C 39.750 185.168,39.323 185.437,39.021 185.250 C 38.767 185.093,38.934 184.685,39.251 184.685 C 39.361 184.685,39.510 184.780,39.582 184.896 M41.702 185.865 C 41.913 186.077,42.034 186.077,42.246 185.865 C 42.458 185.653,42.397 185.593,41.974 185.593 C 41.550 185.593,41.490 185.653,41.702 185.865 " stroke="none" fill="#7c7c7c" fill-rule="evenodd"></path></g></svg>