<svg id="svg" version="1.1" xmlns="http://www.w3.org/2000/svg" xmlns:xlink="http://www.w3.org/1999/xlink" width="400" height="226.8041237113402" viewBox="0, 0, 400,226.8041237113402"><g id="svgg"><path id="path0" d="M162.606 110.413 C 162.295 110.725,162.456 111.206,162.847 111.131 C 163.066 111.089,163.244 110.911,163.244 110.736 C 163.244 110.378,162.844 110.175,162.606 110.413 M128.072 112.138 C 127.676 113.733,128.069 117.851,128.644 118.137 L 129.212 118.418 129.364 123.248 C 129.448 125.904,129.550 128.330,129.591 128.638 C 129.652 129.096,129.550 129.221,129.038 129.319 C 128.649 129.393,128.240 129.719,127.963 130.176 C 127.718 130.581,127.369 130.913,127.188 130.913 C 127.008 130.913,126.795 131.119,126.715 131.369 C 126.635 131.620,126.271 131.980,125.906 132.169 C 125.540 132.358,125.241 132.666,125.241 132.852 C 125.241 133.039,124.988 133.307,124.678 133.448 C 124.369 133.589,124.055 133.895,123.981 134.127 C 123.908 134.359,123.549 134.703,123.183 134.892 C 122.817 135.081,122.518 135.383,122.518 135.562 C 122.518 136.120,121.698 136.413,121.286 136.001 C 120.763 135.478,120.850 135.060,121.554 134.724 C 122.069 134.479,122.190 134.257,122.248 133.461 C 122.303 132.700,122.459 132.391,122.985 132.002 C 123.699 131.475,123.928 130.145,123.398 129.614 C 123.151 129.368,119.569 132.715,119.569 133.192 C 119.569 133.295,119.373 133.440,119.134 133.516 C 118.895 133.592,118.594 133.957,118.465 134.326 C 118.337 134.695,118.081 134.997,117.896 134.997 C 117.395 134.997,114.301 138.172,114.443 138.542 C 114.509 138.714,114.716 138.854,114.903 138.854 C 115.900 138.854,115.995 140.900,115.031 141.613 C 114.353 142.114,114.351 142.124,114.351 144.413 C 114.351 146.702,114.353 146.712,115.031 147.213 C 115.666 147.683,115.712 147.815,115.712 149.193 C 115.712 150.618,117.060 152.694,117.986 152.694 C 118.091 152.694,118.244 152.905,118.325 153.162 C 118.407 153.419,118.718 153.741,119.017 153.877 C 119.316 154.013,119.620 154.314,119.694 154.546 C 119.768 154.778,120.127 155.123,120.493 155.312 C 120.858 155.501,121.157 155.760,121.157 155.888 C 121.157 156.469,127.299 162.223,127.915 162.220 C 129.340 162.212,129.299 161.868,127.680 160.278 C 126.838 159.451,126.149 158.689,126.149 158.586 C 126.149 158.482,125.954 158.335,125.716 158.260 C 124.537 157.885,125.071 156.778,126.431 156.778 C 128.763 156.778,131.885 161.534,130.075 162.329 C 129.801 162.449,129.452 162.780,129.300 163.065 C 129.148 163.349,128.785 163.738,128.493 163.929 C 128.027 164.234,127.964 164.455,127.964 165.766 C 127.964 167.137,127.910 167.303,127.283 167.853 C 126.756 168.315,126.602 168.641,126.602 169.292 C 126.602 169.968,126.469 170.229,125.922 170.618 C 125.249 171.097,125.241 171.128,125.241 173.207 L 125.241 175.311 126.166 176.254 L 127.091 177.198 129.172 177.205 C 130.542 177.210,131.389 177.315,131.651 177.514 C 132.161 177.901,132.194 179.553,131.699 179.968 C 130.736 180.778,130.686 180.886,130.686 182.176 L 130.686 183.491 133.749 186.584 L 136.811 189.677 145.048 189.677 C 153.962 189.677,153.829 189.696,153.829 188.429 C 153.829 187.514,153.470 187.182,152.479 187.177 C 151.786 187.174,151.499 186.983,150.433 185.816 C 149.386 184.670,149.073 184.458,148.427 184.458 C 147.861 184.458,147.507 184.281,147.065 183.778 C 146.524 183.161,146.337 183.097,145.086 183.097 C 142.740 183.097,142.045 181.780,144.248 181.509 C 144.903 181.428,145.313 181.214,145.659 180.771 C 146.040 180.285,146.339 180.147,147.012 180.147 C 147.733 180.147,147.976 180.016,148.481 179.353 C 148.971 178.711,149.240 178.559,149.885 178.559 C 150.565 178.559,150.874 178.358,151.978 177.198 L 153.274 175.837 154.690 175.837 L 156.107 175.837 158.103 173.795 L 160.099 171.753 162.201 171.753 L 164.302 171.753 166.666 169.389 C 169.451 166.604,169.533 166.337,168.066 164.818 C 167.309 164.034,166.939 163.818,166.347 163.815 C 165.173 163.810,162.223 160.750,162.223 159.538 C 162.223 158.394,163.784 156.778,164.889 156.778 C 165.285 156.778,165.741 156.618,165.901 156.422 C 166.062 156.226,166.381 155.894,166.609 155.685 C 166.837 155.475,167.450 154.878,167.970 154.357 C 168.491 153.837,169.088 153.224,169.298 152.996 C 169.507 152.768,169.814 152.466,169.978 152.325 C 170.143 152.184,170.456 151.853,170.673 151.588 C 170.952 151.247,171.326 151.106,171.953 151.106 C 173.011 151.106,173.114 150.916,173.114 148.977 C 173.114 147.103,173.227 147.022,175.846 147.022 L 178.033 147.022 178.755 146.228 C 179.153 145.791,179.577 145.434,179.699 145.434 C 180.061 145.434,179.950 144.813,179.562 144.664 C 179.364 144.588,178.912 144.526,178.557 144.526 C 177.248 144.526,176.931 143.541,178.011 142.833 C 178.901 142.250,178.820 139.869,177.879 138.968 C 177.218 138.335,177.198 138.254,177.198 136.204 C 177.198 134.145,177.181 134.078,176.517 133.487 C 175.850 132.892,175.837 132.837,175.837 130.694 C 175.837 128.284,175.692 127.965,174.600 127.962 C 174.094 127.960,173.744 128.158,173.296 128.699 C 172.494 129.667,171.917 129.386,171.753 127.946 C 171.665 127.175,171.513 126.891,171.072 126.674 C 170.616 126.449,170.483 126.180,170.391 125.309 C 170.297 124.403,170.175 124.174,169.654 123.926 C 169.311 123.762,169.030 123.528,169.030 123.406 C 169.030 123.104,164.470 118.562,163.977 118.372 C 163.653 118.248,163.585 117.924,163.585 116.520 C 163.585 114.892,163.555 114.796,162.904 114.315 C 162.392 113.936,162.223 113.630,162.223 113.079 C 162.223 111.399,161.887 111.284,160.635 112.535 L 159.728 113.443 159.728 117.031 L 159.728 120.618 160.408 121.121 C 161.051 121.596,161.089 121.713,161.089 123.198 C 161.089 124.599,161.145 124.801,161.600 125.040 C 162.848 125.698,162.794 129.325,161.535 129.325 C 161.256 129.325,159.274 127.375,159.274 127.101 C 159.274 126.784,158.695 126.602,157.682 126.602 C 156.975 126.602,156.779 126.505,156.649 126.092 C 156.420 125.356,156.153 125.248,154.540 125.245 L 153.097 125.241 151.665 123.766 C 150.877 122.955,150.147 122.292,150.043 122.292 C 149.938 122.292,149.752 122.062,149.628 121.781 C 149.505 121.500,149.175 121.238,148.894 121.198 C 148.385 121.126,148.383 121.115,148.383 116.736 C 148.383 111.055,148.360 110.993,146.813 112.572 C 146.096 113.302,145.888 113.690,145.888 114.288 C 145.888 114.868,145.718 115.203,145.207 115.633 C 144.668 116.087,144.526 116.388,144.526 117.078 C 144.526 117.788,144.400 118.040,143.846 118.434 C 142.840 119.150,142.801 121.865,143.789 122.339 C 144.504 122.682,144.610 123.369,144.004 123.742 C 143.664 123.951,143.493 123.870,142.983 123.254 C 142.040 122.114,138.575 122.116,137.504 123.256 L 136.812 123.993 136.138 123.275 C 135.332 122.416,134.743 122.479,134.372 123.464 C 134.094 124.199,133.706 124.229,133.312 123.544 C 133.178 123.312,132.737 122.790,132.331 122.385 C 131.783 121.838,131.594 121.447,131.594 120.863 C 131.594 120.432,131.441 119.951,131.254 119.796 C 131.066 119.640,130.913 119.314,130.913 119.071 C 130.913 118.452,131.686 118.634,131.778 119.274 C 131.827 119.615,132.033 119.790,132.446 119.839 C 132.914 119.894,133.086 120.080,133.246 120.703 C 133.559 121.924,133.882 122.207,134.236 121.570 C 134.738 120.664,134.616 120.092,133.863 119.830 C 133.242 119.613,133.182 119.502,133.182 118.568 C 133.182 117.297,131.754 115.733,130.573 115.710 C 129.410 115.688,129.098 115.267,129.098 113.720 C 129.098 111.757,128.425 110.719,128.072 112.138 M161.881 117.291 C 161.962 117.661,161.932 118.137,161.813 118.349 C 161.502 118.905,161.025 117.973,161.222 117.191 C 161.414 116.425,161.701 116.469,161.881 117.291 M146.792 119.414 C 146.796 120.410,147.129 121.157,147.570 121.157 C 148.074 121.157,148.349 121.678,148.138 122.235 C 147.877 122.922,146.682 122.932,145.959 122.252 C 145.214 121.552,145.196 119.284,145.930 118.503 C 146.531 117.863,146.787 118.134,146.792 119.414 M163.450 120.630 C 163.922 122.017,163.921 123.507,163.447 123.900 C 162.814 124.425,162.450 123.587,162.450 121.605 C 162.450 119.225,162.841 118.844,163.450 120.630 M149.482 124.026 C 149.677 124.401,149.665 124.571,149.430 124.766 C 148.970 125.148,148.608 124.591,148.868 123.904 C 149.093 123.310,149.112 123.314,149.482 124.026 M165.497 125.989 C 166.371 127.278,166.204 127.737,164.859 127.737 C 164.118 127.737,163.812 127.306,163.812 126.262 C 163.812 124.579,164.468 124.472,165.497 125.989 M142.643 126.232 C 142.947 126.582,143.476 126.824,144.159 126.927 C 144.735 127.013,145.207 127.181,145.207 127.300 C 145.207 127.642,146.624 128.416,147.252 128.417 C 147.625 128.417,147.899 128.594,148.046 128.928 C 148.169 129.209,148.494 129.537,148.769 129.657 C 149.112 129.808,149.315 130.156,149.419 130.771 C 149.503 131.272,149.825 131.922,150.150 132.246 C 150.487 132.584,150.808 133.246,150.917 133.833 C 151.027 134.422,151.294 134.973,151.560 135.159 C 151.898 135.396,152.014 135.734,152.014 136.485 L 152.014 137.493 153.443 137.493 C 155.099 137.493,155.417 137.271,155.417 136.114 C 155.417 135.263,155.888 134.614,156.315 134.878 C 156.445 134.958,156.551 135.616,156.551 136.339 C 156.551 139.242,156.791 140.442,157.370 140.442 C 158.276 140.442,158.720 139.163,157.856 139.040 C 157.209 138.948,156.936 135.548,157.540 135.106 C 157.721 134.974,157.981 134.461,158.118 133.967 C 158.636 132.094,158.824 132.079,159.440 133.863 C 159.680 134.557,160.009 135.111,160.182 135.111 C 160.354 135.111,160.683 134.557,160.923 133.863 C 161.160 133.176,161.384 132.585,161.421 132.548 C 161.457 132.512,162.124 133.119,162.903 133.898 C 164.237 135.232,164.337 135.289,164.633 134.885 C 165.051 134.313,165.032 133.963,164.602 134.320 C 164.311 134.561,164.050 134.396,162.935 133.270 C 162.208 132.535,161.420 131.821,161.183 131.684 C 160.785 131.452,160.835 131.353,161.848 130.368 C 163.116 129.136,163.585 129.232,163.585 130.725 C 163.585 131.476,163.691 131.675,164.264 132.001 C 164.807 132.310,164.947 132.548,164.963 133.182 L 164.982 133.976 165.219 133.324 C 165.350 132.965,165.648 132.480,165.882 132.246 C 166.116 132.012,166.299 131.693,166.290 131.537 C 166.275 131.310,166.249 131.310,166.157 131.537 C 166.014 131.893,165.254 131.908,165.038 131.559 C 164.800 131.175,165.627 130.631,165.991 130.933 C 166.192 131.100,166.413 131.100,166.723 130.934 C 167.060 130.753,167.235 130.778,167.448 131.034 C 167.695 131.331,167.763 131.325,168.014 130.981 C 168.256 130.650,168.357 130.637,168.665 130.893 C 169.247 131.376,169.128 131.892,168.463 131.765 C 167.823 131.643,167.729 131.854,168.236 132.275 C 168.423 132.430,168.576 132.857,168.576 133.225 C 168.576 135.297,169.582 135.528,171.250 133.839 C 172.651 132.421,172.760 132.407,173.119 133.597 C 173.296 134.183,173.303 134.178,173.321 133.427 C 173.342 132.626,172.822 131.821,172.285 131.821 C 172.117 131.821,171.980 131.617,171.980 131.367 C 171.980 131.117,172.070 130.913,172.181 130.913 C 172.291 130.913,172.741 130.544,173.179 130.092 C 173.618 129.640,174.089 129.340,174.226 129.425 C 174.535 129.616,174.576 138.538,174.269 138.728 C 173.762 139.041,173.340 138.557,173.321 137.639 C 173.304 136.800,173.282 136.764,173.119 137.305 C 172.820 138.295,172.663 138.458,172.300 138.157 C 172.046 137.946,171.980 137.969,171.980 138.265 C 171.980 138.470,172.226 138.732,172.527 138.847 C 172.829 138.961,173.149 139.291,173.239 139.579 C 173.397 140.085,173.733 140.432,174.072 140.439 C 174.163 140.441,174.406 140.111,174.612 139.705 C 174.818 139.299,175.019 138.931,175.059 138.886 C 175.098 138.841,175.643 139.309,176.270 139.926 C 177.537 141.173,177.494 141.577,176.093 141.577 C 175.293 141.577,174.475 142.098,174.475 142.608 C 174.475 142.763,174.220 142.953,173.908 143.031 C 173.429 143.152,173.001 144.299,173.436 144.299 C 173.488 144.299,173.685 144.359,173.874 144.431 C 174.103 144.519,174.339 144.329,174.579 143.864 C 175.048 142.957,175.179 142.978,176.397 144.144 C 177.671 145.365,177.477 145.661,175.404 145.661 L 173.927 145.661 172.840 146.801 C 171.995 147.687,171.753 148.106,171.753 148.684 C 171.753 149.713,171.346 150.084,170.779 149.571 C 170.360 149.192,170.307 149.220,169.361 150.310 L 168.379 151.442 167.021 150.007 C 165.820 148.737,165.639 148.619,165.449 148.988 C 165.068 149.730,164.914 151.361,165.194 151.699 C 165.404 151.951,165.357 152.014,164.958 152.014 C 164.178 152.014,162.465 150.903,162.313 150.299 C 162.239 150.004,162.037 149.646,161.864 149.502 C 161.599 149.282,161.622 149.149,162.004 148.663 C 162.491 148.044,162.433 147.435,161.822 146.740 C 161.502 146.375,161.530 146.333,162.184 146.202 C 163.646 145.909,163.834 144.514,162.443 144.290 C 161.015 144.059,160.773 143.598,161.850 143.164 C 162.299 142.982,162.288 142.966,161.702 142.953 C 161.227 142.942,160.971 143.109,160.681 143.617 C 160.210 144.446,159.899 144.477,159.501 143.732 C 159.140 143.057,158.141 142.933,158.136 143.562 C 158.135 143.780,158.072 144.189,157.997 144.470 C 157.896 144.845,157.957 144.980,158.227 144.980 C 158.467 144.980,158.593 144.784,158.593 144.413 C 158.593 143.779,158.924 143.652,159.136 144.205 C 159.431 144.974,159.214 146.341,158.796 146.341 C 158.684 146.341,158.593 146.078,158.593 145.755 C 158.593 145.384,158.489 145.206,158.310 145.270 C 157.520 145.549,158.112 147.028,159.092 147.227 C 159.771 147.364,159.848 147.463,159.911 148.278 C 159.970 149.030,160.206 149.405,161.352 150.568 C 162.296 151.526,162.636 152.012,162.445 152.131 C 162.258 152.246,162.398 152.400,162.868 152.598 C 163.305 152.781,163.625 153.114,163.716 153.480 C 163.836 153.958,163.924 154.018,164.188 153.799 C 164.412 153.613,164.584 153.603,164.748 153.767 C 165.132 154.151,164.875 155.044,164.298 155.331 C 164.004 155.477,163.644 155.836,163.499 156.130 C 163.353 156.424,163.006 156.697,162.728 156.737 C 162.413 156.783,162.223 156.969,162.223 157.232 C 162.223 157.465,161.917 157.873,161.543 158.140 C 160.995 158.530,160.862 158.789,160.862 159.471 C 160.862 160.396,160.543 160.862,159.909 160.862 C 159.614 160.862,159.501 161.037,159.501 161.493 C 159.501 161.986,159.352 162.180,158.820 162.381 C 158.446 162.522,158.140 162.778,158.140 162.949 C 158.140 163.120,158.446 163.441,158.820 163.662 C 159.195 163.883,159.501 164.153,159.501 164.262 C 159.501 164.657,160.227 165.173,160.784 165.173 C 161.499 165.173,161.381 164.674,160.618 164.474 L 160.068 164.331 160.692 164.160 C 161.574 163.919,161.466 163.625,160.465 163.542 C 159.782 163.485,159.600 163.371,159.542 162.961 C 159.472 162.469,159.533 162.450,161.243 162.454 C 163.265 162.458,163.703 162.629,163.480 163.330 C 163.352 163.735,163.419 163.812,163.908 163.812 C 164.267 163.812,164.720 164.071,165.095 164.492 C 165.564 165.018,165.894 165.173,166.548 165.173 C 167.455 165.173,167.671 165.429,167.665 166.496 C 167.661 167.249,167.379 167.717,166.964 167.659 C 166.278 167.563,166.110 167.694,166.151 168.292 C 166.185 168.782,166.085 168.932,165.683 168.989 C 165.402 169.029,165.173 168.942,165.173 168.794 C 165.173 168.636,164.964 168.571,164.663 168.636 C 164.382 168.695,163.233 168.671,162.110 168.583 L 160.068 168.421 161.814 168.385 C 163.497 168.351,163.574 168.325,163.961 167.669 C 164.182 167.294,164.443 166.988,164.541 166.988 C 164.639 166.988,164.719 166.835,164.719 166.648 C 164.719 166.117,164.325 166.244,163.662 166.988 C 163.112 167.606,162.926 167.669,161.654 167.669 C 160.520 167.669,160.170 167.759,159.823 168.143 C 159.116 168.923,159.843 169.257,162.248 169.257 C 164.320 169.257,164.946 169.375,164.946 169.767 C 164.946 170.351,164.095 170.604,162.107 170.611 L 160.063 170.618 158.364 172.303 C 157.429 173.229,156.521 174.161,156.345 174.374 C 156.063 174.715,155.602 174.750,152.379 174.674 L 148.733 174.589 148.432 175.213 C 148.172 175.754,147.999 175.837,147.128 175.837 C 146.287 175.837,146.060 175.936,145.723 176.453 C 145.502 176.793,144.478 177.909,143.449 178.935 C 141.851 180.527,141.577 180.910,141.581 181.551 C 141.586 182.621,143.250 184.231,144.349 184.231 C 145.189 184.231,145.661 184.565,145.661 185.160 C 145.661 185.632,144.932 185.837,142.825 185.960 C 140.627 186.088,140.358 186.237,141.438 186.730 C 142.192 187.074,142.421 187.090,143.007 186.844 C 143.569 186.608,143.827 186.611,144.423 186.859 C 145.178 187.175,145.888 186.800,145.888 186.085 C 145.888 185.687,146.726 185.765,146.884 186.179 C 146.960 186.376,147.022 186.776,147.022 187.067 C 147.022 188.348,147.159 188.315,141.740 188.315 L 136.734 188.315 134.391 185.941 L 132.048 183.567 132.048 182.183 L 132.048 180.800 133.409 179.485 L 134.770 178.169 134.770 176.746 L 134.770 175.323 136.146 174.025 C 137.470 172.777,137.520 172.690,137.451 171.730 L 137.379 170.732 135.666 170.666 L 133.953 170.601 133.000 171.535 C 132.257 172.263,132.048 172.635,132.048 173.229 C 132.048 174.411,131.007 175.222,130.750 174.239 C 130.683 173.985,130.284 173.633,129.863 173.457 C 129.205 173.182,129.098 173.028,129.098 172.359 C 129.098 171.170,128.490 170.803,128.140 171.780 C 127.845 172.601,127.849 172.670,128.226 173.626 C 128.412 174.095,128.733 174.327,129.511 174.554 C 131.423 175.111,130.823 176.064,128.560 176.064 C 126.684 176.064,126.602 175.950,126.602 173.346 C 126.602 171.216,126.616 171.161,127.283 170.576 C 127.789 170.132,127.964 169.780,127.964 169.206 C 127.964 168.645,128.149 168.257,128.644 167.782 C 129.260 167.192,129.325 166.993,129.325 165.698 C 129.325 164.329,129.365 164.225,130.233 163.358 L 131.140 162.450 133.424 162.450 C 135.682 162.450,135.713 162.458,136.280 163.131 C 137.510 164.593,138.854 163.878,138.854 161.763 C 138.854 160.771,138.965 160.208,139.216 159.931 C 139.838 159.244,140.216 159.648,140.216 161.000 L 140.216 162.223 141.066 162.227 C 141.534 162.228,142.172 162.297,142.484 162.379 C 142.994 162.514,143.020 162.490,142.740 162.149 C 142.561 161.931,142.104 161.770,141.663 161.770 C 140.938 161.770,140.896 161.726,140.896 160.976 C 140.896 160.069,141.107 159.967,141.543 160.665 C 141.821 161.111,141.961 161.135,143.356 160.974 C 146.571 160.605,147.703 160.812,147.703 161.770 C 147.703 161.913,147.881 161.995,148.100 161.953 C 148.720 161.834,148.566 161.238,147.816 160.855 C 146.456 160.162,145.888 159.671,145.890 159.191 C 145.891 158.921,145.574 158.445,145.172 158.115 C 144.672 157.704,144.498 157.406,144.602 157.135 C 144.768 156.704,145.498 156.817,146.132 157.372 C 146.362 157.573,147.053 157.687,148.061 157.689 C 149.830 157.693,150.078 157.792,150.393 158.623 C 150.628 159.239,151.352 159.501,152.821 159.501 C 153.397 159.501,153.684 159.660,154.061 160.189 L 154.551 160.877 156.969 160.813 L 159.387 160.749 159.614 159.349 C 159.869 157.777,160.673 156.778,161.683 156.778 C 162.172 156.778,162.243 156.689,162.182 156.154 C 162.112 155.548,162.075 155.532,160.845 155.596 C 159.279 155.678,158.424 155.371,158.141 154.627 C 158.022 154.313,157.808 154.056,157.667 154.056 C 157.526 154.056,157.469 154.209,157.541 154.396 C 157.613 154.583,157.609 154.898,157.534 155.096 C 157.329 155.630,156.989 154.991,157.146 154.366 C 157.214 154.098,157.158 153.810,157.023 153.727 C 156.889 153.643,156.778 153.370,156.778 153.119 C 156.778 152.486,157.724 152.637,158.022 153.317 C 158.282 153.908,158.931 153.827,159.537 153.128 C 159.744 152.890,160.025 152.694,160.161 152.694 C 160.297 152.694,160.408 152.490,160.408 152.240 C 160.408 151.985,160.257 151.787,160.062 151.787 C 159.859 151.787,159.660 151.504,159.579 151.098 C 159.444 150.423,158.684 149.662,158.351 149.868 C 158.258 149.925,158.232 150.161,158.292 150.392 C 158.414 150.859,157.833 151.560,157.324 151.560 C 157.142 151.560,156.897 151.815,156.778 152.127 C 156.583 152.640,156.438 152.695,155.252 152.701 C 154.114 152.708,153.994 152.748,154.339 153.010 C 155.172 153.642,154.033 153.888,153.083 153.281 C 152.002 152.589,148.478 152.899,149.518 153.594 C 149.705 153.719,150.039 153.823,150.260 153.825 C 150.481 153.827,151.093 154.107,151.621 154.447 C 152.149 154.787,153.186 155.223,153.925 155.415 C 156.336 156.044,155.639 156.771,152.449 156.953 C 150.859 157.043,150.372 156.993,149.946 156.695 C 149.655 156.491,149.087 156.324,148.684 156.324 C 146.528 156.324,145.099 153.612,147.050 153.222 C 147.500 153.132,147.703 152.955,147.703 152.651 C 147.703 152.408,148.035 151.884,148.440 151.485 C 148.846 151.087,149.407 150.481,149.687 150.139 C 150.374 149.299,151.991 149.244,152.621 150.039 C 153.184 150.748,153.602 150.983,153.602 150.589 C 153.602 150.414,153.347 150.155,153.035 150.013 C 152.723 149.871,152.467 149.625,152.466 149.466 C 152.463 148.641,151.973 147.566,151.508 147.362 C 150.949 147.116,150.587 142.775,151.076 142.177 C 151.194 142.032,151.222 141.316,151.139 140.556 L 150.989 139.195 150.250 139.228 C 148.841 139.293,148.689 139.469,149.401 140.212 C 151.527 142.431,148.214 146.115,144.094 146.115 C 143.414 146.115,142.858 146.603,142.609 147.419 C 142.388 148.145,139.743 148.189,139.243 147.476 C 139.057 147.210,138.506 146.943,137.917 146.833 C 137.313 146.721,136.667 146.403,136.304 146.040 C 135.940 145.675,135.446 145.433,135.064 145.430 C 134.333 145.426,134.073 145.272,133.731 144.640 C 133.596 144.390,133.271 144.088,133.010 143.969 C 132.731 143.842,132.478 143.454,132.399 143.029 C 132.324 142.631,131.959 141.923,131.588 141.456 C 131.184 140.947,130.913 140.338,130.913 139.937 C 130.913 139.477,130.700 139.080,130.233 138.670 C 129.525 138.049,129.203 135.693,129.778 135.338 C 130.439 134.930,130.489 134.301,129.847 134.458 C 128.792 134.716,128.483 136.942,129.222 138.968 C 129.550 139.866,129.547 139.881,128.872 140.459 L 128.191 141.043 128.191 145.124 L 128.191 149.206 128.871 149.709 C 129.425 150.118,129.552 150.377,129.552 151.097 C 129.552 151.822,129.675 152.071,130.233 152.467 C 130.607 152.734,130.913 153.098,130.913 153.277 C 130.913 153.456,131.020 153.602,131.150 153.602 C 131.402 153.602,131.620 153.813,133.706 156.068 C 135.046 157.518,135.150 157.809,134.480 158.231 C 134.181 158.420,133.947 158.317,133.348 157.737 C 132.840 157.245,132.372 157.005,131.916 157.005 C 131.390 157.005,130.940 156.702,129.892 155.644 C 129.151 154.895,128.417 154.282,128.260 154.282 C 128.104 154.282,127.821 153.983,127.632 153.618 C 127.443 153.252,127.098 152.893,126.866 152.819 C 126.634 152.746,126.329 152.432,126.188 152.123 C 126.047 151.813,125.779 151.560,125.592 151.560 C 125.405 151.560,125.094 151.254,124.901 150.879 C 124.707 150.505,124.402 150.199,124.222 150.199 C 123.316 150.199,123.327 148.876,124.239 148.278 C 125.129 147.695,125.048 145.314,124.107 144.413 C 123.648 143.973,123.426 143.540,123.426 143.082 C 123.426 142.596,123.217 142.228,122.689 141.782 L 121.951 141.160 124.844 138.229 C 126.435 136.617,127.737 135.196,127.737 135.071 C 127.737 134.946,127.992 134.727,128.304 134.585 C 129.016 134.260,129.028 133.911,128.335 133.648 C 127.376 133.283,127.486 132.852,128.890 131.462 C 129.956 130.407,130.233 129.988,130.233 129.428 C 130.233 128.356,131.198 127.514,131.801 128.060 C 132.193 128.414,132.210 128.546,131.960 129.288 C 131.802 129.757,131.748 130.416,131.837 130.800 C 131.981 131.422,131.996 131.432,132.021 130.913 C 132.054 130.226,134.046 128.417,134.771 128.417 C 135.380 128.417,136.123 128.025,136.578 127.462 C 136.781 127.212,137.344 126.972,137.908 126.896 C 138.594 126.804,138.990 126.605,139.236 126.230 C 139.753 125.442,141.957 125.444,142.643 126.232 M169.257 127.257 C 169.257 127.548,168.374 127.734,168.215 127.476 C 167.839 126.868,168.337 126.136,168.807 126.606 C 169.054 126.854,169.257 127.146,169.257 127.257 M157.913 129.667 C 157.913 130.658,156.763 130.400,155.565 129.140 L 154.920 128.461 155.419 127.962 L 155.918 127.462 156.916 128.441 C 157.464 128.979,157.913 129.531,157.913 129.667 M167.396 128.236 C 167.546 128.386,167.669 128.954,167.669 129.499 C 167.669 130.906,166.467 130.907,166.351 129.500 C 166.256 128.356,166.827 127.666,167.396 128.236 M153.741 129.272 C 153.881 129.363,154.058 129.644,154.136 129.894 C 154.214 130.145,154.509 130.451,154.791 130.575 C 155.487 130.880,155.665 132.837,155.038 133.295 C 154.413 133.753,152.481 131.802,152.473 130.704 C 152.465 129.642,153.143 128.877,153.741 129.272 M159.266 131.017 C 159.632 131.458,159.374 131.821,158.693 131.821 C 158.101 131.821,157.966 131.405,158.412 130.959 C 158.766 130.604,158.933 130.615,159.266 131.017 M140.669 131.367 C 140.669 131.492,141.113 131.594,141.655 131.594 C 142.676 131.594,143.392 132.078,143.392 132.768 C 143.392 133.325,142.619 133.863,141.816 133.863 C 141.248 133.863,140.853 134.079,140.162 134.770 L 139.255 135.678 140.948 135.678 C 142.653 135.678,143.392 136.011,143.392 136.779 C 143.392 136.928,143.650 137.148,143.965 137.268 C 144.281 137.388,144.617 137.698,144.712 137.956 C 144.808 138.214,145.137 138.550,145.443 138.702 C 145.887 138.922,146.024 139.199,146.115 140.056 C 146.177 140.649,146.330 141.134,146.455 141.134 C 146.580 141.134,146.733 140.649,146.795 140.056 C 146.883 139.220,147.026 138.920,147.433 138.718 C 148.235 138.321,148.051 138.072,146.863 137.947 C 146.020 137.858,145.727 137.717,145.520 137.299 C 145.374 137.005,145.014 136.645,144.720 136.499 C 143.339 135.814,144.127 134.341,145.888 134.318 L 146.909 134.304 146.169 133.686 C 145.763 133.347,145.430 132.967,145.430 132.842 C 145.431 132.717,145.125 132.441,144.752 132.228 C 144.378 132.016,144.073 131.684,144.073 131.491 C 144.073 131.206,143.755 131.140,142.371 131.140 C 141.388 131.140,140.669 131.236,140.669 131.367 M130.504 132.078 C 129.644 132.503,129.252 132.955,129.742 132.955 C 129.847 132.955,130.063 133.236,130.221 133.579 L 130.509 134.203 131.054 132.977 C 131.711 131.498,131.703 131.485,130.504 132.078 M157.867 133.220 C 157.936 134.263,157.517 134.973,157.015 134.663 C 156.687 134.460,156.717 132.654,157.053 132.317 C 157.522 131.849,157.796 132.154,157.867 133.220 M160.522 133.314 C 160.522 134.155,160.438 134.430,160.182 134.430 C 159.823 134.430,159.578 132.993,159.826 132.345 C 160.101 131.629,160.522 132.216,160.522 133.314 M171.661 132.364 C 171.845 132.842,169.848 134.817,169.516 134.485 C 169.239 134.208,169.156 132.451,169.408 132.199 C 169.704 131.903,171.536 132.038,171.661 132.364 M119.307 135.551 C 119.439 136.235,118.932 136.514,118.695 135.886 C 118.581 135.585,118.536 135.256,118.595 135.155 C 118.769 134.862,119.222 135.114,119.307 135.551 M136.312 135.906 C 136.100 136.280,135.768 136.585,135.575 136.585 C 135.281 136.585,135.224 136.969,135.224 138.968 C 135.224 140.966,135.281 141.350,135.575 141.350 C 135.768 141.350,136.100 141.657,136.312 142.031 C 136.525 142.406,136.884 142.772,137.110 142.845 C 137.336 142.918,137.633 143.224,137.770 143.525 C 138.021 144.075,138.400 144.269,138.400 143.846 C 138.400 143.299,139.334 142.711,140.202 142.711 C 141.144 142.711,141.595 142.400,140.990 142.168 C 140.793 142.092,140.002 142.029,139.233 142.027 C 137.126 142.022,137.164 142.086,137.079 138.409 C 137.001 135.047,136.931 134.819,136.312 135.906 M139.397 138.268 C 139.157 138.895,139.411 139.869,139.836 139.950 C 140.607 140.096,141.350 139.776,141.350 139.298 C 141.350 139.021,141.572 138.758,141.917 138.627 C 142.934 138.241,142.538 137.947,141.003 137.947 C 139.934 137.947,139.486 138.036,139.397 138.268 M160.295 138.531 C 159.851 138.888,159.737 139.079,159.968 139.080 C 160.457 139.082,161.170 138.527,161.064 138.229 C 161.013 138.087,160.690 138.213,160.295 138.531 M113.145 139.228 C 112.824 139.549,113.006 139.989,113.460 139.989 C 113.777 139.989,113.906 139.865,113.857 139.610 C 113.776 139.193,113.388 138.984,113.145 139.228 M118.000 140.993 C 118.175 141.686,118.530 142.246,119.149 142.801 L 120.044 143.605 118.856 144.859 L 117.667 146.112 117.122 145.603 C 116.645 145.158,116.595 144.965,116.728 144.073 C 116.811 143.511,116.950 142.490,117.038 141.804 C 117.184 140.655,117.409 139.989,117.651 139.989 C 117.704 139.989,117.861 140.441,118.000 140.993 M142.188 140.814 C 141.934 141.068,142.266 141.350,142.820 141.350 C 143.551 141.350,144.096 141.118,143.944 140.872 C 143.801 140.641,142.408 140.595,142.188 140.814 M130.474 142.946 C 131.005 143.230,131.148 148.058,130.641 148.565 C 129.577 149.629,128.871 148.554,128.871 145.871 C 128.871 143.155,129.323 142.330,130.474 142.946 M166.990 143.610 C 166.251 144.178,166.908 144.522,167.853 144.063 C 168.189 143.900,168.557 143.790,168.671 143.819 C 168.786 143.848,168.748 143.712,168.587 143.518 C 168.198 143.050,167.680 143.080,166.990 143.610 M139.185 144.996 C 138.905 145.449,139.596 145.666,141.123 145.606 C 142.257 145.561,142.598 145.469,142.598 145.207 C 142.598 144.773,139.443 144.578,139.185 144.996 M148.959 147.574 C 149.138 148.002,149.388 148.416,149.514 148.495 C 149.950 148.764,149.743 149.260,148.780 150.260 C 147.434 151.659,147.249 151.499,147.249 148.932 L 147.249 146.795 147.941 146.795 C 148.515 146.795,148.689 146.928,148.959 147.574 M138.890 150.425 C 139.389 151.100,139.413 151.106,141.584 151.106 C 144.703 151.106,145.061 151.496,143.447 153.136 L 142.318 154.282 140.712 154.282 C 139.185 154.282,139.091 154.252,138.808 153.661 C 138.644 153.319,138.230 152.905,137.888 152.741 C 137.546 152.577,137.267 152.321,137.268 152.171 C 137.269 152.022,136.939 151.628,136.535 151.296 C 135.808 150.698,135.804 150.686,136.227 150.218 C 136.910 149.464,138.256 149.568,138.890 150.425 M146.906 151.555 C 147.129 151.917,146.598 152.691,146.225 152.548 C 145.881 152.416,145.766 151.757,146.039 151.484 C 146.262 151.261,146.748 151.301,146.906 151.555 M120.660 152.169 C 120.703 152.471,120.980 152.746,121.379 152.886 C 121.794 153.030,122.055 153.299,122.103 153.631 C 122.152 153.966,122.379 154.198,122.745 154.283 C 123.457 154.450,123.515 155.098,122.812 155.024 C 122.098 154.950,119.219 152.006,119.611 151.753 C 120.091 151.443,120.584 151.639,120.660 152.169 M145.547 153.240 C 145.547 153.697,144.874 154.252,144.623 154.001 C 144.540 153.918,144.539 153.583,144.621 153.257 C 144.794 152.568,145.547 152.554,145.547 153.240 M137.223 153.647 C 137.277 154.113,137.434 154.271,137.895 154.325 C 138.318 154.375,138.535 154.562,138.627 154.955 C 138.708 155.305,138.966 155.563,139.316 155.646 C 140.070 155.824,140.063 156.459,139.308 156.376 C 138.467 156.283,135.673 153.440,136.132 153.143 C 136.686 152.783,137.148 152.996,137.223 153.647 M144.186 155.433 C 144.186 156.452,144.114 156.672,143.759 156.741 C 142.928 156.901,142.609 155.250,143.319 154.465 C 143.917 153.804,144.186 154.105,144.186 155.433 M142.857 157.121 C 143.008 157.515,142.568 158.140,142.141 158.140 C 141.685 158.140,141.562 157.506,141.943 157.125 C 142.383 156.685,142.689 156.684,142.857 157.121 M144.662 158.850 C 145.173 158.961,145.058 158.999,144.148 159.020 C 143.503 159.035,142.814 159.109,142.616 159.185 C 142.419 159.261,142.258 159.209,142.258 159.071 C 142.258 158.933,142.461 158.820,142.709 158.820 C 142.958 158.820,143.289 158.616,143.444 158.367 C 143.704 157.951,143.738 157.946,143.866 158.311 C 143.942 158.528,144.300 158.771,144.662 158.850 M141.502 158.497 C 141.577 158.694,141.480 159.015,141.285 159.209 C 140.928 159.566,140.216 159.474,140.216 159.070 C 140.216 158.394,141.280 157.920,141.502 158.497 M137.351 158.658 C 137.727 158.933,137.723 158.974,137.273 159.381 C 136.803 159.806,136.789 159.805,136.294 159.309 C 135.552 158.565,136.460 158.006,137.351 158.658 M159.006 158.990 C 159.072 159.455,158.987 159.501,158.055 159.501 C 156.939 159.501,156.581 159.218,157.023 158.685 C 157.482 158.132,158.916 158.353,159.006 158.990 M153.641 164.052 L 153.114 164.264 153.585 164.862 C 154.282 165.749,154.284 169.813,153.587 170.699 C 151.926 172.810,154.984 173.898,156.895 171.875 C 158.343 170.342,158.529 168.230,157.339 166.845 C 157.050 166.509,156.701 165.787,156.564 165.242 C 156.233 163.928,155.101 163.467,153.641 164.052 M151.672 165.175 C 151.594 165.300,151.691 165.563,151.886 165.758 C 152.384 166.256,152.389 169.341,151.892 169.758 C 151.140 170.391,150.882 170.654,150.706 170.968 C 150.233 171.813,147.888 171.645,146.944 170.699 C 145.826 169.578,145.306 168.613,145.641 168.278 C 146.115 167.805,145.879 167.691,144.697 167.824 C 142.996 168.015,142.383 168.603,143.458 169.012 C 144.361 169.355,144.589 169.811,144.086 170.266 C 143.582 170.722,143.225 170.579,142.930 169.802 C 142.650 169.067,142.162 169.116,141.577 169.938 C 141.310 170.312,140.946 170.618,140.767 170.618 C 140.589 170.618,140.442 170.724,140.442 170.853 C 140.442 170.982,140.085 171.445,139.648 171.881 C 139.008 172.522,138.854 172.849,138.854 173.575 C 138.854 174.249,138.763 174.475,138.491 174.475 C 135.559 174.475,136.337 177.980,139.409 178.610 C 140.584 178.851,142.484 178.547,142.484 178.118 C 142.484 178.010,142.050 177.784,141.520 177.617 C 140.729 177.366,140.543 177.199,140.484 176.687 L 140.412 176.064 141.960 176.064 C 143.799 176.064,144.778 175.816,145.463 175.178 C 145.740 174.919,146.303 174.645,146.714 174.568 C 147.125 174.491,147.735 174.192,148.070 173.904 C 148.405 173.616,149.134 173.253,149.689 173.098 C 150.566 172.852,150.755 172.684,151.124 171.825 C 151.357 171.281,151.729 170.769,151.951 170.687 C 152.614 170.442,152.687 170.153,152.691 167.771 C 152.694 165.359,152.253 164.235,151.672 165.175 M137.777 165.430 C 137.417 165.794,137.425 168.196,137.789 169.239 C 138.197 170.406,140.216 170.993,140.216 169.944 C 140.216 169.725,140.420 169.285,140.669 168.968 C 141.837 167.483,139.079 164.110,137.777 165.430 M135.951 172.135 C 136.358 172.503,136.334 172.556,135.296 173.609 C 134.118 174.806,133.772 174.926,133.417 174.263 C 132.497 172.544,134.522 170.842,135.951 172.135 M140.177 175.344 C 140.239 175.784,140.163 175.860,139.723 175.798 C 139.371 175.748,139.170 175.547,139.120 175.195 C 139.057 174.755,139.134 174.678,139.573 174.741 C 139.926 174.791,140.127 174.992,140.177 175.344 M138.400 175.610 C 138.400 175.859,138.298 176.064,138.174 176.064 C 138.049 176.064,137.947 175.859,137.947 175.610 C 137.947 175.360,138.049 175.156,138.174 175.156 C 138.298 175.156,138.400 175.360,138.400 175.610 M149.972 175.308 C 149.972 175.537,149.249 176.290,149.029 176.290 C 148.802 176.290,148.771 175.525,148.988 175.307 C 149.186 175.110,149.972 175.111,149.972 175.308 M139.762 176.979 C 139.762 177.371,139.693 177.404,139.308 177.198 C 139.058 177.064,138.854 176.857,138.854 176.736 C 138.854 176.616,139.058 176.517,139.308 176.517 C 139.613 176.517,139.762 176.669,139.762 176.979 M148.712 176.728 C 148.399 177.036,146.518 177.647,146.300 177.513 C 145.532 177.038,146.172 176.517,147.521 176.517 C 148.392 176.517,148.846 176.598,148.712 176.728 M136.441 179.125 C 136.363 179.330,136.397 179.596,136.517 179.716 C 136.835 180.034,137.528 179.701,137.445 179.271 C 137.349 178.771,136.618 178.665,136.441 179.125 M148.334 188.001 C 147.724 188.328,147.497 188.083,147.652 187.267 L 147.760 186.702 148.305 187.214 L 148.850 187.726 148.334 188.001 " stroke="none" fill="#c52f3f" fill-rule="evenodd"></path><path id="path1" d="M166.578 128.317 C 166.019 128.951,166.327 130.335,167.045 130.418 C 167.641 130.486,167.669 130.446,167.669 129.499 C 167.669 128.170,167.178 127.638,166.578 128.317 M161.771 130.401 C 160.823 131.360,160.781 131.450,161.182 131.683 C 161.420 131.821,162.208 132.535,162.935 133.270 C 164.423 134.773,164.947 134.758,164.945 133.211 C 164.944 132.535,164.822 132.319,164.264 132.001 C 163.694 131.677,163.585 131.474,163.585 130.742 C 163.585 129.095,163.144 129.012,161.771 130.401 M173.147 130.117 C 172.734 130.555,172.303 130.913,172.188 130.913 C 172.073 130.913,171.980 131.117,171.980 131.367 C 171.980 131.617,172.117 131.821,172.285 131.821 C 173.134 131.821,173.341 132.564,173.341 135.615 C 173.341 138.172,173.393 138.599,173.719 138.724 C 174.414 138.991,174.486 138.507,174.424 133.979 C 174.356 129.042,174.305 128.889,173.147 130.117 M158.412 130.959 C 157.966 131.405,158.101 131.821,158.693 131.821 C 159.374 131.821,159.632 131.458,159.266 131.017 C 158.933 130.615,158.766 130.604,158.412 130.959 M165.290 130.996 C 164.815 131.344,165.003 131.821,165.616 131.821 C 166.137 131.821,166.377 131.253,165.992 130.934 C 165.786 130.763,165.584 130.781,165.290 130.996 M167.982 131.016 C 167.806 131.474,168.068 131.821,168.590 131.821 C 169.084 131.821,169.171 131.372,168.758 130.959 C 168.395 130.596,168.136 130.615,167.982 131.016 M157.053 132.317 C 156.717 132.654,156.687 134.460,157.015 134.663 C 157.517 134.973,157.936 134.263,157.867 133.220 C 157.796 132.154,157.522 131.849,157.053 132.317 M159.826 132.345 C 159.578 132.993,159.823 134.430,160.182 134.430 C 160.438 134.430,160.522 134.155,160.522 133.314 C 160.522 132.216,160.101 131.629,159.826 132.345 M169.408 132.199 C 169.156 132.451,169.239 134.208,169.516 134.485 C 169.848 134.817,171.845 132.842,171.661 132.364 C 171.536 132.038,169.704 131.903,169.408 132.199 M155.692 135.040 C 155.541 135.191,155.417 135.682,155.417 136.132 C 155.417 137.295,155.105 137.493,153.271 137.493 C 151.938 137.493,151.623 137.566,151.398 137.927 C 150.955 138.636,151.567 138.934,153.345 138.876 C 155.349 138.811,155.810 139.214,154.862 140.202 C 153.949 141.155,154.212 141.804,155.510 141.804 C 156.688 141.804,157.005 142.517,157.005 145.164 C 157.005 146.471,157.083 146.825,157.427 147.066 C 157.659 147.229,158.012 147.924,158.212 148.610 C 158.412 149.297,158.770 149.978,159.007 150.124 C 159.243 150.270,159.500 150.704,159.577 151.088 C 159.659 151.502,159.857 151.787,160.062 151.787 C 160.253 151.787,160.408 151.938,160.408 152.123 C 160.408 152.657,161.463 152.799,162.139 152.356 L 162.732 151.967 161.357 150.572 C 160.206 149.405,159.970 149.031,159.911 148.278 C 159.848 147.463,159.771 147.364,159.092 147.227 C 158.026 147.010,158.021 146.995,158.080 144.450 C 158.133 142.150,158.131 142.143,157.465 141.577 C 156.808 141.019,156.795 140.961,156.618 137.965 C 156.442 134.990,156.274 134.458,155.692 135.040 M162.602 138.098 C 162.518 138.181,162.450 138.641,162.450 139.119 C 162.450 140.170,162.918 140.289,163.280 139.330 C 163.743 138.103,170.156 138.056,170.760 139.275 C 170.905 139.569,171.265 139.929,171.559 140.075 C 172.003 140.295,172.105 140.543,172.162 141.544 C 172.248 143.032,171.976 143.391,170.761 143.395 C 169.454 143.400,169.043 143.702,169.875 144.047 C 170.740 144.405,171.273 146.039,170.879 147.126 C 170.338 148.624,170.715 150.324,171.452 149.712 C 171.618 149.574,171.753 149.116,171.753 148.693 C 171.753 148.088,171.980 147.682,172.821 146.792 L 173.888 145.661 175.384 145.661 C 177.478 145.661,177.674 145.368,176.397 144.144 C 175.183 142.981,175.047 142.959,174.589 143.846 C 174.195 144.608,174.167 144.620,173.553 144.292 C 172.906 143.945,173.019 143.388,173.795 143.096 C 174.169 142.954,174.475 142.724,174.475 142.583 C 174.475 142.096,175.309 141.577,176.093 141.577 C 177.494 141.577,177.537 141.173,176.270 139.926 C 175.643 139.309,175.098 138.841,175.059 138.886 C 175.019 138.931,174.818 139.299,174.612 139.705 C 174.116 140.681,174.003 140.653,172.557 139.195 L 171.319 137.947 167.036 137.947 C 164.680 137.947,162.685 138.015,162.602 138.098 M163.963 140.821 C 163.535 141.248,163.834 142.382,164.470 142.744 C 164.903 142.990,165.182 143.377,165.290 143.879 C 165.536 145.026,165.575 145.032,166.537 144.070 C 167.028 143.579,167.681 143.114,167.987 143.037 C 169.238 142.723,168.801 142.324,167.043 142.175 C 165.323 142.030,164.492 141.639,164.492 140.974 C 164.492 140.650,164.214 140.569,163.963 140.821 M147.249 148.932 C 147.249 151.499,147.434 151.659,148.780 150.260 C 149.743 149.260,149.950 148.764,149.514 148.495 C 149.388 148.416,149.138 148.002,148.959 147.574 C 148.689 146.928,148.515 146.795,147.941 146.795 L 147.249 146.795 147.249 148.932 M146.039 151.484 C 145.766 151.757,145.881 152.416,146.225 152.548 C 146.598 152.691,147.129 151.917,146.906 151.555 C 146.748 151.301,146.262 151.261,146.039 151.484 M144.621 153.257 C 144.439 153.982,144.647 154.234,145.161 153.909 C 145.662 153.594,145.660 152.836,145.158 152.739 C 144.897 152.689,144.721 152.858,144.621 153.257 M158.455 153.926 C 158.153 154.712,158.458 155.305,159.140 155.256 C 160.149 155.183,160.292 154.867,159.622 154.197 C 158.951 153.526,158.636 153.453,158.455 153.926 M163.813 154.342 C 163.561 154.769,163.101 155.234,162.789 155.376 C 162.404 155.552,162.223 155.816,162.223 156.206 C 162.223 156.662,162.111 156.778,161.668 156.778 C 160.672 156.778,159.868 157.785,159.614 159.349 L 159.387 160.749 156.969 160.813 L 154.551 160.877 154.061 160.189 C 153.684 159.660,153.397 159.501,152.821 159.501 C 151.352 159.501,150.628 159.239,150.393 158.623 C 150.078 157.792,149.830 157.693,148.061 157.689 C 147.053 157.687,146.362 157.573,146.132 157.372 C 145.498 156.817,144.768 156.704,144.602 157.135 C 144.498 157.406,144.672 157.704,145.172 158.115 C 145.574 158.445,145.891 158.921,145.890 159.191 C 145.888 159.668,146.436 160.144,147.803 160.855 C 148.738 161.342,148.757 161.661,147.897 162.447 L 147.148 163.131 148.113 163.131 C 149.266 163.131,150.592 163.644,151.223 164.333 C 151.474 164.608,151.882 164.946,152.130 165.084 C 152.995 165.565,152.896 170.453,152.017 170.683 C 151.751 170.753,151.383 171.220,151.131 171.809 C 150.755 172.686,150.570 172.851,149.689 173.098 C 149.134 173.253,148.405 173.616,148.070 173.904 C 147.735 174.192,147.125 174.491,146.714 174.568 C 146.303 174.645,145.740 174.919,145.463 175.178 C 144.778 175.816,143.799 176.064,141.960 176.064 L 140.412 176.064 140.484 176.687 C 140.543 177.199,140.729 177.366,141.520 177.617 C 143.371 178.202,141.565 179.052,139.409 178.610 C 136.337 177.980,135.559 174.475,138.491 174.475 C 138.763 174.475,138.854 174.249,138.854 173.575 C 138.854 172.849,139.008 172.522,139.648 171.881 C 140.085 171.445,140.442 170.982,140.442 170.853 C 140.442 170.724,140.589 170.618,140.767 170.618 C 140.946 170.618,141.310 170.312,141.577 169.938 C 142.162 169.116,142.650 169.067,142.930 169.802 C 143.226 170.580,143.582 170.722,144.089 170.263 C 144.566 169.832,144.172 169.030,143.484 169.030 C 143.323 169.030,143.126 168.923,143.045 168.793 C 142.779 168.362,143.433 167.896,144.303 167.896 C 145.198 167.896,145.541 167.530,145.281 166.854 C 145.181 166.594,144.926 166.517,144.372 166.582 C 143.702 166.660,143.470 166.537,142.596 165.639 C 140.517 163.503,140.348 163.200,140.250 161.449 C 140.101 158.765,138.854 159.010,138.854 161.723 C 138.854 163.878,137.522 164.607,136.280 163.131 C 135.713 162.458,135.682 162.450,133.424 162.450 L 131.140 162.450 130.233 163.358 C 129.365 164.225,129.325 164.329,129.325 165.698 C 129.325 166.993,129.260 167.192,128.644 167.782 C 128.149 168.257,127.964 168.645,127.964 169.206 C 127.964 169.780,127.789 170.132,127.283 170.576 C 126.616 171.161,126.602 171.216,126.602 173.346 C 126.602 175.950,126.684 176.064,128.560 176.064 C 130.826 176.064,131.423 175.111,129.507 174.553 C 128.193 174.169,127.597 173.046,128.088 171.878 C 128.453 171.009,128.669 171.006,129.067 171.866 C 129.240 172.240,129.660 172.853,130.001 173.227 C 130.342 173.602,130.683 174.087,130.760 174.305 C 131.069 175.188,132.048 174.370,132.048 173.229 C 132.048 172.635,132.257 172.263,133.000 171.535 L 133.953 170.601 135.666 170.666 L 137.379 170.732 137.451 171.730 C 137.520 172.690,137.470 172.777,136.146 174.025 L 134.770 175.323 134.770 176.746 L 134.770 178.169 133.409 179.485 L 132.048 180.800 132.048 182.183 L 132.048 183.567 134.391 185.941 L 136.734 188.315 141.740 188.315 C 147.159 188.315,147.022 188.348,147.022 187.067 C 147.022 186.776,146.960 186.376,146.884 186.179 C 146.726 185.765,145.888 185.687,145.888 186.085 C 145.888 186.800,145.178 187.175,144.423 186.859 C 143.833 186.613,143.566 186.609,143.021 186.838 C 142.469 187.070,142.199 187.062,141.528 186.794 L 140.709 186.468 141.086 185.805 C 141.532 185.022,142.042 184.966,142.908 185.606 C 143.478 186.027,143.643 186.047,144.600 185.806 C 146.172 185.410,145.984 184.231,144.349 184.231 C 143.250 184.231,141.586 182.621,141.581 181.551 C 141.577 180.910,141.851 180.527,143.449 178.935 C 144.478 177.909,145.502 176.793,145.723 176.453 C 146.060 175.936,146.287 175.837,147.128 175.837 C 147.999 175.837,148.172 175.754,148.432 175.213 L 148.733 174.589 152.379 174.674 C 155.602 174.750,156.063 174.715,156.345 174.374 C 156.521 174.161,157.429 173.229,158.364 172.303 L 160.063 170.618 162.107 170.611 C 164.095 170.604,164.946 170.351,164.946 169.767 C 164.946 169.375,164.320 169.257,162.248 169.257 C 159.843 169.257,159.116 168.923,159.823 168.143 C 160.170 167.759,160.520 167.669,161.654 167.669 C 162.931 167.669,163.111 167.607,163.674 166.976 C 164.515 166.032,166.023 166.069,166.488 167.045 C 166.990 168.096,167.669 167.737,167.669 166.421 C 167.669 165.430,167.438 165.173,166.548 165.173 C 165.894 165.173,165.564 165.018,165.095 164.492 C 164.416 163.730,163.812 163.602,163.812 164.220 C 163.812 164.946,163.319 165.173,161.741 165.173 C 160.276 165.173,159.501 164.858,159.501 164.262 C 159.501 164.153,159.195 163.883,158.820 163.662 C 158.446 163.441,158.140 163.120,158.140 162.949 C 158.140 162.778,158.446 162.522,158.820 162.381 C 159.352 162.180,159.501 161.986,159.501 161.493 C 159.501 161.037,159.614 160.862,159.909 160.862 C 160.543 160.862,160.862 160.396,160.862 159.471 C 160.862 158.789,160.995 158.530,161.543 158.140 C 161.917 157.873,162.223 157.465,162.223 157.232 C 162.223 156.969,162.413 156.783,162.728 156.737 C 163.006 156.697,163.353 156.424,163.499 156.130 C 163.644 155.836,164.004 155.476,164.298 155.330 C 164.675 155.142,164.833 154.869,164.833 154.408 C 164.833 153.470,164.347 153.438,163.813 154.342 M143.319 154.465 C 142.609 155.250,142.928 156.901,143.759 156.741 C 144.114 156.672,144.186 156.452,144.186 155.433 C 144.186 154.105,143.917 153.804,143.319 154.465 M141.943 157.125 C 141.562 157.506,141.685 158.140,142.141 158.140 C 142.568 158.140,143.008 157.515,142.857 157.121 C 142.689 156.684,142.383 156.685,141.943 157.125 M140.572 158.496 C 140.376 158.692,140.216 158.951,140.216 159.070 C 140.216 159.474,140.928 159.566,141.285 159.209 C 141.642 158.852,141.550 158.140,141.146 158.140 C 141.027 158.140,140.768 158.300,140.572 158.496 M151.081 161.399 C 151.277 161.635,151.256 161.778,150.995 161.994 C 150.571 162.346,149.929 161.918,150.123 161.413 C 150.280 161.003,150.747 160.996,151.081 161.399 M159.501 162.891 C 159.501 163.560,159.828 163.643,161.784 163.470 C 164.674 163.214,164.224 162.450,161.184 162.450 C 159.669 162.450,159.501 162.494,159.501 162.891 M155.737 164.031 C 156.163 164.193,156.380 164.511,156.564 165.242 C 156.701 165.787,157.050 166.509,157.339 166.845 C 158.529 168.230,158.343 170.342,156.895 171.875 C 154.984 173.898,151.926 172.810,153.587 170.699 C 154.284 169.813,154.282 165.749,153.585 164.862 L 153.114 164.264 153.641 164.052 C 154.343 163.771,155.035 163.764,155.737 164.031 M140.242 166.307 C 141.245 167.341,141.364 168.084,140.669 168.968 C 140.420 169.285,140.216 169.725,140.216 169.944 C 140.216 170.993,138.197 170.406,137.789 169.239 C 136.631 165.921,138.129 164.130,140.242 166.307 M165.324 168.274 C 164.975 168.624,165.192 169.059,165.681 168.989 C 166.324 168.897,166.526 168.123,165.908 168.123 C 165.670 168.123,165.407 168.191,165.324 168.274 M139.120 175.195 C 139.170 175.547,139.371 175.748,139.723 175.798 C 140.163 175.860,140.239 175.784,140.177 175.344 C 140.127 174.992,139.926 174.791,139.573 174.741 C 139.134 174.678,139.057 174.755,139.120 175.195 M137.440 179.247 C 137.588 180.016,136.908 180.531,136.377 180.051 C 135.928 179.644,135.922 179.596,136.286 179.195 C 136.724 178.710,137.342 178.738,137.440 179.247 " stroke="none" fill="#0a0d2d" fill-rule="evenodd"></path><path id="path2" d="M162.270 110.492 C 162.057 110.866,161.810 111.172,161.720 111.173 C 161.631 111.173,161.044 111.672,160.416 112.280 L 159.274 113.386 159.274 116.923 C 159.274 119.823,159.337 120.511,159.622 120.751 C 160.604 121.576,160.635 121.652,160.635 123.188 C 160.635 124.688,160.659 124.751,161.429 125.339 C 162.177 125.909,162.223 126.023,162.223 127.267 C 162.223 129.349,161.841 129.444,160.238 127.759 C 159.095 126.558,158.812 126.375,158.092 126.375 C 157.430 126.375,157.165 126.239,156.778 125.695 C 156.325 125.059,156.198 125.014,154.826 125.014 L 153.359 125.014 150.985 122.640 L 148.610 120.265 148.610 116.192 C 148.610 113.952,148.548 111.957,148.473 111.760 C 148.246 111.168,147.403 111.342,146.909 112.082 C 146.659 112.455,146.338 112.761,146.196 112.762 C 145.880 112.762,145.661 113.287,145.661 114.044 C 145.661 114.771,145.276 115.485,144.883 115.485 C 144.496 115.485,144.299 115.984,144.299 116.965 C 144.299 117.572,144.160 117.810,143.619 118.130 C 142.964 118.517,142.938 118.594,142.938 120.140 C 142.938 122.237,142.869 122.292,140.187 122.292 C 137.988 122.292,137.978 122.294,137.429 122.996 L 136.878 123.700 135.824 122.675 C 134.932 121.809,134.770 121.518,134.769 120.780 C 134.768 120.051,134.657 119.846,134.088 119.523 C 133.517 119.198,133.409 118.996,133.409 118.255 C 133.409 117.015,131.981 115.485,130.825 115.485 C 129.673 115.485,129.325 115.011,129.325 113.445 C 129.325 111.858,129.178 111.401,128.665 111.401 C 127.859 111.401,127.737 111.869,127.737 114.948 L 127.737 117.950 128.417 118.434 L 129.098 118.919 129.098 123.900 L 129.098 128.881 128.531 129.139 C 128.219 129.282,127.964 129.467,127.964 129.551 C 127.964 129.691,126.553 131.172,125.546 132.088 C 125.316 132.298,125.013 132.604,124.872 132.769 C 124.731 132.934,124.425 133.231,124.191 133.430 C 123.958 133.629,123.619 134.008,123.439 134.273 C 122.980 134.946,122.518 134.504,122.518 133.389 C 122.518 132.716,122.635 132.456,123.029 132.249 C 124.133 131.667,124.175 129.098,123.081 129.098 C 123.014 129.098,118.971 133.137,117.867 134.306 C 117.742 134.438,116.798 135.357,115.769 136.349 C 114.739 137.340,113.896 138.233,113.895 138.332 C 113.895 138.432,113.588 138.688,113.215 138.900 C 112.409 139.359,112.378 139.549,113.014 140.124 C 113.488 140.552,113.497 140.550,114.138 139.782 C 114.685 139.128,114.838 139.054,115.135 139.300 C 115.486 139.592,115.636 141.123,115.312 141.123 C 114.393 141.123,113.897 142.299,113.897 144.479 L 113.897 146.682 114.691 147.315 C 115.450 147.921,115.485 148.013,115.485 149.403 L 115.485 150.857 121.279 156.654 C 126.874 162.251,127.104 162.450,127.959 162.450 C 129.153 162.450,129.326 162.842,128.450 163.562 C 127.775 164.117,127.733 164.241,127.735 165.668 C 127.737 167.095,127.697 167.213,127.056 167.669 C 126.499 168.065,126.375 168.314,126.375 169.039 C 126.375 169.759,126.249 170.018,125.695 170.427 C 124.775 171.107,124.628 175.299,125.499 176.009 C 125.765 176.226,126.239 176.681,126.551 177.020 C 127.086 177.602,127.245 177.640,129.412 177.701 L 131.707 177.765 131.776 178.706 C 131.836 179.532,131.761 179.706,131.152 180.139 C 129.476 181.332,130.127 183.570,132.881 186.085 C 133.109 186.294,133.728 186.906,134.257 187.446 C 134.786 187.987,135.348 188.544,135.505 188.685 C 135.663 188.825,135.969 189.157,136.186 189.422 C 136.576 189.897,136.695 189.904,144.959 189.904 C 154.672 189.904,154.056 190.004,154.056 188.429 C 154.056 187.123,153.894 186.954,152.647 186.954 C 151.973 186.954,149.745 185.033,149.745 184.451 C 149.745 184.330,149.292 184.231,148.739 184.231 C 147.881 184.231,147.663 184.132,147.249 183.551 C 146.792 182.909,146.677 182.870,145.219 182.870 C 144.214 182.870,143.587 182.765,143.425 182.570 C 143.062 182.132,143.548 181.736,144.449 181.736 C 145.138 181.736,146.115 181.045,146.115 180.558 C 146.115 180.457,146.522 180.374,147.020 180.374 C 147.741 180.374,148.050 180.235,148.533 179.694 C 148.982 179.190,149.339 179.013,149.911 179.013 C 150.559 179.013,150.890 178.795,151.978 177.652 L 153.274 176.290 154.698 176.290 L 156.122 176.290 158.236 174.135 L 160.349 171.980 162.429 171.980 L 164.508 171.980 166.883 169.605 C 169.021 167.467,169.257 167.149,169.257 166.411 C 169.257 165.286,167.614 163.585,166.528 163.585 C 164.531 163.585,161.464 159.033,162.993 158.337 C 163.291 158.201,163.646 157.846,163.782 157.547 C 163.982 157.108,164.200 157.005,164.932 157.005 C 165.465 157.005,165.956 156.863,166.128 156.657 C 168.464 153.881,171.363 151.333,172.185 151.333 C 173.254 151.333,173.355 151.130,173.299 149.102 C 173.258 147.617,173.256 147.612,173.183 148.837 C 173.056 150.995,172.997 151.106,171.973 151.106 C 171.325 151.106,170.955 151.243,170.673 151.588 C 170.456 151.853,170.143 152.184,169.978 152.325 C 169.814 152.466,169.507 152.768,169.298 152.996 C 168.806 153.531,167.145 155.193,166.609 155.685 C 166.381 155.894,166.062 156.226,165.901 156.422 C 165.741 156.618,165.285 156.778,164.889 156.778 C 163.779 156.778,162.223 158.394,162.223 159.547 C 162.223 160.743,165.203 163.809,166.371 163.815 C 166.935 163.818,167.322 164.047,168.066 164.818 C 169.543 166.347,169.458 166.629,166.682 169.405 L 164.334 171.753 162.217 171.753 L 160.099 171.753 158.103 173.795 L 156.107 175.837 154.690 175.837 L 153.274 175.837 151.978 177.198 C 150.874 178.358,150.565 178.559,149.885 178.559 C 149.240 178.559,148.971 178.711,148.481 179.353 C 147.976 180.016,147.733 180.147,147.012 180.147 C 146.339 180.147,146.040 180.285,145.659 180.771 C 145.313 181.214,144.903 181.428,144.248 181.509 C 142.067 181.777,142.768 183.077,145.100 183.090 C 146.331 183.096,146.527 183.165,147.065 183.778 C 147.507 184.281,147.861 184.458,148.427 184.458 C 149.073 184.458,149.386 184.670,150.433 185.816 C 151.499 186.983,151.786 187.174,152.479 187.177 C 153.470 187.182,153.829 187.514,153.829 188.429 C 153.829 189.696,153.962 189.677,145.048 189.677 L 136.811 189.677 133.749 186.584 L 130.686 183.491 130.686 182.162 C 130.686 180.970,130.757 180.769,131.367 180.225 C 133.174 178.615,132.157 177.216,129.172 177.205 L 127.091 177.198 126.166 176.254 L 125.241 175.311 125.241 173.207 C 125.241 171.128,125.249 171.097,125.922 170.618 C 126.469 170.229,126.602 169.968,126.602 169.292 C 126.602 168.641,126.756 168.315,127.283 167.853 C 127.904 167.308,127.964 167.130,127.966 165.817 C 127.968 164.474,128.021 164.328,128.760 163.610 C 129.196 163.187,129.552 162.753,129.552 162.645 C 129.552 162.538,129.661 162.450,129.795 162.450 C 130.292 162.450,130.686 161.776,130.682 160.935 C 130.675 159.616,127.771 156.778,126.428 156.778 C 125.071 156.778,124.538 157.886,125.716 158.260 C 125.954 158.335,126.149 158.482,126.149 158.586 C 126.149 158.689,126.838 159.451,127.680 160.278 C 129.299 161.868,129.340 162.212,127.915 162.220 C 127.299 162.223,121.157 156.469,121.157 155.888 C 121.157 155.760,120.858 155.501,120.493 155.312 C 120.127 155.123,119.768 154.778,119.694 154.546 C 119.620 154.314,119.316 154.013,119.017 153.877 C 118.718 153.741,118.407 153.419,118.325 153.162 C 118.244 152.905,118.091 152.694,117.986 152.694 C 117.060 152.694,115.712 150.618,115.712 149.193 C 115.712 147.815,115.666 147.683,115.031 147.213 C 113.972 146.430,113.972 142.396,115.031 141.613 C 115.995 140.900,115.900 138.854,114.903 138.854 C 114.716 138.854,114.509 138.714,114.443 138.542 C 114.301 138.172,117.395 134.997,117.896 134.997 C 118.081 134.997,118.337 134.695,118.465 134.326 C 118.594 133.957,118.895 133.592,119.134 133.516 C 119.373 133.440,119.569 133.295,119.569 133.192 C 119.569 132.715,123.151 129.368,123.398 129.614 C 123.928 130.145,123.699 131.475,122.985 132.002 C 122.459 132.391,122.303 132.700,122.248 133.461 C 122.190 134.257,122.069 134.479,121.554 134.724 C 120.850 135.060,120.763 135.478,121.286 136.001 C 121.698 136.413,122.518 136.120,122.518 135.562 C 122.518 135.383,122.817 135.081,123.183 134.892 C 123.549 134.703,123.908 134.359,123.981 134.127 C 124.055 133.895,124.369 133.589,124.678 133.448 C 124.988 133.307,125.241 133.039,125.241 132.852 C 125.241 132.666,125.540 132.358,125.906 132.169 C 126.271 131.980,126.635 131.620,126.715 131.369 C 126.795 131.119,127.008 130.913,127.188 130.913 C 127.369 130.913,127.718 130.581,127.963 130.176 C 128.240 129.719,128.649 129.393,129.038 129.319 C 129.550 129.221,129.652 129.096,129.591 128.638 C 129.550 128.330,129.448 125.904,129.364 123.248 L 129.212 118.418 128.644 118.137 C 127.769 117.702,127.645 111.628,128.511 111.628 C 128.953 111.628,129.098 112.145,129.098 113.720 C 129.098 115.267,129.410 115.688,130.573 115.710 C 131.754 115.733,133.182 117.297,133.182 118.568 C 133.182 119.502,133.242 119.613,133.863 119.830 C 134.616 120.092,134.738 120.664,134.236 121.570 C 133.882 122.207,133.559 121.924,133.246 120.703 C 133.086 120.080,132.914 119.894,132.446 119.839 C 132.033 119.790,131.827 119.615,131.778 119.274 C 131.686 118.634,130.913 118.452,130.913 119.071 C 130.913 119.314,131.066 119.640,131.254 119.796 C 131.441 119.951,131.594 120.432,131.594 120.863 C 131.594 121.447,131.783 121.838,132.331 122.385 C 132.737 122.790,133.178 123.312,133.312 123.544 C 133.706 124.229,134.094 124.199,134.372 123.464 C 134.743 122.479,135.332 122.416,136.138 123.275 L 136.812 123.993 137.504 123.256 C 138.575 122.116,142.040 122.114,142.983 123.254 C 143.493 123.870,143.664 123.951,144.004 123.742 C 144.610 123.369,144.504 122.682,143.789 122.339 C 142.801 121.865,142.840 119.150,143.846 118.434 C 144.400 118.040,144.526 117.788,144.526 117.078 C 144.526 116.388,144.668 116.087,145.207 115.633 C 145.718 115.203,145.888 114.868,145.888 114.288 C 145.888 113.690,146.096 113.302,146.813 112.572 C 148.360 110.993,148.383 111.055,148.383 116.736 C 148.383 121.115,148.385 121.126,148.894 121.198 C 149.175 121.238,149.505 121.500,149.628 121.781 C 149.752 122.062,149.938 122.292,150.043 122.292 C 150.147 122.292,150.877 122.955,151.665 123.766 L 153.097 125.241 154.540 125.245 C 156.153 125.248,156.420 125.356,156.649 126.092 C 156.779 126.505,156.975 126.602,157.682 126.602 C 158.695 126.602,159.274 126.784,159.274 127.101 C 159.274 127.375,161.256 129.325,161.535 129.325 C 162.794 129.325,162.848 125.698,161.600 125.040 C 161.145 124.801,161.089 124.599,161.089 123.198 C 161.089 121.713,161.051 121.596,160.408 121.121 L 159.728 120.618 159.728 117.031 L 159.728 113.443 160.635 112.535 C 161.887 111.284,162.223 111.399,162.223 113.079 C 162.223 113.630,162.392 113.936,162.904 114.315 C 163.555 114.796,163.585 114.892,163.585 116.520 C 163.585 117.924,163.653 118.248,163.977 118.372 C 164.470 118.562,169.030 123.104,169.030 123.406 C 169.030 123.528,169.311 123.762,169.654 123.926 C 170.175 124.174,170.297 124.403,170.391 125.309 C 170.483 126.180,170.616 126.449,171.072 126.674 C 171.513 126.891,171.665 127.175,171.753 127.946 C 171.917 129.386,172.494 129.667,173.296 128.699 C 173.744 128.158,174.094 127.960,174.600 127.962 C 175.692 127.965,175.837 128.284,175.837 130.694 C 175.837 132.837,175.850 132.892,176.517 133.487 C 177.181 134.078,177.198 134.145,177.198 136.204 C 177.198 138.254,177.218 138.335,177.879 138.968 C 178.906 139.952,178.890 142.093,177.849 143.007 C 177.011 143.742,177.387 144.526,178.576 144.526 C 178.921 144.526,179.364 144.588,179.562 144.664 C 179.950 144.813,180.061 145.434,179.699 145.434 C 179.577 145.434,179.153 145.791,178.755 146.228 C 178.033 147.022,178.031 147.022,175.857 147.069 L 173.681 147.115 175.723 147.192 C 178.037 147.279,178.786 147.156,178.786 146.690 C 178.786 146.513,179.092 146.186,179.467 145.965 C 180.726 145.221,180.292 144.299,178.682 144.299 C 177.524 144.299,177.202 143.725,178.079 143.225 C 179.036 142.681,179.187 139.308,178.276 138.828 C 177.489 138.414,177.432 138.215,177.428 135.863 C 177.425 133.683,177.420 133.663,176.744 133.182 C 176.074 132.705,176.064 132.665,176.064 130.656 C 176.064 127.605,174.797 126.616,173.193 128.416 C 172.448 129.252,171.980 128.996,171.980 127.752 C 171.980 127.085,171.841 126.812,171.299 126.411 C 170.765 126.016,170.618 125.735,170.618 125.101 C 170.618 124.362,170.335 124.016,167.215 120.945 L 163.812 117.595 163.812 116.102 C 163.812 114.701,163.769 114.578,163.131 114.124 C 162.207 113.465,162.115 111.761,162.993 111.541 C 163.711 111.361,163.917 110.759,163.442 110.234 C 162.920 109.658,162.719 109.702,162.270 110.492 M163.244 110.736 C 163.244 110.911,163.066 111.089,162.847 111.131 C 162.456 111.206,162.295 110.725,162.606 110.413 C 162.844 110.175,163.244 110.378,163.244 110.736 M161.222 117.191 C 161.025 117.973,161.502 118.905,161.813 118.349 C 162.048 117.930,161.848 116.619,161.549 116.619 C 161.448 116.619,161.301 116.877,161.222 117.191 M145.930 118.503 C 145.196 119.284,145.214 121.552,145.959 122.252 C 146.682 122.932,147.877 122.922,148.138 122.235 C 148.349 121.678,148.074 121.157,147.570 121.157 C 147.129 121.157,146.796 120.410,146.792 119.414 C 146.787 118.134,146.531 117.863,145.930 118.503 M162.602 119.720 C 162.306 120.016,162.440 123.325,162.766 123.771 C 163.256 124.441,163.812 123.841,163.812 122.645 C 163.812 121.034,163.073 119.249,162.602 119.720 M144.146 122.895 C 144.228 122.977,144.181 123.182,144.041 123.351 C 143.756 123.694,143.064 123.319,143.294 122.946 C 143.440 122.711,143.932 122.681,144.146 122.895 M148.868 123.904 C 148.608 124.591,148.970 125.148,149.430 124.766 C 149.665 124.571,149.677 124.401,149.482 124.026 C 149.112 123.314,149.093 123.310,148.868 123.904 M164.075 125.069 C 163.729 125.414,163.736 127.116,164.084 127.465 C 164.584 127.964,166.081 127.733,166.081 127.155 C 166.081 126.264,164.512 124.632,164.075 125.069 M168.218 126.706 C 168.038 127.424,168.240 127.723,168.803 127.576 C 169.376 127.426,169.376 127.176,168.807 126.606 C 168.357 126.157,168.356 126.157,168.218 126.706 M155.419 127.962 L 154.920 128.461 155.565 129.140 C 156.466 130.088,157.317 130.510,157.652 130.176 C 158.080 129.747,157.962 129.468,156.916 128.441 L 155.918 127.462 155.419 127.962 M130.726 128.262 C 130.448 128.557,130.233 129.081,130.233 129.460 C 130.233 129.981,129.929 130.434,128.890 131.462 C 127.486 132.852,127.376 133.283,128.335 133.648 C 129.028 133.911,129.016 134.260,128.304 134.585 C 127.992 134.727,127.737 134.946,127.737 135.071 C 127.737 135.196,126.435 136.617,124.844 138.229 L 121.951 141.160 122.689 141.782 C 123.217 142.228,123.426 142.596,123.426 143.082 C 123.426 143.540,123.648 143.973,124.107 144.413 C 125.048 145.314,125.129 147.695,124.239 148.278 C 123.327 148.876,123.316 150.199,124.222 150.199 C 124.402 150.199,124.707 150.505,124.901 150.879 C 125.094 151.254,125.405 151.560,125.592 151.560 C 125.779 151.560,126.047 151.813,126.188 152.123 C 126.329 152.432,126.634 152.746,126.866 152.819 C 127.098 152.893,127.443 153.252,127.632 153.618 C 127.821 153.983,128.104 154.282,128.260 154.282 C 128.417 154.282,129.151 154.895,129.892 155.644 C 130.940 156.702,131.390 157.005,131.916 157.005 C 132.372 157.005,132.840 157.245,133.348 157.737 C 133.947 158.317,134.181 158.420,134.480 158.231 C 135.150 157.809,135.046 157.518,133.706 156.068 C 131.620 153.813,131.402 153.602,131.150 153.602 C 131.020 153.602,130.913 153.456,130.913 153.277 C 130.913 153.098,130.607 152.734,130.233 152.467 C 129.675 152.071,129.552 151.822,129.552 151.097 C 129.552 150.377,129.425 150.118,128.871 149.709 L 128.191 149.206 128.191 145.124 L 128.191 141.043 128.872 140.459 C 129.547 139.881,129.550 139.866,129.222 138.968 C 128.608 137.285,128.792 134.547,129.519 134.540 C 130.503 134.531,130.610 133.504,129.689 132.907 C 129.375 132.703,130.071 132.155,131.085 131.810 C 131.767 131.577,131.821 131.486,131.796 130.612 C 131.781 130.091,131.876 129.395,132.008 129.064 C 132.202 128.574,132.171 128.395,131.845 128.100 C 131.332 127.635,131.312 127.638,130.726 128.262 M152.843 129.513 C 151.842 130.619,153.885 134.139,155.038 133.295 C 155.665 132.837,155.487 130.880,154.791 130.575 C 154.509 130.451,154.214 130.145,154.136 129.894 C 153.875 129.056,153.387 128.912,152.843 129.513 M154.282 130.459 C 155.196 131.373,155.543 132.710,154.960 133.070 C 154.167 133.561,152.289 130.502,152.967 129.824 C 153.327 129.464,153.250 129.427,154.282 130.459 M166.704 130.941 C 166.486 131.063,166.307 131.311,166.307 131.492 C 166.307 131.673,166.116 132.013,165.881 132.247 C 165.646 132.482,165.281 133.195,165.070 133.833 C 164.537 135.435,164.441 135.436,162.873 133.868 C 162.111 133.106,161.457 132.512,161.421 132.548 C 161.384 132.585,161.160 133.176,160.923 133.863 C 160.683 134.557,160.354 135.111,160.182 135.111 C 160.009 135.111,159.680 134.557,159.440 133.863 C 158.824 132.079,158.636 132.094,158.118 133.967 C 157.981 134.461,157.721 134.974,157.540 135.106 C 157.289 135.289,157.227 135.778,157.278 137.157 L 157.345 138.968 158.586 138.914 C 159.574 138.871,160.036 138.709,160.855 138.120 L 161.883 137.379 166.547 137.301 L 171.211 137.222 171.923 137.820 C 172.896 138.639,173.114 138.196,173.114 135.396 C 173.114 132.316,172.900 132.142,171.221 133.861 C 169.589 135.532,168.576 135.288,168.576 133.225 C 168.576 132.857,168.423 132.430,168.236 132.275 C 168.049 132.119,167.896 131.867,167.896 131.715 C 167.896 131.193,167.135 130.699,166.704 130.941 M118.595 135.155 C 118.536 135.256,118.581 135.585,118.695 135.886 C 118.932 136.514,119.439 136.235,119.307 135.551 C 119.222 135.114,118.769 134.862,118.595 135.155 M122.065 135.205 C 122.065 135.794,121.777 136.136,121.484 135.894 C 121.319 135.757,121.240 135.499,121.308 135.321 C 121.445 134.966,122.065 134.871,122.065 135.205 M113.857 139.610 C 113.906 139.865,113.777 139.989,113.460 139.989 C 113.201 139.989,112.989 139.853,112.989 139.686 C 112.989 138.991,113.724 138.927,113.857 139.610 M117.375 140.272 C 117.277 140.428,117.125 141.117,117.038 141.804 C 116.950 142.490,116.811 143.511,116.728 144.073 C 116.595 144.965,116.645 145.158,117.122 145.603 L 117.667 146.112 118.856 144.859 L 120.044 143.605 119.149 142.801 C 118.530 142.246,118.175 141.686,118.000 140.993 C 117.729 139.918,117.653 139.830,117.375 140.272 M151.126 142.120 C 150.592 142.763,150.906 147.098,151.505 147.360 C 151.787 147.484,152.075 147.765,152.145 147.985 C 152.257 148.338,152.311 148.346,152.608 148.049 C 153.091 147.565,152.788 146.187,152.099 145.735 C 151.462 145.318,151.301 143.477,151.883 143.254 C 152.344 143.077,152.519 142.480,152.217 142.115 C 151.885 141.716,151.459 141.718,151.126 142.120 M129.325 143.165 C 128.264 144.226,128.793 148.837,129.977 148.837 C 131.024 148.837,131.477 143.483,130.474 142.946 C 129.889 142.633,129.850 142.640,129.325 143.165 M161.329 143.490 C 160.981 143.908,161.473 144.182,162.961 144.398 C 163.934 144.539,164.039 144.511,164.039 144.109 C 164.039 143.330,161.872 142.835,161.329 143.490 M167.725 144.132 C 166.715 144.730,166.801 144.980,168.017 144.980 C 168.924 144.980,169.022 144.933,168.842 144.583 C 168.730 144.365,168.598 144.076,168.550 143.941 C 168.495 143.787,168.190 143.857,167.725 144.132 M158.593 145.094 C 158.593 146.299,158.852 146.723,159.136 145.983 C 159.431 145.214,159.214 143.846,158.796 143.846 C 158.684 143.846,158.593 144.407,158.593 145.094 M163.036 145.858 C 162.969 145.967,162.590 146.121,162.194 146.200 C 161.531 146.332,161.502 146.375,161.822 146.740 C 162.433 147.435,162.491 148.044,162.004 148.663 C 161.622 149.149,161.599 149.282,161.864 149.502 C 162.037 149.646,162.239 150.004,162.313 150.299 C 162.467 150.909,164.181 152.014,164.975 152.014 C 165.376 152.014,165.430 151.953,165.218 151.741 C 165.069 151.592,164.946 151.240,164.946 150.961 C 164.946 150.681,164.844 150.389,164.719 150.312 C 164.594 150.235,164.492 150.280,164.492 150.412 C 164.492 150.544,164.344 150.652,164.162 150.652 C 163.544 150.652,163.432 148.417,163.942 146.285 C 164.091 145.662,163.367 145.322,163.036 145.858 M169.044 147.463 C 168.788 147.625,168.765 147.833,168.941 148.424 C 169.195 149.280,168.684 150.663,168.179 150.486 C 167.828 150.364,167.801 151.021,168.148 151.235 C 168.576 151.500,170.144 149.508,170.155 148.686 C 170.172 147.375,169.811 146.977,169.044 147.463 M157.459 149.843 C 157.459 150.180,157.349 150.661,157.214 150.914 C 156.913 151.476,157.053 151.647,157.657 151.456 C 158.352 151.235,158.471 150.517,157.928 149.827 L 157.459 149.230 157.459 149.843 M150.425 149.731 C 150.425 150.241,151.724 151.306,152.524 151.454 C 153.585 151.649,153.671 151.208,152.770 150.197 C 152.172 149.525,150.425 149.178,150.425 149.731 M136.227 150.218 C 135.804 150.686,135.808 150.698,136.535 151.296 C 136.939 151.628,137.269 152.022,137.268 152.171 C 137.267 152.321,137.546 152.577,137.888 152.741 C 138.230 152.905,138.644 153.319,138.808 153.661 C 139.091 154.252,139.185 154.282,140.712 154.282 L 142.318 154.282 143.447 153.136 C 145.061 151.496,144.703 151.106,141.584 151.106 C 139.413 151.106,139.389 151.100,138.890 150.425 C 138.256 149.568,136.910 149.464,136.227 150.218 M138.663 150.652 C 139.162 151.327,139.185 151.333,141.365 151.333 C 144.195 151.333,144.489 151.584,143.206 152.906 C 142.045 154.102,139.521 154.318,139.040 153.261 C 138.898 152.950,138.705 152.694,138.612 152.694 C 138.087 152.694,136.333 150.615,136.594 150.302 C 137.074 149.723,138.106 149.898,138.663 150.652 M148.667 151.241 C 148.137 151.803,147.703 152.449,147.703 152.677 C 147.703 152.952,147.483 153.135,147.050 153.222 C 145.767 153.478,146.043 155.533,147.430 156.056 C 148.377 156.413,150.199 156.579,150.199 156.309 C 150.199 156.036,149.087 154.963,148.804 154.963 C 148.327 154.963,148.679 154.529,149.348 154.292 C 150.049 154.044,150.064 154.015,149.651 153.708 C 149.231 153.395,149.237 153.369,149.830 152.903 C 150.297 152.535,150.383 152.350,150.194 152.121 C 150.045 151.942,150.006 151.493,150.097 151.010 C 150.307 149.890,149.877 149.960,148.667 151.241 M119.611 151.753 C 119.219 152.006,122.098 154.950,122.812 155.024 C 123.515 155.098,123.457 154.450,122.745 154.283 C 122.379 154.198,122.152 153.966,122.103 153.631 C 122.055 153.299,121.794 153.030,121.379 152.886 C 120.980 152.746,120.703 152.471,120.660 152.169 C 120.584 151.639,120.091 151.443,119.611 151.753 M152.596 152.669 C 152.415 152.963,153.488 153.602,154.161 153.602 C 154.919 153.602,154.889 153.336,154.077 152.857 C 153.353 152.429,152.789 152.357,152.596 152.669 M162.829 153.016 C 162.689 153.382,163.273 153.696,163.477 153.365 C 163.632 153.115,163.421 152.694,163.142 152.694 C 163.038 152.694,162.897 152.839,162.829 153.016 M136.132 153.143 C 135.673 153.440,138.467 156.283,139.308 156.376 C 140.063 156.459,140.070 155.824,139.316 155.646 C 138.966 155.563,138.708 155.305,138.627 154.955 C 138.535 154.562,138.318 154.375,137.895 154.325 C 137.434 154.271,137.277 154.113,137.223 153.647 C 137.148 152.996,136.686 152.783,136.132 153.143 M157.166 154.282 C 156.992 154.948,157.313 155.670,157.531 155.102 C 157.608 154.901,157.589 154.514,157.489 154.243 L 157.306 153.749 157.166 154.282 M151.001 154.496 C 150.845 154.748,151.747 155.644,152.156 155.644 C 152.716 155.644,152.688 155.218,152.099 154.754 C 151.436 154.233,151.198 154.177,151.001 154.496 M153.813 155.469 C 153.576 156.395,153.672 156.778,154.141 156.778 C 154.819 156.778,155.603 156.196,155.303 155.915 C 155.087 155.713,153.846 155.341,153.813 155.469 M127.735 157.569 C 127.901 157.878,128.224 158.192,128.454 158.265 C 128.683 158.337,128.871 158.497,128.871 158.620 C 128.871 158.743,129.236 159.178,129.683 159.587 C 130.360 160.207,130.482 160.458,130.420 161.105 C 130.328 162.063,129.758 162.238,129.330 161.438 C 129.160 161.121,128.891 160.862,128.732 160.862 C 128.573 160.862,128.262 160.556,128.041 160.182 C 127.820 159.807,127.514 159.501,127.360 159.501 C 127.207 159.501,126.901 159.195,126.680 158.820 C 126.459 158.446,126.190 158.140,126.083 158.140 C 125.652 158.140,125.264 157.527,125.528 157.263 C 126.030 156.761,127.404 156.951,127.735 157.569 M143.444 158.367 C 143.289 158.616,142.958 158.820,142.709 158.820 C 142.461 158.820,142.258 158.933,142.258 159.071 C 142.258 159.209,142.419 159.261,142.616 159.185 C 142.814 159.109,143.503 159.035,144.148 159.020 C 145.058 158.999,145.173 158.961,144.662 158.850 C 144.300 158.771,143.942 158.528,143.866 158.311 C 143.738 157.946,143.704 157.951,143.444 158.367 M136.132 158.589 C 135.840 158.774,135.863 158.877,136.294 159.309 C 136.789 159.805,136.803 159.806,137.273 159.381 C 137.997 158.726,137.003 158.037,136.132 158.589 M157.023 158.685 C 156.581 159.218,156.939 159.501,158.055 159.501 C 158.987 159.501,159.072 159.455,159.006 158.990 C 158.916 158.353,157.482 158.132,157.023 158.685 M140.896 160.976 C 140.896 161.733,140.933 161.770,141.698 161.770 C 142.374 161.770,142.573 161.894,142.968 162.564 C 143.717 163.832,144.379 163.440,144.572 161.614 L 144.640 160.977 143.236 161.053 C 142.012 161.119,141.795 161.068,141.537 160.655 C 141.107 159.967,140.896 160.072,140.896 160.976 M147.022 161.543 C 147.022 161.668,147.175 161.770,147.362 161.770 C 147.550 161.770,147.703 161.668,147.703 161.543 C 147.703 161.418,147.550 161.316,147.362 161.316 C 147.175 161.316,147.022 161.418,147.022 161.543 M160.435 164.244 C 159.940 164.558,161.864 164.806,162.433 164.501 C 162.692 164.363,162.904 164.202,162.904 164.144 C 162.904 163.954,160.756 164.041,160.435 164.244 M146.032 165.516 C 145.959 165.704,145.960 166.156,146.032 166.520 C 146.112 166.918,146.022 167.468,145.805 167.902 C 145.368 168.778,145.602 169.354,146.944 170.699 C 147.888 171.645,150.233 171.813,150.706 170.968 C 150.882 170.654,151.140 170.391,151.892 169.758 C 152.615 169.151,152.319 165.627,151.546 165.627 C 151.182 165.627,151.117 165.847,151.059 167.272 L 150.993 168.917 150.049 168.985 C 149.391 169.033,149.012 168.943,148.801 168.688 C 148.634 168.486,148.216 168.055,147.873 167.730 C 147.379 167.263,147.249 166.935,147.249 166.156 C 147.249 165.127,146.360 164.659,146.032 165.516 M163.961 167.669 C 163.572 168.328,163.505 168.350,161.814 168.367 C 159.632 168.390,159.917 168.506,162.490 168.645 L 164.459 168.751 164.730 168.096 C 164.879 167.736,165.091 167.442,165.201 167.442 C 165.310 167.442,165.400 167.340,165.400 167.215 C 165.400 166.682,164.348 167.014,163.961 167.669 M133.558 172.168 C 132.928 172.863,133.203 174.702,133.936 174.702 C 134.690 174.702,136.392 172.534,135.951 172.135 C 135.384 171.622,134.035 171.640,133.558 172.168 M135.698 172.344 C 135.956 172.655,135.935 172.755,135.556 173.016 C 135.311 173.184,135.030 173.403,134.931 173.502 C 134.833 173.600,134.614 173.882,134.445 174.126 C 134.047 174.705,133.409 174.250,133.409 173.388 C 133.409 172.193,134.979 171.478,135.698 172.344 M137.947 175.610 C 137.947 175.859,138.049 176.064,138.174 176.064 C 138.298 176.064,138.400 175.859,138.400 175.610 C 138.400 175.360,138.298 175.156,138.174 175.156 C 138.049 175.156,137.947 175.360,137.947 175.610 M148.988 175.307 C 148.771 175.525,148.802 176.290,149.029 176.290 C 149.249 176.290,149.972 175.537,149.972 175.308 C 149.972 175.111,149.186 175.110,148.988 175.307 M138.854 176.736 C 138.854 176.857,139.058 177.064,139.308 177.198 C 139.693 177.404,139.762 177.371,139.762 176.979 C 139.762 176.669,139.613 176.517,139.308 176.517 C 139.058 176.517,138.854 176.616,138.854 176.736 M146.115 176.958 C 146.115 177.605,146.372 177.666,147.491 177.283 C 149.077 176.741,149.086 176.517,147.521 176.517 C 146.280 176.517,146.115 176.569,146.115 176.958 M147.652 187.267 C 147.497 188.083,147.724 188.328,148.334 188.001 L 148.850 187.726 148.305 187.214 L 147.760 186.702 147.652 187.267 " stroke="none" fill="#ec9934" fill-rule="evenodd"></path><path id="path3" d="M139.236 126.230 C 138.990 126.605,138.594 126.804,137.908 126.896 C 137.344 126.972,136.781 127.212,136.578 127.462 C 136.123 128.025,135.380 128.417,134.771 128.417 C 134.220 128.417,132.048 130.193,132.048 130.643 C 132.048 131.059,130.073 135.156,129.787 135.332 C 129.205 135.692,129.519 138.044,130.233 138.670 C 130.700 139.080,130.913 139.477,130.913 139.937 C 130.913 140.338,131.184 140.947,131.588 141.456 C 131.959 141.923,132.324 142.631,132.399 143.029 C 132.478 143.454,132.731 143.842,133.010 143.969 C 133.271 144.088,133.596 144.390,133.731 144.640 C 134.073 145.272,134.333 145.426,135.064 145.430 C 135.446 145.433,135.940 145.675,136.304 146.040 C 136.667 146.403,137.313 146.721,137.917 146.833 C 138.506 146.943,139.057 147.210,139.243 147.476 C 139.743 148.189,142.388 148.145,142.609 147.419 C 142.858 146.603,143.414 146.115,144.094 146.115 C 148.214 146.115,151.527 142.431,149.401 140.212 C 148.689 139.469,148.841 139.293,150.252 139.228 C 150.983 139.195,150.994 139.209,151.111 140.372 C 151.176 141.019,151.278 141.581,151.338 141.620 C 151.398 141.659,151.643 141.799,151.883 141.931 C 152.200 142.106,152.332 142.449,152.363 143.179 C 152.427 144.693,152.693 145.661,153.045 145.661 C 153.731 145.661,154.075 147.272,153.584 148.190 C 153.348 148.631,153.327 148.633,153.021 148.232 C 152.661 147.761,152.139 148.207,152.356 148.799 C 152.417 148.965,152.467 149.248,152.467 149.428 C 152.467 149.607,152.721 149.870,153.031 150.011 C 153.440 150.198,153.584 150.429,153.556 150.857 C 153.438 152.708,153.450 152.722,155.115 152.648 L 156.629 152.581 156.954 151.603 C 157.326 150.484,157.031 149.914,155.938 149.640 C 155.393 149.503,155.367 149.432,155.501 148.454 C 155.580 147.881,155.644 146.559,155.644 145.516 C 155.644 142.855,156.204 142.809,156.294 145.462 C 156.360 147.389,156.577 148.250,157.143 148.831 C 157.328 149.022,157.613 149.372,157.775 149.609 C 157.938 149.847,158.177 149.975,158.308 149.895 C 158.650 149.683,157.950 147.435,157.426 147.066 C 157.084 146.825,157.005 146.470,157.005 145.164 C 157.005 142.517,156.688 141.804,155.510 141.804 C 154.212 141.804,153.949 141.155,154.862 140.202 C 155.813 139.210,155.350 138.811,153.324 138.877 C 151.406 138.939,150.815 138.571,151.557 137.775 C 152.182 137.105,152.183 135.595,151.560 135.159 C 151.294 134.973,151.027 134.422,150.917 133.833 C 150.808 133.246,150.487 132.584,150.150 132.246 C 149.825 131.922,149.503 131.272,149.419 130.771 C 149.315 130.156,149.112 129.808,148.769 129.657 C 148.494 129.537,148.169 129.209,148.046 128.928 C 147.899 128.594,147.625 128.417,147.252 128.417 C 146.624 128.416,145.207 127.642,145.207 127.300 C 145.207 127.181,144.735 127.013,144.159 126.927 C 143.476 126.824,142.947 126.582,142.643 126.232 C 141.957 125.444,139.753 125.442,139.236 126.230 M143.052 128.871 C 143.308 129.154,143.750 129.325,144.229 129.325 C 145.357 129.325,148.383 132.384,148.383 133.524 C 148.383 134.057,148.536 134.398,148.883 134.641 C 149.462 135.046,149.791 137.764,149.319 138.237 C 149.131 138.425,149.064 138.368,149.064 138.020 C 149.064 137.269,148.501 136.967,147.344 137.097 C 146.428 137.200,146.281 137.154,146.073 136.698 C 145.943 136.414,145.586 136.067,145.278 135.926 C 144.472 135.560,144.752 135.101,145.745 135.161 C 147.041 135.239,147.703 134.895,147.703 134.141 C 147.703 133.427,147.343 132.955,146.800 132.955 C 146.602 132.955,146.325 132.649,146.184 132.275 C 146.012 131.818,145.771 131.594,145.454 131.594 C 145.184 131.594,144.980 131.447,144.980 131.254 C 144.980 129.554,140.385 129.449,139.797 131.135 C 139.666 131.512,139.417 131.821,139.245 131.821 C 139.072 131.821,138.800 132.065,138.641 132.363 C 138.481 132.661,138.107 133.016,137.808 133.152 C 137.510 133.288,137.266 133.549,137.266 133.732 C 137.266 133.914,136.960 134.245,136.585 134.466 C 136.211 134.687,135.905 135.005,135.905 135.171 C 135.905 135.338,135.596 135.582,135.219 135.713 C 134.233 136.057,134.090 136.498,134.090 139.196 C 134.090 141.341,134.052 141.571,133.749 141.269 C 133.562 141.082,133.409 140.580,133.409 140.153 C 133.409 139.666,133.240 139.226,132.955 138.968 C 132.577 138.625,132.501 138.269,132.501 136.828 C 132.501 135.379,132.575 135.035,132.955 134.709 C 133.243 134.463,133.409 134.040,133.409 133.555 C 133.409 132.425,136.513 129.325,137.644 129.325 C 138.124 129.325,138.548 129.158,138.793 128.871 C 139.119 128.491,139.463 128.417,140.911 128.417 C 142.353 128.417,142.709 128.493,143.052 128.871 M144.073 131.491 C 144.073 131.684,144.378 132.016,144.752 132.228 C 145.125 132.441,145.431 132.717,145.430 132.842 C 145.430 132.967,145.763 133.347,146.169 133.686 L 146.909 134.304 145.888 134.318 C 144.127 134.341,143.339 135.814,144.720 136.499 C 145.014 136.645,145.374 137.005,145.520 137.299 C 145.727 137.717,146.020 137.858,146.863 137.947 C 148.051 138.072,148.235 138.321,147.433 138.718 C 147.026 138.920,146.883 139.220,146.795 140.056 C 146.733 140.649,146.580 141.134,146.455 141.134 C 146.330 141.134,146.177 140.649,146.115 140.056 C 146.024 139.199,145.887 138.922,145.443 138.702 C 145.137 138.550,144.808 138.214,144.712 137.956 C 144.617 137.698,144.281 137.388,143.965 137.268 C 143.650 137.148,143.392 136.928,143.392 136.779 C 143.392 136.011,142.653 135.678,140.948 135.678 L 139.255 135.678 140.162 134.770 C 140.853 134.079,141.248 133.863,141.816 133.863 C 142.619 133.863,143.392 133.325,143.392 132.768 C 143.392 132.078,142.676 131.594,141.655 131.594 C 141.113 131.594,140.669 131.492,140.669 131.367 C 140.669 131.236,141.388 131.140,142.371 131.140 C 143.755 131.140,144.073 131.206,144.073 131.491 M142.598 132.728 C 142.598 133.137,141.185 133.305,140.669 132.958 C 140.367 132.754,140.367 132.703,140.669 132.499 C 141.185 132.151,142.598 132.319,142.598 132.728 M139.853 134.352 C 139.795 134.447,139.595 134.465,139.408 134.394 C 139.142 134.291,139.127 134.194,139.339 133.939 C 139.619 133.601,140.086 133.976,139.853 134.352 M173.187 135.451 C 173.187 136.262,173.228 136.594,173.278 136.188 C 173.328 135.783,173.328 135.119,173.278 134.714 C 173.228 134.308,173.187 134.640,173.187 135.451 M138.400 135.191 C 138.400 136.000,139.546 136.585,141.131 136.585 C 143.428 136.585,143.182 137.112,140.813 137.266 C 138.841 137.394,138.634 137.555,138.634 138.968 C 138.634 140.241,138.869 140.489,140.200 140.617 C 141.870 140.777,141.537 141.222,139.685 141.304 C 138.234 141.368,138.161 141.346,137.945 140.778 C 137.701 140.136,137.633 135.941,137.858 135.356 C 138.002 134.979,138.400 134.858,138.400 135.191 M137.079 138.409 C 137.164 142.086,137.126 142.022,139.233 142.027 C 140.002 142.029,140.793 142.092,140.990 142.168 C 141.595 142.400,141.144 142.711,140.202 142.711 C 139.334 142.711,138.400 143.299,138.400 143.846 C 138.400 144.269,138.021 144.075,137.770 143.525 C 137.633 143.224,137.336 142.918,137.110 142.845 C 136.884 142.772,136.525 142.406,136.312 142.031 C 136.100 141.657,135.768 141.350,135.575 141.350 C 135.281 141.350,135.224 140.966,135.224 138.968 C 135.224 136.969,135.281 136.585,135.575 136.585 C 135.768 136.585,136.100 136.280,136.312 135.906 C 136.931 134.819,137.001 135.047,137.079 138.409 M162.229 137.466 C 161.712 137.558,161.349 137.792,161.172 138.147 C 160.803 138.891,160.413 139.094,159.614 138.959 C 158.815 138.825,158.567 138.975,158.197 139.818 C 158.002 140.262,157.757 140.442,157.350 140.442 C 156.568 140.442,156.620 140.979,157.459 141.577 C 157.896 141.888,158.140 142.259,158.140 142.613 C 158.140 143.040,158.259 143.165,158.668 143.165 C 159.000 143.165,159.310 143.376,159.501 143.732 C 159.888 144.455,160.265 144.453,160.597 143.726 C 161.128 142.559,164.492 143.092,164.492 144.343 C 164.492 146.433,166.229 147.012,166.874 145.137 C 167.222 144.122,166.683 143.728,166.066 144.546 C 165.650 145.097,165.529 144.993,165.290 143.879 C 165.181 143.372,164.905 142.993,164.462 142.744 C 163.903 142.430,163.808 142.249,163.862 141.594 C 163.922 140.855,164.492 140.277,164.492 140.956 C 164.492 141.639,165.308 142.029,167.043 142.175 C 168.590 142.306,169.516 142.938,168.161 142.938 C 167.884 142.938,167.918 143.025,168.303 143.294 C 168.582 143.490,168.753 143.743,168.683 143.857 C 168.466 144.208,169.022 144.980,169.492 144.980 C 169.818 144.980,169.947 145.148,169.974 145.604 C 170.010 146.208,170.033 146.641,170.122 148.440 C 170.173 149.471,170.618 149.588,170.618 148.570 C 170.618 148.173,170.736 147.523,170.879 147.126 C 171.273 146.039,170.740 144.405,169.875 144.047 C 169.043 143.702,169.454 143.400,170.761 143.395 C 171.976 143.391,172.248 143.032,172.162 141.544 C 172.105 140.543,172.003 140.295,171.559 140.075 C 171.265 139.929,170.905 139.569,170.760 139.275 C 170.156 138.056,163.743 138.103,163.280 139.330 C 162.891 140.361,162.411 140.174,162.494 139.024 L 162.564 138.060 166.940 137.998 L 171.316 137.937 172.369 139.005 C 172.948 139.593,173.353 139.893,173.268 139.672 C 173.183 139.451,173.114 139.226,173.114 139.170 C 173.114 139.115,172.859 138.973,172.547 138.854 C 172.204 138.724,171.980 138.460,171.980 138.187 C 171.980 137.939,171.782 137.630,171.541 137.501 C 171.071 137.250,163.602 137.222,162.229 137.466 M142.484 138.179 C 142.484 138.307,142.229 138.509,141.917 138.627 C 141.572 138.758,141.350 139.021,141.350 139.298 C 141.350 139.776,140.607 140.096,139.836 139.950 C 139.411 139.869,139.157 138.895,139.397 138.268 C 139.545 137.883,142.484 137.799,142.484 138.179 M144.073 138.280 C 144.073 138.464,144.379 138.840,144.753 139.117 C 145.267 139.497,145.434 139.801,145.434 140.358 C 145.434 141.363,145.148 141.462,144.556 140.660 C 144.134 140.090,143.906 139.989,143.045 139.989 C 141.837 139.989,141.789 139.775,142.768 138.750 C 143.557 137.924,144.073 137.738,144.073 138.280 M170.036 139.960 C 170.222 140.318,170.581 140.666,170.836 140.733 C 171.194 140.826,171.299 141.039,171.299 141.669 C 171.299 142.736,169.901 142.923,169.443 141.917 C 169.229 141.448,169.025 141.350,168.256 141.347 C 166.491 141.343,165.604 141.093,165.395 140.543 C 165.287 140.259,164.987 139.960,164.729 139.878 C 163.678 139.545,164.665 139.308,167.109 139.308 L 169.699 139.308 170.036 139.960 M148.243 140.853 C 148.318 140.973,148.226 141.198,148.041 141.352 C 147.749 141.594,147.705 141.481,147.722 140.527 C 147.739 139.601,147.772 139.520,147.925 140.028 C 148.025 140.361,148.169 140.732,148.243 140.853 M153.501 140.689 C 153.721 141.046,153.290 141.390,152.840 141.217 C 152.542 141.103,152.514 141.000,152.716 140.756 C 153.030 140.379,153.295 140.356,153.501 140.689 M143.944 140.872 C 144.096 141.118,143.551 141.350,142.820 141.350 C 142.266 141.350,141.934 141.068,142.188 140.814 C 142.408 140.595,143.801 140.641,143.944 140.872 M143.804 142.227 C 144.022 142.365,143.916 142.494,143.415 142.702 C 143.036 142.859,142.665 143.180,142.590 143.416 C 142.473 143.786,142.244 143.841,140.938 143.810 C 139.457 143.775,139.448 143.771,140.533 143.640 C 141.608 143.510,141.841 143.331,142.121 142.428 C 142.251 142.005,143.263 141.884,143.804 142.227 M135.678 142.471 C 135.678 142.847,135.347 142.901,135.045 142.574 C 134.802 142.311,134.831 142.258,135.215 142.258 C 135.470 142.258,135.678 142.354,135.678 142.471 M147.022 142.343 C 147.022 142.390,146.869 142.556,146.682 142.711 C 146.403 142.943,146.341 142.927,146.341 142.626 C 146.341 142.423,146.495 142.258,146.682 142.258 C 146.869 142.258,147.022 142.296,147.022 142.343 M137.039 143.832 C 137.039 144.208,136.708 144.262,136.406 143.935 C 136.163 143.672,136.192 143.619,136.576 143.619 C 136.831 143.619,137.039 143.715,137.039 143.832 M145.661 143.704 C 145.661 143.752,145.508 143.917,145.320 144.073 C 145.042 144.304,144.980 144.288,144.980 143.987 C 144.980 143.784,145.133 143.619,145.320 143.619 C 145.508 143.619,145.661 143.657,145.661 143.704 M163.358 145.094 C 163.358 145.447,163.486 145.661,163.698 145.661 C 163.910 145.661,164.039 145.447,164.039 145.094 C 164.039 144.741,163.910 144.526,163.698 144.526 C 163.486 144.526,163.358 144.741,163.358 145.094 M142.598 145.207 C 142.598 145.469,142.257 145.561,141.123 145.606 C 139.596 145.666,138.905 145.449,139.185 144.996 C 139.443 144.578,142.598 144.773,142.598 145.207 M165.255 146.969 C 164.599 147.392,164.284 149.970,164.833 150.425 C 165.121 150.665,165.173 150.614,165.173 150.098 C 165.173 148.580,165.565 148.488,166.763 149.725 C 168.008 151.010,168.066 150.970,168.092 148.789 C 168.113 147.037,166.627 146.084,165.255 146.969 M149.972 149.752 C 149.669 149.947,149.669 149.996,149.972 150.191 C 150.191 150.333,150.339 150.333,150.388 150.191 C 150.538 149.756,150.321 149.527,149.972 149.752 M150.318 152.457 C 150.237 152.589,150.319 152.755,150.501 152.824 C 151.010 153.020,152.581 152.836,152.581 152.581 C 152.581 152.271,150.503 152.158,150.318 152.457 M160.150 152.648 C 159.399 152.789,159.112 153.829,159.694 154.301 C 160.230 154.735,160.182 155.190,159.601 155.190 C 159.421 155.190,159.274 155.292,159.274 155.417 C 159.274 155.602,160.741 155.608,162.734 155.432 C 163.138 155.396,163.812 154.462,163.812 153.938 C 163.812 153.439,163.739 153.385,163.233 153.511 C 162.703 153.645,162.667 153.608,162.801 153.074 C 162.947 152.494,161.881 152.322,160.150 152.648 M156.778 153.142 C 156.778 153.408,157.048 153.730,157.442 153.933 C 157.807 154.122,158.161 154.456,158.229 154.676 C 158.297 154.897,158.309 154.685,158.257 154.206 C 158.110 152.864,156.778 151.906,156.778 153.142 M149.862 154.049 C 149.787 154.170,149.990 154.335,150.313 154.417 C 150.961 154.579,151.232 154.443,151.002 154.071 C 150.815 153.768,150.045 153.754,149.862 154.049 M152.591 155.401 C 152.432 155.658,153.280 155.956,153.603 155.756 C 153.731 155.677,153.777 155.517,153.706 155.401 C 153.537 155.128,152.760 155.128,152.591 155.401 M150.129 156.470 C 149.769 156.830,150.353 157.005,151.914 157.005 C 153.263 157.005,153.602 156.937,153.602 156.665 C 153.602 156.314,150.462 156.137,150.129 156.470 M144.760 160.853 C 144.347 161.114,144.670 161.263,145.870 161.364 C 147.157 161.472,147.017 161.997,145.702 161.997 C 144.649 161.997,144.554 162.044,144.333 162.677 C 144.055 163.477,143.577 163.553,143.123 162.870 C 142.600 162.082,140.094 161.933,140.335 162.704 C 140.807 164.212,143.394 166.696,144.372 166.582 C 145.152 166.491,145.623 166.952,145.294 167.484 C 145.214 167.615,145.334 167.676,145.577 167.628 C 145.901 167.564,146.006 167.331,146.022 166.642 C 146.055 165.229,146.081 165.173,146.682 165.173 C 147.087 165.173,147.249 165.050,147.249 164.744 C 147.249 164.276,147.669 164.039,148.497 164.039 C 149.222 164.039,149.744 164.262,149.746 164.573 C 149.749 165.169,151.436 165.823,151.635 165.305 C 151.964 164.446,149.848 163.137,148.107 163.123 L 147.136 163.115 147.789 162.580 L 148.443 162.046 147.724 161.888 C 147.167 161.765,147.033 161.638,147.133 161.324 C 147.327 160.713,145.542 160.359,144.760 160.853 M150.123 161.413 C 149.929 161.918,150.571 162.346,150.995 161.994 C 151.256 161.778,151.277 161.635,151.081 161.399 C 150.747 160.996,150.280 161.003,150.123 161.413 M161.600 163.508 C 161.043 163.733,161.329 164.039,162.097 164.039 C 163.213 164.039,163.300 164.424,162.224 164.606 C 161.020 164.809,161.063 165.173,162.292 165.173 C 163.673 165.173,164.254 164.449,163.488 163.682 C 163.173 163.367,162.176 163.276,161.600 163.508 M164.719 166.648 C 164.719 166.864,164.947 166.994,165.343 167.003 C 165.936 167.018,165.943 167.030,165.482 167.253 C 164.955 167.509,164.346 168.576,164.727 168.576 C 164.996 168.576,165.834 168.115,166.242 167.742 C 166.900 167.140,166.384 166.307,165.355 166.307 C 164.941 166.307,164.719 166.426,164.719 166.648 M129.098 172.640 C 129.098 172.892,129.311 173.212,129.571 173.351 C 130.250 173.715,130.274 173.547,129.646 172.818 C 129.155 172.247,129.098 172.229,129.098 172.640 M136.045 179.423 C 135.867 179.712,136.726 180.454,137.025 180.270 C 137.157 180.188,137.266 180.019,137.266 179.894 C 137.266 179.769,137.148 179.740,137.005 179.828 C 136.861 179.917,136.616 179.815,136.459 179.601 C 136.303 179.388,136.117 179.307,136.045 179.423 M141.261 185.498 C 141.054 186.037,141.065 186.047,141.879 186.047 C 142.778 186.047,143.027 185.859,142.682 185.443 C 142.334 185.025,141.429 185.060,141.261 185.498 " stroke="none" fill="#7c7c7c" fill-rule="evenodd"></path></g></svg>