<svg id="svg" version="1.1" xmlns="http://www.w3.org/2000/svg" xmlns:xlink="http://www.w3.org/1999/xlink" width="400" height="226.8041237113402" viewBox="0, 0, 400,226.8041237113402"><g id="svgg"><path id="path0" d="M69.257 125.404 C 68.688 125.608,68.924 126.602,69.541 126.602 C 69.936 126.602,70.108 126.726,70.108 127.011 C 70.108 127.513,70.533 127.964,71.007 127.964 C 71.202 127.964,71.462 128.193,71.585 128.474 C 71.836 129.045,72.830 129.320,72.830 128.819 C 72.830 128.384,72.362 127.964,71.877 127.964 C 71.635 127.964,71.469 127.797,71.469 127.555 C 71.469 127.033,71.039 126.602,70.516 126.602 C 70.268 126.602,70.108 126.435,70.108 126.176 C 70.108 125.671,69.656 125.261,69.257 125.404 M59.462 126.921 C 59.142 127.307,59.312 127.737,59.784 127.737 C 60.276 127.737,60.439 127.273,60.075 126.910 C 59.787 126.621,59.710 126.622,59.462 126.921 M64.888 127.060 C 64.612 127.574,65.052 127.897,65.693 127.651 C 66.072 127.506,65.770 126.602,65.343 126.602 C 65.227 126.602,65.022 126.808,64.888 127.060 M67.742 126.959 C 67.546 127.155,67.385 127.461,67.385 127.640 C 67.385 127.836,67.156 127.964,66.802 127.964 C 66.328 127.964,66.233 128.059,66.292 128.472 C 66.397 129.213,67.107 129.266,67.288 128.546 C 67.376 128.195,67.594 127.964,67.836 127.964 C 68.359 127.964,68.833 127.382,68.666 126.946 C 68.497 126.506,68.191 126.510,67.742 126.959 M58.131 128.233 C 57.569 128.795,57.773 131.864,58.366 131.780 C 58.847 131.712,58.877 131.601,58.877 129.911 C 58.877 128.126,58.680 127.684,58.131 128.233 M60.863 128.224 C 60.515 128.572,60.768 129.098,61.283 129.098 C 61.778 129.098,61.854 128.590,61.413 128.224 C 61.195 128.043,61.044 128.043,60.863 128.224 M62.911 128.974 C 61.803 130.115,61.963 130.540,63.456 130.417 L 64.322 130.346 64.391 129.155 C 64.476 127.667,64.210 127.635,62.911 128.974 M76.000 128.134 C 75.976 128.696,75.224 129.202,74.246 129.315 L 73.171 129.438 73.101 130.518 C 73.012 131.920,73.480 132.162,74.329 131.153 C 75.268 130.037,75.780 130.647,75.780 132.883 C 75.780 134.461,75.812 134.567,76.351 134.772 C 76.665 134.891,77.020 135.246,77.140 135.560 C 77.431 136.326,77.547 136.293,78.705 135.114 C 79.820 133.979,79.738 133.409,78.460 133.409 C 77.053 133.409,76.914 133.168,76.914 130.724 C 76.914 129.303,76.817 128.411,76.642 128.236 C 76.335 127.929,76.010 127.878,76.000 128.134 M55.406 132.320 C 54.784 132.941,55.249 133.409,56.485 133.409 C 57.209 133.409,57.743 132.898,57.548 132.391 C 57.387 131.972,55.806 131.919,55.406 132.320 M49.939 133.721 C 49.615 134.111,49.830 134.713,50.353 134.879 C 50.571 134.948,50.886 135.258,51.051 135.568 C 51.217 135.878,51.476 136.132,51.627 136.132 C 51.778 136.132,52.028 136.285,52.184 136.472 C 52.723 137.122,52.065 137.493,50.376 137.493 C 48.886 137.493,48.100 137.853,48.100 138.535 C 48.100 138.651,47.870 138.847,47.589 138.971 C 47.309 139.094,46.986 139.406,46.872 139.665 C 46.758 139.924,46.375 140.302,46.021 140.505 C 45.667 140.709,45.377 141.026,45.377 141.211 C 45.377 141.395,45.147 141.618,44.867 141.706 C 44.063 141.956,43.759 142.911,44.154 143.941 C 44.493 144.826,45.789 143.652,45.495 142.725 C 45.382 142.369,45.590 142.043,46.408 141.296 C 46.991 140.764,47.764 140.036,48.126 139.679 C 48.674 139.138,49.029 139.009,50.236 138.912 L 51.687 138.796 52.295 139.758 L 52.903 140.721 53.642 140.005 C 54.474 139.199,54.787 139.336,55.044 140.619 C 55.121 141.004,55.376 141.525,55.612 141.778 C 55.847 142.031,56.243 142.778,56.491 143.439 C 57.110 145.090,59.500 147.476,60.534 147.476 C 61.091 147.476,61.322 147.619,61.585 148.129 C 61.956 148.845,62.347 149.064,63.255 149.064 C 63.625 149.064,64.029 149.287,64.319 149.651 C 64.783 150.232,64.800 150.235,66.186 149.949 C 68.377 149.496,69.442 150.327,68.413 151.687 C 68.214 151.950,68.071 152.675,68.058 153.488 C 68.039 154.631,67.996 154.768,67.791 154.344 C 67.657 154.066,67.340 153.773,67.087 153.692 C 66.833 153.612,66.420 153.355,66.169 153.120 C 65.499 152.496,63.295 152.515,62.900 153.148 C 62.712 153.449,62.369 153.603,61.881 153.605 C 59.995 153.613,59.318 155.088,60.862 155.825 C 61.404 156.083,61.486 156.255,61.486 157.123 C 61.486 158.169,62.070 158.815,62.682 158.446 C 63.889 157.717,65.114 156.163,65.115 155.360 C 65.116 154.397,65.449 154.223,65.662 155.073 C 65.748 155.415,66.019 155.691,66.353 155.775 C 67.083 155.958,67.385 156.893,67.385 158.975 C 67.385 160.260,67.465 160.680,67.728 160.781 C 68.424 161.048,68.746 160.423,68.746 158.808 C 68.746 157.350,68.785 157.236,69.427 156.778 L 70.108 156.294 70.111 153.416 C 70.115 150.369,70.156 150.194,70.959 149.771 C 72.174 149.130,71.605 148.650,69.484 148.527 C 65.912 148.319,65.372 148.190,64.991 147.453 C 64.693 146.878,64.525 146.795,63.647 146.795 C 62.959 146.795,62.579 146.680,62.438 146.429 C 62.313 146.206,61.666 145.961,60.782 145.800 C 59.168 145.508,59.217 145.606,59.566 143.392 C 59.740 142.293,60.719 141.019,61.678 140.645 C 61.971 140.530,62.264 140.234,62.329 139.986 C 62.483 139.396,62.687 139.415,62.964 140.045 C 63.175 140.526,63.320 140.556,65.488 140.556 C 67.314 140.556,67.875 140.634,68.211 140.934 C 68.443 141.142,68.931 141.346,69.296 141.388 C 69.968 141.464,70.088 141.658,70.433 143.222 C 70.622 144.082,71.174 144.003,71.628 143.052 C 72.056 142.154,72.119 142.128,72.730 142.591 C 73.304 143.025,74.192 143.036,74.192 142.609 C 74.192 142.428,74.512 141.981,74.903 141.616 C 75.931 140.655,75.646 140.489,73.184 140.618 C 70.434 140.762,69.881 140.487,69.881 138.979 C 69.881 136.365,74.041 136.271,75.388 138.854 C 75.746 139.541,76.134 140.092,76.250 140.079 C 76.366 140.067,76.563 140.041,76.687 140.023 C 77.235 139.941,76.952 136.417,76.386 136.275 C 76.095 136.202,75.740 135.885,75.597 135.570 C 75.265 134.842,74.800 134.840,74.326 135.564 C 73.795 136.374,72.153 136.382,71.520 135.577 C 70.945 134.846,67.938 134.650,67.563 135.319 C 67.443 135.534,67.052 135.971,66.696 136.289 C 66.217 136.715,66.029 137.111,65.979 137.802 C 65.877 139.194,65.357 139.138,63.869 137.577 L 62.621 136.267 61.345 137.605 C 59.534 139.505,57.856 139.379,57.856 137.344 C 57.856 136.806,57.715 136.526,57.346 136.329 C 56.681 135.972,55.035 134.314,54.843 133.806 C 54.646 133.282,50.364 133.208,49.939 133.721 M53.285 135.298 C 53.467 135.517,53.463 135.669,53.273 135.859 C 52.936 136.197,52.386 135.780,52.562 135.321 C 52.717 134.917,52.962 134.909,53.285 135.298 M29.969 137.410 C 28.931 138.441,28.921 138.526,29.775 138.951 C 30.238 139.181,30.296 139.393,30.355 141.072 C 30.403 142.422,30.503 142.938,30.717 142.938 C 30.880 142.938,31.187 143.130,31.399 143.365 C 31.827 143.838,31.428 144.526,30.727 144.526 C 30.171 144.526,30.361 145.425,30.975 145.705 C 31.623 146.000,31.736 146.344,31.819 148.270 C 31.867 149.398,31.958 149.667,32.348 149.838 C 32.607 149.952,32.985 150.335,33.188 150.689 C 33.392 151.043,33.690 151.334,33.852 151.334 C 34.014 151.335,34.320 151.641,34.533 152.015 C 34.856 152.584,35.061 152.694,35.787 152.694 C 36.467 152.694,36.784 152.841,37.252 153.375 C 37.734 153.924,38.029 154.056,38.783 154.056 C 39.555 154.056,39.751 154.148,39.920 154.592 C 40.180 155.274,40.569 155.417,42.174 155.417 C 43.839 155.417,44.016 155.618,44.016 157.509 L 44.016 159.057 42.154 160.867 C 41.130 161.863,40.211 162.677,40.112 162.677 C 40.013 162.677,39.932 163.085,39.932 163.583 C 39.932 164.303,39.793 164.613,39.251 165.095 C 38.723 165.566,38.571 165.893,38.571 166.556 C 38.571 167.247,38.440 167.504,37.890 167.896 C 37.335 168.291,37.209 168.542,37.209 169.257 C 37.209 169.972,37.084 170.223,36.529 170.618 C 35.973 171.014,35.848 171.264,35.848 171.980 C 35.848 172.695,35.723 172.946,35.167 173.341 C 34.181 174.043,34.180 175.456,35.166 176.017 C 36.023 176.505,36.023 176.815,35.167 177.425 C 34.612 177.820,34.487 178.071,34.487 178.786 C 34.487 179.501,34.361 179.752,33.806 180.147 C 33.249 180.544,33.125 180.793,33.125 181.515 C 33.125 182.351,32.488 183.324,31.940 183.324 C 31.835 183.324,31.778 184.421,31.813 185.763 L 31.877 188.202 37.635 188.263 C 44.254 188.332,44.016 188.400,44.016 186.458 C 44.016 184.909,43.737 184.231,43.100 184.231 C 42.304 184.231,42.448 180.904,43.279 180.095 C 43.622 179.761,44.056 179.326,44.243 179.127 C 44.430 178.928,45.068 178.315,45.661 177.763 C 46.605 176.885,46.739 176.647,46.739 175.840 C 46.739 175.080,46.837 174.875,47.303 174.662 C 47.613 174.521,48.016 174.177,48.199 173.898 C 48.515 173.416,48.733 173.382,52.503 173.225 C 57.098 173.034,57.470 173.089,57.855 174.019 C 58.010 174.395,58.224 174.702,58.328 174.702 C 58.543 174.702,59.444 173.786,59.444 173.567 C 59.444 173.489,59.801 173.255,60.238 173.046 C 60.927 172.718,61.032 172.560,61.032 171.856 C 61.032 170.884,62.662 170.683,62.792 171.639 C 63.049 173.547,63.388 174.448,63.894 174.575 C 64.185 174.648,64.541 174.936,64.685 175.215 C 64.829 175.495,65.207 175.937,65.524 176.197 C 66.185 176.741,66.085 177.425,65.345 177.425 C 65.061 177.425,64.797 177.638,64.671 177.970 C 64.354 178.804,62.394 178.924,62.394 178.110 C 62.394 177.863,61.037 177.395,60.779 177.554 C 60.669 177.623,60.579 177.823,60.579 177.999 C 60.579 178.175,60.272 178.545,59.898 178.822 C 59.352 179.225,59.217 179.494,59.217 180.175 C 59.217 180.860,59.085 181.118,58.537 181.509 C 57.789 182.041,57.505 184.697,58.128 185.320 C 58.516 185.709,70.809 185.709,71.197 185.320 C 71.621 184.897,71.524 183.671,71.032 183.225 C 70.611 182.844,70.580 182.857,70.217 183.558 C 69.859 184.252,69.792 184.281,68.842 184.151 C 68.293 184.075,67.586 184.112,67.271 184.232 C 66.325 184.592,65.062 184.202,64.666 183.428 C 64.218 182.553,64.019 182.424,63.118 182.420 C 62.661 182.418,62.423 182.325,62.511 182.183 C 62.817 181.688,66.690 182.196,67.306 182.811 C 67.673 183.179,67.989 183.311,68.246 183.206 C 68.459 183.119,68.965 182.952,69.370 182.835 C 70.007 182.651,70.444 181.963,69.924 181.963 C 69.001 181.963,68.318 179.651,69.058 179.037 C 69.366 178.782,70.108 178.912,70.108 179.221 C 70.108 179.308,70.250 179.574,70.424 179.812 C 71.108 180.748,71.469 179.876,71.469 177.289 L 71.469 174.941 72.150 174.589 C 72.750 174.278,72.830 174.119,72.830 173.234 C 72.830 172.364,72.913 172.192,73.454 171.933 C 74.400 171.481,74.542 166.534,73.610 166.534 C 73.419 166.534,73.090 166.234,72.880 165.866 C 72.669 165.499,72.317 165.151,72.099 165.094 C 71.880 165.037,71.603 164.731,71.482 164.414 C 71.296 163.924,71.101 163.827,70.175 163.768 C 69.310 163.712,69.042 163.596,68.868 163.200 C 68.748 162.926,68.423 162.581,68.146 162.432 C 67.869 162.284,67.521 161.870,67.373 161.512 C 67.051 160.735,66.532 160.663,66.370 161.373 C 66.307 161.653,66.162 162.319,66.049 162.852 C 65.762 164.202,65.256 164.879,64.394 165.069 C 63.025 165.369,62.449 166.307,63.634 166.307 C 64.621 166.307,65.023 168.298,64.158 168.904 C 63.570 169.315,60.741 169.394,59.772 169.025 C 58.955 168.715,59.146 167.659,60.220 166.539 C 60.880 165.851,60.956 165.662,60.764 165.173 C 60.612 164.783,60.631 164.229,60.826 163.402 C 61.365 161.123,60.274 160.540,55.701 160.659 C 55.576 160.662,54.261 160.718,52.780 160.784 L 50.086 160.903 49.446 160.202 C 48.991 159.704,48.600 159.501,48.095 159.501 C 45.852 159.501,44.288 155.173,46.058 153.865 C 46.541 153.507,46.739 153.171,46.739 152.706 C 46.739 151.179,47.329 150.921,48.269 152.039 C 49.216 153.164,49.461 152.550,49.461 149.049 C 49.461 146.056,49.538 145.800,50.482 145.626 C 51.136 145.507,51.275 143.528,50.652 143.195 C 50.067 142.882,49.757 143.139,49.359 144.267 C 49.171 144.800,48.811 145.499,48.558 145.820 C 48.279 146.175,48.100 146.743,48.100 147.274 C 48.100 147.958,47.975 148.228,47.522 148.525 C 47.204 148.733,46.799 149.249,46.623 149.672 C 46.446 150.094,45.966 150.780,45.556 151.195 C 44.703 152.058,44.493 152.340,44.008 153.271 C 43.527 154.195,41.371 154.328,40.528 153.485 C 40.354 153.311,39.868 152.977,39.448 152.743 C 38.527 152.230,38.297 151.405,39.044 151.294 C 39.695 151.197,40.133 150.535,39.780 150.182 C 39.412 149.815,38.571 150.149,38.571 150.663 C 38.571 151.211,37.758 151.433,36.469 151.238 C 34.749 150.978,34.459 150.390,35.894 150.075 C 36.607 149.918,37.209 149.492,37.209 149.146 C 37.209 149.048,37.475 148.756,37.799 148.498 C 38.234 148.151,38.420 147.750,38.508 146.970 C 38.613 146.034,38.695 145.904,39.223 145.843 L 39.818 145.774 39.808 143.320 C 39.795 140.301,39.599 140.067,38.225 141.427 C 37.203 142.439,37.157 142.708,37.951 143.056 C 38.827 143.441,38.833 145.886,37.958 145.891 C 37.030 145.896,36.798 146.129,36.716 147.139 C 36.621 148.306,35.082 148.688,34.812 147.611 C 34.733 147.296,34.479 146.978,34.248 146.905 C 33.247 146.587,32.195 145.203,32.560 144.682 C 33.223 143.736,33.024 140.754,32.275 140.396 C 31.684 140.114,31.647 140.004,31.585 138.362 C 31.504 136.232,31.284 136.103,29.969 137.410 M54.645 137.194 C 54.416 137.470,54.327 137.465,54.018 137.156 C 53.705 136.842,53.702 136.769,53.991 136.590 C 54.481 136.287,55.000 136.766,54.645 137.194 M33.345 138.069 C 32.959 138.534,33.315 140.102,33.806 140.102 C 34.276 140.102,34.404 138.349,33.961 137.981 C 33.710 137.773,33.575 137.792,33.345 138.069 M57.718 139.213 C 58.206 140.485,57.392 142.228,56.612 141.580 C 56.196 141.235,56.160 139.928,56.549 139.305 C 56.887 138.764,57.527 138.714,57.718 139.213 M27.732 139.347 C 27.038 140.041,27.548 142.938,28.364 142.938 C 28.805 142.938,28.829 142.828,28.767 141.069 C 28.699 139.145,28.412 138.667,27.732 139.347 M34.646 140.586 C 33.806 141.425,34.710 144.980,35.763 144.980 C 36.963 144.980,37.476 143.568,36.422 143.167 C 35.867 142.957,35.691 142.558,35.570 141.238 C 35.510 140.590,35.001 140.230,34.646 140.586 M29.082 143.676 C 29.194 144.459,30.176 144.524,30.176 143.748 C 30.176 143.273,30.068 143.165,29.593 143.165 C 29.118 143.165,29.023 143.260,29.082 143.676 M62.179 143.491 C 61.882 143.848,62.210 144.753,62.636 144.753 C 62.991 144.753,63.281 143.772,63.020 143.449 C 62.723 143.080,62.511 143.091,62.179 143.491 M74.463 144.356 C 74.544 145.753,75.368 146.176,75.514 144.896 C 75.634 143.849,75.374 143.165,74.856 143.165 C 74.442 143.165,74.402 143.287,74.463 144.356 M42.873 144.876 C 42.664 145.129,42.652 145.295,42.830 145.474 C 43.188 145.831,43.789 145.526,43.789 144.987 C 43.789 144.442,43.284 144.381,42.873 144.876 M39.932 147.803 C 39.932 150.281,40.851 150.828,41.213 148.565 C 41.307 147.981,41.541 147.551,41.892 147.321 C 42.971 146.614,42.611 145.888,41.180 145.888 L 39.932 145.888 39.932 147.803 M42.736 147.591 C 42.563 148.041,42.836 149.463,43.130 149.645 C 43.719 150.009,44.518 149.515,44.363 148.884 C 44.030 147.528,43.057 146.755,42.736 147.591 M71.687 147.601 C 71.447 147.889,71.454 148.012,71.726 148.284 C 72.162 148.720,72.981 148.197,72.761 147.622 C 72.581 147.152,72.067 147.142,71.687 147.601 M59.387 150.916 C 58.913 151.089,58.763 151.294,58.763 151.768 C 58.763 152.710,58.966 152.740,59.809 151.921 C 60.973 150.791,60.808 150.397,59.387 150.916 M61.605 151.781 C 61.382 152.027,61.009 152.289,60.776 152.363 C 60.177 152.554,60.250 152.887,60.928 153.057 C 61.643 153.237,62.394 152.626,62.394 151.865 C 62.394 151.215,62.141 151.188,61.605 151.781 M56.748 152.944 C 56.510 153.626,56.724 154.512,57.127 154.507 C 57.629 154.502,58.274 152.691,57.853 152.466 C 57.192 152.112,57.010 152.190,56.748 152.944 M45.150 160.749 C 45.317 161.061,45.584 161.316,45.742 161.316 C 45.901 161.316,46.094 161.418,46.171 161.543 C 46.260 161.686,45.720 161.770,44.710 161.770 C 43.793 161.770,43.108 161.673,43.108 161.543 C 43.108 161.418,43.315 161.316,43.567 161.316 C 43.836 161.316,44.132 161.081,44.284 160.749 C 44.426 160.437,44.611 160.182,44.695 160.182 C 44.778 160.182,44.983 160.437,45.150 160.749 M53.374 162.707 C 53.839 162.956,53.840 162.974,53.429 163.274 C 52.572 163.901,50.492 163.462,51.062 162.775 C 51.385 162.387,52.703 162.348,53.374 162.707 M56.241 162.883 C 56.490 163.041,56.462 163.111,56.103 163.225 C 55.489 163.420,54.750 163.143,55.171 162.876 C 55.557 162.632,55.847 162.633,56.241 162.883 M47.661 163.820 C 47.902 163.949,48.100 164.240,48.100 164.466 C 48.100 165.257,48.585 166.263,49.022 166.377 C 49.766 166.572,49.677 170.303,48.919 170.648 C 48.621 170.784,48.255 171.122,48.107 171.398 C 47.959 171.675,47.489 172.027,47.062 172.182 C 46.358 172.436,46.285 172.546,46.285 173.347 C 46.285 174.410,45.171 174.878,43.338 174.586 C 42.775 174.496,41.906 174.358,41.407 174.279 C 40.565 174.145,40.495 174.077,40.435 173.341 C 40.352 172.305,39.980 171.591,39.450 171.453 C 37.980 171.068,39.130 167.787,41.634 165.222 L 43.222 163.595 45.222 163.590 C 46.322 163.587,47.420 163.690,47.661 163.820 M69.875 165.172 C 71.160 165.517,72.699 167.232,72.676 168.291 C 72.636 170.176,72.322 171.319,71.665 171.976 C 71.195 172.445,71.015 172.847,71.015 173.426 C 71.015 174.377,70.252 174.699,67.991 174.701 C 65.324 174.703,63.616 171.738,65.573 170.503 C 66.478 169.932,66.482 169.923,66.141 169.263 C 65.396 167.823,65.763 164.954,66.693 164.941 C 66.887 164.938,67.292 164.746,67.594 164.514 C 68.129 164.103,68.154 164.103,68.605 164.523 C 68.859 164.760,69.431 165.052,69.875 165.172 M58.927 165.428 C 59.217 165.717,59.064 166.307,58.700 166.307 C 57.593 166.307,57.144 169.486,58.083 170.680 C 58.332 170.997,58.537 171.305,58.537 171.363 C 58.537 171.476,56.379 171.786,55.814 171.755 C 55.627 171.744,54.299 171.680,52.864 171.613 C 50.087 171.482,49.449 171.279,50.578 170.885 L 51.276 170.642 51.276 168.585 L 51.276 166.528 50.539 166.078 L 49.801 165.628 52.127 165.628 L 54.453 165.627 54.453 166.337 C 54.453 166.728,54.236 167.399,53.971 167.827 C 53.598 168.430,53.516 168.840,53.606 169.640 C 53.791 171.278,54.701 171.422,55.030 169.865 C 55.114 169.468,55.471 168.702,55.824 168.162 C 56.177 167.622,56.532 166.882,56.612 166.517 C 56.850 165.432,58.266 164.766,58.927 165.428 M38.372 173.573 C 38.542 174.139,38.815 174.521,39.116 174.615 C 39.696 174.796,39.924 175.116,39.928 175.756 C 39.933 176.378,40.392 176.549,41.335 176.278 C 43.302 175.714,44.147 176.137,43.772 177.497 L 43.541 178.332 41.336 178.332 C 39.268 178.332,39.118 178.301,38.908 177.822 C 38.785 177.541,38.472 177.218,38.213 177.105 C 37.955 176.991,37.576 176.608,37.373 176.254 C 37.170 175.900,36.846 175.610,36.653 175.610 C 35.967 175.610,36.213 174.047,37.030 173.211 C 37.882 172.341,38.014 172.376,38.372 173.573 M56.767 174.974 C 56.408 175.333,56.408 178.155,56.767 178.514 C 56.980 178.727,57.178 178.636,57.662 178.106 C 58.125 177.599,58.486 177.425,59.072 177.425 C 60.573 177.425,60.844 177.133,60.223 176.186 C 59.905 175.699,59.795 175.669,59.161 175.890 C 58.508 176.118,58.407 176.082,57.855 175.420 C 57.180 174.611,57.144 174.597,56.767 174.974 M62.218 174.969 C 62.023 175.164,62.018 175.317,62.200 175.536 C 62.609 176.029,63.074 175.887,63.074 175.269 C 63.074 174.668,62.663 174.524,62.218 174.969 M69.994 176.744 C 69.994 177.439,69.106 177.634,68.406 177.094 C 67.952 176.744,67.952 176.744,68.406 176.394 C 69.106 175.854,69.994 176.050,69.994 176.744 M63.409 176.526 C 63.180 176.897,63.871 177.516,64.321 177.343 C 64.527 177.264,64.662 177.020,64.620 176.802 C 64.532 176.341,63.648 176.140,63.409 176.526 M38.571 179.707 C 38.571 180.298,38.699 180.653,38.968 180.810 C 39.292 180.999,39.219 181.042,38.568 181.048 C 36.941 181.062,35.963 179.476,37.266 178.935 C 38.281 178.513,38.571 178.684,38.571 179.707 M39.251 183.476 C 39.251 183.560,39.084 183.813,38.880 184.039 C 38.370 184.603,39.076 184.914,39.662 184.383 C 40.313 183.795,42.655 184.123,42.655 184.803 C 42.655 185.834,40.936 186.331,39.848 185.614 C 39.244 185.216,39.137 185.210,38.373 185.532 C 36.529 186.310,33.744 185.690,34.563 184.685 C 35.359 183.710,39.251 182.706,39.251 183.476 " stroke="none" fill="#0a0e2e" fill-rule="evenodd"></path><path id="path1" d="M59.593 89.773 C 59.511 89.855,59.443 90.288,59.441 90.735 C 59.437 91.680,59.293 91.948,58.593 92.317 C 58.105 92.574,58.083 92.711,58.083 95.428 C 58.083 98.253,57.895 99.149,57.305 99.149 C 56.866 99.149,56.722 99.668,56.718 101.266 C 56.714 102.817,56.655 102.956,55.757 103.527 C 55.256 103.846,55.133 104.094,55.133 104.784 C 55.133 105.476,55.001 105.742,54.453 106.147 L 53.772 106.650 53.772 110.040 L 53.772 113.429 54.453 113.933 L 55.133 114.436 55.133 119.471 L 55.133 124.507 55.927 125.112 L 56.721 125.718 56.721 127.811 C 56.721 130.378,56.448 130.913,55.136 130.913 C 54.418 130.913,54.168 131.038,53.772 131.594 C 53.315 132.235,53.198 132.275,51.757 132.275 C 50.353 132.275,50.173 132.331,49.575 132.955 C 48.348 134.235,46.512 133.709,46.512 132.077 C 46.512 130.968,42.312 126.829,41.186 126.829 C 39.733 126.829,39.295 125.856,40.386 125.050 L 41.066 124.547 41.066 119.682 L 41.066 114.818 40.386 114.315 C 39.706 113.812,39.705 113.808,39.705 111.472 C 39.705 110.185,39.615 109.132,39.505 109.132 C 39.395 109.132,38.655 108.469,37.860 107.659 C 36.762 106.539,36.262 106.185,35.776 106.184 C 34.674 106.181,34.260 105.812,34.260 104.830 C 34.260 103.993,33.818 103.233,33.331 103.233 C 33.213 103.233,33.004 102.989,32.869 102.691 C 32.733 102.393,32.378 102.038,32.079 101.902 C 31.781 101.766,31.537 101.521,31.537 101.358 C 31.537 101.195,31.231 100.881,30.856 100.660 C 30.482 100.439,30.176 100.154,30.176 100.028 C 30.176 99.730,29.595 99.149,29.297 99.149 C 29.171 99.149,28.886 98.843,28.665 98.469 C 28.287 97.828,28.179 97.788,26.853 97.788 C 25.544 97.788,25.407 97.837,24.957 98.469 L 24.473 99.149 21.595 99.147 L 18.718 99.145 18.111 99.885 L 17.504 100.624 14.481 100.737 C 11.995 100.831,11.458 100.911,11.458 101.191 C 11.458 101.477,12.032 101.542,15.012 101.594 L 18.566 101.656 19.054 100.970 C 20.164 99.411,24.318 100.147,23.839 101.817 C 23.571 102.750,23.941 103.056,25.224 102.963 L 26.205 102.893 26.319 101.872 C 26.477 100.444,27.086 100.389,28.481 101.675 C 29.812 102.902,30.294 103.761,29.855 104.125 C 29.533 104.392,28.361 104.034,28.361 103.668 C 28.361 103.417,26.823 102.948,26.550 103.117 C 26.117 103.385,26.317 103.934,26.989 104.319 C 27.357 104.531,27.715 104.929,27.784 105.204 C 27.891 105.629,28.091 105.716,29.099 105.774 C 30.166 105.835,30.297 105.900,30.368 106.397 C 30.547 107.668,28.495 108.002,27.496 106.863 C 26.949 106.241,26.775 106.183,25.454 106.183 C 24.132 106.183,23.958 106.124,23.412 105.502 L 22.814 104.821 16.563 104.821 L 10.311 104.821 9.714 105.502 C 9.272 106.005,8.917 106.183,8.352 106.183 C 7.787 106.183,7.433 106.360,6.991 106.863 C 6.540 107.378,6.199 107.544,5.595 107.544 C 4.969 107.544,4.692 107.689,4.320 108.212 C 3.943 108.741,3.645 108.894,2.886 108.949 C 2.217 108.998,1.929 109.121,1.929 109.359 C 1.929 109.650,2.667 109.708,6.973 109.760 L 12.018 109.821 12.518 110.498 C 12.895 111.008,13.200 111.174,13.759 111.174 C 14.418 111.174,14.970 111.641,18.690 115.340 C 20.993 117.631,23.040 119.568,23.237 119.644 C 23.490 119.741,23.596 120.080,23.596 120.794 C 23.596 121.660,23.695 121.877,24.277 122.292 L 24.957 122.776 24.957 126.602 L 24.957 130.429 24.277 130.913 C 23.747 131.290,23.596 131.571,23.596 132.175 C 23.596 132.752,23.421 133.108,22.915 133.558 C 22.288 134.117,22.235 134.283,22.235 135.673 C 22.235 137.085,22.192 137.213,21.554 137.684 L 20.874 138.187 20.874 145.063 L 20.874 151.939 21.554 152.545 C 22.096 153.027,22.235 153.337,22.235 154.057 C 22.235 154.556,22.318 154.963,22.419 154.963 C 23.113 154.963,23.596 155.937,23.596 157.338 C 23.596 158.772,23.634 158.861,24.609 159.680 C 24.801 159.841,24.957 160.266,24.957 160.626 C 24.957 161.880,25.108 161.996,26.740 162.004 C 28.266 162.011,28.835 162.241,29.105 162.961 C 29.228 163.288,29.539 163.358,30.860 163.358 C 32.433 163.358,33.579 163.946,33.579 164.752 C 33.579 164.859,33.729 164.946,33.911 164.946 C 34.326 164.946,34.714 165.643,34.714 166.387 C 34.714 167.179,34.936 167.669,35.297 167.669 C 36.268 167.669,36.338 169.748,35.394 170.576 C 34.905 171.005,34.714 171.377,34.714 171.897 C 34.714 172.408,34.513 172.811,34.033 173.264 L 33.352 173.907 33.352 176.765 C 33.352 180.019,33.228 180.286,31.656 180.414 C 30.976 180.470,30.688 180.620,30.489 181.022 C 30.343 181.316,29.983 181.676,29.689 181.822 C 29.288 182.021,29.137 182.310,29.081 182.985 C 29.019 183.747,28.801 184.079,27.648 185.170 L 26.287 186.456 26.984 186.867 C 27.367 187.094,27.680 187.397,27.680 187.542 C 27.680 187.687,27.833 187.933,28.020 188.088 C 28.208 188.244,28.361 188.271,28.361 188.149 C 28.361 188.028,28.615 187.654,28.926 187.318 C 29.726 186.454,30.403 186.818,30.403 188.113 C 30.403 189.709,30.250 189.677,37.867 189.677 L 44.683 189.677 45.186 188.996 C 45.584 188.458,45.861 188.315,46.509 188.315 C 47.667 188.315,47.873 188.000,47.873 186.228 C 47.873 184.528,47.552 184.215,46.873 185.252 C 46.112 186.414,45.150 185.901,45.150 184.333 C 45.150 183.742,44.993 183.448,44.470 183.061 C 43.141 182.079,43.436 181.150,45.831 178.774 C 47.593 177.025,47.873 176.643,47.873 175.987 C 47.873 174.394,50.093 173.813,51.049 175.156 C 51.430 175.691,51.704 175.837,52.330 175.837 C 53.560 175.837,58.306 180.659,57.717 181.310 C 57.483 181.568,57.027 181.736,56.555 181.736 C 55.038 181.736,52.857 184.754,54.056 185.195 C 54.477 185.350,54.906 185.144,54.906 184.788 C 54.906 184.615,55.103 184.369,55.344 184.240 C 55.808 183.992,56.495 184.140,56.495 184.488 C 56.495 184.602,56.916 185.152,57.431 185.711 L 58.367 186.727 65.322 186.727 L 72.276 186.727 72.873 186.047 C 73.325 185.531,73.665 185.366,74.271 185.366 C 75.415 185.366,75.464 185.050,74.476 184.062 C 73.716 183.302,73.518 183.214,72.874 183.345 C 71.316 183.664,70.614 181.338,71.923 180.190 C 72.553 179.637,72.604 179.479,72.604 178.062 C 72.604 176.624,72.645 176.500,73.284 176.028 C 73.924 175.555,73.965 175.432,73.965 173.986 C 73.965 172.539,74.006 172.417,74.645 171.944 C 75.320 171.445,75.326 171.421,75.326 169.244 L 75.326 167.048 74.306 166.054 C 73.745 165.507,73.158 164.938,73.001 164.789 C 72.845 164.641,72.271 164.053,71.726 163.485 C 70.905 162.627,70.594 162.450,69.909 162.450 C 68.622 162.450,68.278 161.714,69.191 160.913 C 69.824 160.357,69.881 160.188,69.881 158.863 C 69.881 157.541,69.939 157.367,70.562 156.821 L 71.242 156.223 71.243 153.381 L 71.243 150.539 72.324 149.478 C 73.185 148.633,73.589 148.402,74.309 148.344 C 75.196 148.271,75.214 148.253,75.282 147.307 C 75.340 146.518,75.492 146.238,76.133 145.749 L 76.914 145.153 76.914 142.931 C 76.914 140.741,76.924 140.701,77.595 140.137 C 78.221 139.610,78.276 139.447,78.276 138.111 L 78.276 136.657 80.216 134.690 C 82.435 132.441,82.444 132.275,80.350 132.275 C 78.442 132.275,78.276 132.112,78.274 130.244 C 78.272 128.787,78.252 128.738,77.269 127.772 L 76.265 126.787 75.605 127.525 L 74.946 128.264 74.455 127.773 C 74.007 127.326,73.965 127.048,73.965 124.579 C 73.965 121.702,73.872 121.157,73.381 121.157 C 72.945 121.157,72.604 120.417,72.604 119.470 C 72.604 119.025,72.501 118.661,72.377 118.661 C 71.380 118.661,71.242 117.950,71.246 112.819 C 71.249 107.666,71.266 107.552,72.093 107.116 C 72.544 106.878,72.604 106.671,72.607 105.324 C 72.611 103.659,72.694 103.432,73.454 103.032 C 74.271 102.602,74.204 97.788,73.381 97.788 C 72.767 97.788,72.604 96.870,72.604 93.416 C 72.604 89.846,72.533 89.434,72.000 89.877 C 71.775 90.063,71.696 90.871,71.696 92.975 L 71.696 95.820 70.335 97.107 L 68.973 98.395 68.970 100.530 C 68.966 102.820,68.907 103.021,68.123 103.434 C 67.599 103.710,67.287 109.586,67.796 109.586 C 69.126 109.586,69.527 113.402,68.293 114.315 C 67.616 114.815,67.612 114.831,67.612 117.065 C 67.612 119.302,67.609 119.313,66.931 119.796 C 66.256 120.277,66.251 120.297,66.247 122.477 L 66.243 124.674 65.283 125.594 C 63.731 127.081,63.074 127.001,63.074 125.323 C 63.074 124.519,62.044 123.234,60.919 122.635 C 60.536 122.431,60.455 122.122,60.399 120.649 C 60.337 119.010,60.293 118.877,59.662 118.428 C 58.996 117.954,58.990 117.933,58.990 115.712 C 58.990 113.484,58.987 113.472,58.310 112.989 C 57.259 112.241,57.261 109.003,58.311 108.405 C 58.964 108.034,58.990 107.957,58.990 106.436 C 58.990 104.935,59.026 104.827,59.671 104.368 L 60.352 103.883 60.352 97.006 C 60.352 90.240,60.235 89.131,59.593 89.773 M23.946 109.530 C 24.690 110.247,25.579 111.015,25.922 111.236 C 26.265 111.457,26.546 111.743,26.546 111.871 C 26.546 112.192,28.024 113.687,28.646 113.996 C 28.926 114.135,29.186 114.463,29.224 114.725 C 29.418 116.071,26.518 116.473,25.903 115.185 C 25.621 114.594,25.567 114.572,25.203 114.901 C 24.407 115.622,22.476 114.368,22.105 112.890 C 22.010 112.515,21.639 112.076,21.193 111.812 C 20.779 111.568,20.377 111.171,20.301 110.931 C 20.225 110.690,20.067 110.493,19.951 110.493 C 19.668 110.493,18.832 109.645,18.832 109.359 C 18.832 108.676,19.761 108.225,21.167 108.225 L 22.595 108.225 23.946 109.530 M35.716 109.043 C 36.365 109.292,36.214 112.099,35.517 112.754 C 34.898 113.335,33.245 113.316,32.869 112.723 C 31.875 111.155,34.014 108.390,35.716 109.043 M25.865 117.534 C 25.865 118.533,25.426 118.918,24.841 118.432 C 24.392 118.060,24.415 117.542,24.901 117.049 C 25.562 116.379,25.865 116.532,25.865 117.534 M33.266 119.990 C 33.412 120.284,33.772 120.644,34.066 120.789 C 34.682 121.095,34.965 123.190,34.471 123.785 C 34.054 124.288,31.113 124.229,30.719 123.710 C 30.236 123.073,30.320 121.302,30.856 120.817 C 31.106 120.591,31.310 120.289,31.310 120.146 C 31.310 119.239,32.834 119.117,33.266 119.990 M70.562 121.779 C 70.562 123.451,70.293 124.107,69.607 124.107 C 68.446 124.107,67.841 122.341,68.640 121.284 C 68.823 121.042,68.973 120.628,68.973 120.365 C 68.973 119.516,69.446 119.281,70.038 119.837 C 70.479 120.251,70.562 120.558,70.562 121.779 M59.004 121.928 C 59.232 122.530,59.570 123.190,59.754 123.394 C 60.719 124.465,60.372 125.533,59.094 125.427 C 58.309 125.362,58.202 125.275,58.021 124.560 C 57.911 124.124,57.726 123.669,57.611 123.551 C 57.223 123.150,57.363 121.202,57.799 120.949 C 58.393 120.604,58.549 120.731,59.004 121.928 M34.441 125.060 C 34.799 125.417,34.791 126.148,34.430 126.152 C 34.241 126.154,34.260 126.229,34.487 126.375 C 34.674 126.496,35.497 126.597,36.316 126.599 C 37.672 126.602,37.863 126.663,38.457 127.283 C 38.919 127.765,39.324 127.964,39.844 127.964 C 40.941 127.964,44.016 131.034,44.016 132.129 C 44.016 132.678,44.199 133.044,44.697 133.487 C 45.370 134.086,45.808 138.627,45.193 138.627 C 44.708 138.627,44.016 139.604,44.016 140.287 C 44.016 140.798,43.826 141.197,43.392 141.596 C 43.049 141.912,42.593 142.369,42.380 142.611 C 41.300 143.835,40.634 144.356,40.308 144.231 C 40.038 144.127,39.942 144.288,39.888 144.936 C 39.756 146.520,38.571 146.293,38.571 144.683 C 38.571 143.286,38.217 142.807,37.347 143.025 C 36.945 143.126,36.828 143.279,36.910 143.595 C 37.110 144.359,36.591 144.980,35.754 144.980 C 34.749 144.980,34.421 144.208,34.524 142.078 C 34.600 140.499,34.447 140.083,33.806 140.124 C 32.873 140.184,32.783 140.389,32.859 142.272 C 32.915 143.639,32.845 144.233,32.582 144.636 C 32.204 145.212,33.203 146.573,34.248 146.905 C 34.479 146.978,34.733 147.296,34.812 147.611 C 35.082 148.688,36.621 148.306,36.716 147.139 C 36.798 146.124,37.029 145.896,37.976 145.891 C 38.879 145.886,38.753 147.737,37.799 148.498 C 37.475 148.756,37.209 149.048,37.209 149.146 C 37.209 149.492,36.607 149.918,35.894 150.075 C 34.459 150.390,34.749 150.978,36.469 151.238 C 37.758 151.433,38.571 151.211,38.571 150.663 C 38.571 150.149,39.412 149.815,39.780 150.182 C 40.133 150.535,39.695 151.197,39.044 151.294 C 38.297 151.405,38.527 152.230,39.448 152.743 C 39.868 152.977,40.354 153.311,40.528 153.485 C 41.371 154.328,43.527 154.195,44.008 153.271 C 44.493 152.340,44.703 152.058,45.556 151.195 C 45.966 150.780,46.446 150.094,46.623 149.672 C 46.799 149.249,47.204 148.733,47.522 148.525 C 47.975 148.228,48.100 147.958,48.100 147.274 C 48.100 146.743,48.279 146.175,48.558 145.820 C 48.928 145.350,49.688 143.620,49.688 143.250 C 49.688 143.203,49.542 143.165,49.364 143.165 C 48.913 143.165,48.100 144.257,48.100 144.862 C 48.100 145.571,47.347 146.194,46.728 145.998 C 46.285 145.857,46.243 145.720,46.338 144.728 C 46.433 143.747,46.066 142.569,45.781 142.939 C 45.733 143.001,45.518 143.332,45.303 143.676 C 44.645 144.727,44.011 144.382,44.019 142.976 C 44.024 142.209,44.226 141.906,44.867 141.706 C 45.147 141.618,45.377 141.395,45.377 141.211 C 45.377 141.026,45.667 140.709,46.021 140.505 C 46.375 140.302,46.758 139.924,46.872 139.665 C 46.986 139.406,47.309 139.094,47.589 138.971 C 47.870 138.847,48.100 138.651,48.100 138.535 C 48.100 137.853,48.886 137.493,50.376 137.493 C 52.065 137.493,52.723 137.122,52.184 136.472 C 52.028 136.285,51.778 136.132,51.627 136.132 C 51.476 136.132,51.217 135.878,51.051 135.568 C 50.886 135.258,50.571 134.948,50.353 134.879 C 49.830 134.713,49.615 134.111,49.939 133.721 C 50.364 133.208,54.646 133.282,54.843 133.806 C 55.363 135.182,57.636 136.751,58.203 136.124 C 58.598 135.688,58.588 135.678,57.778 135.678 C 57.118 135.678,56.948 135.591,56.948 135.252 C 56.948 134.768,56.589 134.416,55.927 134.254 C 55.663 134.189,55.824 134.131,56.314 134.116 C 56.951 134.096,57.253 133.945,57.562 133.491 C 57.786 133.161,58.301 132.581,58.707 132.201 C 59.398 131.554,59.444 131.414,59.444 129.977 C 59.444 128.286,59.632 127.975,60.245 128.651 C 61.395 129.923,62.514 129.874,63.404 128.515 C 64.007 127.596,64.433 127.810,64.454 129.041 L 64.473 130.119 64.816 129.325 C 65.270 128.278,65.230 128.295,65.929 128.845 C 66.773 129.509,68.013 129.493,68.272 128.815 C 68.780 127.488,69.328 127.364,70.419 128.329 C 70.969 128.814,71.676 129.389,71.992 129.605 C 72.311 129.823,72.636 130.328,72.724 130.739 C 72.901 131.566,73.217 132.048,73.582 132.048 C 73.716 132.048,73.645 131.916,73.426 131.756 C 73.125 131.536,73.044 131.214,73.099 130.451 L 73.171 129.438 74.264 129.313 C 74.866 129.244,75.456 129.040,75.575 128.859 C 75.695 128.679,75.882 128.383,75.991 128.201 C 76.519 127.326,76.914 128.400,76.914 130.706 C 76.914 133.170,77.051 133.409,78.460 133.409 C 79.738 133.409,79.820 133.979,78.705 135.114 C 77.547 136.293,77.431 136.326,77.140 135.560 C 77.020 135.246,76.665 134.891,76.351 134.772 C 75.812 134.567,75.780 134.461,75.780 132.883 C 75.780 130.750,75.297 130.091,74.419 131.026 C 74.127 131.337,73.964 131.669,74.058 131.763 C 74.152 131.857,74.374 131.735,74.551 131.492 C 75.037 130.828,75.440 131.387,75.440 132.729 C 75.440 134.861,72.975 136.504,71.696 135.224 C 70.977 134.505,70.720 134.697,71.391 135.451 C 72.215 136.375,73.756 136.434,74.326 135.564 C 74.800 134.840,75.265 134.842,75.597 135.570 C 75.740 135.885,76.095 136.202,76.386 136.275 C 76.883 136.400,76.914 136.514,76.914 138.174 C 76.914 139.965,76.556 140.629,75.929 140.001 C 75.552 139.625,75.022 140.190,75.365 140.603 C 75.585 140.868,75.499 141.059,74.914 141.605 C 74.517 141.977,74.192 142.428,74.192 142.609 C 74.192 143.036,73.304 143.025,72.730 142.591 C 72.135 142.140,72.038 142.164,71.730 142.841 C 71.485 143.379,71.501 143.413,71.937 143.274 C 72.651 143.047,73.624 143.557,74.029 144.369 L 74.390 145.094 74.404 144.129 C 74.419 143.118,75.103 142.709,75.415 143.524 C 75.889 144.758,75.308 146.078,74.564 145.460 C 74.335 145.270,74.168 145.311,73.883 145.626 C 73.675 145.856,73.072 146.180,72.544 146.347 C 71.332 146.729,71.015 146.969,71.015 147.504 C 71.015 147.878,70.831 147.930,69.495 147.930 C 68.313 147.930,68.036 147.869,68.247 147.657 C 69.198 146.707,68.348 145.902,66.214 145.732 C 64.034 145.558,63.753 145.399,63.762 144.348 C 63.769 143.573,63.795 143.539,64.090 143.929 C 64.567 144.559,66.299 144.694,67.259 144.177 C 68.194 143.673,68.091 143.255,66.904 142.745 C 65.676 142.216,66.012 141.585,67.308 141.983 C 68.531 142.358,69.111 141.840,68.335 141.065 C 67.872 140.604,67.605 140.556,65.506 140.556 C 63.320 140.556,63.175 140.527,62.964 140.045 C 62.687 139.415,62.483 139.396,62.329 139.986 C 62.264 140.234,61.971 140.530,61.678 140.645 C 60.719 141.019,59.740 142.293,59.566 143.392 C 59.217 145.606,59.168 145.508,60.782 145.800 C 61.666 145.961,62.313 146.206,62.438 146.429 C 62.579 146.680,62.959 146.795,63.647 146.795 C 64.525 146.795,64.693 146.878,64.991 147.453 C 65.372 148.190,65.912 148.319,69.484 148.527 C 71.605 148.650,72.174 149.130,70.959 149.771 C 70.156 150.194,70.115 150.369,70.111 153.416 L 70.108 156.294 69.427 156.778 C 68.785 157.236,68.746 157.350,68.746 158.808 C 68.746 160.423,68.424 161.048,67.728 160.781 C 67.465 160.680,67.385 160.260,67.385 158.975 C 67.385 156.893,67.083 155.958,66.353 155.775 C 66.019 155.691,65.748 155.415,65.662 155.073 C 65.449 154.223,65.116 154.397,65.115 155.360 C 65.114 156.163,63.889 157.717,62.682 158.446 C 62.070 158.815,61.486 158.169,61.486 157.123 C 61.486 156.255,61.404 156.083,60.862 155.825 C 60.369 155.590,60.223 155.346,60.167 154.665 C 60.127 154.179,59.954 153.749,59.770 153.678 C 59.227 153.470,59.396 153.195,60.446 152.580 C 60.997 152.257,61.565 151.851,61.709 151.678 C 61.853 151.504,62.275 151.295,62.647 151.214 C 63.019 151.132,63.445 150.870,63.593 150.632 C 63.742 150.394,64.046 150.199,64.269 150.199 C 64.648 150.199,64.650 150.163,64.301 149.631 C 64.044 149.238,63.724 149.064,63.260 149.064 C 62.892 149.064,62.393 148.958,62.152 148.829 C 61.910 148.700,61.713 148.685,61.713 148.796 C 61.713 148.907,61.458 149.273,61.146 149.610 C 60.834 149.946,60.579 150.449,60.579 150.727 C 60.579 151.278,59.379 152.507,58.650 152.703 C 58.400 152.770,57.992 153.203,57.742 153.666 C 57.185 154.700,57.138 154.702,56.467 153.717 C 55.779 152.707,55.565 152.707,55.844 153.718 C 56.124 154.733,55.971 154.963,55.015 154.963 C 54.513 154.963,54.082 155.137,53.781 155.460 C 53.171 156.114,53.189 156.204,54.056 156.807 C 56.785 158.707,56.767 159.305,53.978 159.408 C 52.954 159.446,52.009 159.585,51.878 159.716 C 51.495 160.099,50.406 159.991,49.939 159.525 C 49.703 159.288,49.096 159.025,48.591 158.940 C 46.067 158.513,44.721 155.498,46.398 154.025 C 46.835 153.642,47.192 153.140,47.192 152.911 C 47.192 152.243,47.539 152.212,48.077 152.830 C 49.191 154.111,49.942 152.699,50.093 149.043 C 50.178 146.968,50.276 146.341,50.513 146.341 C 50.683 146.341,50.822 146.188,50.822 146.001 C 50.822 145.594,50.117 145.550,49.733 145.933 C 49.550 146.116,49.461 147.144,49.461 149.066 C 49.461 152.549,49.215 153.163,48.269 152.039 C 47.329 150.921,46.739 151.179,46.739 152.706 C 46.739 153.171,46.541 153.507,46.058 153.865 C 44.288 155.173,45.852 159.501,48.095 159.501 C 48.600 159.501,48.991 159.704,49.446 160.202 L 50.086 160.903 52.780 160.784 C 54.261 160.718,55.576 160.662,55.701 160.659 C 60.274 160.540,61.365 161.123,60.826 163.402 C 60.631 164.229,60.612 164.783,60.764 165.173 C 60.956 165.662,60.880 165.851,60.220 166.539 C 59.146 167.659,58.955 168.715,59.772 169.025 C 60.741 169.394,63.570 169.315,64.158 168.904 C 65.023 168.298,64.621 166.307,63.634 166.307 C 62.449 166.307,63.025 165.369,64.394 165.069 C 65.256 164.879,65.762 164.202,66.049 162.852 C 66.162 162.319,66.307 161.653,66.370 161.373 C 66.532 160.663,67.051 160.735,67.373 161.512 C 67.521 161.870,67.869 162.284,68.146 162.432 C 68.423 162.581,68.748 162.926,68.868 163.200 C 69.042 163.596,69.310 163.712,70.175 163.768 C 71.101 163.827,71.296 163.924,71.482 164.414 C 71.603 164.731,71.880 165.037,72.099 165.094 C 72.317 165.151,72.669 165.499,72.880 165.866 C 73.090 166.234,73.419 166.534,73.610 166.534 C 74.542 166.534,74.400 171.481,73.454 171.933 C 72.913 172.192,72.830 172.364,72.830 173.234 C 72.830 174.119,72.750 174.278,72.150 174.589 L 71.469 174.941 71.469 177.289 C 71.469 179.876,71.108 180.748,70.424 179.812 C 70.250 179.574,70.108 179.308,70.108 179.221 C 70.108 178.912,69.366 178.782,69.058 179.037 C 68.318 179.651,69.001 181.963,69.924 181.963 C 70.025 181.963,70.108 182.104,70.108 182.276 C 70.108 182.711,68.091 183.354,67.583 183.081 C 67.270 182.914,67.175 182.975,67.117 183.381 C 67.025 184.031,66.017 184.193,65.471 183.646 C 65.221 183.396,65.010 183.340,64.865 183.484 C 64.506 183.844,65.189 184.238,66.164 184.234 C 66.648 184.232,67.682 184.228,68.460 184.225 C 69.808 184.219,69.893 184.186,70.235 183.524 C 70.581 182.856,70.611 182.844,71.032 183.225 C 71.524 183.671,71.621 184.897,71.197 185.320 C 70.809 185.709,58.516 185.709,58.128 185.320 C 57.505 184.697,57.789 182.041,58.537 181.509 C 59.085 181.118,59.217 180.860,59.217 180.175 C 59.217 179.494,59.352 179.225,59.898 178.822 C 60.272 178.545,60.579 178.175,60.579 177.999 C 60.579 177.823,60.669 177.623,60.779 177.554 C 61.037 177.395,62.394 177.863,62.394 178.110 C 62.394 178.924,64.354 178.804,64.671 177.970 C 64.797 177.638,65.061 177.425,65.345 177.425 C 66.085 177.425,66.185 176.741,65.524 176.197 C 65.207 175.937,64.829 175.495,64.685 175.215 C 64.541 174.936,64.185 174.648,63.894 174.575 C 63.388 174.448,63.049 173.547,62.792 171.639 C 62.662 170.683,61.032 170.884,61.032 171.856 C 61.032 172.560,60.927 172.718,60.238 173.046 C 59.801 173.255,59.444 173.489,59.444 173.567 C 59.444 173.786,58.543 174.702,58.328 174.702 C 58.224 174.702,58.010 174.395,57.855 174.019 C 57.470 173.089,57.098 173.034,52.503 173.225 C 48.733 173.382,48.515 173.416,48.199 173.898 C 48.016 174.177,47.613 174.521,47.303 174.662 C 46.837 174.875,46.739 175.080,46.739 175.840 C 46.739 176.647,46.605 176.885,45.661 177.763 C 45.068 178.315,44.430 178.928,44.243 179.127 C 44.056 179.326,43.622 179.761,43.279 180.095 C 42.703 180.655,42.655 180.840,42.655 182.467 L 42.655 184.231 41.860 184.231 C 40.914 184.231,40.813 184.569,41.690 184.800 C 42.243 184.945,42.264 184.982,41.876 185.126 C 41.536 185.251,41.505 185.330,41.740 185.475 C 42.064 185.675,42.655 185.064,42.655 184.528 C 42.655 184.069,43.517 184.178,43.781 184.670 C 44.133 185.327,44.078 187.755,43.704 188.065 C 43.485 188.247,41.692 188.305,37.635 188.263 L 31.877 188.202 31.813 185.763 C 31.778 184.421,31.835 183.324,31.940 183.324 C 32.488 183.324,33.125 182.351,33.125 181.515 C 33.125 180.793,33.249 180.544,33.806 180.147 C 34.361 179.752,34.487 179.501,34.487 178.786 C 34.487 178.071,34.612 177.820,35.167 177.425 C 36.023 176.815,36.023 176.505,35.166 176.017 C 34.180 175.456,34.181 174.043,35.167 173.341 C 35.723 172.946,35.848 172.695,35.848 171.980 C 35.848 171.264,35.973 171.014,36.529 170.618 C 37.084 170.223,37.209 169.972,37.209 169.257 C 37.209 168.542,37.335 168.291,37.890 167.896 C 38.440 167.504,38.571 167.247,38.571 166.556 C 38.571 165.893,38.723 165.566,39.251 165.095 C 39.793 164.613,39.932 164.303,39.932 163.583 C 39.932 163.085,40.013 162.677,40.112 162.677 C 40.211 162.677,41.130 161.863,42.154 160.867 L 44.016 159.057 44.016 157.509 C 44.016 155.618,43.839 155.417,42.174 155.417 C 40.569 155.417,40.180 155.274,39.920 154.592 C 39.751 154.148,39.555 154.056,38.783 154.056 C 38.029 154.056,37.734 153.924,37.252 153.375 C 36.784 152.841,36.467 152.694,35.787 152.694 C 35.061 152.694,34.856 152.584,34.533 152.015 C 34.320 151.641,34.014 151.335,33.852 151.334 C 33.690 151.334,33.392 151.043,33.188 150.689 C 32.985 150.335,32.607 149.952,32.348 149.838 C 31.958 149.667,31.867 149.398,31.819 148.270 C 31.736 146.344,31.623 146.000,30.975 145.705 C 30.361 145.425,30.171 144.526,30.727 144.526 C 31.428 144.526,31.827 143.838,31.399 143.365 C 31.187 143.130,30.880 142.938,30.717 142.938 C 30.503 142.938,30.403 142.422,30.355 141.072 C 30.294 139.342,30.248 139.186,29.725 138.926 C 28.889 138.510,28.744 138.835,28.796 141.015 C 28.849 143.206,28.105 143.863,27.595 142.077 C 27.469 141.636,27.268 141.373,27.104 141.435 C 26.951 141.494,26.355 141.084,25.779 140.523 L 24.731 139.505 24.731 136.804 L 24.731 134.103 25.411 133.600 C 25.946 133.204,26.092 132.924,26.092 132.288 C 26.092 131.113,29.130 127.964,30.263 127.964 C 30.805 127.964,31.174 127.778,31.615 127.283 C 31.948 126.909,32.425 126.602,32.673 126.602 C 33.150 126.602,33.282 126.272,32.898 126.035 C 32.576 125.836,32.617 125.555,33.028 125.144 C 33.453 124.719,34.064 124.683,34.441 125.060 M70.108 126.176 C 70.108 126.435,70.268 126.602,70.516 126.602 C 71.039 126.602,71.469 127.033,71.469 127.555 C 71.469 127.797,71.635 127.964,71.877 127.964 C 72.362 127.964,72.830 128.384,72.830 128.819 C 72.830 129.320,71.836 129.045,71.585 128.474 C 71.462 128.193,71.202 127.964,71.007 127.964 C 70.533 127.964,70.108 127.513,70.108 127.011 C 70.108 126.726,69.936 126.602,69.541 126.602 C 68.924 126.602,68.688 125.608,69.257 125.404 C 69.656 125.261,70.108 125.671,70.108 126.176 M60.252 127.488 C 60.057 127.803,59.516 127.810,59.325 127.500 C 59.244 127.370,59.306 127.109,59.462 126.921 C 59.799 126.516,60.529 127.040,60.252 127.488 M65.799 127.060 C 66.074 127.574,65.634 127.897,64.993 127.651 C 64.614 127.506,64.916 126.602,65.343 126.602 C 65.459 126.602,65.664 126.808,65.799 127.060 M68.666 126.946 C 68.833 127.382,68.359 127.964,67.836 127.964 C 67.594 127.964,67.376 128.195,67.288 128.546 C 67.107 129.266,66.397 129.213,66.292 128.472 C 66.233 128.059,66.328 127.964,66.802 127.964 C 67.156 127.964,67.385 127.836,67.385 127.640 C 67.385 126.890,68.427 126.325,68.666 126.946 M58.877 129.911 C 58.877 131.601,58.847 131.712,58.366 131.780 C 57.773 131.864,57.569 128.795,58.131 128.233 C 58.680 127.684,58.877 128.126,58.877 129.911 M61.713 128.786 C 61.713 129.192,60.890 129.192,60.734 128.785 C 60.554 128.316,61.040 127.914,61.413 128.224 C 61.578 128.361,61.713 128.614,61.713 128.786 M61.947 130.130 C 61.972 130.864,62.567 131.164,63.334 130.829 L 64.095 130.496 63.290 130.478 C 62.847 130.468,62.362 130.337,62.212 130.187 C 62.062 130.037,61.943 130.012,61.947 130.130 M57.548 132.391 C 57.743 132.898,57.209 133.409,56.485 133.409 C 55.249 133.409,54.784 132.941,55.406 132.320 C 55.806 131.919,57.387 131.972,57.548 132.391 M67.241 135.108 C 66.759 135.538,66.185 136.046,65.967 136.237 C 65.713 136.460,65.570 136.912,65.570 137.493 C 65.570 138.526,65.310 138.665,64.931 137.833 C 64.789 137.521,64.561 137.266,64.425 137.266 C 64.290 137.266,63.802 136.988,63.343 136.648 C 62.555 136.066,62.533 136.061,62.961 136.576 C 64.998 139.026,65.864 139.377,65.979 137.802 C 66.029 137.111,66.217 136.715,66.696 136.289 C 67.052 135.971,67.446 135.529,67.571 135.306 C 67.733 135.016,68.043 134.912,68.669 134.937 C 69.148 134.957,69.387 134.913,69.200 134.841 C 69.013 134.768,68.693 134.623,68.488 134.518 C 68.219 134.380,67.876 134.543,67.241 135.108 M49.476 135.877 C 49.170 136.448,48.721 136.493,48.230 136.002 C 47.508 135.281,48.574 134.292,49.314 134.996 C 49.656 135.322,49.686 135.484,49.476 135.877 M56.549 139.305 C 56.160 139.928,56.196 141.235,56.612 141.580 C 57.392 142.228,58.206 140.485,57.718 139.213 C 57.527 138.714,56.887 138.764,56.549 139.305 M29.937 140.134 C 29.819 140.445,29.710 141.126,29.694 141.648 C 29.669 142.519,29.651 142.487,29.471 141.259 C 29.364 140.523,29.224 139.869,29.161 139.805 C 29.097 139.742,29.160 139.552,29.300 139.383 C 29.723 138.874,30.201 139.439,29.937 140.134 M57.109 140.723 C 57.055 141.006,57.008 140.828,57.006 140.329 C 57.003 139.830,57.047 139.599,57.104 139.816 C 57.161 140.033,57.163 140.441,57.109 140.723 M33.995 143.212 L 33.654 145.320 33.478 143.128 C 33.286 140.746,33.408 140.174,33.985 140.751 C 34.302 141.068,34.303 141.314,33.995 143.212 M63.074 142.144 C 63.313 142.431,63.219 142.542,62.478 142.850 C 61.429 143.287,61.267 143.502,61.263 144.470 C 61.261 144.875,61.155 145.207,61.028 145.207 C 60.896 145.207,60.857 144.969,60.936 144.652 C 61.013 144.347,60.961 143.750,60.821 143.325 C 60.366 141.947,62.139 141.018,63.074 142.144 M26.021 143.205 C 26.367 143.530,26.546 143.957,26.546 144.457 C 26.546 145.046,26.672 145.275,27.109 145.473 C 27.418 145.614,27.733 145.925,27.809 146.163 C 27.884 146.401,28.168 146.697,28.439 146.820 C 29.267 147.198,30.488 149.727,30.671 151.446 C 30.734 152.042,30.842 152.136,31.537 152.199 C 32.059 152.247,32.603 152.529,33.125 153.023 C 34.178 154.019,34.734 154.282,35.790 154.282 C 36.505 154.282,36.765 154.410,37.173 154.963 C 37.586 155.522,37.839 155.644,38.582 155.644 C 39.308 155.644,39.535 155.748,39.727 156.168 C 39.858 156.456,40.392 156.890,40.913 157.132 C 42.770 157.995,42.765 158.521,40.881 160.383 C 39.031 162.211,38.856 162.261,37.652 161.307 C 36.925 160.731,36.769 160.459,36.711 159.662 L 36.642 158.707 34.868 158.581 C 32.862 158.439,32.680 158.294,32.675 156.835 L 32.672 155.871 31.764 155.871 C 30.699 155.871,30.641 156.022,31.458 156.674 C 31.935 157.054,32.029 157.276,31.912 157.743 C 31.685 158.645,30.328 158.749,30.054 157.886 C 29.978 157.648,29.618 157.299,29.252 157.110 C 28.887 156.921,28.588 156.620,28.588 156.440 C 28.588 156.260,28.358 155.993,28.077 155.845 C 26.920 155.235,26.980 153.971,28.187 153.539 C 28.374 153.472,28.256 153.262,27.850 152.935 C 27.394 152.569,27.226 152.231,27.226 151.675 C 27.226 150.771,27.034 150.199,26.730 150.199 C 26.609 150.199,26.058 149.747,25.507 149.195 L 24.504 148.192 24.504 145.724 C 24.504 142.692,24.854 142.109,26.021 143.205 M30.176 143.748 C 30.176 144.524,29.194 144.459,29.082 143.676 C 29.023 143.260,29.118 143.165,29.593 143.165 C 30.068 143.165,30.176 143.273,30.176 143.748 M63.020 143.449 C 63.281 143.772,62.991 144.753,62.636 144.753 C 62.210 144.753,61.882 143.848,62.179 143.491 C 62.511 143.091,62.723 143.080,63.020 143.449 M38.151 144.190 C 38.046 145.078,37.878 145.327,37.638 144.948 C 37.267 144.361,37.397 143.351,37.833 143.436 C 38.128 143.494,38.210 143.687,38.151 144.190 M43.789 144.987 C 43.789 145.526,43.188 145.831,42.830 145.474 C 42.652 145.295,42.664 145.129,42.873 144.876 C 43.284 144.381,43.789 144.442,43.789 144.987 M46.015 145.732 C 46.060 146.272,46.239 146.649,46.520 146.800 C 47.381 147.261,47.459 147.815,46.737 148.349 L 46.076 148.838 45.177 147.930 C 44.683 147.431,44.087 147.022,43.852 147.022 C 42.909 147.022,42.915 146.556,43.872 145.564 C 45.070 144.323,45.902 144.388,46.015 145.732 M42.428 146.429 C 42.428 146.747,42.207 147.114,41.892 147.321 C 41.541 147.551,41.307 147.981,41.213 148.565 C 40.851 150.828,39.932 150.281,39.932 147.803 L 39.932 145.888 41.180 145.888 C 42.344 145.888,42.428 145.924,42.428 146.429 M50.596 146.732 C 50.596 147.018,51.244 147.584,51.397 147.431 C 51.457 147.371,51.301 147.136,51.051 146.910 C 50.800 146.683,50.596 146.603,50.596 146.732 M43.882 147.760 C 44.554 148.798,44.574 149.483,43.937 149.643 C 43.166 149.837,42.927 149.650,42.752 148.718 C 42.487 147.306,43.198 146.703,43.882 147.760 M72.761 147.622 C 72.981 148.197,72.162 148.720,71.726 148.284 C 71.454 148.012,71.447 147.889,71.687 147.601 C 72.067 147.142,72.581 147.152,72.761 147.622 M39.478 148.497 C 39.478 149.314,39.276 149.587,38.860 149.330 C 38.671 149.213,38.672 148.957,38.865 148.341 C 39.174 147.351,39.478 147.428,39.478 148.497 M42.296 149.412 C 42.377 149.734,42.688 150.082,43.001 150.201 C 43.747 150.484,43.699 150.816,42.754 151.900 C 41.530 153.305,40.924 152.265,41.567 149.861 C 41.877 148.703,42.086 148.575,42.296 149.412 M66.877 149.905 C 67.160 149.959,67.568 149.957,67.785 149.901 C 68.002 149.844,67.771 149.799,67.272 149.802 C 66.773 149.804,66.595 149.851,66.877 149.905 M66.794 158.615 C 66.777 159.500,66.629 160.084,66.305 160.544 C 66.049 160.906,65.772 161.599,65.689 162.084 C 65.318 164.249,63.409 165.584,61.969 164.685 C 61.534 164.413,61.530 164.470,62.148 162.434 C 62.283 161.989,62.394 161.328,62.394 160.965 C 62.394 159.946,65.194 157.189,66.137 157.280 C 66.808 157.344,66.818 157.364,66.794 158.615 M58.962 159.195 C 58.624 159.602,58.100 159.583,57.937 159.158 C 57.694 158.524,58.303 158.063,58.795 158.509 C 59.115 158.798,59.155 158.962,58.962 159.195 M44.284 160.749 C 44.132 161.081,43.836 161.316,43.567 161.316 C 43.315 161.316,43.108 161.418,43.108 161.543 C 43.108 161.673,43.793 161.770,44.710 161.770 C 45.720 161.770,46.260 161.686,46.171 161.543 C 46.094 161.418,45.901 161.316,45.742 161.316 C 45.584 161.316,45.317 161.061,45.150 160.749 C 44.983 160.437,44.778 160.182,44.695 160.182 C 44.611 160.182,44.426 160.437,44.284 160.749 M41.634 165.222 C 39.130 167.787,37.980 171.068,39.450 171.453 C 39.980 171.591,40.352 172.305,40.435 173.341 C 40.495 174.077,40.565 174.145,41.407 174.279 C 41.906 174.358,42.775 174.496,43.338 174.586 C 45.171 174.878,46.285 174.410,46.285 173.347 C 46.285 172.546,46.358 172.436,47.062 172.182 C 47.489 172.027,47.959 171.675,48.107 171.398 C 48.255 171.122,48.621 170.784,48.919 170.648 C 49.677 170.303,49.766 166.572,49.022 166.377 C 48.585 166.263,48.100 165.257,48.100 164.466 C 48.100 163.809,47.363 163.584,45.222 163.590 L 43.222 163.595 41.634 165.222 M45.585 164.066 C 47.370 164.371,47.564 164.505,47.915 165.679 C 48.065 166.177,48.371 166.700,48.597 166.841 C 49.315 167.289,49.187 169.884,48.438 170.072 C 48.097 170.157,47.815 170.428,47.736 170.746 C 47.569 171.412,46.308 171.645,43.869 171.460 C 40.467 171.203,38.805 168.437,41.001 166.688 C 41.287 166.461,41.520 166.173,41.520 166.048 C 41.520 165.701,43.406 163.836,43.770 163.823 C 43.947 163.817,44.764 163.926,45.585 164.066 M67.594 164.514 C 67.292 164.746,66.887 164.938,66.693 164.941 C 65.763 164.954,65.396 167.823,66.141 169.263 C 66.482 169.923,66.478 169.932,65.573 170.503 C 63.616 171.738,65.324 174.703,67.991 174.701 C 70.252 174.699,71.015 174.377,71.015 173.426 C 71.015 172.847,71.195 172.445,71.665 171.976 C 72.322 171.319,72.636 170.176,72.676 168.291 C 72.699 167.232,71.160 165.517,69.875 165.172 C 69.431 165.052,68.859 164.760,68.605 164.523 C 68.154 164.103,68.129 164.103,67.594 164.514 M57.244 165.514 C 56.976 165.701,56.692 166.153,56.612 166.517 C 56.532 166.882,56.177 167.622,55.824 168.162 C 55.471 168.702,55.114 169.468,55.030 169.865 C 54.701 171.422,53.791 171.278,53.606 169.640 C 53.516 168.840,53.598 168.430,53.971 167.827 C 54.236 167.399,54.453 166.728,54.453 166.337 L 54.453 165.627 52.127 165.628 L 49.801 165.628 50.539 166.078 L 51.276 166.528 51.276 168.585 L 51.276 170.642 50.578 170.885 C 49.449 171.279,50.087 171.482,52.864 171.613 C 54.299 171.680,55.627 171.744,55.814 171.755 C 56.379 171.786,58.537 171.476,58.537 171.363 C 58.537 171.305,58.332 170.997,58.083 170.680 C 57.144 169.486,57.593 166.307,58.700 166.307 C 59.064 166.307,59.217 165.717,58.927 165.428 C 58.572 165.072,57.819 165.110,57.244 165.514 M68.881 165.967 C 69.218 166.279,69.714 166.534,69.984 166.534 C 70.997 166.534,71.353 167.065,71.333 168.546 C 71.303 170.791,69.896 171.460,68.648 169.824 C 68.315 169.387,67.852 169.030,67.619 169.030 C 66.610 169.030,66.478 168.819,66.478 167.210 C 66.478 166.186,66.573 165.626,66.761 165.550 C 67.459 165.269,68.308 165.436,68.881 165.967 M63.289 166.860 C 64.301 168.080,62.840 169.372,61.054 168.837 C 60.151 168.566,60.104 168.025,60.877 166.818 C 61.130 166.424,62.954 166.456,63.289 166.860 M37.030 173.211 C 36.213 174.047,35.967 175.610,36.653 175.610 C 36.846 175.610,37.170 175.900,37.373 176.254 C 37.576 176.608,37.955 176.991,38.213 177.105 C 38.472 177.218,38.785 177.541,38.908 177.822 C 39.118 178.301,39.268 178.332,41.336 178.332 L 43.541 178.332 43.772 177.497 C 44.147 176.137,43.302 175.714,41.335 176.278 C 40.392 176.549,39.933 176.378,39.928 175.756 C 39.924 175.116,39.696 174.796,39.116 174.615 C 38.815 174.521,38.542 174.139,38.372 173.573 C 38.014 172.376,37.882 172.341,37.030 173.211 M62.125 173.649 C 62.594 173.909,62.613 173.973,62.296 174.236 C 62.100 174.398,61.940 174.692,61.940 174.889 C 61.940 175.167,62.000 175.186,62.212 174.974 C 62.662 174.524,63.074 174.665,63.074 175.269 C 63.074 175.874,62.662 176.015,62.212 175.564 C 62.027 175.379,61.940 175.372,61.940 175.542 C 61.940 175.861,63.255 176.366,63.926 176.304 C 64.514 176.251,64.857 176.867,64.460 177.264 C 64.261 177.463,64.084 177.456,63.728 177.234 C 63.329 176.985,63.217 177.000,62.971 177.336 C 62.338 178.201,60.710 176.547,60.041 174.358 C 59.801 173.573,61.157 173.111,62.125 173.649 M57.289 174.022 C 57.289 174.209,57.066 174.394,56.795 174.432 C 56.523 174.471,56.184 174.643,56.042 174.814 C 55.825 175.076,55.714 175.066,55.345 174.750 C 54.477 174.007,54.927 173.575,56.495 173.646 C 57.033 173.670,57.289 173.791,57.289 174.022 M57.855 175.420 C 58.407 176.082,58.508 176.118,59.161 175.890 C 59.795 175.669,59.905 175.699,60.223 176.186 C 60.844 177.133,60.573 177.425,59.072 177.425 C 58.486 177.425,58.125 177.599,57.662 178.106 C 57.178 178.636,56.980 178.727,56.767 178.514 C 56.408 178.155,56.408 175.333,56.767 174.974 C 57.144 174.597,57.180 174.611,57.855 175.420 M64.436 175.394 C 64.436 175.498,64.325 175.652,64.189 175.735 C 63.874 175.930,63.430 175.499,63.623 175.186 C 63.784 174.925,64.436 175.092,64.436 175.394 M68.406 176.394 C 67.952 176.744,67.952 176.744,68.406 177.094 C 69.106 177.634,69.994 177.439,69.994 176.744 C 69.994 176.050,69.106 175.854,68.406 176.394 M69.780 176.537 C 70.013 176.915,69.488 177.349,69.175 177.036 C 68.913 176.774,69.077 176.290,69.427 176.290 C 69.537 176.290,69.696 176.401,69.780 176.537 M37.734 178.720 C 37.554 178.783,37.611 178.961,37.904 179.254 C 38.453 179.803,38.571 179.805,38.571 179.264 C 38.571 178.812,38.187 178.562,37.734 178.720 M69.666 183.664 C 69.648 184.001,69.141 183.939,69.023 183.586 C 68.959 183.395,69.063 183.310,69.300 183.359 C 69.508 183.402,69.673 183.539,69.666 183.664 M34.739 184.769 C 34.381 185.199,35.053 185.798,35.449 185.402 C 35.648 185.203,35.605 185.135,35.269 185.121 C 35.026 185.111,34.955 185.052,35.111 184.989 C 35.433 184.859,35.497 184.458,35.195 184.458 C 35.086 184.458,34.880 184.598,34.739 184.769 M37.804 184.941 C 37.329 185.496,37.849 185.788,38.656 185.420 C 38.970 185.277,39.308 185.266,39.534 185.393 C 39.922 185.610,40.084 185.466,40.060 184.926 C 40.036 184.393,38.264 184.405,37.804 184.941 " stroke="none" fill="#cb2024" fill-rule="evenodd"></path><path id="path2" d="M59.225 89.832 C 59.096 90.073,58.990 90.577,58.990 90.951 C 58.990 91.448,58.807 91.762,58.310 92.116 L 57.629 92.600 57.629 95.519 L 57.629 98.438 56.948 98.922 C 56.297 99.386,56.268 99.479,56.268 101.087 C 56.268 102.725,56.250 102.777,55.587 103.120 C 55.007 103.420,54.906 103.603,54.906 104.357 C 54.906 105.186,54.800 105.373,53.893 106.135 C 53.607 106.376,53.545 107.079,53.545 110.119 L 53.545 113.811 54.226 114.315 L 54.906 114.818 54.906 119.787 L 54.906 124.756 55.587 125.241 C 56.256 125.717,56.268 125.762,56.268 127.734 C 56.268 130.310,56.205 130.459,55.116 130.459 C 54.405 130.459,54.144 130.588,53.736 131.140 C 53.267 131.774,53.131 131.821,51.744 131.828 C 50.255 131.835,49.461 132.150,49.461 132.732 C 49.461 132.942,49.579 132.919,49.876 132.650 C 50.174 132.380,50.713 132.275,51.789 132.275 C 53.195 132.275,53.317 132.233,53.772 131.594 C 54.168 131.038,54.418 130.913,55.136 130.913 C 56.448 130.913,56.721 130.378,56.721 127.811 L 56.721 125.718 55.927 125.112 L 55.133 124.507 55.133 119.471 L 55.133 114.436 54.453 113.933 L 53.772 113.429 53.772 110.040 L 53.772 106.650 54.453 106.147 C 55.001 105.742,55.133 105.476,55.133 104.784 C 55.133 104.094,55.256 103.846,55.757 103.527 C 56.655 102.956,56.714 102.817,56.718 101.266 C 56.722 99.668,56.866 99.149,57.305 99.149 C 57.895 99.149,58.083 98.253,58.083 95.428 C 58.083 92.711,58.105 92.574,58.593 92.317 C 59.293 91.948,59.437 91.680,59.441 90.735 C 59.445 89.782,59.625 89.526,60.047 89.877 C 60.290 90.078,60.352 91.530,60.352 97.006 L 60.352 103.883 59.671 104.368 C 59.026 104.827,58.990 104.935,58.990 106.436 C 58.990 107.957,58.964 108.034,58.311 108.405 C 57.261 109.003,57.259 112.241,58.310 112.989 C 58.987 113.472,58.990 113.484,58.990 115.712 C 58.990 117.933,58.996 117.954,59.662 118.428 C 60.293 118.877,60.337 119.010,60.399 120.649 C 60.455 122.122,60.536 122.431,60.919 122.635 C 62.044 123.234,63.074 124.519,63.074 125.323 C 63.074 126.143,63.621 126.939,64.017 126.694 C 64.143 126.616,64.035 126.410,63.772 126.225 C 63.444 125.996,63.301 125.648,63.301 125.078 C 63.301 124.372,63.114 124.083,61.940 122.972 L 60.579 121.685 60.579 120.180 C 60.579 118.771,60.535 118.643,59.898 118.172 C 59.218 117.669,59.217 117.665,59.217 115.329 C 59.217 113.920,59.127 112.989,58.990 112.989 C 57.853 112.989,57.360 109.839,58.352 108.914 C 58.626 108.660,58.932 108.452,59.033 108.452 C 59.134 108.452,59.217 107.738,59.217 106.865 C 59.217 105.388,59.264 105.237,59.898 104.672 L 60.579 104.066 60.579 96.867 C 60.579 90.512,60.536 89.652,60.220 89.531 C 59.649 89.312,59.476 89.364,59.225 89.832 M71.753 89.543 C 71.546 89.627,71.469 90.459,71.469 92.602 L 71.469 95.547 70.108 96.862 L 68.746 98.178 68.746 100.354 L 68.746 102.529 67.952 103.135 L 67.158 103.741 67.158 106.636 L 67.158 109.532 67.952 110.138 C 68.866 110.835,69.146 113.093,68.395 113.718 C 67.184 114.726,67.158 114.797,67.158 117.073 C 67.158 119.236,67.152 119.261,66.478 119.760 C 65.803 120.259,65.797 120.283,65.797 122.452 L 65.797 124.641 65.060 125.259 C 64.654 125.599,64.385 125.942,64.462 126.021 C 64.539 126.099,64.973 125.835,65.426 125.434 L 66.251 124.704 66.251 122.492 C 66.251 120.294,66.255 120.278,66.931 119.796 C 67.609 119.313,67.612 119.302,67.612 117.065 C 67.612 114.831,67.616 114.815,68.293 114.315 C 69.527 113.402,69.126 109.586,67.796 109.586 C 67.287 109.586,67.599 103.710,68.123 103.434 C 68.907 103.021,68.966 102.820,68.970 100.530 L 68.973 98.395 70.335 97.107 L 71.696 95.820 71.696 92.975 C 71.696 90.871,71.775 90.063,72.000 89.877 C 72.533 89.434,72.604 89.846,72.604 93.416 C 72.604 96.870,72.767 97.788,73.381 97.788 C 74.204 97.788,74.271 102.602,73.454 103.032 C 72.694 103.432,72.611 103.659,72.607 105.324 C 72.604 106.671,72.544 106.878,72.093 107.116 C 71.266 107.552,71.249 107.666,71.246 112.819 C 71.242 117.950,71.380 118.661,72.377 118.661 C 72.501 118.661,72.604 119.025,72.604 119.470 C 72.604 120.417,72.945 121.157,73.381 121.157 C 73.872 121.157,73.965 121.702,73.965 124.579 C 73.965 127.017,74.011 127.330,74.438 127.756 C 75.008 128.326,75.330 128.141,74.795 127.550 C 74.486 127.209,74.419 126.621,74.419 124.274 L 74.419 121.415 73.738 120.930 C 73.202 120.549,73.057 120.275,73.057 119.646 C 73.057 119.043,72.891 118.701,72.377 118.250 L 71.696 117.653 71.696 112.762 L 71.696 107.872 72.377 107.275 C 73.002 106.726,73.057 106.558,73.057 105.198 C 73.057 103.812,73.101 103.687,73.738 103.233 L 74.419 102.748 74.419 100.397 L 74.419 98.046 73.738 97.561 L 73.057 97.076 73.057 93.674 C 73.057 89.699,72.866 89.094,71.753 89.543 M24.731 98.242 L 24.246 98.922 21.349 98.922 L 18.453 98.922 17.846 99.603 L 17.240 100.284 14.389 100.284 C 11.315 100.284,10.516 100.547,11.045 101.385 C 11.244 101.702,11.840 101.768,15.013 101.820 L 18.747 101.882 19.358 101.196 C 20.557 99.851,23.369 100.298,23.369 101.834 C 23.369 102.872,23.691 103.233,24.616 103.233 C 25.397 103.233,27.226 104.731,27.226 105.371 C 27.226 106.123,24.130 105.859,23.448 105.048 L 22.875 104.368 16.585 104.368 C 10.000 104.368,9.302 104.477,9.302 105.511 C 9.302 105.631,8.898 105.729,8.404 105.729 C 7.558 105.729,6.580 106.360,6.580 106.906 C 6.580 107.007,6.175 107.090,5.681 107.090 C 4.836 107.090,3.857 107.722,3.857 108.267 C 3.857 108.369,3.474 108.455,3.006 108.459 C 1.601 108.471,0.905 109.303,1.758 109.951 C 2.059 110.179,3.339 110.254,7.048 110.259 L 11.940 110.267 12.443 110.947 C 12.828 111.468,13.125 111.628,13.707 111.628 C 14.890 111.628,23.369 120.083,23.369 121.263 C 23.369 121.876,23.521 122.163,24.050 122.554 L 24.731 123.058 24.731 126.523 C 24.731 130.050,24.499 130.913,23.553 130.913 C 23.452 130.913,23.369 131.319,23.369 131.814 C 23.369 132.552,23.246 132.806,22.689 133.218 C 22.049 133.691,22.008 133.814,22.008 135.258 C 22.008 136.368,21.910 136.876,21.657 137.087 C 20.339 138.185,20.420 137.656,20.420 145.156 L 20.420 152.052 21.214 152.755 C 21.846 153.315,22.008 153.626,22.008 154.282 C 22.008 154.933,22.150 155.210,22.689 155.608 C 23.329 156.081,23.369 156.203,23.369 157.650 C 23.369 159.097,23.410 159.219,24.050 159.692 C 24.597 160.096,24.731 160.363,24.731 161.050 C 24.731 162.244,25.036 162.450,26.802 162.450 C 28.241 162.450,28.358 162.490,28.815 163.131 C 29.268 163.768,29.394 163.812,30.776 163.812 C 32.623 163.812,34.260 165.129,34.260 166.614 C 34.260 167.241,34.405 167.515,34.940 167.896 C 35.502 168.296,35.621 168.539,35.621 169.286 C 35.621 169.832,35.711 170.136,35.848 170.051 C 36.405 169.707,35.934 167.669,35.297 167.669 C 34.936 167.669,34.714 167.179,34.714 166.387 C 34.714 165.643,34.326 164.946,33.911 164.946 C 33.729 164.946,33.579 164.859,33.579 164.752 C 33.579 163.946,32.433 163.358,30.860 163.358 C 29.539 163.358,29.228 163.288,29.105 162.961 C 28.835 162.241,28.266 162.011,26.740 162.004 C 25.108 161.996,24.957 161.880,24.957 160.626 C 24.957 160.266,24.801 159.841,24.609 159.680 C 23.634 158.861,23.596 158.772,23.596 157.338 C 23.596 155.937,23.113 154.963,22.419 154.963 C 22.318 154.963,22.235 154.556,22.235 154.057 C 22.235 153.337,22.096 153.027,21.554 152.545 L 20.874 151.939 20.874 145.063 L 20.874 138.187 21.554 137.684 C 22.192 137.213,22.235 137.085,22.235 135.673 C 22.235 134.283,22.288 134.117,22.915 133.558 C 23.421 133.108,23.596 132.752,23.596 132.175 C 23.596 131.571,23.747 131.290,24.277 130.913 L 24.957 130.429 24.957 126.602 L 24.957 122.776 24.277 122.292 C 23.695 121.877,23.596 121.660,23.596 120.794 C 23.596 120.080,23.490 119.741,23.237 119.644 C 23.040 119.568,20.993 117.631,18.690 115.340 C 14.970 111.641,14.418 111.174,13.759 111.174 C 13.200 111.174,12.895 111.008,12.518 110.498 L 12.018 109.821 6.973 109.760 C 2.667 109.708,1.929 109.650,1.929 109.359 C 1.929 109.121,2.217 108.998,2.886 108.949 C 3.645 108.894,3.943 108.741,4.320 108.212 C 4.692 107.689,4.969 107.544,5.595 107.544 C 6.199 107.544,6.540 107.378,6.991 106.863 C 7.433 106.360,7.787 106.183,8.352 106.183 C 8.917 106.183,9.272 106.005,9.714 105.502 L 10.311 104.821 16.563 104.821 L 22.814 104.821 23.412 105.502 C 23.958 106.124,24.132 106.183,25.454 106.183 C 26.775 106.183,26.949 106.241,27.496 106.863 C 28.495 108.002,30.547 107.668,30.368 106.397 C 30.297 105.900,30.166 105.835,29.099 105.774 C 28.091 105.716,27.891 105.629,27.784 105.204 C 27.715 104.929,27.357 104.531,26.989 104.319 C 26.317 103.934,26.117 103.385,26.550 103.117 C 26.823 102.948,28.361 103.417,28.361 103.668 C 28.361 104.034,29.533 104.392,29.855 104.125 C 30.294 103.761,29.812 102.902,28.481 101.675 C 27.086 100.389,26.477 100.444,26.319 101.872 L 26.205 102.893 25.224 102.963 C 23.941 103.056,23.571 102.750,23.839 101.817 C 24.318 100.147,20.164 99.411,19.054 100.970 L 18.566 101.656 15.012 101.594 C 12.032 101.542,11.458 101.477,11.458 101.191 C 11.458 100.911,11.995 100.831,14.481 100.737 L 17.504 100.624 18.111 99.885 L 18.718 99.145 21.595 99.147 L 24.473 99.149 24.957 98.469 C 25.407 97.837,25.544 97.788,26.853 97.788 C 28.179 97.788,28.287 97.828,28.665 98.469 C 28.886 98.843,29.171 99.149,29.297 99.149 C 29.595 99.149,30.176 99.730,30.176 100.028 C 30.176 100.154,30.482 100.439,30.856 100.660 C 31.231 100.881,31.537 101.195,31.537 101.358 C 31.537 101.521,31.781 101.766,32.079 101.902 C 32.378 102.038,32.733 102.393,32.869 102.691 C 33.004 102.989,33.213 103.233,33.331 103.233 C 33.818 103.233,34.260 103.993,34.260 104.830 C 34.260 105.812,34.674 106.181,35.776 106.184 C 36.262 106.185,36.762 106.539,37.860 107.659 C 38.655 108.469,39.395 109.132,39.505 109.132 C 39.615 109.132,39.705 110.185,39.705 111.472 C 39.705 113.808,39.706 113.812,40.386 114.315 L 41.066 114.818 41.066 119.682 L 41.066 124.547 40.386 125.050 C 39.295 125.856,39.733 126.829,41.186 126.829 C 42.342 126.829,46.512 130.969,46.512 132.116 C 46.512 133.099,47.099 133.636,48.174 133.636 C 49.332 133.636,49.223 133.224,48.043 133.138 C 47.098 133.070,47.077 133.051,47.006 132.176 C 46.895 130.824,42.442 126.375,41.198 126.375 C 40.370 126.375,39.733 125.723,40.358 125.515 C 41.434 125.156,41.520 124.723,41.520 119.682 C 41.520 114.516,41.578 114.796,40.283 113.718 C 40.011 113.491,39.932 112.938,39.932 111.270 L 39.932 109.115 38.854 108.102 C 37.707 107.023,37.628 106.944,36.960 106.205 C 36.662 105.877,36.255 105.729,35.645 105.729 C 34.689 105.729,34.487 105.489,34.487 104.357 C 34.487 103.820,33.937 103.150,31.435 100.632 L 28.384 97.561 26.800 97.561 C 25.298 97.561,25.190 97.597,24.731 98.242 M29.886 106.210 C 30.369 106.693,29.937 107.090,28.928 107.090 C 28.311 107.090,27.912 106.976,27.836 106.778 C 27.657 106.313,28.132 105.956,28.928 105.956 C 29.315 105.956,29.746 106.070,29.886 106.210 M19.285 108.678 C 18.662 109.301,19.099 110.493,19.951 110.493 C 20.067 110.493,20.225 110.690,20.301 110.931 C 20.377 111.171,20.779 111.568,21.193 111.812 C 21.639 112.076,22.010 112.515,22.105 112.890 C 22.476 114.368,24.407 115.622,25.203 114.901 C 25.567 114.572,25.621 114.594,25.903 115.185 C 26.518 116.473,29.418 116.071,29.224 114.725 C 29.186 114.463,28.926 114.135,28.646 113.996 C 28.024 113.687,26.546 112.192,26.546 111.871 C 26.546 111.743,26.265 111.457,25.922 111.236 C 25.579 111.015,24.690 110.247,23.946 109.530 L 22.595 108.225 21.167 108.225 C 20.042 108.225,19.643 108.321,19.285 108.678 M33.522 109.797 C 32.095 111.268,32.335 112.926,34.009 113.151 C 35.508 113.352,36.075 112.681,36.075 110.705 C 36.075 108.578,35.057 108.216,33.522 109.797 M24.901 117.049 C 24.415 117.542,24.392 118.060,24.841 118.432 C 25.426 118.918,25.865 118.533,25.865 117.534 C 25.865 116.532,25.562 116.379,24.901 117.049 M31.592 119.605 C 31.437 119.760,31.310 120.003,31.310 120.146 C 31.310 120.289,31.106 120.591,30.856 120.817 C 30.320 121.302,30.236 123.073,30.719 123.710 C 31.113 124.229,34.054 124.288,34.471 123.785 C 34.965 123.190,34.682 121.095,34.066 120.789 C 33.772 120.644,33.412 120.284,33.266 119.990 C 32.968 119.388,32.026 119.171,31.592 119.605 M69.244 119.616 C 69.095 119.765,68.973 120.102,68.973 120.365 C 68.973 120.628,68.823 121.042,68.640 121.284 C 67.841 122.341,68.446 124.107,69.607 124.107 C 70.293 124.107,70.562 123.451,70.562 121.779 C 70.562 120.180,69.849 119.011,69.244 119.616 M57.799 120.949 C 57.363 121.202,57.223 123.150,57.611 123.551 C 57.726 123.669,57.911 124.124,58.021 124.560 C 58.202 125.275,58.309 125.362,59.094 125.427 C 60.372 125.533,60.719 124.465,59.754 123.394 C 59.570 123.190,59.232 122.530,59.004 121.928 C 58.549 120.731,58.393 120.604,57.799 120.949 M33.018 125.154 C 32.816 125.356,32.687 125.629,32.732 125.762 C 32.990 126.536,34.714 126.513,34.714 125.736 C 34.714 124.840,33.685 124.487,33.018 125.154 M75.944 126.633 C 75.729 126.753,75.556 127.025,75.560 127.238 C 75.567 127.579,75.605 127.573,75.897 127.188 C 76.216 126.766,76.241 126.765,76.684 127.166 C 77.086 127.531,77.141 127.536,77.141 127.213 C 77.141 126.702,76.434 126.359,75.944 126.633 M68.820 128.020 C 68.567 128.301,68.297 128.710,68.220 128.928 C 68.025 129.481,66.695 129.448,65.962 128.871 C 65.206 128.277,65.237 128.262,64.796 129.418 C 64.486 130.229,64.242 130.488,63.512 130.780 C 62.377 131.234,62.509 131.275,62.063 130.334 C 61.853 129.891,61.458 129.443,61.186 129.339 C 60.914 129.235,60.500 128.937,60.265 128.676 C 59.632 127.973,59.444 128.271,59.444 129.977 C 59.444 131.414,59.398 131.554,58.707 132.201 C 58.301 132.581,57.786 133.161,57.562 133.491 C 57.253 133.945,56.951 134.096,56.314 134.116 C 55.824 134.131,55.663 134.189,55.927 134.254 C 56.580 134.414,56.948 134.766,56.948 135.228 C 56.948 135.694,57.778 135.872,60.805 136.052 C 62.387 136.146,62.864 136.266,63.456 136.716 C 63.853 137.019,64.290 137.266,64.425 137.266 C 64.561 137.266,64.789 137.521,64.931 137.833 C 65.310 138.665,65.570 138.526,65.570 137.493 C 65.570 136.912,65.713 136.460,65.967 136.237 C 66.185 136.046,66.759 135.538,67.241 135.108 C 67.934 134.491,68.203 134.374,68.530 134.549 C 68.758 134.671,69.461 134.770,70.093 134.770 C 70.940 134.770,71.362 134.890,71.696 135.224 C 72.975 136.504,75.440 134.861,75.440 132.729 C 75.440 131.447,75.044 130.835,74.590 131.413 C 73.834 132.374,73.010 132.077,72.724 130.739 C 72.636 130.328,72.311 129.823,71.992 129.605 C 71.676 129.389,70.984 128.829,70.454 128.361 C 69.317 127.358,69.401 127.375,68.820 128.020 M77.595 127.943 C 77.595 128.049,77.748 128.262,77.935 128.417 C 78.176 128.617,78.276 129.145,78.276 130.215 C 78.276 132.115,78.436 132.275,80.350 132.275 C 82.256 132.275,82.382 132.471,81.233 133.655 C 80.730 134.174,80.318 134.685,80.318 134.791 C 80.318 135.144,80.931 134.753,81.218 134.216 C 81.374 133.924,81.746 133.555,82.044 133.396 C 83.366 132.688,82.372 131.861,80.091 131.767 L 78.616 131.707 78.558 130.346 C 78.481 128.557,78.351 128.041,77.937 127.882 C 77.749 127.810,77.595 127.837,77.595 127.943 M48.351 134.973 C 47.816 135.508,47.926 136.046,48.614 136.264 C 48.935 136.366,49.183 136.282,49.387 136.003 C 49.780 135.465,49.766 134.989,49.372 135.508 C 49.206 135.726,48.960 135.905,48.826 135.905 C 48.384 135.905,48.315 135.495,48.692 135.118 C 48.895 134.915,49.007 134.694,48.940 134.627 C 48.873 134.560,48.608 134.716,48.351 134.973 M79.295 135.679 C 79.069 135.930,78.939 136.190,79.006 136.257 C 79.156 136.407,79.864 135.728,79.864 135.435 C 79.864 135.125,79.754 135.172,79.295 135.679 M78.321 138.024 C 78.283 139.324,78.193 139.645,77.765 140.001 C 77.360 140.340,77.331 140.429,77.624 140.435 C 78.317 140.449,78.526 139.865,78.445 138.138 L 78.366 136.472 78.321 138.024 M29.300 139.383 C 29.160 139.552,29.097 139.742,29.161 139.805 C 29.224 139.869,29.364 140.523,29.471 141.259 C 29.651 142.487,29.669 142.519,29.694 141.648 C 29.710 141.126,29.819 140.445,29.937 140.134 C 30.201 139.439,29.723 138.874,29.300 139.383 M57.006 140.329 C 57.008 140.828,57.055 141.006,57.109 140.723 C 57.163 140.441,57.161 140.033,57.104 139.816 C 57.047 139.599,57.003 139.830,57.006 140.329 M33.467 140.667 C 33.376 140.815,33.381 141.922,33.478 143.128 L 33.654 145.320 33.995 143.212 C 34.337 141.105,34.050 139.724,33.467 140.667 M54.056 140.605 C 53.900 140.661,53.772 140.813,53.772 140.943 C 53.772 141.091,53.891 141.080,54.093 140.912 C 54.349 140.700,54.431 140.729,54.496 141.054 C 54.548 141.320,54.634 141.373,54.739 141.206 C 54.936 140.892,54.449 140.464,54.056 140.605 M76.962 142.869 C 76.919 144.973,76.869 145.213,76.410 145.534 C 76.032 145.799,75.997 145.888,76.269 145.888 C 77.003 145.888,77.160 145.316,77.084 142.905 L 77.010 140.556 76.962 142.869 M60.710 142.179 C 60.631 142.385,60.681 142.901,60.821 143.325 C 60.961 143.750,61.013 144.347,60.936 144.652 C 60.857 144.969,60.896 145.207,61.028 145.207 C 61.155 145.207,61.261 144.875,61.263 144.470 C 61.267 143.502,61.429 143.287,62.478 142.850 C 63.219 142.542,63.313 142.431,63.074 142.144 C 62.672 141.659,60.900 141.685,60.710 142.179 M66.174 142.131 C 66.088 142.353,66.298 142.540,66.832 142.716 C 68.039 143.114,68.204 143.668,67.266 144.173 C 66.299 144.694,64.569 144.561,64.090 143.929 C 63.795 143.539,63.769 143.573,63.762 144.348 C 63.753 145.399,64.034 145.558,66.214 145.732 C 68.348 145.902,69.198 146.707,68.247 147.657 C 68.036 147.869,68.313 147.930,69.495 147.930 C 70.831 147.930,71.015 147.878,71.015 147.504 C 71.015 146.968,71.332 146.729,72.550 146.345 C 73.894 145.921,74.276 145.300,73.891 144.164 C 73.574 143.230,71.923 142.830,71.923 143.687 C 71.923 143.974,71.800 144.331,71.651 144.481 C 71.439 144.693,71.577 144.754,72.275 144.757 C 73.508 144.762,73.998 145.098,73.047 145.288 C 72.647 145.368,71.974 145.434,71.552 145.434 C 70.860 145.434,70.810 145.475,71.049 145.858 C 71.484 146.553,71.136 147.047,70.274 146.959 C 69.296 146.858,68.973 146.643,68.973 146.090 C 68.973 145.798,68.713 145.526,68.236 145.318 C 67.830 145.142,67.661 144.994,67.860 144.989 C 68.444 144.975,68.907 144.263,69.070 143.128 C 69.231 142.008,68.972 141.561,68.424 142.016 C 68.211 142.192,67.939 142.198,67.511 142.036 C 66.679 141.719,66.322 141.744,66.174 142.131 M24.776 142.984 C 24.598 143.162,24.504 144.107,24.504 145.724 L 24.504 148.192 25.507 149.195 C 26.058 149.747,26.609 150.199,26.730 150.199 C 27.034 150.199,27.226 150.771,27.226 151.675 C 27.226 152.231,27.394 152.569,27.850 152.935 C 28.256 153.262,28.374 153.472,28.187 153.539 C 26.980 153.971,26.920 155.235,28.077 155.845 C 28.358 155.993,28.588 156.260,28.588 156.440 C 28.588 156.620,28.887 156.921,29.252 157.110 C 29.618 157.299,29.978 157.648,30.054 157.886 C 30.328 158.749,31.685 158.645,31.912 157.743 C 32.029 157.276,31.935 157.054,31.458 156.674 C 30.641 156.022,30.699 155.871,31.764 155.871 L 32.672 155.871 32.675 156.835 C 32.680 158.294,32.862 158.439,34.868 158.581 L 36.642 158.707 36.711 159.662 C 36.769 160.459,36.925 160.731,37.652 161.307 C 38.856 162.261,39.031 162.211,40.881 160.383 C 42.765 158.521,42.770 157.995,40.913 157.132 C 40.392 156.890,39.858 156.456,39.727 156.168 C 39.535 155.748,39.308 155.644,38.582 155.644 C 37.839 155.644,37.586 155.522,37.173 154.963 C 36.765 154.410,36.505 154.282,35.790 154.282 C 34.734 154.282,34.178 154.019,33.125 153.023 C 32.603 152.529,32.059 152.247,31.537 152.199 C 30.842 152.136,30.734 152.042,30.671 151.446 C 30.488 149.727,29.267 147.198,28.439 146.820 C 28.168 146.697,27.884 146.401,27.809 146.163 C 27.733 145.925,27.418 145.614,27.109 145.473 C 26.672 145.275,26.546 145.046,26.546 144.457 C 26.546 143.292,25.412 142.348,24.776 142.984 M47.424 142.916 L 46.408 143.052 46.335 144.451 C 46.270 145.710,46.310 145.865,46.744 146.003 C 47.352 146.196,48.100 145.559,48.100 144.849 C 48.100 144.566,48.352 144.034,48.661 143.668 C 49.199 143.028,49.208 142.673,48.686 142.745 C 48.551 142.764,47.983 142.841,47.424 142.916 M37.440 143.999 C 37.443 144.704,37.764 145.368,37.952 145.061 C 38.288 144.513,38.215 143.511,37.833 143.436 C 37.530 143.377,37.437 143.510,37.440 143.999 M43.872 145.564 C 42.915 146.556,42.909 147.022,43.852 147.022 C 44.087 147.022,44.683 147.431,45.177 147.930 L 46.076 148.838 46.737 148.349 C 47.459 147.815,47.381 147.261,46.520 146.800 C 46.239 146.649,46.060 146.272,46.015 145.732 C 45.902 144.388,45.070 144.323,43.872 145.564 M56.702 146.273 C 56.413 146.641,56.419 146.653,56.758 146.387 C 57.039 146.167,57.176 146.159,57.298 146.356 C 57.387 146.501,57.320 146.708,57.148 146.817 C 56.942 146.947,56.927 147.016,57.105 147.019 C 57.558 147.024,57.702 146.544,57.353 146.195 C 57.064 145.906,56.983 145.916,56.702 146.273 M75.498 146.341 C 75.413 146.529,75.314 147.039,75.278 147.476 C 75.216 148.233,75.165 148.276,74.192 148.406 L 73.171 148.542 74.221 148.576 C 75.519 148.618,75.833 148.286,75.730 146.982 C 75.683 146.403,75.588 146.141,75.498 146.341 M50.093 149.043 C 49.942 152.699,49.191 154.111,48.077 152.830 C 47.539 152.212,47.192 152.243,47.192 152.911 C 47.192 153.140,46.835 153.642,46.398 154.025 C 44.721 155.498,46.067 158.513,48.591 158.940 C 49.096 159.025,49.703 159.288,49.939 159.525 C 50.406 159.991,51.495 160.099,51.878 159.716 C 52.009 159.585,52.954 159.446,53.978 159.408 C 56.767 159.305,56.785 158.707,54.056 156.807 C 53.650 156.525,53.321 156.224,53.325 156.139 C 53.349 155.634,54.110 155.092,54.962 154.974 C 56.071 154.820,56.260 153.766,55.352 152.800 C 55.027 152.453,54.906 152.006,54.906 151.148 C 54.906 150.463,54.805 149.972,54.663 149.972 C 54.351 149.972,53.772 149.395,53.772 149.085 C 53.772 148.953,53.491 148.777,53.148 148.692 C 52.805 148.607,52.320 148.314,52.070 148.041 C 51.821 147.767,51.428 147.477,51.198 147.395 C 50.968 147.313,50.726 147.043,50.661 146.794 C 50.388 145.750,50.197 146.504,50.093 149.043 M58.108 147.559 C 57.910 147.797,57.943 147.942,58.250 148.183 C 58.605 148.461,58.618 148.456,58.368 148.136 C 58.003 147.668,58.274 147.396,58.743 147.761 C 59.062 148.011,59.068 147.997,58.792 147.646 C 58.418 147.169,58.430 147.171,58.108 147.559 M38.865 148.341 C 38.672 148.957,38.671 149.213,38.860 149.330 C 39.276 149.587,39.478 149.314,39.478 148.497 C 39.478 147.428,39.174 147.351,38.865 148.341 M41.567 149.861 C 40.924 152.265,41.530 153.305,42.754 151.900 C 43.699 150.816,43.747 150.484,43.001 150.201 C 42.688 150.082,42.377 149.734,42.296 149.412 C 42.086 148.575,41.877 148.703,41.567 149.861 M72.280 149.531 C 71.902 149.913,71.893 149.972,72.216 149.972 C 72.420 149.972,72.697 149.767,72.830 149.518 C 73.136 148.947,72.853 148.954,72.280 149.531 M54.677 153.604 C 54.507 153.708,53.772 153.863,53.044 153.948 C 51.258 154.155,51.049 153.954,51.049 152.031 C 51.049 149.730,51.289 149.694,53.282 151.700 C 54.555 152.981,54.907 153.461,54.677 153.604 M66.352 150.445 C 66.268 150.581,66.319 150.811,66.465 150.956 C 66.668 151.157,66.692 151.117,66.567 150.789 C 66.417 150.395,66.493 150.368,67.457 150.477 C 68.037 150.542,68.456 150.506,68.389 150.397 C 68.212 150.112,66.533 150.152,66.352 150.445 M71.242 153.347 C 71.242 155.688,71.173 156.326,70.896 156.556 C 70.706 156.714,70.603 156.896,70.668 156.960 C 70.733 157.025,70.990 156.893,71.241 156.666 C 71.748 156.207,71.960 150.425,71.469 150.425 C 71.330 150.425,71.242 151.551,71.242 153.347 M48.192 154.850 C 48.477 155.284,48.759 155.417,49.394 155.417 C 50.052 155.417,50.373 155.581,50.950 156.211 C 51.478 156.787,51.869 157.005,52.371 157.005 C 53.143 157.005,53.388 157.239,53.181 157.779 C 53.069 158.072,52.658 158.140,50.996 158.140 L 48.949 158.140 47.850 157.062 C 46.726 155.961,46.445 155.120,47.011 154.555 C 47.428 154.138,47.784 154.227,48.192 154.850 M63.925 158.760 C 62.741 159.956,62.394 160.456,62.394 160.965 C 62.394 161.328,62.283 161.989,62.148 162.434 C 61.530 164.470,61.534 164.413,61.969 164.685 C 63.409 165.584,65.318 164.249,65.689 162.084 C 65.772 161.599,66.049 160.906,66.305 160.544 C 66.629 160.084,66.777 159.500,66.794 158.615 C 66.831 156.629,65.995 156.671,63.925 158.760 M70.051 157.363 C 69.957 157.457,69.881 158.148,69.881 158.897 C 69.881 159.846,69.767 160.385,69.505 160.674 C 69.299 160.902,69.232 161.089,69.357 161.089 C 70.015 161.089,70.356 160.219,70.289 158.713 C 70.252 157.876,70.145 157.268,70.051 157.363 M58.090 158.471 C 57.753 158.877,57.934 159.501,58.388 159.501 C 59.013 159.501,59.251 158.921,58.795 158.509 C 58.422 158.170,58.343 158.166,58.090 158.471 M64.357 161.373 C 64.584 161.739,64.460 162.935,64.157 163.304 C 63.792 163.749,63.301 163.204,63.301 162.355 C 63.301 161.340,63.959 160.728,64.357 161.373 M70.096 162.443 C 70.651 162.533,71.144 162.724,71.193 162.869 C 71.241 163.013,71.377 163.131,71.496 163.131 C 71.624 163.131,71.613 162.946,71.469 162.677 C 71.275 162.315,71.012 162.229,70.157 162.252 L 69.087 162.280 70.096 162.443 M72.324 164.039 C 72.592 164.288,72.870 164.492,72.942 164.492 C 73.014 164.492,72.964 164.288,72.830 164.039 C 72.697 163.789,72.419 163.585,72.212 163.585 C 71.901 163.585,71.920 163.662,72.324 164.039 M42.484 164.828 C 41.954 165.375,41.520 165.924,41.520 166.048 C 41.520 166.173,41.287 166.461,41.001 166.688 C 38.805 168.437,40.467 171.203,43.869 171.460 C 46.308 171.645,47.569 171.412,47.736 170.746 C 47.815 170.428,48.097 170.157,48.438 170.072 C 49.187 169.884,49.315 167.289,48.597 166.841 C 48.371 166.700,48.065 166.177,47.915 165.679 C 47.564 164.505,47.370 164.371,45.585 164.066 C 43.540 163.717,43.570 163.710,42.484 164.828 M73.792 165.526 C 74.069 165.846,74.334 165.995,74.379 165.859 C 74.489 165.530,73.989 164.946,73.598 164.946 C 73.385 164.946,73.446 165.129,73.792 165.526 M45.117 165.473 C 45.494 165.927,44.983 166.307,43.998 166.307 C 43.048 166.307,42.506 165.866,42.932 165.440 C 43.294 165.078,44.808 165.101,45.117 165.473 M66.761 165.550 C 66.573 165.626,66.478 166.186,66.478 167.210 C 66.478 168.819,66.610 169.030,67.619 169.030 C 67.852 169.030,68.315 169.387,68.648 169.824 C 69.896 171.460,71.303 170.791,71.333 168.546 C 71.353 167.065,70.997 166.534,69.984 166.534 C 69.714 166.534,69.218 166.279,68.881 165.967 C 68.308 165.436,67.459 165.269,66.761 165.550 M74.970 166.664 C 75.519 167.213,75.485 171.411,74.929 171.735 C 74.602 171.925,74.594 171.967,74.884 171.973 C 75.615 171.987,75.780 171.466,75.780 169.144 C 75.780 166.856,75.614 166.307,74.924 166.307 C 74.680 166.307,74.690 166.384,74.970 166.664 M60.877 166.818 C 60.104 168.025,60.151 168.566,61.054 168.837 C 62.840 169.372,64.301 168.080,63.289 166.860 C 62.954 166.456,61.130 166.424,60.877 166.818 M34.657 170.707 C 34.226 171.035,34.061 173.037,34.487 172.774 C 34.611 172.697,34.714 172.316,34.714 171.927 C 34.714 171.539,34.883 171.034,35.089 170.806 C 35.522 170.327,35.242 170.263,34.657 170.707 M74.135 172.337 C 74.041 172.432,73.965 173.187,73.965 174.017 C 73.965 175.429,73.922 175.556,73.284 176.028 C 72.643 176.502,72.604 176.621,72.604 178.085 C 72.604 179.200,72.506 179.719,72.258 179.925 C 72.068 180.083,71.965 180.265,72.029 180.330 C 72.474 180.774,73.057 179.532,73.057 178.144 C 73.057 176.772,73.108 176.621,73.751 176.080 C 74.424 175.514,74.443 175.447,74.375 173.831 C 74.337 172.915,74.229 172.243,74.135 172.337 M33.274 173.529 C 32.838 174.011,32.701 179.694,33.125 179.694 C 33.265 179.694,33.352 178.584,33.352 176.819 C 33.352 174.462,33.420 173.869,33.728 173.529 C 33.934 173.301,34.001 173.114,33.876 173.114 C 33.752 173.114,33.480 173.301,33.274 173.529 M60.410 173.649 C 59.856 173.923,59.869 174.066,60.602 175.778 C 60.999 176.703,62.228 177.740,62.734 177.576 C 63.257 177.407,63.071 176.600,62.392 176.098 C 61.652 175.551,61.628 175.006,62.309 174.229 C 62.881 173.574,61.446 173.136,60.410 173.649 M55.303 173.719 C 54.783 173.862,54.800 174.283,55.345 174.750 C 55.714 175.066,55.825 175.076,56.042 174.814 C 56.184 174.643,56.523 174.471,56.795 174.432 C 57.066 174.394,57.289 174.209,57.289 174.022 C 57.289 173.672,56.121 173.495,55.303 173.719 M49.374 174.680 C 50.053 174.778,50.477 175.017,50.926 175.553 C 51.405 176.125,51.720 176.290,52.333 176.290 C 53.005 176.290,53.320 176.499,54.460 177.697 C 55.197 178.471,55.858 179.045,55.930 178.973 C 56.300 178.602,53.133 175.837,52.338 175.837 C 51.704 175.837,51.432 175.693,51.049 175.156 C 50.621 174.554,50.442 174.479,49.502 174.509 L 48.440 174.543 49.374 174.680 M63.623 175.186 C 63.430 175.499,63.874 175.930,64.189 175.735 C 64.325 175.652,64.436 175.498,64.436 175.394 C 64.436 175.092,63.784 174.925,63.623 175.186 M47.873 176.052 C 47.873 176.668,47.749 177.018,47.478 177.170 C 47.260 177.291,47.158 177.466,47.250 177.558 C 47.341 177.649,47.621 177.539,47.872 177.313 C 48.352 176.878,48.534 175.156,48.100 175.156 C 47.975 175.156,47.873 175.559,47.873 176.052 M69.075 176.537 C 68.841 176.915,69.367 177.349,69.680 177.036 C 69.941 176.774,69.778 176.290,69.427 176.290 C 69.317 176.290,69.158 176.401,69.075 176.537 M46.209 178.370 C 45.980 178.620,45.852 178.883,45.924 178.955 C 46.077 179.108,46.965 178.353,46.965 178.070 C 46.965 177.760,46.655 177.883,46.209 178.370 M44.923 179.808 C 44.630 180.120,44.495 180.374,44.622 180.374 C 44.912 180.374,45.716 179.503,45.566 179.353 C 45.505 179.292,45.215 179.497,44.923 179.808 M56.268 179.397 C 56.268 179.617,57.736 181.055,57.961 181.055 C 58.227 181.055,57.750 180.437,57.005 179.815 C 56.600 179.477,56.268 179.288,56.268 179.397 M29.779 181.164 C 29.066 181.898,28.815 182.341,28.815 182.860 C 28.815 183.419,28.537 183.834,27.453 184.894 C 25.828 186.484,25.854 186.298,27.095 187.539 C 28.270 188.714,28.447 188.750,28.968 187.918 C 29.182 187.575,29.386 187.254,29.421 187.205 C 29.642 186.894,30.176 187.827,30.176 188.525 C 30.176 189.930,30.032 189.904,37.806 189.904 C 45.283 189.904,44.890 189.953,45.783 188.890 C 45.955 188.686,46.444 188.542,46.966 188.542 C 48.072 188.542,48.327 188.139,48.327 186.387 C 48.327 184.348,47.619 183.596,46.831 184.799 C 46.226 185.721,45.604 185.549,45.604 184.458 C 45.604 183.577,45.020 182.643,44.470 182.643 C 44.345 182.643,44.243 182.184,44.243 181.622 C 44.243 181.061,44.141 180.601,44.016 180.601 C 43.423 180.601,43.783 182.554,44.470 183.061 C 44.993 183.448,45.150 183.742,45.150 184.333 C 45.150 185.901,46.112 186.414,46.873 185.252 C 47.552 184.215,47.873 184.528,47.873 186.228 C 47.873 188.000,47.667 188.315,46.509 188.315 C 45.861 188.315,45.584 188.458,45.186 188.996 L 44.683 189.677 37.867 189.677 C 30.250 189.677,30.403 189.709,30.403 188.113 C 30.403 186.818,29.726 186.454,28.926 187.318 C 28.615 187.654,28.361 188.028,28.361 188.149 C 28.361 188.271,28.208 188.244,28.020 188.088 C 27.833 187.933,27.680 187.687,27.680 187.542 C 27.680 187.397,27.367 187.094,26.984 186.867 L 26.287 186.456 27.648 185.170 C 28.801 184.079,29.019 183.747,29.081 182.985 C 29.137 182.310,29.288 182.021,29.689 181.822 C 29.983 181.676,30.343 181.316,30.489 181.022 C 30.688 180.621,31.007 180.454,31.769 180.352 L 32.785 180.216 31.764 180.193 C 30.843 180.173,30.648 180.268,29.779 181.164 M71.412 180.731 C 70.606 181.550,71.739 183.577,72.874 183.345 C 73.518 183.214,73.716 183.302,74.476 184.062 C 75.464 185.050,75.415 185.366,74.271 185.366 C 73.665 185.366,73.325 185.531,72.873 186.047 L 72.276 186.727 65.367 186.727 C 59.257 186.727,58.411 186.684,58.044 186.352 C 57.543 185.898,57.459 186.363,57.953 186.857 C 58.220 187.124,59.522 187.181,65.342 187.181 L 72.406 187.181 72.979 186.500 C 73.413 185.984,73.742 185.820,74.342 185.820 C 75.050 185.820,75.780 185.416,75.780 185.024 C 75.780 184.469,73.708 182.870,72.990 182.870 C 72.036 182.870,71.752 182.563,71.656 181.428 C 71.616 180.950,71.506 180.636,71.412 180.731 M54.496 182.539 C 53.619 183.443,53.526 183.642,53.589 184.489 C 53.693 185.898,54.288 186.161,55.111 185.161 C 55.693 184.452,56.268 184.343,56.268 184.942 C 56.268 185.240,56.849 185.820,57.149 185.820 C 57.444 185.820,56.483 184.299,56.081 184.131 C 55.682 183.965,54.906 184.395,54.906 184.782 C 54.906 185.134,54.474 185.346,54.056 185.200 C 52.829 184.772,54.966 181.847,56.631 181.676 L 57.516 181.585 56.495 181.558 C 55.570 181.534,55.382 181.627,54.496 182.539 M65.343 183.546 C 65.343 183.832,66.371 184.094,66.817 183.923 C 67.476 183.670,67.149 183.324,66.251 183.324 C 65.752 183.324,65.343 183.424,65.343 183.546 M69.023 183.586 C 69.141 183.939,69.648 184.001,69.666 183.664 C 69.673 183.539,69.508 183.402,69.300 183.359 C 69.063 183.310,68.959 183.395,69.023 183.586 M35.205 184.884 C 34.979 185.027,35.036 185.112,35.432 185.218 C 36.520 185.509,37.890 185.325,37.890 184.888 C 37.890 184.631,35.610 184.628,35.205 184.884 M40.044 184.914 C 39.828 185.263,40.521 185.434,41.449 185.259 C 42.066 185.144,42.198 185.050,41.958 184.898 C 41.519 184.620,40.219 184.630,40.044 184.914 " stroke="none" fill="#ec9a2b" fill-rule="evenodd"></path><path id="path3" d="M32.604 126.607 C 32.255 126.711,31.762 127.059,31.510 127.380 C 31.178 127.801,30.837 127.964,30.284 127.964 C 29.130 127.964,26.092 131.098,26.092 132.288 C 26.092 132.924,25.946 133.204,25.411 133.600 L 24.731 134.103 24.731 136.804 L 24.731 139.505 25.779 140.523 C 26.987 141.698,27.453 141.682,27.453 140.464 C 27.453 139.543,27.774 139.081,28.413 139.081 C 28.642 139.081,28.893 138.902,28.972 138.684 C 29.194 138.067,30.936 136.420,31.254 136.527 C 31.446 136.592,31.537 137.157,31.537 138.278 C 31.537 140.080,31.789 140.534,32.716 140.403 C 33.182 140.337,33.232 140.222,33.175 139.340 C 33.102 138.200,33.461 137.566,33.950 137.972 C 34.133 138.124,34.260 138.674,34.260 139.321 C 34.260 140.343,34.299 140.417,34.884 140.484 C 35.446 140.549,35.520 140.663,35.631 141.633 C 35.794 143.043,37.311 144.006,37.327 142.709 C 37.334 142.180,39.117 140.446,39.445 140.649 C 39.602 140.746,39.786 141.548,39.863 142.468 C 40.057 144.778,40.448 144.800,42.380 142.611 C 42.593 142.369,43.049 141.912,43.392 141.596 C 43.826 141.197,44.016 140.798,44.016 140.287 C 44.016 139.604,44.708 138.627,45.193 138.627 C 45.808 138.627,45.370 134.086,44.697 133.487 C 44.199 133.044,44.016 132.678,44.016 132.129 C 44.016 131.052,40.942 127.964,39.869 127.964 C 39.399 127.964,38.926 127.744,38.468 127.312 C 37.718 126.604,34.079 126.167,32.604 126.607 M37.983 130.573 C 38.085 130.977,38.279 131.140,38.660 131.140 C 39.072 131.140,39.226 131.296,39.331 131.821 C 39.437 132.350,39.588 132.501,40.011 132.501 C 40.434 132.501,40.586 132.653,40.691 133.176 C 40.786 133.652,40.995 133.893,41.400 133.995 L 41.974 134.139 41.974 136.950 C 41.974 139.525,41.939 139.762,41.558 139.762 C 41.329 139.762,41.068 139.836,40.977 139.927 C 40.886 140.018,40.281 140.095,39.634 140.097 C 38.647 140.101,38.422 140.181,38.242 140.593 C 38.122 140.865,37.742 141.141,37.391 141.212 C 36.896 141.310,36.756 141.466,36.756 141.912 C 36.756 142.227,36.640 142.484,36.500 142.484 C 36.330 142.484,36.290 142.192,36.382 141.621 C 36.540 140.634,36.082 139.762,35.407 139.762 C 35.089 139.762,34.956 139.523,34.838 138.736 C 34.516 136.587,32.347 136.338,32.483 138.466 C 32.524 139.116,32.464 139.674,32.350 139.704 C 32.235 139.735,32.133 138.818,32.123 137.667 C 32.107 135.827,32.054 135.563,31.689 135.492 C 30.841 135.326,30.248 135.655,30.033 136.411 C 29.858 137.022,29.695 137.165,29.105 137.223 C 28.578 137.274,28.363 137.424,28.292 137.790 C 28.239 138.063,28.182 137.343,28.165 136.188 C 28.136 134.213,28.161 134.090,28.599 134.090 C 28.915 134.090,29.169 133.839,29.390 133.312 C 29.599 132.811,29.894 132.508,30.220 132.461 C 30.538 132.415,30.773 132.181,30.855 131.829 C 30.938 131.479,31.195 131.221,31.545 131.139 C 31.896 131.057,32.131 130.821,32.177 130.507 C 32.298 129.669,37.772 129.732,37.983 130.573 M69.711 134.927 C 69.929 134.984,70.286 134.984,70.505 134.927 C 70.723 134.870,70.545 134.823,70.108 134.823 C 69.671 134.823,69.492 134.870,69.711 134.927 M52.562 135.321 C 52.386 135.780,52.936 136.197,53.273 135.859 C 53.463 135.669,53.467 135.517,53.285 135.298 C 52.962 134.909,52.717 134.917,52.562 135.321 M58.090 136.215 C 57.270 137.035,58.040 138.816,59.246 138.892 C 60.087 138.944,63.121 136.314,62.349 136.202 C 61.051 136.013,58.284 136.022,58.090 136.215 M53.991 136.590 C 53.702 136.769,53.705 136.842,54.018 137.156 C 54.327 137.465,54.416 137.470,54.645 137.194 C 55.000 136.766,54.481 136.287,53.991 136.590 M71.280 137.256 C 69.752 137.503,69.203 139.534,70.444 140.347 C 71.326 140.925,74.685 140.731,75.352 140.064 L 75.844 139.571 75.228 138.520 C 74.381 137.074,73.714 136.861,71.280 137.256 M74.092 138.571 C 74.315 138.914,74.659 139.319,74.855 139.471 C 75.195 139.734,74.375 139.906,73.364 139.784 C 72.864 139.724,71.417 138.230,71.735 138.103 C 72.631 137.745,73.691 137.955,74.092 138.571 M49.131 139.020 C 48.887 139.082,48.414 139.401,48.078 139.731 C 47.743 140.060,47.005 140.737,46.438 141.237 C 45.302 142.236,45.169 142.584,45.794 142.919 C 46.320 143.200,47.254 142.972,47.110 142.597 C 46.918 142.098,48.828 140.442,49.595 140.442 C 50.833 140.442,50.927 140.888,49.888 141.828 C 48.889 142.732,48.886 143.199,49.880 143.123 C 51.034 143.035,51.373 143.967,50.851 145.787 C 50.522 146.935,53.233 149.523,53.644 148.453 C 53.858 147.896,53.795 147.720,53.205 147.207 C 52.298 146.418,52.463 146.079,53.715 146.159 L 54.793 146.228 54.863 147.196 C 54.916 147.926,55.069 148.253,55.487 148.526 C 56.203 148.996,56.193 149.471,55.464 149.654 C 54.692 149.848,54.696 152.353,55.468 152.784 C 55.715 152.922,56.041 153.188,56.193 153.375 C 56.428 153.664,56.510 153.602,56.738 152.959 C 56.960 152.334,57.089 152.229,57.488 152.353 C 58.889 152.792,58.910 152.785,58.811 151.934 C 58.722 151.173,58.758 151.126,59.648 150.859 C 60.160 150.706,60.579 150.500,60.579 150.401 C 60.579 150.303,60.834 149.946,61.146 149.610 C 62.076 148.606,61.751 147.476,60.532 147.476 C 59.500 147.476,57.110 145.088,56.491 143.439 C 56.243 142.778,55.847 142.031,55.612 141.778 C 55.376 141.525,55.121 141.004,55.044 140.619 C 54.787 139.336,54.474 139.199,53.642 140.005 L 52.903 140.721 52.314 139.788 C 51.708 138.828,50.772 138.602,49.131 139.020 M54.790 141.714 C 54.824 142.282,55.013 142.703,55.359 142.983 C 55.891 143.414,56.381 145.168,56.062 145.498 C 55.776 145.794,55.133 145.415,55.133 144.950 C 55.133 144.694,54.898 144.426,54.562 144.298 C 54.248 144.178,53.893 143.824,53.774 143.509 C 53.654 143.195,53.412 142.938,53.235 142.938 C 52.875 142.938,52.566 142.329,52.764 142.010 C 52.834 141.897,53.031 141.804,53.203 141.804 C 53.374 141.804,53.586 141.574,53.674 141.293 C 54.041 140.116,54.708 140.368,54.790 141.714 M68.796 141.616 C 68.851 141.782,69.092 142.019,69.332 142.144 C 69.617 142.293,69.741 142.555,69.692 142.905 C 69.483 144.382,70.575 145.449,71.468 144.641 C 72.249 143.934,72.074 143.152,71.249 143.667 C 70.690 144.016,70.586 143.901,70.246 142.560 C 70.004 141.609,69.883 141.454,69.332 141.389 C 68.884 141.337,68.726 141.404,68.796 141.616 M70.150 146.227 C 69.931 146.706,69.944 146.834,70.223 146.941 C 70.795 147.160,71.280 146.837,71.201 146.288 C 71.098 145.565,70.468 145.528,70.150 146.227 M57.459 146.829 C 57.052 147.236,56.389 146.629,56.756 146.187 C 56.985 145.910,57.072 145.914,57.373 146.215 C 57.639 146.481,57.660 146.628,57.459 146.829 M58.736 148.076 C 58.538 148.314,58.402 148.327,58.163 148.129 C 57.925 147.932,57.912 147.795,58.110 147.556 C 58.308 147.318,58.445 147.305,58.683 147.503 C 58.921 147.701,58.934 147.838,58.736 148.076 M64.776 150.136 C 64.277 150.189,63.784 150.384,63.680 150.568 C 63.576 150.753,63.244 150.998,62.943 151.113 C 62.575 151.253,62.394 151.499,62.394 151.859 C 62.394 152.730,61.604 153.292,60.805 152.990 C 59.992 152.683,59.052 153.182,59.671 153.591 C 60.210 153.948,62.447 153.623,62.884 153.124 C 63.412 152.521,65.523 152.519,66.169 153.120 C 66.420 153.355,66.833 153.612,67.087 153.692 C 67.340 153.773,67.657 154.066,67.791 154.344 C 67.996 154.770,68.038 154.642,68.050 153.537 C 68.060 152.748,68.208 152.007,68.424 151.678 C 69.364 150.244,68.236 149.767,64.776 150.136 M68.400 150.415 C 68.590 150.723,66.708 151.200,66.423 150.915 C 66.300 150.792,66.268 150.581,66.352 150.445 C 66.540 150.141,68.215 150.117,68.400 150.415 M51.062 162.775 C 50.492 163.462,52.572 163.901,53.429 163.274 C 53.840 162.974,53.839 162.956,53.374 162.707 C 52.703 162.348,51.385 162.387,51.062 162.775 M55.171 162.876 C 54.750 163.143,55.489 163.420,56.103 163.225 C 56.462 163.111,56.490 163.041,56.241 162.883 C 55.847 162.633,55.557 162.632,55.171 162.876 M62.494 176.177 C 62.736 176.364,63.022 176.645,63.130 176.801 C 63.266 176.998,63.305 176.954,63.257 176.656 C 63.219 176.421,62.933 176.140,62.621 176.032 C 62.082 175.846,62.076 175.854,62.494 176.177 M36.680 179.164 C 36.094 179.750,37.406 181.058,38.568 181.048 C 39.219 181.042,39.292 180.999,38.968 180.810 C 38.749 180.683,38.571 180.380,38.571 180.136 C 38.571 179.845,38.416 179.694,38.117 179.694 C 37.865 179.694,37.663 179.542,37.663 179.353 C 37.663 179.013,36.965 178.879,36.680 179.164 M62.511 182.183 C 62.423 182.325,62.661 182.418,63.118 182.420 C 63.955 182.424,64.295 182.593,64.480 183.097 C 64.575 183.358,64.902 183.419,65.881 183.360 C 67.119 183.284,67.372 183.088,66.985 182.507 C 66.759 182.168,62.702 181.874,62.511 182.183 M35.742 183.844 C 33.583 185.044,34.611 186.418,37.227 185.831 C 38.358 185.577,37.518 185.278,36.065 185.418 C 35.319 185.490,34.861 185.430,34.703 185.239 C 34.314 184.771,34.912 184.580,36.532 184.654 C 37.990 184.720,39.251 184.201,39.251 183.534 C 39.251 183.100,36.671 183.328,35.742 183.844 M39.872 184.140 C 39.603 184.409,39.937 184.685,40.531 184.685 C 40.888 184.685,41.069 184.578,41.011 184.402 C 40.906 184.084,40.111 183.901,39.872 184.140 M42.361 185.211 C 42.270 185.448,41.944 185.502,41.086 185.419 C 39.989 185.314,39.490 185.602,40.259 185.897 C 41.053 186.201,43.040 185.449,42.601 185.010 C 42.537 184.945,42.429 185.036,42.361 185.211 " stroke="none" fill="#9942c0" fill-rule="evenodd"></path></g></svg>