<svg id="svg" version="1.1" xmlns="http://www.w3.org/2000/svg" xmlns:xlink="http://www.w3.org/1999/xlink" width="400" height="226.8041237113402" viewBox="0, 0, 400,226.8041237113402"><g id="svgg"><path id="path0" d="M125.495 109.196 C 124.877 109.814,125.225 110.601,126.716 111.960 L 128.191 113.303 128.191 116.077 C 128.191 119.400,128.250 119.635,129.004 119.292 C 129.440 119.093,129.552 118.871,129.552 118.199 C 129.552 117.735,129.695 117.011,129.871 116.590 C 130.046 116.170,130.261 115.347,130.348 114.763 L 130.506 113.701 128.127 111.322 C 126.374 109.569,125.681 109.009,125.495 109.196 M113.137 111.961 C 112.993 112.335,113.328 112.633,113.660 112.428 C 113.901 112.279,113.724 111.628,113.443 111.628 C 113.345 111.628,113.207 111.778,113.137 111.961 M114.502 113.140 C 114.009 113.633,114.357 116.406,114.940 116.628 C 115.264 116.751,115.584 117.063,115.651 117.320 C 115.719 117.578,116.017 117.881,116.314 117.994 C 116.611 118.107,116.953 118.458,117.073 118.775 C 117.193 119.091,117.552 119.449,117.870 119.570 L 118.449 119.790 118.385 122.456 C 118.321 125.115,118.319 125.123,117.697 125.421 C 117.174 125.671,117.073 125.863,117.073 126.606 C 117.073 127.439,116.437 128.417,115.896 128.417 C 115.795 128.417,115.712 128.567,115.712 128.750 C 115.712 129.188,115.002 129.552,114.146 129.552 C 113.090 129.552,110.267 132.435,110.267 133.514 C 110.267 134.289,109.793 134.997,109.275 134.997 C 108.767 134.997,108.452 134.464,108.452 133.606 C 108.452 132.924,108.319 132.665,107.771 132.275 C 107.229 131.889,107.090 131.622,107.090 130.969 C 107.090 130.159,106.721 129.694,103.949 127.011 C 103.782 126.849,103.376 126.435,103.048 126.092 C 102.671 125.697,102.214 125.468,101.806 125.468 C 101.006 125.468,100.284 125.099,100.284 124.690 C 100.284 124.303,99.784 124.107,98.797 124.107 C 98.206 124.107,97.912 123.949,97.525 123.426 C 97.054 122.789,96.926 122.745,95.519 122.745 C 94.112 122.745,93.984 122.789,93.513 123.426 C 93.102 123.982,92.846 124.107,92.117 124.107 C 91.422 124.107,91.165 124.220,90.955 124.617 C 90.584 125.322,90.319 125.460,89.331 125.464 C 88.651 125.467,88.425 125.579,88.229 126.010 C 88.093 126.308,87.738 126.664,87.440 126.799 C 87.141 126.935,86.897 127.143,86.897 127.262 C 86.897 128.219,84.741 128.536,83.957 127.694 C 83.702 127.421,83.494 127.115,83.494 127.013 C 83.494 126.912,82.770 126.829,81.885 126.829 C 80.382 126.829,80.238 126.785,79.679 126.149 L 79.082 125.468 72.094 125.468 L 65.105 125.468 64.888 126.039 C 64.768 126.353,64.422 126.705,64.119 126.820 C 63.815 126.936,63.505 127.225,63.430 127.462 C 63.354 127.700,63.039 128.010,62.730 128.151 C 62.420 128.292,62.167 128.560,62.167 128.747 C 62.167 128.934,61.873 129.238,61.515 129.424 C 61.156 129.609,60.809 129.968,60.743 130.221 C 60.677 130.474,60.371 130.776,60.064 130.893 C 59.757 131.010,59.451 131.317,59.383 131.576 C 59.315 131.835,59.041 132.128,58.773 132.227 C 58.504 132.326,58.161 132.658,58.008 132.965 C 57.783 133.420,57.535 133.535,56.666 133.591 C 55.791 133.648,55.517 133.777,55.134 134.316 C 54.766 134.832,54.463 134.987,53.711 135.041 C 52.579 135.123,52.305 135.680,53.196 136.086 C 53.989 136.448,53.992 137.421,53.201 137.721 C 52.886 137.841,52.532 138.196,52.412 138.510 C 52.293 138.824,52.074 139.081,51.926 139.081 C 51.777 139.081,51.077 139.694,50.369 140.442 L 49.081 141.804 45.997 141.804 L 42.912 141.804 42.428 141.123 C 42.032 140.568,41.781 140.442,41.066 140.442 C 40.351 140.442,40.100 140.317,39.705 139.762 C 39.371 139.293,39.031 139.082,38.612 139.085 C 37.154 139.093,37.313 139.390,40.500 142.603 L 43.605 145.733 44.956 145.482 C 46.572 145.181,46.917 145.280,47.009 146.072 C 47.051 146.430,47.294 146.778,47.613 146.936 C 47.907 147.082,48.267 147.442,48.414 147.736 C 48.832 148.573,50.453 148.518,50.552 147.663 C 50.668 146.660,51.056 146.505,52.631 146.830 C 54.179 147.150,54.742 146.978,54.865 146.148 C 54.908 145.865,55.103 145.661,55.331 145.661 C 55.839 145.661,56.268 145.225,56.268 144.708 C 56.268 144.330,56.570 144.299,60.336 144.299 L 64.405 144.299 64.889 144.980 C 65.235 145.465,65.561 145.661,66.024 145.661 C 66.487 145.661,66.813 145.465,67.158 144.980 C 67.549 144.432,67.808 144.299,68.490 144.299 C 69.519 144.299,69.881 143.976,69.881 143.057 C 69.881 141.738,70.390 141.350,72.120 141.350 C 73.560 141.350,73.683 141.309,74.156 140.669 C 74.869 139.705,77.141 139.779,77.141 140.766 C 77.141 141.209,77.663 141.350,79.299 141.350 C 80.799 141.350,81.282 141.592,81.566 142.486 C 81.645 142.735,81.881 142.939,82.091 142.940 C 82.301 142.940,82.647 143.247,82.860 143.620 C 83.200 144.218,83.369 144.299,84.278 144.299 C 84.845 144.299,85.309 144.399,85.309 144.521 C 85.309 144.833,87.431 147.022,87.733 147.022 C 88.144 147.022,88.258 147.629,88.262 149.820 C 88.266 152.080,88.342 152.326,89.109 152.566 C 89.411 152.660,89.620 152.907,89.620 153.169 C 89.620 153.438,89.852 153.701,90.209 153.837 C 90.533 153.960,90.845 154.240,90.902 154.458 C 90.959 154.677,91.307 155.028,91.674 155.239 C 92.259 155.575,92.343 155.751,92.343 156.648 C 92.343 157.559,92.419 157.714,93.023 158.026 C 93.635 158.343,93.704 158.487,93.704 159.461 C 93.704 160.972,93.511 161.089,91.018 161.089 L 88.877 161.089 87.207 162.771 L 85.536 164.452 85.536 166.512 C 85.536 168.516,85.517 168.590,84.855 169.179 C 84.350 169.630,84.175 169.985,84.175 170.563 C 84.175 171.142,84.002 171.492,83.494 171.937 C 82.874 172.481,82.813 172.661,82.813 173.951 L 82.813 175.367 84.401 176.955 L 85.990 178.543 88.315 178.608 C 90.445 178.667,90.659 178.714,90.855 179.160 C 90.973 179.428,91.356 179.817,91.706 180.024 C 92.335 180.396,92.343 180.426,92.343 182.639 L 92.343 184.878 94.713 187.277 L 97.084 189.677 103.194 189.677 C 108.084 189.677,109.355 189.615,109.561 189.366 C 109.854 189.014,109.581 188.700,108.764 188.450 C 108.469 188.360,108.138 187.927,107.913 187.337 C 107.246 185.592,107.566 184.947,108.617 185.921 C 109.646 186.876,110.660 186.934,111.331 186.077 C 111.779 185.505,112.054 185.366,112.741 185.366 C 113.974 185.366,113.992 185.199,112.884 184.090 C 111.672 182.878,110.958 182.794,110.231 183.778 C 109.582 184.655,108.809 184.679,108.405 183.834 C 108.128 183.254,107.997 183.206,106.530 183.142 C 104.467 183.053,104.368 182.950,104.368 180.896 L 104.368 179.204 105.371 178.201 C 106.344 177.227,106.416 177.198,107.810 177.194 C 109.403 177.191,109.682 177.081,109.903 176.372 C 109.987 176.104,110.254 175.833,110.498 175.770 C 110.742 175.706,111.043 175.389,111.166 175.064 C 111.299 174.713,111.565 174.475,111.825 174.475 C 112.334 174.475,112.535 174.054,112.535 172.990 C 112.535 171.905,112.979 171.753,116.142 171.753 C 118.346 171.753,118.927 171.684,119.163 171.396 C 119.324 171.200,119.642 170.869,119.870 170.659 C 122.347 168.378,123.653 166.919,123.653 166.430 C 123.653 165.529,121.799 163.812,120.827 163.812 C 120.388 163.812,119.911 163.654,119.748 163.455 C 119.587 163.259,119.265 162.928,119.033 162.718 C 118.561 162.292,118.234 161.952,117.802 161.437 C 117.630 161.233,117.141 161.089,116.618 161.089 C 115.614 161.089,115.258 160.677,115.258 159.516 C 115.258 158.598,115.964 157.913,116.908 157.913 C 117.528 157.913,117.857 157.686,118.888 156.551 C 119.914 155.423,120.251 155.190,120.859 155.190 C 121.582 155.190,123.653 153.541,123.653 152.966 C 123.653 152.663,124.221 152.467,125.101 152.467 C 126.032 152.467,126.375 152.116,126.375 151.163 C 126.375 150.521,126.636 150.143,128.066 148.713 L 129.757 147.022 131.197 147.022 C 133.316 147.022,134.045 145.626,132.501 144.526 C 131.582 143.872,131.618 143.752,133.166 142.255 C 134.632 140.838,134.646 140.442,133.232 140.442 C 132.050 140.442,130.459 138.770,130.459 137.527 C 130.459 136.425,130.918 135.906,131.894 135.901 C 133.331 135.894,133.431 135.536,132.179 134.884 C 131.297 134.424,130.890 133.265,130.961 131.417 L 131.027 129.700 132.048 129.162 C 132.609 128.866,133.291 128.366,133.563 128.051 C 134.046 127.490,134.062 127.488,134.300 127.933 C 134.665 128.614,134.603 128.817,133.934 129.142 C 133.599 129.305,133.254 129.707,133.167 130.035 C 133.080 130.363,132.742 131.024,132.415 131.505 C 131.736 132.505,131.678 132.852,132.161 133.037 C 132.681 133.237,133.127 132.979,133.273 132.397 C 133.346 132.105,133.633 131.813,133.917 131.742 C 134.199 131.671,134.532 131.379,134.657 131.093 C 134.837 130.679,135.093 130.559,135.906 130.506 C 136.767 130.450,136.990 130.333,137.314 129.769 C 137.526 129.400,137.846 129.098,138.025 129.098 C 139.071 129.098,138.791 127.420,137.550 126.253 C 136.237 125.018,136.349 125.130,135.163 123.867 C 134.629 123.298,134.014 122.765,133.797 122.682 C 133.580 122.598,133.303 122.270,133.183 121.953 C 133.062 121.636,132.706 121.278,132.392 121.159 C 131.897 120.970,131.821 120.804,131.821 119.908 C 131.821 118.036,130.701 118.218,129.958 120.210 C 129.480 121.493,129.532 121.988,130.171 122.223 C 130.759 122.441,130.906 122.751,130.910 123.785 C 130.913 124.533,131.020 124.768,131.468 125.008 C 132.442 125.529,132.451 126.346,131.488 126.785 C 131.193 126.919,130.889 127.229,130.811 127.475 C 130.524 128.380,129.289 128.242,128.981 127.271 C 128.753 126.553,128.318 126.879,128.182 127.869 C 127.996 129.226,126.276 130.913,125.080 130.913 C 123.803 130.913,123.653 130.648,123.653 128.400 C 123.653 125.025,123.287 124.297,122.292 125.695 C 122.025 126.069,121.658 126.375,121.476 126.375 C 121.295 126.375,121.048 126.633,120.928 126.949 C 120.808 127.264,120.499 127.600,120.241 127.696 C 119.982 127.791,119.649 128.112,119.500 128.409 C 119.351 128.706,119.114 128.987,118.973 129.033 C 118.559 129.169,118.448 128.527,118.785 127.939 C 118.956 127.641,119.200 127.165,119.328 126.882 C 119.456 126.599,119.818 126.270,120.132 126.150 C 120.593 125.975,120.703 125.779,120.703 125.138 C 120.703 124.485,120.802 124.317,121.254 124.204 C 122.074 123.998,122.447 123.438,122.577 122.215 C 122.716 120.910,123.033 120.487,123.602 120.848 C 124.016 121.111,124.110 122.902,123.774 124.132 C 123.643 124.610,123.700 124.747,124.067 124.843 C 124.600 124.982,125.014 124.640,125.014 124.061 C 125.014 123.819,125.181 123.653,125.423 123.653 C 126.123 123.653,126.375 123.156,126.375 121.776 C 126.375 120.406,126.066 119.796,125.371 119.796 C 125.175 119.796,125.014 119.612,125.014 119.387 C 125.014 118.870,124.586 118.434,124.077 118.434 C 123.843 118.434,123.655 118.229,123.612 117.924 C 123.572 117.643,123.320 117.317,123.052 117.199 C 122.784 117.082,122.395 116.699,122.188 116.349 C 121.800 115.692,120.184 115.462,118.718 115.855 C 118.024 116.041,117.992 117.073,118.681 117.073 C 118.999 117.073,119.239 117.297,119.411 117.754 C 119.567 118.165,119.831 118.434,120.080 118.434 C 120.593 118.434,120.826 118.996,120.559 119.594 C 120.376 120.003,120.176 119.866,118.488 118.179 C 116.395 116.086,116.344 115.983,117.300 115.791 C 118.595 115.532,118.254 114.517,116.905 114.614 C 115.865 114.688,115.814 114.662,115.373 113.841 C 114.912 112.979,114.774 112.868,114.502 113.140 M97.483 125.922 C 97.945 126.440,98.285 126.602,98.909 126.602 C 99.536 126.602,99.869 126.763,100.326 127.283 C 100.754 127.771,101.127 127.964,101.642 127.964 C 102.640 127.964,104.368 129.668,104.368 130.651 C 104.368 131.105,104.594 131.559,105.048 132.013 C 105.515 132.479,105.729 132.917,105.729 133.404 C 105.729 133.912,105.933 134.301,106.441 134.766 C 107.091 135.359,107.143 135.508,107.035 136.464 L 106.917 137.512 108.422 137.446 C 109.912 137.380,109.927 137.373,109.988 136.699 C 110.111 135.356,110.267 134.997,110.725 134.997 C 111.142 134.997,111.176 135.163,111.197 137.323 C 111.209 138.602,111.286 139.873,111.367 140.148 L 111.514 140.647 112.082 140.199 C 112.394 139.952,112.505 139.778,112.329 139.813 C 111.519 139.971,111.330 135.746,112.114 135.015 C 112.382 134.766,112.725 134.073,112.877 133.475 C 113.229 132.088,113.657 132.090,114.010 133.479 C 114.388 134.969,115.485 135.550,115.485 134.261 C 115.485 134.131,115.343 134.152,115.155 134.308 C 114.637 134.738,114.351 134.377,114.351 133.296 C 114.351 131.727,115.453 131.700,115.511 133.267 C 115.529 133.749,115.573 133.831,115.649 133.522 C 115.906 132.477,116.158 132.534,117.545 133.945 C 118.850 135.276,118.926 135.318,119.240 134.897 C 119.673 134.317,119.661 133.957,119.222 134.322 C 118.927 134.567,118.677 134.403,117.577 133.246 C 116.863 132.496,116.102 131.821,115.886 131.746 C 115.382 131.573,115.576 131.062,116.291 130.680 C 116.596 130.516,116.846 130.317,116.846 130.238 C 116.846 130.158,116.988 129.898,117.162 129.661 C 117.633 129.017,118.208 129.587,118.208 130.699 C 118.208 131.400,118.336 131.654,118.888 132.048 C 119.392 132.406,119.573 132.720,119.583 133.254 C 119.595 133.865,119.627 133.904,119.786 133.512 C 119.982 133.026,120.967 131.470,121.403 130.955 C 121.611 130.710,121.723 130.716,122.031 130.991 C 122.358 131.283,122.443 131.283,122.708 130.994 C 122.943 130.738,123.083 130.723,123.332 130.930 C 123.877 131.382,123.728 131.888,123.086 131.765 C 122.446 131.643,122.352 131.854,122.859 132.275 C 123.046 132.430,123.199 132.854,123.199 133.218 C 123.199 133.945,123.723 134.888,124.235 135.085 C 124.438 135.163,125.074 134.690,125.907 133.841 C 127.556 132.161,127.737 132.321,127.737 135.451 C 127.737 138.154,127.545 138.554,126.541 137.941 C 125.870 137.532,125.434 137.499,121.384 137.541 L 116.960 137.588 121.497 137.711 L 126.035 137.833 127.320 139.163 C 128.678 140.568,128.887 140.601,129.454 139.505 L 129.806 138.823 130.898 139.916 C 132.141 141.161,132.082 141.577,130.665 141.577 C 129.959 141.577,129.697 141.706,129.291 142.255 C 129.015 142.628,128.613 142.990,128.397 143.058 C 127.839 143.235,127.697 143.774,128.103 144.179 C 128.604 144.680,128.843 144.613,129.279 143.847 C 129.783 142.962,129.883 142.981,131.024 144.171 C 132.212 145.411,132.045 145.659,130.017 145.667 C 128.213 145.674,126.375 147.153,126.375 148.597 C 126.375 150.337,125.268 150.146,125.203 148.395 L 125.165 147.362 125.073 148.262 C 124.962 149.347,123.595 151.333,122.960 151.333 C 122.665 151.333,122.353 150.954,121.958 150.120 C 120.875 147.830,120.077 147.632,119.856 149.598 C 119.661 151.327,119.872 151.747,120.988 151.848 C 121.674 151.909,121.508 151.946,120.408 151.974 C 118.696 152.018,117.198 151.400,116.933 150.539 C 116.856 150.289,116.641 149.913,116.457 149.702 C 116.159 149.363,116.162 149.259,116.483 148.801 C 116.939 148.150,116.949 147.390,116.506 147.022 C 115.976 146.583,116.093 146.367,117.073 145.975 C 118.213 145.518,118.375 144.619,117.357 144.402 C 116.371 144.191,115.712 143.876,115.712 143.616 C 115.712 143.485,115.942 143.285,116.222 143.172 L 116.733 142.967 116.230 142.953 C 115.954 142.945,115.626 143.117,115.501 143.335 C 114.858 144.458,114.871 144.457,113.919 143.527 L 113.015 142.644 112.833 143.302 C 112.324 145.145,112.761 147.249,113.652 147.249 C 114.232 147.249,114.577 147.717,114.577 148.502 C 114.577 149.051,114.857 149.501,115.825 150.509 C 117.234 151.975,117.215 151.929,116.676 152.545 C 116.367 152.898,116.354 152.971,116.619 152.877 C 117.828 152.448,117.956 152.451,118.202 152.910 C 118.375 153.234,118.379 153.508,118.216 153.814 C 117.833 154.529,117.945 154.622,118.529 154.074 C 119.073 153.562,119.078 153.562,119.323 154.019 C 119.688 154.702,119.630 154.917,118.987 155.253 C 118.667 155.421,118.281 155.807,118.130 156.111 C 117.752 156.870,115.659 156.950,115.519 156.211 C 115.402 155.599,115.078 155.424,114.052 155.420 C 113.046 155.416,112.309 155.082,112.309 154.631 C 112.309 154.108,112.980 153.602,113.673 153.602 C 114.031 153.602,114.387 153.500,114.464 153.375 C 114.541 153.250,114.856 153.148,115.163 153.148 C 115.773 153.148,115.529 152.525,114.521 151.507 C 114.302 151.286,114.124 150.892,114.124 150.631 C 114.124 150.350,113.942 150.109,113.677 150.039 C 113.432 149.975,113.167 149.722,113.089 149.476 C 113.012 149.231,112.894 149.083,112.829 149.149 C 112.763 149.214,112.817 149.574,112.947 149.949 C 113.244 150.799,112.544 151.892,111.846 151.670 C 111.564 151.581,111.344 151.695,111.169 152.023 C 110.948 152.437,110.745 152.497,109.802 152.431 C 108.838 152.364,108.686 152.413,108.630 152.806 C 108.594 153.054,108.259 153.402,107.884 153.578 C 106.001 154.465,106.953 155.564,109.814 155.803 C 111.692 155.961,111.880 156.239,110.210 156.390 C 109.555 156.449,108.279 156.630,107.375 156.792 C 106.026 157.033,105.475 157.032,104.312 156.790 C 103.531 156.627,102.459 156.446,101.929 156.386 C 100.977 156.280,100.964 156.267,100.964 155.394 C 100.964 154.864,101.072 154.509,101.233 154.509 C 102.458 154.509,103.407 153.582,103.504 152.290 C 103.627 150.671,104.799 149.291,106.053 149.291 C 107.074 149.291,106.971 148.091,105.919 147.724 L 105.248 147.490 105.337 144.817 C 105.386 143.347,105.566 141.458,105.736 140.620 C 106.103 138.814,106.077 138.774,104.711 138.979 C 103.424 139.172,103.208 139.590,104.011 140.334 C 104.872 141.132,104.814 143.782,103.924 144.224 C 103.618 144.376,103.191 144.736,102.976 145.024 C 102.635 145.479,102.278 145.577,100.242 145.774 L 97.901 146.001 97.670 146.958 C 97.334 148.350,97.161 148.447,95.180 148.347 L 93.440 148.259 93.559 149.172 C 93.935 152.059,93.964 152.121,94.952 152.201 C 95.821 152.271,96.653 152.760,96.653 153.199 C 96.653 153.314,96.807 153.560,96.994 153.748 C 97.204 153.958,97.334 154.515,97.334 155.206 C 97.334 157.067,96.638 156.828,93.603 153.925 C 92.223 152.606,90.916 151.381,90.698 151.203 C 90.002 150.636,90.130 147.771,90.866 147.435 L 91.431 147.178 90.650 146.419 C 90.167 145.950,89.642 145.661,89.273 145.661 C 88.373 145.661,86.670 143.877,86.670 142.934 C 86.670 142.425,86.470 142.025,85.990 141.577 C 85.479 141.100,85.309 140.738,85.309 140.131 C 85.309 139.495,85.164 139.214,84.628 138.818 C 83.997 138.352,83.948 138.211,83.948 136.885 C 83.948 135.582,84.008 135.401,84.628 134.848 C 85.112 134.417,85.309 134.035,85.309 133.527 C 85.309 133.030,85.516 132.615,85.990 132.161 C 86.453 131.718,86.670 131.289,86.670 130.822 C 86.670 129.828,88.527 127.964,89.517 127.964 C 90.018 127.964,90.403 127.765,90.832 127.283 C 91.276 126.785,91.641 126.602,92.193 126.602 C 92.746 126.602,93.111 126.420,93.555 125.922 C 94.101 125.309,94.296 125.241,95.519 125.241 C 96.742 125.241,96.937 125.309,97.483 125.922 M67.599 127.154 C 67.879 127.491,67.223 128.417,66.704 128.417 C 66.580 128.417,66.478 128.520,66.478 128.644 C 66.478 129.240,68.179 128.869,68.566 128.189 C 68.778 127.816,69.098 127.510,69.275 127.510 C 69.453 127.510,69.726 127.357,69.881 127.170 C 70.208 126.775,73.837 126.682,74.419 127.053 C 74.836 127.319,74.517 127.947,73.774 128.324 C 73.136 128.648,73.388 128.870,74.400 128.875 C 75.344 128.879,75.612 129.022,75.981 129.722 C 76.189 130.118,76.448 130.233,77.133 130.233 C 77.962 130.233,78.729 130.674,78.729 131.150 C 78.729 131.263,79.036 131.514,79.410 131.707 C 79.784 131.901,80.091 132.197,80.091 132.366 C 80.091 132.535,80.241 132.798,80.425 132.950 C 80.609 133.103,80.825 133.576,80.904 134.001 C 81.009 134.556,81.198 134.812,81.575 134.906 C 82.173 135.057,82.432 135.547,82.236 136.164 C 82.039 136.784,81.907 136.716,80.431 135.224 C 79.384 134.166,78.931 133.861,78.396 133.855 C 78.018 133.850,77.453 133.701,77.141 133.522 C 76.829 133.344,76.109 133.195,75.540 133.190 C 74.971 133.186,74.307 133.032,74.065 132.849 C 73.540 132.452,71.997 132.391,71.874 132.763 C 71.826 132.906,71.186 133.074,70.451 133.135 C 69.507 133.213,68.817 133.435,68.093 133.894 C 67.530 134.251,66.758 134.544,66.376 134.545 C 65.148 134.547,64.094 134.974,63.303 135.789 C 61.645 137.500,57.570 136.465,59.139 134.731 C 59.345 134.503,59.628 134.317,59.766 134.317 C 59.904 134.317,60.118 134.087,60.241 133.806 C 60.364 133.525,60.695 133.195,60.976 133.072 C 61.354 132.906,61.486 132.657,61.486 132.113 C 61.486 131.284,62.345 130.328,63.851 129.484 C 64.406 129.172,64.824 128.732,64.964 128.312 C 65.384 127.042,66.940 126.359,67.599 127.154 M78.354 127.850 C 78.802 128.037,79.521 128.191,79.951 128.191 C 81.412 128.191,81.936 128.794,81.055 129.463 C 79.998 130.265,76.687 129.693,76.687 128.708 C 76.687 127.633,77.202 127.369,78.354 127.850 M122.246 129.419 C 122.190 130.183,122.088 130.359,121.668 130.419 C 121.086 130.501,120.893 128.773,121.424 128.241 C 121.895 127.771,122.322 128.383,122.246 129.419 M128.960 129.684 C 129.268 130.487,129.112 138.574,128.785 138.699 C 128.122 138.953,127.964 138.320,127.964 135.422 L 127.964 132.534 127.245 131.972 L 126.525 131.409 127.528 130.371 C 128.638 129.222,128.761 129.163,128.960 129.684 M120.703 131.274 C 120.703 131.668,120.153 131.928,119.792 131.705 C 119.618 131.597,119.659 131.416,119.925 131.123 C 120.340 130.664,120.703 130.735,120.703 131.274 M95.335 131.310 C 95.390 131.600,95.705 131.741,96.502 131.833 C 98.451 132.057,98.471 133.636,96.524 133.636 C 95.918 133.636,95.544 133.838,94.830 134.552 C 93.680 135.702,93.810 135.904,95.703 135.908 C 97.380 135.912,97.655 136.016,97.879 136.733 C 97.963 137.001,98.271 137.281,98.565 137.355 C 98.872 137.432,99.156 137.715,99.232 138.019 C 99.305 138.311,99.617 138.664,99.925 138.805 C 100.389 139.016,100.497 139.246,100.554 140.148 C 100.639 141.475,101.480 141.805,101.594 140.556 C 101.712 139.263,101.863 138.931,102.457 138.661 C 103.290 138.281,102.797 137.720,101.630 137.720 C 101.005 137.720,100.669 137.586,100.427 137.240 C 100.242 136.976,99.777 136.569,99.393 136.336 C 98.139 135.573,98.671 134.548,100.325 134.540 C 101.582 134.534,101.807 134.223,100.991 133.620 C 100.602 133.332,100.284 132.970,100.284 132.814 C 100.284 132.659,100.082 132.468,99.836 132.390 C 99.589 132.312,99.174 131.947,98.913 131.580 C 98.322 130.751,95.183 130.514,95.335 131.310 M113.982 131.262 C 114.134 131.657,113.620 131.937,113.106 131.740 C 112.658 131.568,112.924 130.913,113.443 130.913 C 113.666 130.913,113.908 131.070,113.982 131.262 M112.535 133.264 C 112.535 134.362,112.174 134.902,111.701 134.510 C 111.251 134.137,111.316 132.571,111.793 132.304 C 112.372 131.981,112.535 132.192,112.535 133.264 M126.017 132.185 C 126.558 132.393,126.466 132.618,125.387 133.728 C 124.645 134.491,124.334 134.680,124.139 134.485 C 123.787 134.133,123.805 132.342,124.163 132.198 C 124.574 132.032,125.600 132.025,126.017 132.185 M93.988 132.437 C 93.540 132.598,93.657 132.955,94.158 132.955 C 94.407 132.955,94.611 132.859,94.611 132.742 C 94.611 132.451,94.331 132.314,93.988 132.437 M92.569 133.976 C 92.338 134.255,92.354 134.317,92.655 134.317 C 92.858 134.317,93.023 134.163,93.023 133.976 C 93.023 133.789,92.985 133.636,92.938 133.636 C 92.890 133.636,92.725 133.789,92.569 133.976 M91.006 135.643 C 90.736 136.022,90.314 136.396,90.068 136.474 C 89.663 136.602,89.620 136.825,89.620 138.800 L 89.620 140.983 90.835 142.142 C 91.504 142.779,92.171 143.525,92.318 143.800 C 92.678 144.472,92.945 144.429,93.357 143.631 C 93.656 143.054,93.849 142.954,94.781 142.894 C 96.626 142.776,96.218 142.176,94.169 141.993 C 91.929 141.793,91.890 141.729,91.885 138.300 C 91.881 135.118,91.722 134.637,91.006 135.643 M77.043 136.504 C 77.471 136.958,77.822 137.223,77.822 137.093 C 77.822 136.963,78.104 136.758,78.448 136.638 C 79.069 136.422,80.998 137.873,80.998 138.556 C 80.998 138.680,81.255 138.898,81.569 139.041 C 81.883 139.184,82.247 139.537,82.378 139.824 C 82.509 140.112,82.839 140.445,83.110 140.565 C 83.667 140.810,83.825 141.301,83.506 141.797 C 83.334 142.065,82.963 141.812,81.621 140.511 C 79.966 138.907,79.717 138.779,77.822 138.575 C 77.443 138.534,77.232 138.355,77.186 138.036 C 77.139 137.700,76.851 137.478,76.222 137.289 C 75.248 136.998,75.057 136.500,75.723 135.994 C 76.245 135.597,76.156 135.563,77.043 136.504 M50.077 136.499 C 49.615 136.961,49.963 137.266,50.953 137.266 C 51.818 137.266,51.978 137.200,51.915 136.869 C 51.837 136.458,50.406 136.170,50.077 136.499 M36.127 138.216 C 36.267 138.637,36.756 138.707,36.756 138.306 C 36.756 138.108,36.594 137.947,36.396 137.947 C 36.199 137.947,36.077 138.068,36.127 138.216 M93.855 138.098 C 93.547 138.406,93.702 139.713,94.063 139.851 C 94.899 140.172,95.753 139.994,96.003 139.446 C 96.139 139.148,96.494 138.793,96.792 138.657 C 97.787 138.204,97.382 137.947,95.670 137.947 C 94.755 137.947,93.938 138.015,93.855 138.098 M96.653 141.010 C 96.653 141.262,96.918 141.350,97.674 141.350 C 98.431 141.350,98.695 141.262,98.695 141.010 C 98.695 140.758,98.431 140.669,97.674 140.669 C 96.918 140.669,96.653 140.758,96.653 141.010 M57.855 142.025 C 58.278 142.293,57.642 142.832,56.674 143.027 C 56.335 143.095,55.659 143.511,55.171 143.952 C 54.580 144.486,54.062 144.753,53.617 144.753 C 53.171 144.753,52.732 144.980,52.297 145.434 C 51.706 146.051,51.510 146.115,50.195 146.115 C 48.887 146.115,48.679 146.048,48.065 145.434 C 47.625 144.994,47.154 144.753,46.733 144.753 C 46.361 144.753,45.831 144.521,45.497 144.212 C 44.637 143.414,45.065 143.311,49.801 143.172 C 53.802 143.054,53.903 143.039,54.768 142.428 C 55.686 141.779,57.161 141.586,57.855 142.025 M99.419 142.092 C 99.006 142.590,99.493 143.145,99.946 142.692 C 100.255 142.383,100.261 142.294,99.985 142.065 C 99.737 141.859,99.607 141.865,99.419 142.092 M98.005 143.518 C 97.800 143.764,97.787 143.935,97.959 144.108 C 98.250 144.399,98.695 144.171,98.695 143.732 C 98.695 143.247,98.325 143.132,98.005 143.518 M121.638 143.585 C 120.772 144.260,121.128 144.571,122.211 144.085 C 122.925 143.764,123.218 143.725,123.424 143.924 C 123.633 144.125,123.678 144.080,123.616 143.732 C 123.506 143.113,122.352 143.027,121.638 143.585 M113.938 144.428 C 114.122 145.107,113.791 146.568,113.454 146.568 C 113.171 146.568,112.969 145.205,113.127 144.362 C 113.296 143.460,113.686 143.492,113.938 144.428 M93.790 144.856 C 93.550 145.481,93.962 145.661,95.632 145.661 C 97.345 145.661,97.667 145.522,97.424 144.887 C 97.232 144.386,93.981 144.358,93.790 144.856 M103.361 147.418 C 103.500 147.698,103.783 148.114,103.991 148.343 C 104.532 148.941,104.460 149.336,103.687 150.014 C 103.144 150.490,103.006 150.795,103.006 151.515 C 103.006 152.642,102.020 153.829,101.083 153.829 C 100.363 153.829,100.359 153.230,101.078 152.832 C 102.201 152.210,102.276 149.435,101.193 148.579 C 100.555 148.075,100.309 147.299,100.672 146.936 C 101.070 146.538,103.105 146.902,103.361 147.418 M100.238 148.656 C 100.740 149.157,100.594 152.407,100.057 152.694 C 99.107 153.203,98.695 152.640,98.695 150.832 C 98.695 148.797,99.394 147.811,100.238 148.656 M99.925 154.193 C 100.421 154.384,100.374 155.100,99.830 155.644 C 98.888 156.585,99.205 157.650,100.451 157.730 C 101.369 157.789,101.592 157.902,101.982 158.507 C 102.395 159.147,102.576 159.227,103.849 159.332 C 105.080 159.433,105.335 159.537,105.855 160.155 C 106.351 160.745,106.612 160.862,107.427 160.862 C 108.172 160.862,108.530 160.996,108.938 161.425 C 110.531 163.105,112.762 161.912,112.762 159.382 C 112.762 158.299,113.583 157.207,114.652 156.868 C 115.671 156.545,115.714 157.751,114.697 158.137 C 114.157 158.343,114.123 158.451,114.120 160.006 C 114.116 161.834,114.022 162.088,113.260 162.326 C 112.546 162.549,112.684 163.376,113.500 163.765 C 113.843 163.929,114.124 164.153,114.124 164.262 C 114.124 165.415,117.741 165.614,118.321 164.492 C 118.515 164.118,118.750 163.812,118.844 163.812 C 118.937 163.812,119.283 164.118,119.611 164.492 C 120.054 164.997,120.407 165.173,120.978 165.173 C 122.216 165.173,122.860 166.687,121.946 167.446 C 121.563 167.764,121.436 167.691,121.061 166.935 C 120.601 166.006,118.738 166.110,118.211 167.095 C 117.915 167.648,117.824 167.669,115.709 167.669 C 113.770 167.669,113.463 167.724,113.084 168.143 C 112.318 168.989,113.079 169.256,116.266 169.260 C 119.363 169.264,119.898 169.425,119.241 170.151 C 118.856 170.576,118.558 170.618,115.946 170.618 L 113.075 170.618 112.571 171.299 C 112.295 171.673,111.918 171.980,111.735 171.980 C 111.551 171.980,111.401 172.137,111.401 172.330 C 111.401 172.523,111.100 172.854,110.732 173.065 C 110.364 173.276,109.962 173.671,109.838 173.943 C 109.715 174.214,109.429 174.496,109.203 174.569 C 108.977 174.641,108.618 175.008,108.405 175.382 C 108.085 175.947,107.875 176.064,107.177 176.064 C 106.441 176.064,106.171 176.238,105.017 177.458 C 103.912 178.627,103.644 178.806,103.359 178.569 C 102.979 178.254,103.392 177.107,103.952 176.921 C 104.551 176.721,102.478 175.169,101.605 175.162 C 100.947 175.157,100.655 175.009,100.225 174.459 C 99.756 173.860,99.556 173.773,98.791 173.835 L 97.901 173.908 98.639 174.311 C 99.044 174.533,99.376 174.867,99.376 175.053 C 99.376 175.240,99.629 175.508,99.939 175.649 C 100.885 176.080,100.845 177.388,99.875 177.760 C 99.458 177.920,98.695 177.482,98.695 177.082 C 98.695 176.903,98.402 176.604,98.044 176.419 C 97.685 176.233,97.337 175.873,97.271 175.619 C 96.999 174.581,96.653 175.197,96.653 176.720 C 96.653 178.196,96.685 178.291,97.217 178.425 C 97.555 178.509,97.835 178.781,97.916 179.103 C 98.027 179.546,98.236 179.661,99.110 179.763 C 99.693 179.831,100.388 179.954,100.654 180.037 C 100.968 180.134,101.246 180.058,101.448 179.819 C 102.186 178.945,102.376 178.786,102.682 178.786 C 103.376 178.786,103.093 180.878,102.305 181.569 L 101.604 182.184 102.628 183.208 C 103.446 184.027,103.808 184.231,104.435 184.231 C 105.281 184.231,105.857 184.706,105.653 185.235 C 105.478 185.691,104.110 186.030,103.028 185.885 C 101.210 185.641,100.182 186.411,101.703 186.878 C 102.181 187.024,102.672 187.028,103.094 186.887 C 103.521 186.745,104.011 186.751,104.511 186.904 C 105.220 187.121,105.315 187.088,105.818 186.445 C 106.517 185.552,107.090 185.719,107.090 186.815 C 107.090 188.385,107.333 188.315,101.871 188.315 L 96.928 188.315 95.203 186.601 L 93.477 184.887 93.481 182.914 C 93.484 180.791,93.548 180.584,94.328 180.173 C 94.803 179.923,94.839 179.752,94.846 177.700 C 94.853 175.458,95.017 174.933,95.803 174.639 C 96.115 174.521,96.200 174.222,96.200 173.235 L 96.200 171.980 94.402 171.980 L 92.604 171.980 91.679 172.923 C 91.029 173.587,90.754 174.061,90.754 174.522 C 90.754 175.739,88.776 177.425,87.347 177.425 C 86.058 177.425,85.309 177.128,85.309 176.618 C 85.309 176.432,85.051 176.163,84.736 176.020 C 83.646 175.523,83.608 172.540,84.685 172.026 C 85.227 171.767,85.309 171.596,85.309 170.726 C 85.309 169.876,85.412 169.648,85.990 169.221 C 86.663 168.723,86.670 168.695,86.672 166.548 L 86.674 164.379 87.656 163.415 L 88.638 162.450 90.822 162.450 C 92.506 162.450,93.072 162.530,93.298 162.799 C 94.132 163.791,94.199 163.833,94.522 163.565 C 94.752 163.374,94.838 162.712,94.838 161.136 C 94.838 158.921,95.114 158.140,95.894 158.140 C 96.062 158.140,96.200 157.999,96.200 157.826 C 96.200 157.654,96.551 157.245,96.981 156.917 C 97.621 156.428,97.774 156.148,97.832 155.360 C 97.903 154.374,97.941 154.343,99.414 154.082 C 99.498 154.068,99.727 154.118,99.925 154.193 M97.432 158.358 C 95.769 159.031,95.678 164.352,97.322 164.782 C 97.575 164.848,97.897 165.193,98.037 165.548 L 98.291 166.194 98.544 165.627 C 98.683 165.315,98.858 165.009,98.933 164.946 C 99.008 164.884,99.134 164.657,99.213 164.443 C 99.292 164.228,99.718 163.902,100.160 163.717 C 100.602 163.532,100.964 163.230,100.964 163.045 C 100.964 162.820,101.383 162.622,102.235 162.446 C 104.117 162.055,105.876 162.484,105.578 163.261 C 105.509 163.439,105.574 163.585,105.720 163.585 C 106.298 163.585,105.823 162.554,105.072 162.179 C 104.648 161.968,104.194 161.687,104.062 161.555 C 103.931 161.424,103.439 161.316,102.970 161.316 C 102.168 161.316,102.102 161.262,101.875 160.421 C 101.642 159.554,101.600 159.523,100.564 159.456 C 99.652 159.398,99.449 159.295,99.195 158.763 C 98.886 158.115,98.342 157.990,97.432 158.358 M91.233 158.677 C 91.031 158.921,91.026 159.048,91.217 159.166 C 91.587 159.395,92.046 158.887,91.743 158.584 C 91.579 158.420,91.423 158.448,91.233 158.677 M99.057 159.387 C 99.517 159.699,100.117 159.955,100.391 159.955 C 101.316 159.955,101.208 160.265,99.786 161.700 C 98.619 162.877,98.236 163.131,97.624 163.131 L 96.880 163.131 96.880 161.612 C 96.880 160.273,96.952 160.018,97.490 159.457 C 98.221 158.693,98.046 158.701,99.057 159.387 M117.995 162.808 C 118.453 163.359,117.896 163.577,116.020 163.581 C 114.417 163.585,113.857 163.292,114.250 162.657 C 114.483 162.280,117.664 162.408,117.995 162.808 M118.082 164.018 C 118.610 164.873,117.169 165.195,115.372 164.622 L 114.464 164.333 115.145 164.166 C 115.519 164.074,115.927 163.965,116.052 163.923 C 116.548 163.758,117.961 163.824,118.082 164.018 M110.493 164.167 C 110.493 164.303,112.087 165.854,112.227 165.854 C 112.272 165.854,112.309 165.445,112.309 164.946 L 112.309 164.039 111.401 164.039 C 110.902 164.039,110.493 164.096,110.493 164.167 M109.677 166.307 C 109.748 166.619,109.808 167.054,109.810 167.274 C 109.811 167.494,110.017 167.848,110.267 168.062 C 111.384 169.018,110.296 171.278,108.565 171.594 C 107.955 171.706,107.718 171.549,106.285 170.084 L 104.686 168.450 103.959 168.875 C 102.989 169.441,103.002 170.327,103.986 170.690 C 104.276 170.797,104.377 171.028,104.326 171.468 C 104.223 172.367,103.392 172.440,102.856 171.596 C 102.633 171.246,102.320 170.877,102.161 170.777 C 102.002 170.677,101.872 170.455,101.872 170.283 C 101.872 169.813,101.224 169.259,100.844 169.404 C 100.420 169.567,100.381 171.950,100.794 172.493 C 100.965 172.718,101.482 172.893,102.097 172.933 C 102.953 172.990,103.164 173.100,103.414 173.625 C 103.707 174.239,103.744 174.248,105.815 174.248 L 107.919 174.248 109.660 172.459 L 111.401 170.670 111.401 169.412 C 111.401 168.273,111.337 168.108,110.720 167.669 C 110.346 167.402,110.038 167.012,110.036 166.802 C 110.034 166.593,109.923 166.268,109.790 166.081 C 109.599 165.814,109.575 165.863,109.677 166.307 M120.772 166.838 C 120.930 167.251,120.690 167.576,120.091 167.763 C 119.817 167.849,119.531 168.110,119.457 168.344 C 119.331 168.740,119.117 168.761,116.326 168.642 C 112.684 168.487,112.298 168.350,115.504 168.349 L 117.867 168.349 118.721 167.441 C 119.589 166.519,120.541 166.239,120.772 166.838 M96.449 167.703 C 95.848 169.425,96.373 171.305,97.570 171.722 C 99.293 172.322,99.540 169.342,97.897 167.792 C 96.854 166.810,96.762 166.804,96.449 167.703 M120.930 168.346 C 120.930 168.442,120.773 168.651,120.580 168.811 C 120.091 169.218,119.599 168.747,120.004 168.259 C 120.275 167.932,120.930 167.994,120.930 168.346 M85.552 172.858 C 84.996 173.897,85.537 175.663,86.491 175.918 C 87.829 176.277,88.498 175.402,87.377 174.759 C 86.928 174.501,86.656 174.130,86.567 173.652 C 86.379 172.654,85.873 172.258,85.552 172.858 M93.462 173.437 C 93.866 173.922,93.675 175.851,93.193 176.153 C 92.524 176.572,92.012 176.053,91.934 174.877 C 91.839 173.440,92.752 172.580,93.462 173.437 M90.995 176.858 C 90.995 176.982,90.737 177.117,90.421 177.156 C 90.012 177.207,89.847 177.122,89.847 176.858 C 89.847 176.594,90.012 176.508,90.421 176.559 C 90.737 176.598,90.995 176.733,90.995 176.858 M96.445 180.566 C 96.218 180.992,96.499 181.509,96.957 181.509 C 97.366 181.509,97.766 180.735,97.514 180.432 C 97.175 180.023,96.705 180.082,96.445 180.566 " stroke="none" fill="#c62024" fill-rule="evenodd"></path><path id="path1" d="M121.424 128.241 C 120.893 128.773,121.086 130.501,121.668 130.419 C 122.088 130.359,122.190 130.183,122.246 129.419 C 122.322 128.383,121.895 127.771,121.424 128.241 M117.043 129.867 C 116.907 130.166,116.558 130.537,116.266 130.693 C 115.574 131.064,115.389 131.575,115.886 131.746 C 116.102 131.821,116.863 132.496,117.577 133.246 C 118.677 134.403,118.927 134.567,119.222 134.322 C 119.837 133.812,119.659 132.596,118.888 132.048 C 118.340 131.657,118.208 131.398,118.208 130.716 C 118.208 129.405,117.492 128.883,117.043 129.867 M127.528 130.371 L 126.525 131.409 127.245 131.972 L 127.964 132.534 127.964 135.422 C 127.964 138.320,128.122 138.953,128.785 138.699 C 129.112 138.574,129.268 130.487,128.960 129.684 C 128.761 129.163,128.638 129.222,127.528 130.371 M119.925 131.123 C 119.659 131.416,119.618 131.597,119.792 131.705 C 120.153 131.928,120.703 131.668,120.703 131.274 C 120.703 130.735,120.340 130.664,119.925 131.123 M122.761 130.903 C 122.591 131.008,122.515 131.258,122.592 131.458 C 122.762 131.901,123.653 131.944,123.653 131.508 C 123.653 131.044,123.120 130.682,122.761 130.903 M112.904 131.262 C 112.752 131.657,113.266 131.937,113.779 131.740 C 114.228 131.568,113.962 130.913,113.443 130.913 C 113.220 130.913,112.978 131.070,112.904 131.262 M111.793 132.304 C 111.316 132.571,111.251 134.137,111.701 134.510 C 112.174 134.902,112.535 134.362,112.535 133.264 C 112.535 132.192,112.372 131.981,111.793 132.304 M114.502 132.199 C 114.258 132.443,114.328 134.276,114.587 134.436 C 114.992 134.686,115.485 134.069,115.485 133.313 C 115.485 132.397,114.931 131.770,114.502 132.199 M124.163 132.198 C 123.805 132.342,123.787 134.133,124.139 134.485 C 124.395 134.741,126.375 132.997,126.375 132.517 C 126.375 132.114,124.899 131.901,124.163 132.198 M110.163 135.508 C 110.101 135.788,110.023 136.324,109.988 136.699 L 109.926 137.379 108.164 137.412 C 106.266 137.446,105.664 137.719,105.775 138.494 C 105.838 138.934,105.962 138.962,107.546 138.890 C 109.781 138.787,110.562 139.362,109.376 140.239 C 108.253 141.069,108.565 142.031,109.959 142.031 C 111.045 142.031,111.401 142.684,111.401 144.680 C 111.401 146.212,111.713 147.476,112.092 147.476 C 112.182 147.476,112.480 148.028,112.753 148.702 C 113.059 149.455,113.419 149.972,113.687 150.042 C 113.935 150.107,114.124 150.353,114.124 150.612 C 114.124 151.033,114.507 151.600,115.562 152.738 C 115.978 153.187,115.982 153.187,116.526 152.675 C 117.254 151.991,117.257 151.998,115.837 150.521 C 114.894 149.539,114.585 149.046,114.533 148.435 C 114.467 147.671,114.350 147.545,113.226 147.024 C 112.648 146.757,112.465 145.448,112.768 143.741 L 113.048 142.162 112.332 141.564 C 111.406 140.791,111.174 139.919,111.174 137.211 C 111.174 135.156,111.142 134.997,110.725 134.997 C 110.443 134.997,110.233 135.188,110.163 135.508 M117.151 138.070 C 116.927 138.655,117.146 138.687,121.135 138.644 L 124.987 138.603 125.298 139.197 C 125.469 139.523,125.858 139.914,126.163 140.065 C 127.684 140.821,126.896 143.389,125.141 143.395 C 123.854 143.400,123.514 143.674,124.341 144.039 C 124.823 144.253,125.071 144.577,125.243 145.215 C 125.374 145.699,125.581 146.157,125.703 146.233 C 125.840 146.318,125.793 146.561,125.584 146.861 C 125.182 147.434,125.126 149.312,125.499 149.685 C 125.891 150.077,126.374 149.467,126.381 148.570 C 126.392 147.128,128.240 145.661,130.044 145.661 C 132.043 145.661,132.209 145.408,131.024 144.171 C 129.883 142.981,129.783 142.962,129.279 143.847 C 128.843 144.613,128.604 144.680,128.103 144.179 C 127.697 143.774,127.839 143.235,128.397 143.058 C 128.613 142.990,129.015 142.628,129.291 142.255 C 129.697 141.706,129.959 141.577,130.665 141.577 C 132.082 141.577,132.141 141.161,130.898 139.916 L 129.806 138.823 129.454 139.505 C 128.888 140.599,128.688 140.563,127.251 139.104 L 125.889 137.720 121.587 137.720 C 117.920 137.720,117.266 137.771,117.151 138.070 M119.841 142.303 C 119.170 142.974,119.950 145.171,120.695 144.706 C 120.949 144.547,121.157 144.300,121.157 144.158 C 121.157 143.809,122.167 143.165,122.713 143.165 C 123.166 143.165,123.524 142.599,123.300 142.237 C 123.109 141.928,120.160 141.984,119.841 142.303 M100.672 146.936 C 100.309 147.299,100.555 148.075,101.193 148.579 C 102.276 149.435,102.201 152.210,101.078 152.832 C 100.359 153.230,100.363 153.829,101.083 153.829 C 102.020 153.829,103.006 152.642,103.006 151.515 C 103.006 150.795,103.144 150.490,103.687 150.014 C 104.460 149.336,104.532 148.941,103.991 148.343 C 103.783 148.114,103.500 147.698,103.361 147.418 C 103.105 146.902,101.070 146.538,100.672 146.936 M112.665 153.958 C 111.878 154.746,112.512 155.414,114.052 155.420 C 115.078 155.424,115.402 155.599,115.519 156.211 C 115.659 156.950,117.752 156.870,118.130 156.111 C 118.281 155.807,118.667 155.421,118.987 155.253 C 119.637 154.913,119.713 154.566,119.270 153.960 C 118.990 153.577,118.933 153.596,118.377 154.257 C 117.482 155.321,114.906 155.338,114.508 154.282 C 114.214 153.503,113.284 153.340,112.665 153.958 M98.582 154.254 C 97.971 154.383,97.894 154.497,97.832 155.360 C 97.774 156.148,97.621 156.428,96.981 156.917 C 96.551 157.245,96.200 157.654,96.200 157.826 C 96.200 157.999,96.062 158.140,95.894 158.140 C 95.114 158.140,94.838 158.921,94.838 161.136 C 94.838 162.712,94.752 163.374,94.522 163.565 C 94.199 163.833,94.132 163.791,93.298 162.799 C 93.072 162.530,92.506 162.450,90.822 162.450 L 88.638 162.450 87.656 163.415 L 86.674 164.379 86.672 166.548 C 86.670 168.695,86.663 168.723,85.990 169.221 C 85.412 169.648,85.309 169.876,85.309 170.726 C 85.309 171.596,85.227 171.767,84.685 172.026 C 83.608 172.540,83.646 175.523,84.736 176.020 C 85.051 176.163,85.309 176.432,85.309 176.618 C 85.309 177.128,86.058 177.425,87.347 177.425 C 88.776 177.425,90.754 175.739,90.754 174.522 C 90.754 174.061,91.029 173.587,91.679 172.923 L 92.604 171.980 94.402 171.980 L 96.200 171.980 96.200 173.235 C 96.200 174.222,96.115 174.521,95.803 174.639 C 95.017 174.933,94.853 175.458,94.846 177.700 C 94.839 179.752,94.803 179.923,94.328 180.173 C 93.548 180.584,93.484 180.791,93.481 182.914 L 93.477 184.887 95.203 186.601 L 96.928 188.315 101.871 188.315 C 107.333 188.315,107.090 188.385,107.090 186.815 C 107.090 185.719,106.517 185.552,105.818 186.445 C 105.315 187.088,105.220 187.121,104.511 186.904 C 104.011 186.751,103.521 186.745,103.094 186.887 C 102.330 187.142,100.964 186.807,100.964 186.364 C 100.964 186.206,101.174 186.010,101.431 185.929 C 102.399 185.622,101.697 185.251,99.925 185.134 C 98.853 185.064,98.403 184.972,98.809 184.907 C 99.350 184.821,99.504 184.670,99.561 184.175 C 99.675 183.183,101.191 183.236,101.191 184.231 C 101.191 184.836,101.267 184.912,101.872 184.912 C 102.330 184.912,102.552 185.025,102.552 185.258 C 102.552 185.810,103.598 186.088,104.628 185.811 C 106.140 185.404,105.996 184.231,104.435 184.231 C 103.808 184.231,103.446 184.027,102.628 183.208 L 101.604 182.184 102.305 181.569 C 103.093 180.878,103.376 178.786,102.682 178.786 C 102.376 178.786,102.186 178.945,101.448 179.819 C 101.246 180.058,100.968 180.134,100.654 180.037 C 100.388 179.954,99.693 179.831,99.110 179.763 C 98.236 179.661,98.027 179.546,97.916 179.103 C 97.835 178.781,97.555 178.509,97.217 178.425 C 96.685 178.291,96.653 178.196,96.653 176.720 C 96.653 175.197,96.999 174.581,97.271 175.619 C 97.337 175.873,97.685 176.233,98.044 176.419 C 98.402 176.604,98.695 176.903,98.695 177.082 C 98.695 177.482,99.458 177.920,99.875 177.760 C 100.845 177.388,100.885 176.080,99.939 175.649 C 99.629 175.508,99.376 175.240,99.376 175.053 C 99.376 174.867,99.044 174.533,98.639 174.311 L 97.901 173.908 98.791 173.835 C 99.556 173.773,99.756 173.860,100.225 174.459 C 100.655 175.009,100.947 175.157,101.605 175.162 C 102.478 175.169,104.551 176.721,103.952 176.921 C 103.392 177.107,102.979 178.254,103.359 178.569 C 103.644 178.806,103.912 178.627,105.017 177.458 C 106.171 176.238,106.441 176.064,107.177 176.064 C 107.875 176.064,108.085 175.947,108.405 175.382 C 108.618 175.008,108.977 174.641,109.203 174.569 C 109.429 174.496,109.715 174.214,109.838 173.943 C 109.962 173.671,110.364 173.276,110.732 173.065 C 111.100 172.854,111.401 172.523,111.401 172.330 C 111.401 172.137,111.551 171.980,111.735 171.980 C 111.918 171.980,112.295 171.673,112.571 171.299 L 113.075 170.618 115.946 170.618 C 118.558 170.618,118.856 170.576,119.241 170.151 C 119.898 169.425,119.363 169.264,116.266 169.260 C 113.079 169.256,112.318 168.989,113.084 168.143 C 113.463 167.724,113.770 167.669,115.709 167.669 C 117.824 167.669,117.915 167.648,118.211 167.095 C 118.738 166.110,120.601 166.006,121.061 166.935 C 121.436 167.691,121.563 167.764,121.946 167.446 C 122.860 166.687,122.216 165.173,120.978 165.173 C 120.407 165.173,120.054 164.997,119.611 164.492 C 119.283 164.118,118.937 163.812,118.844 163.812 C 118.750 163.812,118.515 164.118,118.321 164.492 C 117.741 165.614,114.124 165.415,114.124 164.262 C 114.124 164.153,113.843 163.929,113.500 163.765 C 112.684 163.376,112.546 162.549,113.260 162.326 C 114.022 162.088,114.116 161.834,114.120 160.006 C 114.123 158.451,114.157 158.343,114.697 158.137 C 115.714 157.751,115.671 156.545,114.652 156.868 C 113.583 157.207,112.762 158.299,112.762 159.382 C 112.762 161.912,110.531 163.105,108.938 161.425 C 108.530 160.996,108.172 160.862,107.427 160.862 C 106.612 160.862,106.351 160.745,105.855 160.155 C 105.335 159.537,105.080 159.433,103.849 159.332 C 102.576 159.227,102.395 159.147,101.982 158.507 C 101.592 157.902,101.369 157.789,100.451 157.730 C 99.205 157.650,98.888 156.585,99.830 155.644 C 100.544 154.930,100.277 153.930,99.414 154.082 C 99.331 154.097,98.956 154.174,98.582 154.254 M99.195 158.763 C 99.449 159.295,99.652 159.398,100.564 159.456 C 101.600 159.523,101.642 159.554,101.875 160.421 C 102.102 161.262,102.168 161.316,102.970 161.316 C 103.439 161.316,103.931 161.424,104.062 161.555 C 104.194 161.687,104.648 161.968,105.072 162.179 C 105.743 162.514,105.843 162.675,105.849 163.427 C 105.858 164.429,106.183 164.711,107.340 164.716 C 108.427 164.720,109.634 165.555,109.949 166.520 C 110.086 166.940,110.469 167.481,110.800 167.722 C 111.325 168.105,111.401 168.319,111.401 169.415 L 111.401 170.670 109.660 172.459 L 107.919 174.248 105.815 174.248 C 103.744 174.248,103.707 174.239,103.414 173.625 C 103.164 173.100,102.953 172.990,102.097 172.933 C 101.482 172.893,100.965 172.718,100.794 172.493 C 100.381 171.950,100.420 169.567,100.844 169.404 C 101.224 169.259,101.872 169.813,101.872 170.283 C 101.872 170.455,102.002 170.677,102.161 170.777 C 102.320 170.877,102.633 171.246,102.856 171.596 C 103.397 172.447,104.223 172.367,104.328 171.452 C 104.384 170.963,104.291 170.783,103.938 170.690 C 103.418 170.554,103.138 169.915,103.330 169.308 C 103.476 168.850,99.707 164.946,99.119 164.946 C 98.934 164.946,98.676 165.227,98.546 165.570 L 98.309 166.194 98.046 165.548 C 97.901 165.193,97.575 164.848,97.322 164.782 C 95.678 164.352,95.769 159.031,97.432 158.358 C 98.342 157.990,98.886 158.115,99.195 158.763 M114.250 162.657 C 113.857 163.292,114.417 163.585,116.020 163.581 C 117.896 163.577,118.453 163.359,117.995 162.808 C 117.664 162.408,114.483 162.280,114.250 162.657 M112.309 164.946 C 112.309 166.043,112.341 166.039,111.319 165.075 C 110.285 164.099,110.289 164.039,111.401 164.039 L 112.309 164.039 112.309 164.946 M92.343 164.433 C 91.591 164.572,91.443 164.853,91.439 166.137 C 91.435 167.137,91.394 167.215,90.862 167.215 C 90.407 167.215,90.261 167.355,90.153 167.896 C 90.049 168.414,89.893 168.576,89.497 168.576 C 89.211 168.576,88.926 168.704,88.863 168.860 C 88.800 169.016,88.740 168.046,88.730 166.704 L 88.712 164.265 90.811 164.296 C 91.965 164.313,92.655 164.375,92.343 164.433 M97.897 167.792 C 99.540 169.342,99.293 172.322,97.570 171.722 C 96.373 171.305,95.848 169.425,96.449 167.703 C 96.762 166.804,96.854 166.810,97.897 167.792 M120.004 168.259 C 119.599 168.747,120.091 169.218,120.580 168.811 C 121.017 168.449,121.025 168.207,120.606 168.047 C 120.428 167.979,120.157 168.074,120.004 168.259 M86.567 173.652 C 86.656 174.130,86.928 174.501,87.377 174.759 C 87.956 175.091,88.017 175.213,87.807 175.605 C 87.162 176.812,85.309 175.551,85.309 173.904 C 85.309 172.328,86.282 172.133,86.567 173.652 M97.514 180.432 C 97.766 180.735,97.366 181.509,96.957 181.509 C 96.499 181.509,96.218 180.992,96.445 180.566 C 96.705 180.082,97.175 180.023,97.514 180.432 " stroke="none" fill="#0a0d30" fill-rule="evenodd"></path><path id="path2" d="M125.411 108.697 C 124.216 109.392,124.990 111.139,127.391 113.168 C 127.668 113.403,127.737 114.043,127.737 116.386 L 127.737 119.311 128.417 119.796 C 128.973 120.191,129.098 120.442,129.098 121.157 C 129.098 121.872,129.224 122.123,129.779 122.518 C 130.334 122.914,130.459 123.165,130.459 123.880 C 130.459 124.598,130.584 124.845,131.153 125.250 L 131.846 125.744 130.869 126.741 L 129.892 127.738 129.307 127.028 C 128.501 126.050,127.737 126.394,127.737 127.736 C 127.737 128.284,127.596 128.739,127.370 128.919 C 127.169 129.080,126.738 129.492,126.412 129.836 C 125.777 130.506,124.646 130.682,124.152 130.187 C 123.561 129.596,123.801 125.721,124.447 125.427 C 124.759 125.285,125.014 125.075,125.014 124.961 C 125.014 124.847,125.423 124.387,125.922 123.939 C 126.786 123.163,126.829 123.061,126.829 121.784 L 126.829 120.443 124.247 117.850 L 121.664 115.258 120.189 115.258 C 118.866 115.258,118.675 115.200,118.342 114.691 C 118.058 114.258,117.775 114.124,117.144 114.124 C 116.429 114.124,116.146 113.941,115.031 112.762 C 113.688 111.342,113.251 111.153,112.738 111.770 C 112.472 112.091,112.528 112.220,113.164 112.751 C 113.848 113.322,113.897 113.459,113.904 114.821 C 113.911 116.236,114.229 117.073,114.760 117.073 C 114.895 117.073,115.186 117.379,115.408 117.754 C 115.629 118.128,115.938 118.434,116.095 118.434 C 116.252 118.434,116.533 118.728,116.718 119.086 C 116.903 119.445,117.263 119.793,117.518 119.859 C 118.378 120.084,118.204 124.397,117.300 125.241 C 116.827 125.683,116.619 126.091,116.619 126.580 C 116.619 127.596,115.130 129.098,114.123 129.098 C 112.984 129.098,109.876 132.268,109.772 133.535 C 109.667 134.824,109.062 134.751,108.885 133.428 C 108.790 132.715,108.577 132.287,108.148 131.945 C 107.717 131.602,107.544 131.252,107.544 130.729 C 107.544 129.605,102.904 125.014,101.768 125.014 C 101.168 125.014,100.887 124.862,100.510 124.334 C 100.115 123.778,99.864 123.653,99.149 123.653 C 98.434 123.653,98.183 123.527,97.788 122.972 C 97.321 122.317,97.239 122.292,95.552 122.292 C 93.848 122.292,93.791 122.309,93.400 122.972 C 93.054 123.558,92.864 123.653,92.038 123.653 C 91.213 123.653,91.023 123.748,90.677 124.334 C 90.340 124.905,90.133 125.014,89.389 125.014 C 88.860 125.014,88.386 125.157,88.211 125.370 C 88.050 125.566,87.728 125.898,87.496 126.108 C 87.024 126.534,86.697 126.874,86.264 127.389 C 85.745 128.007,84.498 127.828,83.948 127.056 C 83.492 126.416,83.373 126.375,81.941 126.375 C 80.534 126.375,80.374 126.324,79.821 125.695 L 79.224 125.014 72.208 125.014 L 65.191 125.014 64.617 125.638 C 64.302 125.981,63.851 126.434,63.616 126.643 C 63.380 126.853,63.073 127.159,62.932 127.324 C 62.791 127.489,62.485 127.787,62.251 127.988 C 62.018 128.189,61.653 128.546,61.441 128.782 C 61.229 129.018,60.945 129.314,60.811 129.438 C 60.676 129.563,60.001 130.252,59.310 130.970 C 58.619 131.687,57.970 132.275,57.868 132.275 C 57.766 132.275,57.629 132.479,57.563 132.728 C 57.472 133.078,57.254 133.182,56.614 133.182 C 55.649 133.182,54.906 133.520,54.906 133.960 C 54.906 134.334,54.412 134.543,53.527 134.543 C 52.886 134.543,51.957 135.215,51.957 135.678 C 51.957 135.803,51.593 135.905,51.148 135.905 C 48.969 135.905,48.778 137.584,50.937 137.760 C 51.926 137.840,52.332 138.478,51.552 138.725 C 51.316 138.800,50.992 139.104,50.834 139.400 C 50.675 139.696,50.303 140.068,50.007 140.227 C 49.711 140.385,49.409 140.703,49.336 140.933 C 49.216 141.310,48.919 141.350,46.247 141.350 L 43.290 141.350 42.655 140.669 C 42.191 140.173,41.811 139.989,41.253 139.989 C 40.686 139.989,40.332 139.812,39.889 139.308 C 39.416 138.769,39.107 138.627,38.401 138.627 C 37.670 138.627,37.462 138.525,37.251 138.060 C 36.968 137.439,36.281 137.312,35.872 137.804 C 35.523 138.224,35.754 138.738,36.428 139.046 C 36.733 139.185,36.982 139.394,36.982 139.511 C 36.982 139.784,41.695 144.526,41.966 144.526 C 42.078 144.526,42.236 144.733,42.316 144.986 C 42.589 145.847,43.389 146.157,44.896 145.986 C 46.210 145.838,46.280 145.855,46.529 146.402 C 46.672 146.715,47.033 147.103,47.331 147.262 C 47.629 147.422,47.873 147.637,47.873 147.741 C 47.873 148.977,50.084 149.180,50.965 148.026 L 51.584 147.214 52.930 147.370 L 54.275 147.526 55.718 146.026 L 57.160 144.526 60.498 144.526 L 63.836 144.526 64.564 145.320 C 65.107 145.914,65.476 146.115,66.024 146.115 C 66.572 146.115,66.940 145.914,67.484 145.320 C 68.060 144.691,68.383 144.526,69.038 144.526 C 69.963 144.526,70.335 144.089,70.335 142.998 C 70.335 142.020,70.710 141.804,72.407 141.804 C 73.845 141.804,73.962 141.764,74.419 141.123 C 74.793 140.598,75.077 140.442,75.666 140.442 C 76.256 140.442,76.540 140.598,76.914 141.123 C 77.369 141.761,77.492 141.804,78.890 141.804 L 80.381 141.804 81.697 143.165 C 82.750 144.255,83.153 144.526,83.718 144.526 C 84.293 144.526,84.736 144.839,86.114 146.217 L 87.805 147.908 87.805 149.985 L 87.805 152.063 89.847 154.080 C 92.246 156.449,92.455 157.107,91.153 158.185 L 90.414 158.797 90.883 159.271 C 91.439 159.833,91.951 159.702,92.315 158.903 C 92.707 158.043,93.137 158.365,93.137 159.520 L 93.137 160.522 90.856 160.635 L 88.575 160.749 86.829 162.496 L 85.082 164.243 85.082 166.359 C 85.082 168.426,85.067 168.489,84.402 169.073 C 83.894 169.518,83.721 169.867,83.721 170.447 C 83.721 171.024,83.546 171.380,83.040 171.830 C 82.414 172.389,82.360 172.556,82.360 173.937 L 82.360 175.438 84.147 177.225 L 85.935 179.013 88.004 179.013 L 90.074 179.013 90.981 179.921 L 91.889 180.828 91.896 182.927 C 91.903 184.981,92.151 185.820,92.752 185.820 C 92.887 185.820,93.179 186.126,93.400 186.500 C 93.621 186.875,93.935 187.181,94.098 187.181 C 94.261 187.181,94.505 187.425,94.641 187.723 C 94.777 188.021,95.132 188.377,95.431 188.512 C 95.729 188.648,95.973 188.856,95.973 188.975 C 95.973 189.836,96.502 189.904,103.241 189.904 C 109.289 189.904,109.814 189.872,110.012 189.501 C 110.265 189.030,109.949 188.315,109.489 188.315 C 109.323 188.315,109.076 188.180,108.938 188.015 C 108.550 187.548,109.083 187.181,110.150 187.181 C 110.939 187.181,111.136 187.080,111.478 186.500 C 111.824 185.916,112.015 185.820,112.834 185.820 C 114.509 185.820,114.638 185.134,113.221 183.761 C 111.792 182.376,111.015 182.280,110.005 183.361 L 109.335 184.079 108.679 183.361 C 108.061 182.685,107.930 182.643,106.422 182.643 L 104.821 182.643 104.821 181.055 C 104.821 178.764,105.854 177.652,107.982 177.652 L 109.380 177.652 111.170 175.855 C 112.697 174.321,112.970 173.930,113.031 173.189 L 113.103 172.320 116.060 172.206 L 119.016 172.093 121.448 169.684 C 123.664 167.489,123.880 167.200,123.880 166.438 C 123.880 165.274,122.048 163.358,120.936 163.358 C 120.337 163.358,119.972 163.118,118.971 162.068 C 117.953 161.000,117.576 160.756,116.783 160.650 L 115.825 160.522 115.825 159.501 L 115.825 158.480 116.901 158.356 C 117.868 158.245,118.629 157.740,118.654 157.191 C 118.658 157.105,118.850 156.976,119.081 156.903 C 119.311 156.829,119.615 156.516,119.757 156.207 C 119.962 155.755,120.182 155.642,120.869 155.637 C 121.745 155.629,122.518 155.225,122.518 154.774 C 122.518 154.635,122.825 154.363,123.199 154.169 C 123.573 153.975,123.880 153.677,123.880 153.507 C 123.880 153.130,124.373 152.921,125.260 152.921 C 126.206 152.921,126.829 152.206,126.829 151.121 C 126.829 150.454,126.935 150.196,127.247 150.097 C 127.476 150.024,127.799 149.712,127.964 149.404 C 128.128 149.097,128.435 148.790,128.644 148.724 C 128.854 148.657,129.161 148.349,129.327 148.039 C 129.603 147.524,129.760 147.476,131.178 147.476 C 132.426 147.476,132.817 147.387,133.182 147.022 C 133.907 146.297,133.669 144.299,132.858 144.299 C 132.506 144.299,132.294 143.868,132.440 143.449 C 132.495 143.293,132.678 143.165,132.848 143.165 C 133.018 143.165,133.337 142.859,133.558 142.484 C 133.780 142.110,134.067 141.804,134.197 141.804 C 134.328 141.804,134.561 141.600,134.717 141.351 C 135.118 140.708,134.371 139.989,133.301 139.989 C 132.713 139.989,132.419 139.846,132.146 139.430 C 131.945 139.123,131.580 138.808,131.335 138.731 C 130.357 138.420,130.851 136.486,131.931 136.398 C 133.494 136.271,133.878 135.502,132.806 134.647 L 132.203 134.166 133.810 132.539 C 135.139 131.194,135.542 130.913,136.145 130.913 C 137.860 130.913,139.858 127.717,138.727 126.781 C 137.859 126.064,135.905 124.038,135.905 123.855 C 135.905 123.744,135.757 123.653,135.577 123.653 C 135.397 123.653,135.069 123.347,134.848 122.972 C 134.626 122.598,134.336 122.292,134.203 122.292 C 134.070 122.292,133.780 121.985,133.558 121.611 C 133.337 121.237,133.020 120.930,132.853 120.930 C 132.485 120.930,132.275 120.433,132.275 119.567 C 132.275 118.898,131.899 118.387,131.090 117.954 C 130.651 117.719,130.630 117.568,130.761 115.582 L 130.900 113.462 128.407 110.957 C 127.035 109.579,125.890 108.455,125.861 108.458 C 125.832 108.462,125.630 108.569,125.411 108.697 M130.348 114.763 C 130.261 115.347,130.046 116.170,129.871 116.590 C 129.695 117.011,129.552 117.735,129.552 118.199 C 129.552 118.871,129.440 119.093,129.004 119.292 C 128.250 119.635,128.191 119.400,128.191 116.077 L 128.191 113.303 126.716 111.960 C 125.632 110.972,125.241 110.461,125.241 110.033 C 125.241 108.679,125.681 108.875,128.127 111.322 L 130.506 113.701 130.348 114.763 M113.749 111.961 C 113.893 112.335,113.558 112.633,113.226 112.428 C 112.985 112.279,113.162 111.628,113.443 111.628 C 113.541 111.628,113.679 111.778,113.749 111.961 M115.373 113.841 C 115.814 114.662,115.865 114.688,116.905 114.614 C 118.254 114.517,118.595 115.532,117.300 115.791 C 116.344 115.983,116.395 116.086,118.488 118.179 C 120.176 119.866,120.376 120.003,120.559 119.594 C 120.826 118.996,120.593 118.434,120.080 118.434 C 119.831 118.434,119.567 118.165,119.411 117.754 C 119.239 117.297,118.999 117.073,118.681 117.073 C 117.992 117.073,118.024 116.041,118.718 115.855 C 120.184 115.462,121.800 115.692,122.188 116.349 C 122.395 116.699,122.784 117.082,123.052 117.199 C 123.320 117.317,123.572 117.643,123.612 117.924 C 123.655 118.229,123.843 118.434,124.077 118.434 C 124.586 118.434,125.014 118.870,125.014 119.387 C 125.014 119.612,125.175 119.796,125.371 119.796 C 126.066 119.796,126.375 120.406,126.375 121.776 C 126.375 123.156,126.123 123.653,125.423 123.653 C 125.181 123.653,125.014 123.819,125.014 124.061 C 125.014 124.640,124.600 124.982,124.067 124.843 C 123.700 124.747,123.643 124.610,123.774 124.132 C 124.110 122.902,124.016 121.111,123.602 120.848 C 123.033 120.487,122.716 120.910,122.577 122.215 C 122.447 123.438,122.074 123.998,121.254 124.204 C 120.802 124.317,120.703 124.485,120.703 125.138 C 120.703 125.779,120.593 125.975,120.132 126.150 C 119.818 126.270,119.456 126.599,119.328 126.882 C 119.200 127.165,118.956 127.641,118.785 127.939 C 118.448 128.527,118.559 129.169,118.973 129.033 C 119.114 128.987,119.351 128.706,119.500 128.409 C 119.649 128.112,119.982 127.791,120.241 127.696 C 120.499 127.600,120.808 127.264,120.928 126.949 C 121.048 126.633,121.295 126.375,121.476 126.375 C 121.658 126.375,122.025 126.069,122.292 125.695 C 123.287 124.297,123.653 125.025,123.653 128.400 C 123.653 130.648,123.803 130.913,125.080 130.913 C 126.276 130.913,127.996 129.226,128.182 127.869 C 128.318 126.879,128.753 126.553,128.981 127.271 C 129.289 128.242,130.524 128.380,130.811 127.475 C 130.889 127.229,131.193 126.919,131.488 126.785 C 132.451 126.346,132.442 125.529,131.468 125.008 C 131.020 124.768,130.913 124.533,130.910 123.785 C 130.906 122.751,130.759 122.441,130.171 122.223 C 129.532 121.988,129.480 121.493,129.958 120.210 C 130.701 118.218,131.821 118.036,131.821 119.908 C 131.821 120.804,131.897 120.970,132.392 121.159 C 132.706 121.278,133.062 121.636,133.183 121.953 C 133.303 122.270,133.580 122.598,133.797 122.682 C 134.014 122.765,134.629 123.298,135.163 123.867 C 136.349 125.130,136.237 125.018,137.550 126.253 C 138.791 127.420,139.071 129.098,138.025 129.098 C 137.846 129.098,137.526 129.400,137.314 129.769 C 136.990 130.333,136.767 130.450,135.906 130.506 C 135.093 130.559,134.837 130.679,134.657 131.093 C 134.532 131.379,134.199 131.671,133.917 131.742 C 133.633 131.813,133.346 132.105,133.273 132.397 C 133.127 132.979,132.681 133.237,132.161 133.037 C 131.678 132.852,131.736 132.505,132.415 131.505 C 132.742 131.024,133.080 130.363,133.167 130.035 C 133.254 129.707,133.599 129.305,133.934 129.142 C 134.603 128.817,134.665 128.614,134.300 127.933 C 134.062 127.488,134.046 127.490,133.563 128.051 C 133.291 128.366,132.609 128.866,132.048 129.162 L 131.027 129.700 130.961 131.417 C 130.890 133.265,131.297 134.424,132.179 134.884 C 133.431 135.536,133.331 135.894,131.894 135.901 C 130.918 135.906,130.459 136.425,130.459 137.527 C 130.459 138.770,132.050 140.442,133.232 140.442 C 134.646 140.442,134.632 140.838,133.166 142.255 C 131.618 143.752,131.582 143.872,132.501 144.526 C 134.045 145.626,133.316 147.022,131.197 147.022 L 129.757 147.022 128.066 148.713 C 126.636 150.143,126.375 150.521,126.375 151.163 C 126.375 152.116,126.032 152.467,125.101 152.467 C 124.221 152.467,123.653 152.663,123.653 152.966 C 123.653 153.541,121.582 155.190,120.859 155.190 C 120.251 155.190,119.914 155.423,118.888 156.551 C 117.857 157.686,117.528 157.913,116.908 157.913 C 115.964 157.913,115.258 158.598,115.258 159.516 C 115.258 160.677,115.614 161.089,116.618 161.089 C 117.141 161.089,117.630 161.233,117.802 161.437 C 118.234 161.952,118.561 162.292,119.033 162.718 C 119.265 162.928,119.587 163.259,119.748 163.455 C 119.911 163.654,120.388 163.812,120.827 163.812 C 121.799 163.812,123.653 165.529,123.653 166.430 C 123.653 166.919,122.347 168.378,119.870 170.659 C 119.642 170.869,119.324 171.200,119.163 171.396 C 118.927 171.684,118.346 171.753,116.142 171.753 C 112.979 171.753,112.535 171.905,112.535 172.990 C 112.535 174.054,112.334 174.475,111.825 174.475 C 111.565 174.475,111.299 174.713,111.166 175.064 C 111.043 175.389,110.742 175.706,110.498 175.770 C 110.254 175.833,109.987 176.104,109.903 176.372 C 109.682 177.081,109.403 177.191,107.810 177.194 C 106.416 177.198,106.344 177.227,105.371 178.201 L 104.368 179.204 104.368 180.896 C 104.368 182.950,104.467 183.053,106.530 183.142 C 107.997 183.206,108.128 183.254,108.405 183.834 C 108.809 184.679,109.582 184.655,110.231 183.778 C 110.958 182.794,111.672 182.878,112.884 184.090 C 113.992 185.199,113.974 185.366,112.741 185.366 C 112.054 185.366,111.779 185.505,111.331 186.077 C 110.660 186.934,109.646 186.876,108.617 185.921 C 107.566 184.947,107.246 185.592,107.913 187.337 C 108.138 187.927,108.469 188.360,108.764 188.450 C 109.581 188.700,109.854 189.014,109.561 189.366 C 109.355 189.615,108.084 189.677,103.194 189.677 L 97.084 189.677 94.713 187.277 L 92.343 184.878 92.343 182.639 C 92.343 180.426,92.335 180.396,91.706 180.024 C 91.356 179.817,90.973 179.428,90.855 179.160 C 90.659 178.714,90.445 178.667,88.315 178.608 L 85.990 178.543 84.401 176.955 L 82.813 175.367 82.813 173.951 C 82.813 172.661,82.874 172.481,83.494 171.937 C 84.002 171.492,84.175 171.142,84.175 170.563 C 84.175 169.985,84.350 169.630,84.855 169.179 C 85.517 168.590,85.536 168.516,85.536 166.512 L 85.536 164.452 87.207 162.771 L 88.877 161.089 91.018 161.089 C 93.511 161.089,93.704 160.972,93.704 159.461 C 93.704 158.487,93.635 158.343,93.023 158.026 C 92.419 157.714,92.343 157.559,92.343 156.648 C 92.343 155.751,92.259 155.575,91.674 155.239 C 91.307 155.028,90.959 154.677,90.902 154.458 C 90.845 154.240,90.533 153.960,90.209 153.837 C 89.852 153.701,89.620 153.438,89.620 153.169 C 89.620 152.907,89.411 152.660,89.109 152.566 C 88.342 152.326,88.266 152.080,88.262 149.820 C 88.258 147.629,88.144 147.022,87.733 147.022 C 87.431 147.022,85.309 144.833,85.309 144.521 C 85.309 144.399,84.845 144.299,84.278 144.299 C 83.369 144.299,83.200 144.218,82.860 143.620 C 82.647 143.247,82.301 142.940,82.091 142.940 C 81.881 142.939,81.645 142.735,81.566 142.486 C 81.282 141.592,80.799 141.350,79.299 141.350 C 77.663 141.350,77.141 141.209,77.141 140.766 C 77.141 139.779,74.869 139.705,74.156 140.669 C 73.683 141.309,73.560 141.350,72.120 141.350 C 70.390 141.350,69.881 141.738,69.881 143.057 C 69.881 143.976,69.519 144.299,68.490 144.299 C 67.808 144.299,67.549 144.432,67.158 144.980 C 66.813 145.465,66.487 145.661,66.024 145.661 C 65.561 145.661,65.235 145.465,64.889 144.980 L 64.405 144.299 60.336 144.299 C 56.570 144.299,56.268 144.330,56.268 144.708 C 56.268 145.225,55.839 145.661,55.331 145.661 C 55.103 145.661,54.908 145.865,54.865 146.148 C 54.742 146.978,54.179 147.150,52.631 146.830 C 51.056 146.505,50.668 146.660,50.552 147.663 C 50.453 148.518,48.832 148.573,48.414 147.736 C 48.267 147.442,47.907 147.082,47.613 146.936 C 47.294 146.778,47.051 146.430,47.009 146.072 C 46.917 145.280,46.572 145.181,44.956 145.482 L 43.605 145.733 40.500 142.603 C 37.313 139.390,37.154 139.093,38.612 139.085 C 39.031 139.082,39.371 139.293,39.705 139.762 C 40.100 140.317,40.351 140.442,41.066 140.442 C 41.781 140.442,42.032 140.568,42.428 141.123 L 42.912 141.804 45.997 141.804 L 49.081 141.804 50.369 140.442 C 51.077 139.694,51.777 139.081,51.926 139.081 C 52.074 139.081,52.293 138.824,52.412 138.510 C 52.532 138.196,52.886 137.841,53.201 137.721 C 53.992 137.421,53.989 136.448,53.196 136.086 C 52.305 135.680,52.579 135.123,53.711 135.041 C 54.463 134.987,54.766 134.832,55.134 134.316 C 55.517 133.777,55.791 133.648,56.666 133.591 C 57.535 133.535,57.783 133.420,58.008 132.965 C 58.161 132.658,58.504 132.326,58.773 132.227 C 59.041 132.128,59.315 131.835,59.383 131.576 C 59.451 131.317,59.757 131.010,60.064 130.893 C 60.371 130.776,60.677 130.474,60.743 130.221 C 60.809 129.968,61.156 129.609,61.515 129.424 C 61.873 129.238,62.167 128.934,62.167 128.747 C 62.167 128.560,62.420 128.292,62.730 128.151 C 63.039 128.010,63.354 127.700,63.430 127.462 C 63.505 127.225,63.815 126.936,64.119 126.820 C 64.422 126.705,64.768 126.353,64.888 126.039 L 65.105 125.468 72.094 125.468 L 79.082 125.468 79.679 126.149 C 80.238 126.785,80.382 126.829,81.885 126.829 C 82.770 126.829,83.494 126.912,83.494 127.013 C 83.494 127.115,83.702 127.421,83.957 127.694 C 84.741 128.536,86.897 128.219,86.897 127.262 C 86.897 127.143,87.141 126.935,87.440 126.799 C 87.738 126.664,88.093 126.308,88.229 126.010 C 88.425 125.579,88.651 125.467,89.331 125.464 C 90.319 125.460,90.584 125.322,90.955 124.617 C 91.165 124.220,91.422 124.107,92.117 124.107 C 92.846 124.107,93.102 123.982,93.513 123.426 C 93.984 122.789,94.112 122.745,95.519 122.745 C 96.926 122.745,97.054 122.789,97.525 123.426 C 97.912 123.949,98.206 124.107,98.797 124.107 C 99.784 124.107,100.284 124.303,100.284 124.690 C 100.284 125.099,101.006 125.468,101.806 125.468 C 102.214 125.468,102.671 125.697,103.048 126.092 C 103.376 126.435,103.782 126.849,103.949 127.011 C 106.721 129.694,107.090 130.159,107.090 130.969 C 107.090 131.622,107.229 131.889,107.771 132.275 C 108.319 132.665,108.452 132.924,108.452 133.606 C 108.452 134.464,108.767 134.997,109.275 134.997 C 109.793 134.997,110.267 134.289,110.267 133.514 C 110.267 132.435,113.090 129.552,114.146 129.552 C 115.002 129.552,115.712 129.188,115.712 128.750 C 115.712 128.567,115.795 128.417,115.896 128.417 C 116.437 128.417,117.073 127.439,117.073 126.606 C 117.073 125.863,117.174 125.671,117.697 125.421 C 118.319 125.123,118.321 125.115,118.385 122.456 L 118.449 119.790 117.870 119.570 C 117.552 119.449,117.193 119.091,117.073 118.775 C 116.953 118.458,116.611 118.107,116.314 117.994 C 116.017 117.881,115.719 117.578,115.651 117.320 C 115.584 117.063,115.264 116.751,114.940 116.628 C 114.384 116.417,114.351 116.314,114.351 114.848 C 114.351 112.723,114.628 112.450,115.373 113.841 M65.662 127.242 C 65.401 127.460,65.086 127.942,64.964 128.312 C 64.824 128.732,64.406 129.172,63.851 129.484 C 62.345 130.328,61.486 131.284,61.486 132.113 C 61.486 132.657,61.354 132.906,60.976 133.072 C 60.695 133.195,60.364 133.525,60.241 133.806 C 60.118 134.087,59.904 134.317,59.766 134.317 C 59.628 134.317,59.345 134.503,59.139 134.731 C 57.570 136.465,61.645 137.500,63.303 135.789 C 64.094 134.974,65.148 134.547,66.376 134.545 C 66.758 134.544,67.530 134.251,68.093 133.894 C 68.817 133.435,69.507 133.213,70.451 133.135 C 71.186 133.074,71.826 132.906,71.874 132.763 C 71.997 132.391,73.540 132.452,74.065 132.849 C 74.307 133.032,74.971 133.186,75.540 133.190 C 76.109 133.195,76.829 133.344,77.141 133.522 C 77.453 133.701,78.018 133.850,78.396 133.855 C 78.931 133.861,79.384 134.166,80.431 135.224 C 81.907 136.716,82.039 136.784,82.236 136.164 C 82.432 135.547,82.173 135.057,81.575 134.906 C 81.198 134.812,81.009 134.556,80.904 134.001 C 80.825 133.576,80.609 133.103,80.425 132.950 C 80.241 132.798,80.091 132.535,80.091 132.366 C 80.091 132.197,79.784 131.901,79.410 131.707 C 79.036 131.514,78.729 131.263,78.729 131.150 C 78.729 130.674,77.962 130.233,77.133 130.233 C 76.448 130.233,76.189 130.118,75.981 129.722 C 75.612 129.022,75.344 128.879,74.400 128.875 C 73.388 128.870,73.136 128.648,73.774 128.324 C 74.517 127.947,74.836 127.319,74.419 127.053 C 73.837 126.682,70.208 126.775,69.881 127.170 C 69.726 127.357,69.453 127.510,69.275 127.510 C 69.098 127.510,68.778 127.816,68.566 128.189 C 68.179 128.869,66.478 129.240,66.478 128.644 C 66.478 128.520,66.580 128.417,66.704 128.417 C 66.829 128.417,67.142 128.206,67.400 127.949 C 68.326 127.022,66.710 126.365,65.662 127.242 M76.922 127.949 C 76.128 129.433,79.478 130.660,81.055 129.463 C 81.936 128.794,81.412 128.191,79.951 128.191 C 79.521 128.191,78.802 128.037,78.354 127.850 C 77.309 127.414,77.205 127.421,76.922 127.949 M121.403 130.955 C 120.758 131.717,119.928 133.157,119.629 134.033 C 119.150 135.434,118.978 135.424,117.509 133.917 C 116.093 132.467,115.896 132.454,115.610 133.790 C 115.256 135.445,114.471 135.293,114.010 133.479 C 113.657 132.090,113.229 132.088,112.877 133.475 C 112.725 134.073,112.370 134.777,112.088 135.040 C 111.188 135.879,111.597 140.483,112.501 139.690 C 112.707 139.509,113.452 139.196,114.156 138.995 C 114.860 138.794,115.492 138.482,115.561 138.302 C 115.918 137.373,125.113 137.071,126.541 137.941 C 127.545 138.554,127.737 138.154,127.737 135.451 C 127.737 132.321,127.556 132.161,125.907 133.841 C 125.074 134.690,124.438 135.163,124.235 135.085 C 123.723 134.888,123.199 133.945,123.199 133.218 C 123.199 132.854,123.046 132.430,122.859 132.275 C 122.672 132.119,122.518 131.867,122.518 131.715 C 122.518 131.186,121.687 130.620,121.403 130.955 M94.939 131.499 C 94.865 131.759,94.532 132.085,94.198 132.224 C 93.821 132.380,93.754 132.459,94.021 132.432 C 94.257 132.408,94.500 132.530,94.561 132.704 C 94.642 132.938,94.516 132.990,94.074 132.905 C 93.686 132.831,93.477 132.891,93.477 133.075 C 93.477 133.232,93.223 133.423,92.913 133.501 C 92.573 133.587,92.295 133.858,92.213 134.187 C 92.132 134.510,91.854 134.787,91.529 134.868 C 91.228 134.944,90.981 135.092,90.981 135.197 C 90.981 135.303,90.701 135.673,90.357 136.021 C 89.867 136.517,89.836 136.599,90.212 136.401 C 90.475 136.263,90.869 135.877,91.087 135.544 C 91.704 134.603,91.878 135.206,91.912 138.400 C 91.948 141.766,92.275 141.088,92.316 137.563 C 92.343 135.174,92.591 134.531,93.163 135.360 C 93.799 136.279,93.966 136.358,95.283 136.358 C 96.822 136.358,97.334 136.506,97.334 136.950 C 97.334 137.190,96.952 137.266,95.746 137.266 C 93.875 137.266,93.250 137.683,93.250 138.933 C 93.250 139.828,93.827 140.442,94.667 140.442 C 95.488 140.442,95.973 140.662,95.973 141.034 C 95.973 141.247,95.696 141.351,95.122 141.353 C 94.654 141.355,94.041 141.418,93.761 141.493 C 92.837 141.741,93.228 142.031,94.485 142.031 C 95.183 142.031,95.790 142.146,95.883 142.296 C 95.992 142.472,96.109 142.396,96.230 142.069 C 96.383 141.654,96.590 141.577,97.540 141.577 C 98.821 141.577,99.104 141.319,98.684 140.534 C 98.457 140.110,98.206 139.989,97.560 139.989 C 96.359 139.989,96.337 139.820,97.402 138.745 L 98.355 137.783 98.855 138.319 C 99.130 138.613,99.469 138.854,99.608 138.854 C 99.752 138.854,99.708 138.700,99.506 138.498 C 99.310 138.302,99.149 137.997,99.149 137.821 C 99.149 137.645,98.898 137.438,98.590 137.361 C 98.283 137.284,97.963 137.001,97.879 136.733 C 97.655 136.016,97.380 135.912,95.703 135.908 C 93.810 135.904,93.680 135.702,94.830 134.552 C 95.544 133.838,95.918 133.636,96.524 133.636 C 97.251 133.636,98.015 133.171,98.015 132.728 C 98.015 132.262,97.240 131.821,96.422 131.821 C 95.824 131.821,95.466 131.693,95.307 131.424 C 95.090 131.057,95.062 131.063,94.939 131.499 M97.221 132.728 C 97.221 133.171,95.531 133.342,95.273 132.925 C 94.973 132.439,95.290 132.247,96.277 132.319 C 96.934 132.367,97.221 132.491,97.221 132.728 M93.023 133.976 C 93.023 134.163,92.858 134.317,92.655 134.317 C 92.354 134.317,92.338 134.255,92.569 133.976 C 92.725 133.789,92.890 133.636,92.938 133.636 C 92.985 133.636,93.023 133.789,93.023 133.976 M94.510 133.883 C 94.744 134.261,94.218 134.695,93.905 134.382 C 93.643 134.120,93.807 133.636,94.158 133.636 C 94.268 133.636,94.426 133.747,94.510 133.883 M99.054 134.842 C 98.470 135.269,98.687 135.922,99.588 136.448 C 100.381 136.911,100.398 136.722,99.642 135.843 C 99.225 135.357,99.429 135.114,100.510 134.809 L 101.305 134.584 100.384 134.564 C 99.877 134.553,99.279 134.678,99.054 134.842 M75.723 135.994 C 75.057 136.500,75.248 136.998,76.222 137.289 C 76.851 137.478,77.139 137.700,77.186 138.036 C 77.232 138.355,77.443 138.534,77.822 138.575 C 79.717 138.779,79.966 138.907,81.621 140.511 C 82.963 141.812,83.334 142.065,83.506 141.797 C 83.825 141.301,83.667 140.810,83.110 140.565 C 82.839 140.445,82.509 140.112,82.378 139.824 C 82.247 139.537,81.883 139.184,81.569 139.041 C 81.255 138.898,80.998 138.680,80.998 138.556 C 80.998 137.873,79.069 136.422,78.448 136.638 C 78.104 136.758,77.822 136.963,77.822 137.093 C 77.822 137.223,77.471 136.958,77.043 136.504 C 76.156 135.563,76.245 135.597,75.723 135.994 M51.915 136.869 C 51.978 137.200,51.818 137.266,50.953 137.266 C 49.963 137.266,49.615 136.961,50.077 136.499 C 50.406 136.170,51.837 136.458,51.915 136.869 M53.316 136.696 C 53.544 136.970,53.525 137.061,53.215 137.180 C 52.768 137.352,52.291 136.962,52.512 136.605 C 52.721 136.266,52.984 136.296,53.316 136.696 M36.756 138.306 C 36.756 138.503,36.634 138.625,36.486 138.575 C 36.065 138.435,35.996 137.947,36.396 137.947 C 36.594 137.947,36.756 138.108,36.756 138.306 M97.334 138.178 C 97.334 138.306,97.090 138.521,96.792 138.657 C 96.494 138.793,96.139 139.148,96.003 139.446 C 95.753 139.994,94.899 140.172,94.063 139.851 C 93.702 139.713,93.547 138.406,93.855 138.098 C 94.105 137.848,97.334 137.923,97.334 138.178 M98.695 141.010 C 98.695 141.262,98.431 141.350,97.674 141.350 C 96.918 141.350,96.653 141.262,96.653 141.010 C 96.653 140.758,96.918 140.669,97.674 140.669 C 98.431 140.669,98.695 140.758,98.695 141.010 M105.548 141.697 C 105.398 142.259,105.275 143.794,105.275 145.109 L 105.275 147.499 105.942 147.732 C 106.421 147.899,106.630 148.136,106.683 148.571 L 106.756 149.178 107.153 148.445 C 107.698 147.440,107.479 146.034,106.725 145.691 C 105.931 145.329,105.951 143.772,106.759 143.023 C 107.399 142.430,107.325 142.083,106.363 141.184 L 105.821 140.677 105.548 141.697 M54.768 142.428 C 53.903 143.039,53.802 143.054,49.801 143.172 C 45.065 143.311,44.637 143.414,45.497 144.212 C 45.831 144.521,46.361 144.753,46.733 144.753 C 47.154 144.753,47.625 144.994,48.065 145.434 C 48.679 146.048,48.887 146.115,50.195 146.115 C 51.510 146.115,51.706 146.051,52.297 145.434 C 52.732 144.980,53.171 144.753,53.617 144.753 C 54.062 144.753,54.580 144.486,55.171 143.952 C 55.659 143.511,56.335 143.095,56.674 143.027 C 57.642 142.832,58.278 142.293,57.855 142.025 C 57.161 141.586,55.686 141.779,54.768 142.428 M110.294 143.228 C 110.154 143.368,110.040 143.686,110.040 143.934 C 110.040 144.368,110.052 144.369,110.344 143.971 C 110.638 143.569,110.653 143.569,110.810 143.978 C 110.940 144.317,111.010 144.339,111.165 144.087 C 111.555 143.457,110.805 142.718,110.294 143.228 M116.222 143.178 C 115.269 143.551,115.736 144.055,117.357 144.402 C 118.375 144.619,118.213 145.518,117.073 145.975 C 116.093 146.367,115.976 146.583,116.506 147.022 C 116.949 147.390,116.939 148.150,116.483 148.801 C 116.162 149.259,116.159 149.363,116.457 149.702 C 116.641 149.913,116.856 150.289,116.933 150.539 C 117.198 151.400,118.696 152.018,120.408 151.974 C 121.508 151.946,121.674 151.909,120.988 151.848 C 119.874 151.747,119.661 151.326,119.855 149.608 C 120.002 148.297,119.538 148.373,119.253 149.706 C 118.871 151.491,118.064 150.129,118.308 148.112 C 118.388 147.450,118.508 146.168,118.575 145.264 C 118.686 143.766,118.935 143.191,119.168 143.891 C 119.236 144.095,119.300 144.097,119.421 143.902 C 119.526 143.732,119.282 143.565,118.725 143.425 C 117.083 143.014,116.730 142.979,116.222 143.178 M113.127 144.362 C 112.969 145.205,113.171 146.568,113.454 146.568 C 113.791 146.568,114.122 145.107,113.938 144.428 C 113.686 143.492,113.296 143.460,113.127 144.362 M122.236 144.049 C 120.892 144.625,121.146 144.980,122.902 144.980 C 124.140 144.980,124.360 144.928,124.093 144.697 C 123.913 144.541,123.613 144.249,123.426 144.049 C 123.114 143.714,123.016 143.714,122.236 144.049 M119.909 147.022 C 119.824 147.160,120.148 147.249,120.732 147.249 C 121.409 147.249,121.851 147.396,122.220 147.742 C 122.845 148.329,123.005 147.768,122.389 147.152 C 121.990 146.753,120.136 146.656,119.909 147.022 M90.698 147.494 C 90.380 147.679,90.301 148.040,90.301 149.302 C 90.301 150.530,90.389 150.951,90.698 151.203 C 90.916 151.381,92.223 152.606,93.603 153.925 C 96.638 156.828,97.334 157.067,97.334 155.206 C 97.334 154.515,97.204 153.958,96.994 153.748 C 96.807 153.560,96.653 153.314,96.653 153.199 C 96.653 152.760,95.821 152.271,94.952 152.201 C 93.953 152.120,93.874 151.935,93.552 148.951 C 93.375 147.304,92.122 146.664,90.698 147.494 M123.694 147.539 C 123.524 147.745,123.502 148.083,123.629 148.528 C 123.774 149.033,123.717 149.401,123.404 149.985 C 123.007 150.725,122.977 150.739,122.839 150.255 C 122.753 149.958,122.514 149.745,122.264 149.745 C 121.642 149.745,122.240 151.191,122.903 151.288 C 123.661 151.400,125.063 149.322,124.972 148.220 C 124.895 147.288,124.207 146.922,123.694 147.539 M99.071 148.798 C 98.478 149.453,98.537 152.367,99.149 152.694 C 100.124 153.216,100.510 152.648,100.510 150.690 C 100.510 148.486,99.982 147.792,99.071 148.798 M112.074 149.049 C 112.618 150.066,112.318 150.936,111.635 150.319 C 111.301 150.016,111.275 150.057,111.357 150.757 C 111.495 151.943,112.382 152.014,112.985 150.886 C 113.214 150.459,112.482 148.610,112.085 148.610 C 111.912 148.610,111.909 148.741,112.074 149.049 M100.236 150.449 C 100.307 152.042,99.843 152.986,99.362 152.226 C 99.120 151.843,99.076 149.213,99.308 148.981 C 99.827 148.462,100.173 149.010,100.236 150.449 M104.381 150.171 C 103.718 150.868,103.585 151.190,103.503 152.290 C 103.407 153.582,102.459 154.509,101.233 154.509 C 101.072 154.509,100.964 154.864,100.964 155.394 C 100.964 156.267,100.977 156.280,101.929 156.386 C 102.459 156.446,103.531 156.627,104.312 156.790 C 105.475 157.032,106.026 157.033,107.375 156.792 C 108.279 156.630,109.555 156.449,110.210 156.390 C 111.880 156.239,111.692 155.961,109.814 155.803 C 106.955 155.564,106.002 154.467,107.882 153.578 C 109.016 153.042,108.933 151.534,107.694 150.142 C 106.647 148.966,105.516 148.975,104.381 150.171 M106.800 151.587 C 107.262 152.049,106.855 152.467,105.945 152.467 C 105.029 152.467,104.697 152.210,104.908 151.662 C 105.058 151.269,106.428 151.215,106.800 151.587 M117.243 152.624 C 116.472 152.825,116.929 154.056,117.775 154.056 C 118.275 154.056,118.495 153.459,118.199 152.905 C 117.959 152.456,117.924 152.446,117.243 152.624 M104.254 154.752 C 104.254 154.927,104.075 155.105,103.857 155.147 C 103.466 155.222,103.304 154.741,103.616 154.429 C 103.854 154.191,104.254 154.394,104.254 154.752 M106.937 155.793 C 107.233 156.089,106.565 156.551,105.842 156.551 C 105.119 156.551,104.452 156.089,104.748 155.793 C 104.830 155.711,105.322 155.644,105.842 155.644 C 106.362 155.644,106.855 155.711,106.937 155.793 M91.727 159.073 C 91.344 159.456,90.889 159.091,91.233 158.677 C 91.423 158.448,91.579 158.420,91.743 158.584 C 91.907 158.748,91.902 158.898,91.727 159.073 M97.490 159.457 C 96.952 160.018,96.880 160.273,96.880 161.612 L 96.880 163.131 97.624 163.131 C 98.236 163.131,98.619 162.877,99.786 161.700 C 101.208 160.265,101.316 159.955,100.391 159.955 C 100.117 159.955,99.517 159.699,99.057 159.387 C 98.046 158.701,98.221 158.693,97.490 159.457 M98.609 160.532 C 98.490 160.843,98.400 160.861,98.123 160.631 C 97.858 160.411,97.842 160.277,98.048 160.028 C 98.387 159.620,98.813 160.002,98.609 160.532 M101.929 162.476 C 100.956 162.706,100.654 163.190,101.323 163.447 C 102.117 163.752,103.577 163.503,103.331 163.106 C 103.046 162.645,103.960 162.642,104.389 163.102 C 104.909 163.660,105.399 163.726,105.578 163.261 C 105.874 162.489,103.777 162.038,101.929 162.476 M116.052 163.923 C 115.927 163.965,115.519 164.074,115.145 164.166 L 114.464 164.333 115.372 164.622 C 117.169 165.195,118.610 164.873,118.082 164.018 C 117.961 163.824,116.548 163.758,116.052 163.923 M105.048 166.307 C 103.821 167.535,106.742 171.927,108.565 171.594 C 110.296 171.278,111.384 169.018,110.267 168.062 C 110.017 167.848,109.811 167.442,109.809 167.160 C 109.803 166.285,108.713 165.475,108.344 166.071 C 108.157 166.373,106.482 166.381,106.296 166.081 C 106.073 165.719,105.540 165.816,105.048 166.307 M118.721 167.441 L 117.867 168.349 115.504 168.349 C 112.298 168.350,112.684 168.487,116.326 168.642 C 119.117 168.761,119.331 168.740,119.457 168.344 C 119.531 168.110,119.817 167.849,120.091 167.763 C 120.690 167.576,120.930 167.251,120.772 166.838 C 120.541 166.239,119.589 166.519,118.721 167.441 M92.234 173.482 C 91.734 173.982,91.847 175.806,92.399 176.153 C 93.079 176.579,93.581 176.054,93.660 174.832 C 93.761 173.289,93.075 172.641,92.234 173.482 M93.137 174.721 C 93.137 175.461,93.048 175.723,92.796 175.723 C 92.436 175.723,92.200 174.493,92.440 173.868 C 92.701 173.188,93.137 173.722,93.137 174.721 M89.847 176.858 C 89.847 177.122,90.012 177.207,90.421 177.156 C 90.737 177.117,90.995 176.982,90.995 176.858 C 90.995 176.733,90.737 176.598,90.421 176.559 C 90.012 176.508,89.847 176.594,89.847 176.858 " stroke="none" fill="#ec9a35" fill-rule="evenodd"></path><path id="path3" d="M93.555 125.922 C 93.111 126.420,92.746 126.602,92.193 126.602 C 91.641 126.602,91.276 126.785,90.832 127.283 C 90.403 127.765,90.018 127.964,89.517 127.964 C 88.527 127.964,86.670 129.828,86.670 130.822 C 86.670 131.289,86.453 131.718,85.990 132.161 C 85.516 132.615,85.309 133.030,85.309 133.527 C 85.309 134.035,85.112 134.417,84.628 134.848 C 84.008 135.401,83.948 135.582,83.948 136.885 C 83.948 138.211,83.997 138.352,84.628 138.818 C 85.164 139.214,85.309 139.495,85.309 140.131 C 85.309 140.738,85.479 141.100,85.990 141.577 C 86.470 142.025,86.670 142.425,86.670 142.934 C 86.670 143.877,88.373 145.661,89.273 145.661 C 89.648 145.661,90.173 145.956,90.687 146.455 C 91.272 147.023,91.709 147.249,92.223 147.249 C 92.707 147.249,93.103 147.434,93.435 147.816 C 93.872 148.319,94.105 148.383,95.504 148.383 C 97.235 148.383,97.320 148.325,97.674 146.909 L 97.901 146.001 100.242 145.774 C 102.278 145.577,102.635 145.479,102.976 145.024 C 103.191 144.736,103.618 144.376,103.924 144.224 C 104.814 143.782,104.872 141.132,104.011 140.334 C 103.211 139.593,103.423 139.172,104.690 138.982 C 105.498 138.861,105.729 138.732,105.729 138.402 C 105.729 138.169,106.035 137.759,106.410 137.493 C 106.956 137.104,107.090 136.843,107.090 136.167 C 107.090 135.516,106.936 135.190,106.410 134.728 C 105.922 134.300,105.729 133.926,105.729 133.412 C 105.729 132.916,105.518 132.482,105.048 132.013 C 104.594 131.559,104.368 131.105,104.368 130.651 C 104.368 129.668,102.640 127.964,101.642 127.964 C 101.127 127.964,100.754 127.771,100.326 127.283 C 99.869 126.763,99.536 126.602,98.909 126.602 C 98.285 126.602,97.945 126.440,97.483 125.922 C 96.937 125.309,96.742 125.241,95.519 125.241 C 94.296 125.241,94.101 125.309,93.555 125.922 M94.498 130.800 C 94.498 131.278,94.353 131.544,94.011 131.695 C 93.742 131.812,93.354 132.195,93.147 132.545 C 92.940 132.896,92.640 133.182,92.480 133.182 C 92.320 133.182,92.072 133.439,91.929 133.753 C 91.786 134.066,91.421 134.436,91.117 134.574 C 90.814 134.713,90.516 135.017,90.455 135.252 C 90.211 136.184,88.712 135.818,88.716 134.827 C 88.720 133.521,88.932 133.006,89.525 132.858 C 89.844 132.777,90.123 132.498,90.203 132.177 C 90.282 131.863,90.562 131.578,90.865 131.501 C 91.184 131.421,91.484 131.098,91.631 130.676 C 92.003 129.610,94.498 129.718,94.498 130.800 M98.913 131.580 C 99.174 131.947,99.589 132.312,99.836 132.390 C 100.082 132.468,100.284 132.659,100.284 132.814 C 100.284 132.970,100.592 133.325,100.970 133.604 C 101.710 134.151,101.507 134.766,100.583 134.774 C 100.234 134.777,100.222 134.811,100.510 134.997 C 100.698 135.118,101.189 135.219,101.602 135.221 C 102.328 135.224,102.351 135.251,102.283 136.060 C 102.191 137.152,101.195 137.553,100.730 136.685 C 100.574 136.394,100.307 136.102,100.136 136.036 C 99.885 135.940,99.892 136.048,100.170 136.585 C 100.565 137.349,101.144 137.720,101.943 137.720 C 102.848 137.720,103.181 138.330,102.457 138.661 C 101.863 138.931,101.712 139.263,101.594 140.556 C 101.488 141.710,100.510 141.661,100.510 140.502 C 100.510 139.480,100.173 138.960,99.376 138.752 L 98.809 138.605 99.433 139.135 C 99.869 139.506,100.057 139.880,100.057 140.381 C 100.057 141.370,99.766 141.455,99.165 140.643 C 98.885 140.263,98.599 140.010,98.530 140.079 C 98.460 140.148,98.532 140.359,98.688 140.547 C 99.218 141.186,98.797 141.577,97.580 141.577 C 96.572 141.577,96.419 141.644,96.154 142.201 C 95.900 142.733,95.698 142.835,94.779 142.894 C 93.849 142.954,93.656 143.054,93.357 143.631 C 92.945 144.429,92.678 144.472,92.318 143.800 C 92.171 143.525,91.504 142.779,90.835 142.142 L 89.620 140.983 89.620 138.840 C 89.620 136.753,89.638 136.681,90.301 136.055 C 90.675 135.702,90.981 135.321,90.981 135.209 C 90.981 135.097,91.228 134.944,91.529 134.868 C 91.854 134.787,92.132 134.510,92.213 134.187 C 92.294 133.865,92.572 133.587,92.894 133.506 C 93.215 133.425,93.494 133.147,93.574 132.826 C 93.657 132.497,93.934 132.225,94.275 132.140 C 94.585 132.062,94.838 131.877,94.838 131.728 C 94.838 130.638,98.156 130.518,98.913 131.580 M115.605 138.261 C 115.283 138.559,114.551 138.921,113.977 139.066 C 112.040 139.554,111.235 140.747,112.309 141.541 C 112.683 141.818,112.989 142.174,112.989 142.332 C 112.989 142.897,114.811 144.450,115.030 144.073 C 115.740 142.848,115.782 142.831,117.379 143.125 C 118.201 143.277,119.030 143.461,119.221 143.534 C 119.476 143.632,119.569 143.517,119.569 143.104 C 119.569 142.224,120.042 142.002,121.761 142.077 C 123.139 142.137,123.313 142.195,123.313 142.598 C 123.313 143.409,123.582 143.559,124.837 143.444 C 126.707 143.272,126.862 143.127,126.783 141.625 C 126.725 140.524,126.637 140.301,126.163 140.065 C 125.858 139.914,125.469 139.523,125.297 139.195 L 124.985 138.600 121.313 138.629 C 119.293 138.644,117.501 138.650,117.330 138.642 C 117.134 138.633,117.064 138.461,117.139 138.174 C 117.311 137.515,116.350 137.570,115.605 138.261 M106.466 139.014 C 105.977 139.109,105.925 139.271,105.960 140.613 C 105.963 140.706,106.192 140.783,106.471 140.783 C 106.828 140.783,106.957 140.900,106.910 141.181 C 106.873 141.401,106.941 141.756,107.061 141.970 C 107.201 142.220,107.199 142.508,107.056 142.775 C 106.626 143.579,107.067 145.625,107.740 145.946 C 108.209 146.170,108.354 146.421,108.410 147.110 C 108.493 148.121,108.184 148.594,107.703 148.194 C 107.453 147.987,107.333 148.055,107.119 148.524 C 106.832 149.153,106.969 149.483,107.812 150.199 C 108.032 150.386,108.353 150.947,108.524 151.446 C 109.114 153.168,111.401 152.795,111.401 150.977 C 111.401 150.078,111.077 149.799,109.925 149.705 C 108.844 149.617,108.596 149.051,109.464 148.656 C 110.032 148.397,110.278 146.534,110.063 144.110 C 110.005 143.456,110.416 142.923,110.850 143.089 C 111.246 143.241,111.283 142.684,110.902 142.303 C 110.752 142.153,110.313 142.031,109.926 142.031 C 108.563 142.031,108.266 141.060,109.376 140.239 C 110.722 139.244,109.011 138.524,106.466 139.014 M108.323 139.786 C 108.165 140.042,107.544 140.053,107.544 139.800 C 107.544 139.480,107.799 139.333,108.132 139.461 C 108.306 139.528,108.392 139.674,108.323 139.786 M124.833 139.990 C 125.046 140.364,125.378 140.669,125.571 140.669 C 125.829 140.669,125.922 140.909,125.922 141.577 C 125.922 142.707,124.551 142.984,124.080 141.949 C 123.863 141.474,123.639 141.399,122.086 141.279 C 120.490 141.156,120.262 141.075,119.510 140.366 C 118.426 139.343,118.499 139.308,121.705 139.309 L 124.447 139.311 124.833 139.990 M92.125 140.605 C 92.114 141.487,92.714 141.912,93.517 141.590 C 94.033 141.383,94.030 141.378,93.409 141.364 C 92.917 141.353,92.703 141.185,92.454 140.613 L 92.133 139.875 92.125 140.605 M100.132 142.127 C 100.281 142.514,99.723 143.039,99.386 142.831 C 99.256 142.750,99.149 142.486,99.149 142.244 C 99.149 141.724,99.942 141.630,100.132 142.127 M98.582 142.258 C 98.659 142.383,98.436 142.594,98.086 142.728 C 97.735 142.861,97.270 143.132,97.051 143.329 C 96.642 143.699,96.403 142.584,96.805 142.182 C 97.041 141.945,98.426 142.005,98.582 142.258 M98.695 143.605 C 98.695 144.131,98.288 144.437,97.988 144.136 C 97.703 143.851,97.980 143.165,98.379 143.165 C 98.553 143.165,98.695 143.363,98.695 143.605 M111.117 144.148 C 110.608 145.392,111.157 148.610,111.879 148.610 C 112.103 148.610,112.401 148.789,112.541 149.007 C 112.780 149.378,112.788 149.377,112.666 148.989 C 112.594 148.760,112.535 148.444,112.535 148.286 C 112.535 148.128,112.328 147.760,112.076 147.469 C 111.546 146.859,111.429 146.440,111.347 144.867 C 111.307 144.102,111.232 143.868,111.117 144.148 M119.256 144.028 C 119.133 144.227,119.452 145.846,119.653 146.047 C 119.902 146.296,120.987 146.163,121.179 145.859 C 121.719 145.007,121.190 144.130,120.533 144.788 C 120.335 144.985,120.204 144.902,119.997 144.447 C 119.720 143.839,119.463 143.694,119.256 144.028 M123.653 144.178 C 123.653 144.581,124.440 145.037,124.962 144.936 C 125.281 144.875,125.255 144.784,124.794 144.354 C 124.169 143.772,123.653 143.692,123.653 144.178 M97.424 144.887 C 97.667 145.522,97.345 145.661,95.632 145.661 C 93.962 145.661,93.550 145.481,93.790 144.856 C 93.981 144.358,97.232 144.386,97.424 144.887 M124.765 145.264 C 124.624 145.621,124.701 147.309,124.862 147.409 C 125.394 147.737,125.882 146.537,125.495 145.855 C 125.185 145.311,124.853 145.042,124.765 145.264 M119.485 147.760 C 119.210 148.784,119.297 148.919,119.952 148.490 C 120.561 148.091,120.563 148.091,121.257 148.917 C 122.191 150.030,122.685 150.021,122.560 148.894 C 122.383 147.290,119.860 146.359,119.485 147.760 M115.188 153.107 C 113.271 153.328,114.328 154.963,116.388 154.963 C 118.023 154.963,118.768 154.314,117.510 153.985 C 117.251 153.918,116.985 153.653,116.918 153.396 C 116.836 153.085,116.635 152.948,116.311 152.982 C 116.044 153.011,115.538 153.067,115.188 153.107 M105.448 156.485 C 105.730 156.539,106.139 156.537,106.355 156.480 C 106.572 156.424,106.341 156.379,105.842 156.382 C 105.343 156.384,105.166 156.431,105.448 156.485 M103.337 163.421 C 102.843 163.527,102.105 163.562,101.697 163.499 C 100.879 163.373,99.422 163.881,99.240 164.355 C 99.143 164.609,99.957 165.481,103.571 168.992 C 103.921 169.332,104.594 168.457,104.594 167.661 C 104.594 166.108,106.512 164.975,108.075 165.604 C 109.280 166.089,109.586 166.144,109.586 165.877 C 109.586 165.439,108.153 164.721,107.277 164.720 C 106.531 164.719,105.729 164.269,105.729 163.851 C 105.729 163.508,104.207 163.234,103.337 163.421 M88.730 166.704 C 88.740 168.046,88.800 169.016,88.863 168.860 C 88.926 168.704,89.211 168.576,89.497 168.576 C 89.893 168.576,90.049 168.414,90.153 167.896 C 90.261 167.355,90.407 167.215,90.862 167.215 C 91.394 167.215,91.435 167.137,91.439 166.137 C 91.443 164.853,91.591 164.572,92.343 164.433 C 92.655 164.375,91.965 164.313,90.811 164.296 L 88.712 164.265 88.730 166.704 M99.561 184.174 C 99.505 184.658,99.338 184.829,98.809 184.941 C 98.375 185.033,98.767 185.095,99.894 185.112 C 101.236 185.133,101.690 185.221,101.790 185.479 C 101.997 186.019,102.762 185.915,102.618 185.366 C 102.534 185.044,102.309 184.912,101.845 184.912 C 101.270 184.912,101.191 184.830,101.191 184.231 C 101.191 183.237,99.676 183.183,99.561 184.174 " stroke="none" fill="#a044cc" fill-rule="evenodd"></path></g></svg>