<svg id="svg" version="1.1" xmlns="http://www.w3.org/2000/svg" xmlns:xlink="http://www.w3.org/1999/xlink" width="400" height="226.8041237113402" viewBox="0, 0, 400,226.8041237113402"><g id="svgg"><path id="path0" d="M73.165 110.503 C 73.084 110.634,73.147 110.895,73.304 111.085 C 73.560 111.393,73.612 111.391,73.790 111.073 C 74.120 110.483,73.517 109.933,73.165 110.503 M54.029 113.294 C 53.666 113.730,53.940 113.897,55.020 113.897 C 56.071 113.897,56.294 113.777,56.114 113.307 C 55.956 112.895,54.368 112.885,54.029 113.294 M77.373 113.324 C 77.144 113.600,77.198 113.706,77.681 113.926 C 78.003 114.072,78.329 114.387,78.404 114.626 C 78.480 114.864,78.777 115.166,79.065 115.297 C 79.352 115.428,79.722 115.787,79.886 116.094 C 80.051 116.401,80.507 116.787,80.900 116.951 L 81.614 117.250 81.504 118.968 C 81.397 120.632,81.412 120.695,81.965 120.947 C 82.279 121.090,82.648 121.451,82.784 121.749 C 82.919 122.048,83.182 122.292,83.368 122.292 C 83.903 122.292,84.175 123.058,84.175 124.568 C 84.175 125.829,84.241 126.029,84.855 126.602 C 85.659 127.353,85.841 129.469,85.183 130.409 C 84.639 131.186,83.215 131.115,82.621 130.281 C 82.374 129.934,81.907 129.508,81.585 129.335 C 81.042 129.045,80.998 128.906,80.998 127.472 C 80.998 125.852,80.280 124.710,78.747 123.889 C 78.389 123.698,78.276 123.416,78.276 122.719 C 78.276 121.378,76.693 119.796,75.350 119.796 C 74.558 119.796,74.382 119.702,74.078 119.115 C 73.760 118.500,73.620 118.434,72.620 118.434 C 71.595 118.434,71.496 118.385,71.276 117.754 L 71.039 117.073 68.694 117.073 L 66.349 117.073 65.942 116.385 L 65.535 115.696 63.230 115.761 C 61.245 115.816,60.914 115.880,60.848 116.222 C 60.786 116.547,60.938 116.619,61.681 116.619 C 62.576 116.619,65.116 118.629,65.116 119.337 C 65.116 119.465,65.550 119.570,66.081 119.571 C 66.969 119.573,67.142 119.680,68.280 120.932 L 69.516 122.292 70.964 122.292 C 72.786 122.292,74.419 123.620,74.419 125.103 C 74.419 125.735,74.565 126.017,75.099 126.411 C 75.474 126.688,75.780 127.045,75.780 127.205 C 75.780 127.365,75.474 127.723,75.099 128.000 C 74.725 128.276,74.419 128.634,74.419 128.795 C 74.419 128.955,74.112 129.245,73.738 129.438 C 73.162 129.736,73.057 129.924,73.057 130.657 C 73.057 131.736,72.564 132.217,71.356 132.314 L 70.448 132.388 70.335 134.155 C 70.167 136.763,68.520 137.211,68.520 134.649 C 68.520 134.133,68.340 133.815,67.839 133.445 C 67.311 133.055,67.158 132.765,67.158 132.159 C 67.158 131.038,63.024 126.829,61.922 126.829 C 61.428 126.829,61.022 126.624,60.579 126.149 C 60.102 125.638,59.740 125.468,59.133 125.468 C 58.496 125.468,58.216 125.322,57.820 124.787 C 57.134 123.859,54.210 123.737,53.746 124.617 C 53.378 125.316,53.110 125.460,52.170 125.464 C 51.537 125.467,51.252 125.616,50.858 126.149 C 50.463 126.684,50.182 126.829,49.545 126.829 C 48.938 126.829,48.577 127.000,48.100 127.510 C 47.526 128.125,47.328 128.191,46.058 128.191 C 44.788 128.191,44.590 128.257,44.016 128.871 L 43.380 129.552 39.176 129.552 L 34.971 129.552 34.487 130.233 C 34.113 130.757,33.827 130.913,33.242 130.913 C 32.267 130.913,31.764 131.110,31.764 131.492 C 31.764 131.659,31.458 131.976,31.083 132.197 C 30.709 132.418,30.403 132.733,30.403 132.896 C 30.403 133.058,30.159 133.303,29.861 133.439 C 29.562 133.575,29.211 133.921,29.080 134.208 C 28.949 134.496,28.632 134.798,28.375 134.879 C 28.117 134.961,27.907 135.114,27.907 135.220 C 27.907 135.465,22.664 140.669,22.418 140.669 C 22.317 140.669,22.235 141.087,22.235 141.597 C 22.235 142.344,22.102 142.642,21.554 143.123 C 20.886 143.709,20.874 143.760,20.874 145.914 C 20.874 148.300,20.920 148.383,22.252 148.383 C 22.699 148.383,23.107 148.603,23.518 149.064 C 24.072 149.685,24.251 149.745,25.562 149.745 C 26.966 149.745,27.907 150.194,27.907 150.864 C 27.907 150.980,28.117 151.142,28.375 151.224 C 28.632 151.306,28.954 151.619,29.092 151.920 C 29.345 152.476,35.394 152.825,35.394 152.283 C 35.394 151.068,37.792 150.693,38.571 151.787 C 39.029 152.430,39.140 152.467,40.621 152.467 C 42.098 152.467,42.216 152.506,42.690 153.148 L 43.194 153.829 46.094 153.829 L 48.994 153.829 49.497 154.509 C 49.890 155.040,50.178 155.192,50.808 155.197 C 51.644 155.205,52.411 155.618,52.411 156.060 C 52.411 156.199,52.717 156.471,53.091 156.665 C 54.242 157.260,54.088 158.757,52.741 160.066 C 51.644 161.132,51.302 161.168,50.717 160.276 C 50.398 159.788,50.193 159.728,48.868 159.728 C 47.497 159.728,47.331 159.674,46.781 159.047 C 46.194 158.378,46.145 158.366,43.972 158.366 C 41.780 158.366,41.756 158.361,41.259 157.688 C 40.983 157.315,40.587 156.956,40.379 156.890 C 40.171 156.824,39.885 156.516,39.744 156.207 C 39.509 155.690,39.365 155.644,37.988 155.644 L 36.487 155.644 34.924 157.175 C 33.632 158.441,33.360 158.835,33.356 159.442 C 33.353 160.045,33.086 160.441,31.877 161.631 C 30.615 162.876,30.403 163.200,30.403 163.886 C 30.403 164.518,30.259 164.791,29.722 165.173 C 29.051 165.650,29.041 165.688,29.041 167.714 L 29.041 169.770 31.455 172.161 C 33.807 174.490,33.886 174.545,34.535 174.300 C 35.378 173.981,35.848 174.158,35.848 174.795 C 35.848 175.679,36.266 175.837,38.603 175.837 C 41.136 175.837,41.500 175.614,40.418 174.725 C 39.054 173.603,39.582 171.753,41.267 171.753 C 41.947 171.753,42.216 171.617,42.619 171.072 C 43.196 170.291,44.662 170.102,45.198 170.740 C 46.018 171.715,46.105 171.753,47.547 171.753 C 48.880 171.753,49.056 171.811,49.610 172.433 C 50.165 173.056,50.341 173.114,51.675 173.114 C 53.010 173.114,53.182 173.171,53.730 173.795 C 54.192 174.321,54.517 174.475,55.168 174.475 C 55.844 174.475,56.105 174.609,56.495 175.156 C 56.889 175.709,57.142 175.837,57.847 175.837 C 58.986 175.837,59.210 175.311,58.300 174.774 C 57.518 174.312,57.431 173.690,58.097 173.333 C 58.632 173.047,59.108 173.319,59.337 174.042 C 59.647 175.018,60.352 174.381,60.352 173.125 C 60.352 172.616,62.107 170.391,62.509 170.391 C 62.987 170.391,64.889 172.733,64.889 173.320 C 64.889 173.917,65.218 174.353,66.931 176.027 L 68.973 178.023 68.973 180.204 C 68.973 182.369,68.979 182.389,69.654 182.870 C 70.329 183.350,70.335 183.374,70.335 185.513 L 70.335 187.672 71.299 188.671 C 72.242 189.647,72.296 189.669,73.738 189.676 C 75.312 189.684,75.525 189.762,75.918 190.471 C 76.325 191.205,80.557 191.155,80.883 190.412 C 81.006 190.130,81.285 189.843,81.501 189.775 C 81.717 189.706,82.108 189.350,82.369 188.983 C 82.816 188.355,82.937 188.315,84.401 188.315 C 85.887 188.315,85.983 188.282,86.534 187.578 C 87.069 186.893,87.227 186.833,88.762 186.727 C 90.776 186.589,91.180 185.982,89.338 185.864 C 87.465 185.744,87.502 185.254,89.539 183.169 L 91.272 181.395 92.885 181.282 C 95.658 181.087,95.103 180.515,92.005 180.374 C 89.545 180.262,89.507 180.252,89.208 179.627 C 88.811 178.796,85.900 178.760,85.446 179.580 C 85.056 180.288,84.840 180.367,83.309 180.371 C 81.136 180.376,80.998 180.243,80.998 178.136 C 80.998 176.503,81.040 176.345,81.541 176.077 C 81.839 175.917,82.213 175.543,82.373 175.244 C 82.533 174.946,82.741 174.702,82.836 174.702 C 83.395 174.702,83.721 173.904,83.721 172.532 C 83.721 171.200,83.779 171.024,84.402 170.469 C 85.018 169.920,85.082 169.731,85.082 168.471 C 85.082 166.722,84.889 166.534,83.097 166.534 L 81.657 166.534 79.966 164.844 C 78.157 163.034,77.720 161.789,78.632 161.041 C 78.829 160.880,79.626 160.111,80.405 159.331 C 81.554 158.180,81.959 157.913,82.549 157.913 C 83.226 157.913,88.032 153.551,88.032 152.937 C 88.032 152.843,88.287 152.651,88.599 152.509 C 89.066 152.296,89.166 152.090,89.166 151.347 C 89.166 150.802,89.307 150.327,89.522 150.151 C 93.652 146.756,95.609 143.760,94.075 143.177 C 93.139 142.821,93.423 141.350,94.427 141.350 C 94.876 141.350,94.515 140.798,93.250 139.553 L 91.889 138.213 91.889 136.080 C 91.889 133.966,91.883 133.944,91.196 133.436 C 90.229 132.721,90.275 130.978,91.273 130.502 L 91.904 130.200 91.840 127.891 C 91.780 125.744,91.739 125.566,91.265 125.357 C 90.984 125.234,90.754 125.054,90.754 124.956 C 90.754 124.859,90.091 124.115,89.280 123.304 C 88.068 122.092,87.805 121.697,87.805 121.090 C 87.805 120.578,87.613 120.169,87.181 119.759 C 86.838 119.434,86.425 119.003,86.264 118.801 C 86.094 118.588,85.636 118.434,85.168 118.434 C 84.441 118.434,84.112 118.176,81.697 115.712 C 78.913 112.870,78.115 112.430,77.373 113.324 M56.807 114.681 C 56.604 115.211,57.030 115.593,57.369 115.184 C 57.575 114.936,57.558 114.801,57.294 114.582 C 57.016 114.351,56.927 114.370,56.807 114.681 M71.242 119.009 C 71.242 119.358,71.398 119.632,71.639 119.706 C 73.121 120.166,73.411 120.393,72.881 120.676 C 72.277 121.000,71.772 120.783,70.520 119.664 L 69.684 118.916 70.293 118.693 C 71.191 118.365,71.242 118.382,71.242 119.009 M85.041 120.649 C 85.086 120.961,85.272 121.157,85.524 121.157 C 86.179 121.157,86.523 121.719,86.218 122.290 C 85.920 122.847,84.175 121.236,84.175 120.403 C 84.175 119.801,84.952 120.021,85.041 120.649 M90.528 127.879 C 90.528 129.566,89.460 130.436,88.531 129.507 C 88.191 129.167,88.164 125.843,88.495 125.223 C 88.915 124.439,90.528 126.546,90.528 127.879 M78.729 127.772 C 78.729 128.121,78.933 128.741,79.182 129.149 C 79.699 129.997,79.767 131.067,79.353 131.855 L 79.070 132.395 78.197 131.938 C 77.266 131.450,76.569 130.102,76.944 129.512 C 77.048 129.347,77.136 128.782,77.138 128.258 C 77.140 127.734,77.255 127.055,77.394 126.750 L 77.646 126.196 78.188 126.667 C 78.517 126.953,78.729 127.386,78.729 127.772 M57.522 127.608 C 57.803 127.912,58.427 128.233,58.909 128.322 C 59.390 128.410,60.026 128.721,60.320 129.012 C 60.615 129.303,61.216 129.608,61.656 129.691 C 62.707 129.888,64.135 131.311,64.331 132.356 C 64.412 132.789,64.720 133.370,65.015 133.647 C 65.345 133.958,65.609 134.537,65.702 135.154 C 65.807 135.856,66.015 136.264,66.392 136.511 C 67.136 136.999,67.122 138.071,66.364 138.668 C 65.898 139.034,65.797 139.311,65.797 140.216 C 65.797 141.450,65.397 142.031,64.546 142.031 C 63.833 142.031,63.625 142.419,64.073 142.914 C 65.018 143.958,63.270 147.022,61.729 147.022 C 61.484 147.022,60.998 147.274,60.648 147.582 L 60.011 148.142 60.729 148.149 C 61.242 148.155,61.609 148.350,62.019 148.837 C 62.479 149.384,62.769 149.518,63.497 149.518 C 64.408 149.518,65.116 149.959,65.116 150.527 C 65.116 150.690,65.269 150.951,65.457 151.106 C 65.997 151.555,65.856 152.057,64.898 153.089 C 63.784 154.288,63.301 154.200,63.301 152.800 C 63.301 151.898,62.886 151.106,62.414 151.106 C 62.318 151.106,62.123 150.851,61.981 150.539 C 61.771 150.078,61.560 149.972,60.854 149.972 C 59.599 149.972,59.044 149.511,59.388 148.756 C 59.662 148.156,59.131 147.476,58.389 147.476 C 58.239 147.476,57.872 147.164,57.574 146.783 C 57.056 146.122,56.965 146.094,55.572 146.159 C 53.744 146.245,53.432 146.865,55.160 146.977 C 56.144 147.040,56.239 147.105,56.717 148.035 C 57.354 149.273,57.205 149.518,55.814 149.518 C 55.205 149.518,54.638 149.628,54.556 149.762 C 54.459 149.918,54.204 149.817,53.849 149.484 C 53.411 149.072,53.326 149.047,53.448 149.366 C 53.533 149.588,54.028 149.970,54.548 150.214 C 55.067 150.458,55.828 151.014,56.239 151.449 C 56.941 152.194,57.071 152.240,58.449 152.240 C 60.468 152.240,60.724 152.799,59.355 154.217 C 58.176 155.439,57.286 155.531,56.530 154.509 C 56.059 153.871,55.932 153.829,54.503 153.826 C 52.223 153.821,51.957 153.706,51.955 152.725 C 51.954 152.047,51.833 151.831,51.275 151.514 C 50.901 151.301,50.596 150.967,50.596 150.771 C 50.596 150.575,50.338 150.316,50.024 150.197 C 49.710 150.078,49.361 149.737,49.248 149.440 C 49.135 149.142,48.831 148.844,48.574 148.777 C 48.316 148.709,48.002 148.383,47.876 148.051 C 47.563 147.227,47.192 147.537,47.192 148.624 C 47.192 149.221,47.293 149.518,47.497 149.518 C 48.145 149.518,48.678 150.399,48.274 150.802 C 47.738 151.339,46.932 151.037,45.754 149.858 C 44.901 149.006,44.589 148.837,43.864 148.834 C 42.293 148.827,41.329 146.610,42.742 146.255 C 43.418 146.085,44.470 146.291,44.470 146.593 C 44.470 146.869,46.228 146.851,46.323 146.573 C 46.486 146.094,47.873 146.024,47.873 146.495 C 47.873 147.089,48.305 147.476,48.970 147.476 L 49.522 147.476 48.870 146.965 C 47.655 146.014,47.409 145.653,47.265 144.603 C 47.173 143.930,46.898 143.299,46.496 142.841 C 46.152 142.449,45.796 141.736,45.706 141.257 C 45.616 140.778,45.352 140.223,45.120 140.023 C 44.503 139.495,44.505 136.814,45.122 136.429 C 45.386 136.264,45.607 135.770,45.703 135.130 C 45.791 134.539,46.031 133.974,46.262 133.810 C 46.778 133.444,47.192 132.665,47.192 132.063 C 47.192 131.341,48.802 129.868,49.795 129.682 C 50.262 129.594,50.864 129.289,51.131 129.003 C 51.398 128.718,52.010 128.412,52.490 128.323 C 52.971 128.234,53.583 127.924,53.852 127.633 C 54.584 126.839,56.795 126.824,57.522 127.608 M83.611 133.092 C 83.314 133.311,83.325 133.391,83.695 133.726 C 84.091 134.084,84.128 134.085,84.265 133.728 C 84.400 133.375,84.444 133.377,84.859 133.753 C 85.408 134.249,85.042 134.981,84.479 134.514 C 83.961 134.083,83.908 134.431,84.398 135.054 C 84.648 135.373,84.950 135.873,85.067 136.166 C 85.271 136.675,85.281 136.668,85.295 136.007 C 85.324 134.582,86.437 134.453,86.453 135.872 L 86.463 136.699 86.852 135.970 L 87.241 135.241 88.203 136.157 C 88.733 136.661,89.166 137.270,89.166 137.510 C 89.166 137.750,89.268 137.947,89.393 137.947 C 89.518 137.947,89.620 137.606,89.620 137.190 C 89.620 136.224,89.818 136.035,90.339 136.507 C 90.658 136.795,90.754 137.214,90.754 138.306 C 90.754 139.957,91.083 140.442,92.200 140.442 C 93.498 140.442,93.583 140.862,92.509 141.957 C 91.522 142.962,90.981 143.191,90.981 142.605 C 90.981 142.421,90.675 142.045,90.301 141.768 C 89.825 141.416,89.620 141.072,89.620 140.627 C 89.620 140.276,89.518 139.989,89.393 139.989 C 89.268 139.989,89.166 140.187,89.166 140.429 C 89.166 141.008,88.776 141.231,88.362 140.888 C 88.137 140.701,88.032 140.693,88.032 140.863 C 88.032 141.000,88.292 141.283,88.611 141.492 C 88.929 141.700,89.340 142.162,89.524 142.518 C 89.708 142.874,90.009 143.165,90.193 143.165 C 90.377 143.165,90.528 143.248,90.528 143.349 C 90.528 143.836,91.504 144.526,92.193 144.526 C 93.498 144.526,93.585 144.945,92.509 146.041 C 91.562 147.004,90.981 147.277,90.981 146.756 C 90.981 146.444,90.313 145.661,90.047 145.661 C 89.400 145.661,89.403 146.603,90.052 147.196 L 90.730 147.816 89.611 149.007 C 88.995 149.663,88.388 150.199,88.262 150.199 C 88.135 150.199,88.032 150.548,88.032 150.974 C 88.032 152.291,87.203 153.117,86.818 152.184 C 86.746 152.008,86.260 152.375,85.542 153.148 C 84.465 154.308,84.364 154.366,84.109 153.964 C 83.958 153.727,83.355 153.022,82.770 152.397 C 81.574 151.121,81.519 151.160,81.396 153.375 L 81.339 154.396 82.303 154.466 C 82.833 154.504,83.267 154.632,83.267 154.749 C 83.267 155.007,80.388 155.040,80.280 154.783 C 80.238 154.684,79.827 154.373,79.365 154.091 C 78.904 153.810,78.458 153.355,78.374 153.080 C 78.290 152.805,78.065 152.402,77.873 152.184 C 77.682 151.965,77.630 151.787,77.759 151.787 C 78.359 151.787,78.586 150.422,78.096 149.760 L 77.624 149.122 78.533 148.764 C 79.786 148.272,79.762 147.216,78.495 147.012 C 77.276 146.815,76.945 146.540,77.613 146.278 C 77.979 146.135,78.059 146.025,77.853 145.948 C 77.684 145.885,77.297 146.101,76.993 146.428 C 76.333 147.140,75.639 147.197,75.435 146.555 C 75.231 145.911,74.331 146.048,74.233 146.739 C 74.193 147.019,74.262 147.249,74.388 147.249 C 74.513 147.249,74.689 147.019,74.780 146.739 C 74.937 146.255,74.962 146.268,75.259 146.988 C 75.662 147.964,75.217 149.819,74.802 148.891 C 74.506 148.226,74.192 148.243,74.192 148.923 C 74.192 149.548,74.508 149.849,75.383 150.058 C 75.927 150.188,76.007 150.317,76.007 151.061 C 76.007 151.803,76.184 152.090,77.372 153.265 C 78.123 154.008,78.690 154.739,78.632 154.889 C 78.574 155.040,78.749 155.193,79.026 155.233 C 79.322 155.275,79.675 155.607,79.898 156.053 C 80.128 156.514,80.318 156.689,80.391 156.506 C 80.484 156.274,80.562 156.284,80.751 156.551 C 81.162 157.133,81.025 157.636,80.318 158.140 C 79.943 158.406,79.637 158.764,79.637 158.934 C 79.637 159.294,78.847 159.600,78.489 159.379 C 78.355 159.296,78.306 159.068,78.381 158.872 C 78.585 158.342,78.110 158.167,76.820 158.294 C 75.379 158.437,74.489 158.105,74.141 157.293 L 73.872 156.665 73.790 157.406 C 73.695 158.274,73.287 158.169,73.279 157.275 C 73.270 156.193,72.645 155.689,71.207 155.605 C 70.501 155.564,69.971 155.607,70.029 155.701 C 70.087 155.794,70.276 155.871,70.448 155.871 C 70.621 155.871,70.825 155.973,70.902 156.098 C 71.533 157.118,68.911 156.229,67.613 154.982 L 66.215 153.639 66.344 149.989 C 66.463 146.611,66.515 146.273,67.037 145.446 C 67.573 144.598,67.418 142.754,66.859 143.313 C 66.773 143.399,66.449 143.231,66.139 142.940 C 65.525 142.363,65.698 141.804,66.490 141.804 C 66.716 141.804,67.119 141.497,67.385 141.123 C 67.842 140.481,67.957 140.442,69.415 140.442 C 71.430 140.442,71.442 140.422,71.519 136.935 C 71.598 133.331,71.792 133.069,73.299 134.532 L 74.291 135.495 73.504 136.167 C 72.831 136.742,72.795 136.817,73.256 136.688 C 73.603 136.591,73.863 136.646,73.987 136.845 C 74.138 137.086,74.258 137.041,74.546 136.631 C 75.103 135.840,75.732 136.392,75.200 137.204 C 74.498 138.275,75.093 137.990,76.398 136.631 L 77.716 135.259 78.746 136.319 C 80.412 138.036,80.481 138.075,81.003 137.603 C 81.296 137.337,81.452 136.905,81.452 136.358 C 81.452 135.809,81.608 135.380,81.906 135.111 C 82.607 134.476,82.442 134.227,81.679 134.770 C 81.131 135.161,80.998 135.420,80.998 136.102 C 80.998 137.482,80.640 137.569,79.505 136.466 C 78.531 135.519,78.258 134.997,78.736 134.997 C 79.383 134.997,81.225 132.790,81.225 132.016 C 81.225 130.630,81.631 130.569,82.855 131.769 C 83.776 132.671,83.896 132.882,83.611 133.092 M39.932 131.137 C 40.209 131.314,39.996 131.627,38.798 132.808 C 36.845 134.732,36.457 134.843,35.878 133.645 C 35.407 132.670,35.614 132.275,36.593 132.275 C 36.770 132.275,37.363 131.970,37.913 131.598 C 38.971 130.880,39.383 130.787,39.932 131.137 M42.563 132.299 C 42.991 132.773,42.988 132.782,42.258 133.393 C 41.673 133.882,41.520 134.181,41.520 134.837 C 41.520 135.493,41.379 135.768,40.839 136.167 L 40.159 136.671 40.159 139.697 C 40.159 142.680,40.166 142.725,40.702 142.929 C 41.347 143.174,41.535 143.584,41.255 144.129 C 40.935 144.751,40.213 144.608,39.818 143.846 C 39.625 143.471,39.319 143.165,39.138 143.165 C 38.674 143.165,38.116 141.978,37.960 140.657 C 37.812 139.412,37.436 139.125,37.436 140.258 C 37.436 141.723,35.390 142.674,34.389 141.674 C 33.953 141.238,33.947 141.361,34.461 140.161 C 34.800 139.372,35.051 139.115,35.653 138.944 C 36.301 138.759,36.467 138.563,36.764 137.632 C 36.973 136.974,37.358 136.358,37.728 136.088 C 38.067 135.842,38.344 135.493,38.344 135.313 C 38.344 135.133,38.601 134.888,38.915 134.769 C 39.229 134.649,39.585 134.293,39.705 133.976 C 39.825 133.660,40.181 133.303,40.495 133.184 C 40.809 133.064,41.066 132.831,41.066 132.666 C 41.066 131.822,41.938 131.608,42.563 132.299 M78.272 134.260 C 78.274 134.416,78.162 134.543,78.023 134.543 C 77.884 134.543,77.432 134.912,77.020 135.362 C 76.607 135.812,76.160 136.113,76.025 136.029 C 75.695 135.825,75.707 132.665,76.039 132.333 C 76.324 132.048,78.265 133.723,78.272 134.260 M87.918 132.728 C 87.998 132.978,88.138 133.182,88.231 133.182 C 88.712 133.182,89.393 134.169,89.393 134.865 C 89.393 135.995,88.880 136.302,88.275 135.534 C 88.009 135.196,87.565 134.807,87.288 134.669 C 86.782 134.419,86.495 133.287,86.761 132.593 C 86.944 132.115,87.754 132.209,87.918 132.728 M55.587 132.728 C 55.587 132.853,56.021 132.957,56.551 132.959 C 57.807 132.963,58.158 133.210,58.158 134.090 C 58.158 134.964,57.807 135.216,56.579 135.221 C 55.753 135.224,55.609 135.305,55.360 135.905 C 55.188 136.319,54.912 136.585,54.652 136.585 C 54.418 136.585,54.226 136.687,54.226 136.812 C 54.226 136.942,54.906 137.039,55.814 137.039 C 57.139 137.039,57.474 137.118,57.833 137.516 C 58.070 137.778,58.366 138.094,58.491 138.219 C 58.616 138.344,58.922 138.650,59.172 138.900 C 59.421 139.149,59.728 139.455,59.853 139.580 C 59.977 139.705,60.294 140.001,60.556 140.238 C 60.889 140.539,61.032 140.943,61.032 141.577 C 61.032 142.528,61.349 142.806,61.551 142.033 C 61.616 141.785,61.960 141.471,62.315 141.336 C 62.931 141.101,62.634 140.442,61.912 140.442 C 61.819 140.442,61.677 140.232,61.595 139.976 C 61.514 139.719,61.198 139.414,60.893 139.298 C 60.589 139.182,60.261 138.877,60.166 138.618 C 60.070 138.360,59.741 138.025,59.435 137.872 C 58.052 137.187,58.713 135.678,60.395 135.678 L 61.518 135.678 60.141 134.367 C 59.383 133.646,58.763 132.932,58.763 132.779 C 58.763 132.587,58.276 132.501,57.175 132.501 C 56.268 132.501,55.587 132.599,55.587 132.728 M51.333 137.100 C 51.181 137.445,50.800 137.826,50.486 137.945 C 49.931 138.156,49.915 138.223,49.915 140.318 L 49.915 142.473 50.596 142.825 C 50.970 143.018,51.276 143.325,51.276 143.505 C 51.276 143.686,51.583 143.992,51.957 144.186 C 52.331 144.380,52.638 144.683,52.638 144.859 C 52.638 145.468,53.063 145.441,53.362 144.814 C 53.614 144.286,53.825 144.175,54.681 144.115 C 56.450 143.992,56.272 143.619,54.441 143.612 C 51.877 143.601,51.868 143.587,51.726 139.696 C 51.624 136.914,51.570 136.558,51.333 137.100 M85.604 137.518 C 85.954 138.078,86.446 137.887,86.443 137.191 C 86.443 137.170,86.194 137.138,85.890 137.121 C 85.402 137.093,85.368 137.139,85.604 137.518 M54.226 140.216 L 54.226 141.123 55.133 141.123 C 55.897 141.123,56.041 141.049,56.041 140.658 C 56.041 140.356,56.280 140.093,56.725 139.906 C 57.685 139.503,57.339 139.308,55.663 139.308 L 54.226 139.308 54.226 140.216 M30.395 140.428 C 30.524 140.669,30.630 141.211,30.630 141.633 C 30.630 142.189,30.817 142.579,31.310 143.052 C 31.779 143.500,31.991 143.922,31.991 144.404 C 31.991 145.403,35.065 148.413,36.500 148.819 C 38.085 149.267,37.335 149.621,34.646 149.695 C 32.910 149.743,32.189 149.675,31.764 149.421 C 31.452 149.236,30.976 148.983,30.706 148.860 C 30.436 148.737,30.146 148.420,30.062 148.157 C 29.979 147.893,29.654 147.579,29.340 147.460 C 29.027 147.341,28.715 147.033,28.648 146.775 C 28.581 146.517,28.274 146.211,27.967 146.094 C 27.660 145.978,27.355 145.675,27.289 145.422 C 27.223 145.169,26.875 144.810,26.517 144.625 C 25.728 144.217,25.626 143.309,26.327 142.934 C 26.954 142.598,27.557 142.828,27.874 143.523 C 28.282 144.420,28.588 143.953,28.588 142.429 C 28.588 140.513,29.751 139.225,30.395 140.428 M25.865 141.244 C 25.865 141.560,25.712 141.877,25.525 141.949 C 24.919 142.181,25.049 145.265,25.676 145.550 C 26.551 145.948,26.719 146.496,26.144 147.071 L 25.635 147.580 24.680 146.625 C 23.210 145.155,23.107 141.804,24.531 141.804 C 24.793 141.804,24.957 141.643,24.957 141.388 C 24.957 140.895,25.148 140.669,25.562 140.669 C 25.735 140.669,25.865 140.916,25.865 141.244 M72.830 141.917 C 72.830 143.037,73.364 143.330,73.994 142.555 C 74.265 142.222,74.256 142.191,73.927 142.314 C 73.526 142.464,73.284 142.094,73.284 141.331 C 73.284 141.092,73.182 140.896,73.057 140.896 C 72.933 140.896,72.830 141.356,72.830 141.917 M57.345 142.418 C 57.626 142.472,58.086 142.472,58.366 142.418 C 58.647 142.364,58.417 142.319,57.856 142.319 C 57.294 142.319,57.065 142.364,57.345 142.418 M65.662 143.584 C 66.046 144.206,66.064 145.660,65.689 145.804 C 65.180 145.999,64.897 145.538,64.893 144.507 C 64.889 143.514,65.308 143.011,65.662 143.584 M40.383 146.552 C 40.447 146.649,40.729 146.848,41.010 146.996 C 41.653 147.335,41.674 148.063,41.047 148.227 C 40.691 148.320,40.479 148.186,40.196 147.688 C 39.988 147.323,39.703 147.024,39.563 147.024 C 39.210 147.022,38.765 146.449,38.963 146.252 C 39.148 146.066,40.211 146.291,40.383 146.552 M64.597 146.484 C 64.718 146.849,63.940 147.095,63.731 146.757 C 63.636 146.603,63.612 146.389,63.678 146.283 C 63.839 146.022,64.490 146.165,64.597 146.484 M83.043 146.452 C 82.643 146.934,83.292 147.149,83.987 146.765 C 84.277 146.604,84.599 146.496,84.702 146.526 C 84.805 146.555,84.824 146.475,84.745 146.347 C 84.529 145.996,83.361 146.068,83.043 146.452 M50.791 148.084 C 51.051 148.584,51.877 148.993,52.125 148.744 C 52.199 148.671,52.121 148.610,51.953 148.610 C 51.784 148.610,51.396 148.381,51.090 148.100 L 50.534 147.589 50.791 148.084 M74.532 152.694 C 74.455 152.819,74.460 153.031,74.542 153.165 C 74.715 153.444,73.763 154.552,73.494 154.385 C 73.236 154.226,73.034 154.639,73.182 155.025 C 73.252 155.207,73.559 155.469,73.864 155.608 C 74.169 155.747,74.419 156.013,74.419 156.199 C 74.419 156.647,75.022 156.407,76.014 155.565 L 76.776 154.918 76.292 154.544 C 76.025 154.338,75.738 153.886,75.654 153.539 C 75.487 152.852,74.769 152.311,74.532 152.694 M63.011 154.310 C 63.540 154.838,63.056 155.190,61.802 155.190 C 60.884 155.190,60.579 155.108,60.579 154.861 C 60.579 154.168,62.446 153.745,63.011 154.310 M60.537 156.788 C 60.845 158.436,62.948 160.216,64.889 160.471 C 65.480 160.549,66.006 160.764,66.137 160.980 C 66.717 161.938,66.899 162.042,68.264 162.203 C 69.417 162.339,69.781 162.486,70.181 162.975 C 70.652 163.551,70.785 163.582,73.057 163.639 L 75.440 163.698 75.509 164.294 C 75.563 164.766,75.462 164.920,75.023 165.030 C 74.003 165.286,74.089 166.534,75.127 166.534 C 75.361 166.534,75.553 166.680,75.553 166.858 C 75.553 167.321,76.190 167.896,76.704 167.896 C 77.300 167.896,77.258 167.430,76.647 167.270 L 76.154 167.141 76.647 166.958 C 77.364 166.694,77.253 166.307,76.461 166.307 C 75.883 166.307,75.780 166.220,75.780 165.731 C 75.780 164.927,79.517 164.936,79.532 165.740 C 79.544 166.412,79.813 166.732,80.266 166.614 C 80.526 166.545,80.847 166.752,81.180 167.202 C 81.594 167.762,81.857 167.896,82.548 167.896 C 83.590 167.896,83.948 168.217,83.948 169.154 C 83.948 169.915,83.203 170.839,82.937 170.408 C 82.837 170.246,82.692 170.259,82.484 170.450 C 82.296 170.624,82.256 170.827,82.382 170.981 C 82.510 171.138,82.429 171.371,82.164 171.611 C 81.791 171.949,81.712 171.953,81.459 171.647 C 81.059 171.166,80.707 171.464,80.876 172.139 C 81.072 172.918,80.642 173.341,79.655 173.341 C 78.028 173.341,77.608 175.393,79.070 176.201 C 79.468 176.421,79.532 176.725,79.589 178.665 C 79.673 181.533,79.486 181.403,83.811 181.582 C 87.662 181.741,88.032 181.855,88.032 182.882 C 88.032 184.043,87.039 184.634,86.679 183.686 C 86.410 182.980,85.991 182.729,85.741 183.125 C 85.405 183.655,85.514 184.114,86.032 184.348 C 86.779 184.685,86.783 185.095,86.045 185.519 C 85.681 185.728,85.289 186.111,85.176 186.370 C 84.990 186.793,84.722 186.852,82.549 186.954 C 80.242 187.062,80.108 187.096,79.640 187.691 L 79.150 188.315 75.582 188.315 C 71.127 188.315,71.469 188.668,71.469 184.067 C 71.469 180.382,71.466 180.362,70.933 180.159 C 70.314 179.924,70.108 179.501,70.108 178.466 C 70.108 177.913,69.967 177.653,69.544 177.427 C 69.234 177.261,68.919 176.931,68.844 176.694 C 68.769 176.457,68.472 176.156,68.185 176.025 C 67.897 175.894,67.551 175.543,67.415 175.244 C 67.279 174.946,67.071 174.702,66.952 174.702 C 66.494 174.702,66.024 173.955,66.024 173.226 C 66.024 172.581,65.761 172.197,64.330 170.747 L 62.635 169.030 61.180 169.030 C 59.784 169.030,59.700 169.062,59.119 169.824 C 58.589 170.519,58.389 170.618,57.516 170.618 C 56.652 170.618,56.480 170.702,56.221 171.242 L 55.922 171.866 53.115 171.930 C 50.211 171.996,49.461 171.790,49.461 170.923 C 49.461 170.695,49.036 170.618,47.771 170.618 C 46.106 170.618,46.072 170.606,45.475 169.824 C 44.970 169.161,44.727 169.030,44.004 169.030 C 43.302 169.030,43.048 168.902,42.655 168.349 C 42.174 167.675,42.151 167.669,40.012 167.669 L 37.854 167.669 36.851 168.672 C 36.052 169.471,35.848 169.834,35.848 170.459 C 35.848 171.511,35.557 171.690,33.701 171.785 C 32.229 171.861,32.102 171.829,31.853 171.332 C 31.705 171.038,31.344 170.678,31.051 170.531 C 30.226 170.121,30.104 165.574,30.906 165.151 C 31.604 164.783,31.756 164.512,31.761 163.634 C 31.763 163.024,32.008 162.655,33.125 161.578 C 34.228 160.516,34.487 160.130,34.487 159.547 C 34.487 157.653,38.410 155.775,39.526 157.135 C 39.855 157.536,40.431 158.123,40.880 158.515 C 41.045 158.659,41.604 159.231,42.123 159.787 C 42.642 160.343,43.229 160.860,43.428 160.936 C 43.919 161.125,43.935 163.406,43.449 163.893 C 42.902 164.439,42.977 167.129,43.547 167.434 C 44.901 168.158,45.251 167.783,45.553 165.286 C 45.696 164.107,45.786 163.915,46.228 163.853 C 46.721 163.783,46.739 163.842,46.739 165.622 C 46.739 167.904,47.088 168.690,48.244 169.010 C 48.697 169.135,49.479 169.522,49.982 169.871 C 52.238 171.434,56.981 170.465,56.378 168.565 C 56.093 167.668,55.043 167.390,52.085 167.428 C 50.573 167.447,48.904 167.394,48.377 167.310 L 47.419 167.157 47.419 165.979 C 47.419 163.855,49.521 162.036,50.394 163.405 C 50.470 163.525,50.593 163.464,50.668 163.271 C 50.742 163.077,51.155 162.771,51.585 162.592 C 52.015 162.412,52.431 162.062,52.510 161.813 C 52.589 161.564,52.905 161.298,53.213 161.221 C 53.609 161.121,53.772 160.925,53.772 160.545 C 53.772 159.817,54.339 159.351,54.779 159.717 C 54.959 159.866,55.046 160.144,54.973 160.334 C 54.829 160.711,55.255 161.080,55.841 161.086 C 56.080 161.088,56.251 160.831,56.332 160.352 C 56.624 158.604,57.629 157.703,57.629 159.188 C 57.629 159.360,57.726 159.501,57.845 159.501 C 57.964 159.501,58.424 159.875,58.867 160.331 C 59.311 160.788,59.742 161.093,59.826 161.010 C 59.909 160.926,59.183 160.091,58.212 159.154 C 56.267 157.278,56.188 156.778,57.833 156.778 C 58.480 156.778,58.801 156.620,59.290 156.062 C 60.030 155.220,60.270 155.359,60.537 156.788 M65.797 155.871 C 66.085 156.120,66.488 156.324,66.694 156.324 C 67.165 156.324,67.612 156.761,67.612 157.223 C 67.612 157.761,68.490 158.196,69.878 158.345 C 71.839 158.556,71.587 159.112,69.427 159.342 C 67.754 159.520,67.242 159.491,64.575 159.065 C 62.005 158.654,60.192 155.871,62.494 155.871 C 63.173 155.871,63.791 155.769,63.868 155.644 C 64.106 155.259,65.246 155.393,65.797 155.871 M56.268 158.599 C 56.268 159.093,55.949 159.501,55.563 159.501 C 55.084 159.501,54.976 158.841,55.388 158.430 C 55.654 158.163,56.268 158.281,56.268 158.599 M46.385 159.940 C 46.958 160.573,46.643 160.862,45.383 160.862 C 44.176 160.862,43.858 160.544,44.421 159.898 C 44.880 159.371,45.890 159.393,46.385 159.940 M78.276 160.053 C 78.276 160.427,78.111 160.656,77.765 160.764 C 77.073 160.980,76.922 161.267,76.918 162.369 C 76.913 163.651,75.965 164.102,75.553 163.018 C 75.380 162.563,75.181 162.450,74.548 162.450 C 71.938 162.450,71.956 161.116,74.570 160.844 C 75.588 160.738,76.175 160.535,76.725 160.102 C 77.697 159.336,78.276 159.318,78.276 160.053 M50.557 161.259 C 50.902 161.931,50.615 162.224,49.612 162.221 C 48.825 162.220,48.568 162.340,48.076 162.939 C 47.054 164.182,46.302 163.174,46.960 161.444 C 47.246 160.691,50.187 160.539,50.557 161.259 M46.058 162.060 C 46.058 162.344,45.905 162.795,45.718 163.062 C 45.530 163.329,45.239 164.088,45.070 164.748 C 44.772 165.915,44.755 165.933,44.468 165.396 C 44.126 164.759,44.136 163.349,44.488 162.282 C 44.799 161.339,46.058 161.160,46.058 162.060 M60.295 162.103 C 60.354 162.411,60.620 162.737,60.887 162.828 C 61.517 163.042,60.558 163.290,58.947 163.331 C 58.362 163.346,57.826 163.450,57.757 163.561 C 57.570 163.865,57.880 165.185,58.106 165.045 C 58.213 164.979,58.507 165.036,58.759 165.170 C 59.227 165.421,59.382 166.179,59.012 166.408 C 58.894 166.481,58.918 166.775,59.068 167.100 C 59.431 167.882,60.532 167.869,61.481 167.071 C 62.011 166.625,62.549 166.436,63.597 166.327 C 65.828 166.094,66.137 165.627,64.369 165.160 C 63.219 164.856,61.940 163.702,61.940 162.967 C 61.940 162.613,61.754 162.368,61.373 162.223 C 61.061 162.105,60.805 161.903,60.805 161.775 C 60.805 161.647,60.666 161.543,60.497 161.543 C 60.291 161.543,60.223 161.729,60.295 162.103 M41.747 163.093 C 41.747 163.670,41.989 163.855,42.350 163.555 C 42.803 163.179,42.718 162.677,42.201 162.677 C 41.912 162.677,41.747 162.829,41.747 163.093 M69.268 165.718 C 68.912 166.018,68.190 166.379,67.664 166.520 C 66.987 166.703,66.610 166.966,66.375 167.421 C 66.033 168.082,65.474 168.341,64.379 168.346 C 63.601 168.350,63.562 168.706,64.319 168.895 C 64.659 168.981,64.937 169.252,65.019 169.581 C 65.100 169.903,65.378 170.181,65.700 170.262 C 66.028 170.344,66.300 170.622,66.385 170.962 C 66.463 171.272,66.662 171.526,66.826 171.526 C 67.395 171.526,67.839 172.232,67.839 173.135 C 67.839 173.860,67.943 174.079,68.381 174.278 C 68.679 174.414,69.034 174.769,69.170 175.068 C 69.338 175.435,69.606 175.610,70.002 175.610 C 72.466 175.610,74.392 177.308,72.475 177.789 C 72.008 177.906,71.923 178.065,71.923 178.811 L 71.923 179.694 74.164 179.694 C 75.802 179.694,76.476 179.609,76.667 179.378 C 76.811 179.204,77.232 178.936,77.603 178.783 C 78.487 178.417,78.527 177.429,77.692 176.593 C 77.228 176.130,77.074 175.690,76.942 174.459 C 76.847 173.566,76.622 172.735,76.413 172.500 C 76.213 172.276,75.938 171.675,75.802 171.165 C 75.666 170.654,75.361 170.061,75.124 169.846 C 74.886 169.632,74.581 169.013,74.444 168.471 C 74.179 167.417,73.118 166.307,72.376 166.307 C 72.145 166.307,71.755 166.052,71.510 165.740 C 70.941 165.018,70.110 165.010,69.268 165.718 M50.822 166.807 C 50.822 166.907,51.665 166.976,52.694 166.962 C 54.794 166.932,54.652 166.826,52.354 166.706 C 51.512 166.662,50.822 166.708,50.822 166.807 M71.798 166.757 C 72.854 167.158,73.965 168.475,73.965 169.325 C 73.965 169.888,74.144 170.249,74.645 170.696 C 75.151 171.147,75.326 171.502,75.326 172.080 C 75.326 172.508,75.422 173.109,75.538 173.416 C 75.866 174.279,75.395 174.752,74.296 174.662 C 73.442 174.592,73.381 174.535,73.056 173.509 C 72.868 172.915,72.434 172.189,72.092 171.895 C 71.643 171.509,71.469 171.147,71.469 170.598 C 71.469 169.960,71.242 169.621,70.080 168.514 C 68.329 166.848,69.333 165.820,71.798 166.757 M32.051 167.272 C 31.609 167.837,31.561 168.671,31.927 169.442 C 32.559 170.774,32.896 169.821,32.694 167.272 C 32.682 167.116,32.582 166.988,32.472 166.988 C 32.363 166.988,32.174 167.116,32.051 167.272 M41.267 169.527 C 41.686 170.196,40.922 170.845,39.716 170.845 C 39.034 170.845,38.820 170.955,38.612 171.412 C 38.440 171.789,38.170 171.980,37.806 171.980 C 36.877 171.980,36.781 170.785,37.687 170.497 C 37.926 170.421,38.276 170.060,38.465 169.695 C 38.922 168.812,40.752 168.702,41.267 169.527 M79.735 169.824 C 79.228 170.489,78.987 170.618,78.257 170.618 C 77.640 170.618,77.318 170.741,77.160 171.037 C 76.817 171.679,77.296 171.980,78.661 171.980 C 79.835 171.980,80.235 171.717,79.495 171.433 C 79.175 171.310,79.198 171.219,79.665 170.749 C 80.458 169.952,80.771 169.532,80.771 169.267 C 80.771 168.805,80.332 169.041,79.735 169.824 M35.564 172.349 C 36.209 172.522,36.219 172.988,35.588 173.430 C 35.137 173.745,35.066 173.728,34.646 173.193 C 34.043 172.426,34.451 172.051,35.564 172.349 M83.324 184.692 C 82.772 184.914,82.638 185.480,83.097 185.647 C 83.750 185.885,84.998 185.124,84.524 184.777 C 84.028 184.415,84.017 184.414,83.324 184.692 " stroke="none" fill="#c82239" fill-rule="evenodd"></path><path id="path1" d="M81.493 130.963 C 81.346 131.110,81.225 131.584,81.225 132.016 C 81.225 132.790,79.383 134.997,78.736 134.997 C 78.258 134.997,78.531 135.519,79.505 136.466 C 80.622 137.551,80.998 137.481,80.998 136.187 C 80.998 135.425,82.829 133.182,83.450 133.182 C 84.034 133.182,83.848 132.745,82.840 131.756 C 82.011 130.942,81.698 130.758,81.493 130.963 M76.039 132.333 C 75.707 132.665,75.695 135.825,76.025 136.029 C 76.160 136.113,76.607 135.812,77.020 135.362 C 77.432 134.912,77.884 134.543,78.023 134.543 C 78.532 134.543,78.245 133.953,77.283 133.025 C 76.545 132.312,76.233 132.139,76.039 132.333 M86.761 132.593 C 86.495 133.287,86.782 134.419,87.288 134.669 C 87.565 134.807,88.009 135.196,88.275 135.534 C 88.880 136.302,89.393 135.995,89.393 134.865 C 89.393 134.169,88.712 133.182,88.231 133.182 C 88.138 133.182,87.998 132.978,87.918 132.728 C 87.754 132.209,86.944 132.115,86.761 132.593 M84.262 133.736 C 84.045 134.301,84.686 134.907,85.044 134.476 C 85.250 134.228,85.210 134.070,84.859 133.753 C 84.439 133.373,84.402 133.371,84.262 133.736 M71.741 133.908 C 71.558 134.091,71.469 135.118,71.469 137.039 C 71.469 140.430,71.461 140.442,69.397 140.442 C 67.959 140.442,67.841 140.482,67.385 141.123 C 67.119 141.497,66.716 141.804,66.490 141.804 C 65.707 141.804,65.524 142.362,66.123 142.925 C 66.741 143.506,67.015 143.419,67.494 142.493 C 67.784 141.932,67.998 141.830,69.172 141.694 C 71.329 141.443,72.118 142.146,70.785 143.131 C 69.806 143.855,70.168 144.476,71.625 144.571 C 72.877 144.652,72.964 144.836,73.204 147.883 C 73.323 149.383,73.438 149.811,73.771 149.989 C 74.024 150.125,74.248 150.586,74.340 151.157 C 74.424 151.683,74.712 152.309,74.990 152.568 C 75.265 152.825,75.569 153.290,75.666 153.602 C 75.847 154.183,76.618 155.016,77.326 155.394 C 77.611 155.547,77.881 155.487,78.283 155.182 L 78.843 154.757 77.425 153.322 C 76.211 152.095,76.007 151.770,76.007 151.068 C 76.007 150.232,75.737 149.972,74.869 149.972 C 74.270 149.972,74.134 149.310,74.225 146.833 C 74.305 144.654,74.305 144.652,73.690 144.354 C 72.922 143.982,72.820 143.470,72.762 139.690 L 72.717 136.781 73.504 136.138 L 74.291 135.495 73.334 134.565 C 72.295 133.557,72.152 133.498,71.741 133.908 M85.564 135.060 C 84.991 135.633,85.556 137.561,86.182 137.174 C 86.560 136.940,86.518 135.074,86.131 134.926 C 85.959 134.860,85.704 134.920,85.564 135.060 M74.638 136.481 C 74.395 136.774,74.405 136.896,74.700 137.190 C 75.022 137.513,75.077 137.504,75.299 137.089 C 75.635 136.462,75.079 135.949,74.638 136.481 M89.772 136.282 C 89.688 136.366,89.620 137.521,89.620 138.849 L 89.620 141.265 90.301 141.768 C 90.675 142.045,90.981 142.421,90.981 142.605 C 90.981 143.191,91.522 142.962,92.509 141.957 C 93.583 140.862,93.498 140.442,92.200 140.442 C 91.083 140.442,90.754 139.957,90.754 138.306 C 90.754 136.931,90.221 135.833,89.772 136.282 M77.413 140.942 C 77.030 141.325,77.040 145.358,77.425 145.503 C 77.581 145.562,78.348 145.556,79.129 145.489 C 80.835 145.343,81.321 145.660,81.546 147.062 L 81.694 147.988 82.424 147.159 C 82.825 146.702,83.511 146.141,83.948 145.911 C 85.179 145.264,84.980 144.877,83.381 144.808 C 81.488 144.727,81.051 144.596,80.880 144.058 C 80.799 143.801,80.488 143.480,80.189 143.344 C 79.524 143.041,79.302 142.429,79.632 141.812 C 79.863 141.381,80.092 141.350,83.077 141.350 L 86.273 141.350 87.379 142.492 C 89.101 144.268,88.821 146.111,86.828 146.118 C 85.482 146.123,85.095 146.425,85.971 146.787 C 87.000 147.214,87.376 148.740,86.868 150.435 C 86.543 151.519,86.759 152.467,87.331 152.467 C 87.832 152.467,88.032 152.041,88.032 150.974 C 88.032 150.548,88.124 150.199,88.237 150.199 C 88.349 150.199,88.962 149.663,89.598 149.007 L 90.755 147.816 90.265 147.410 C 89.995 147.187,89.612 146.911,89.414 146.798 C 89.095 146.617,89.112 146.533,89.555 146.084 C 90.093 145.540,90.981 145.935,90.981 146.717 C 90.981 147.276,91.538 147.029,92.509 146.041 C 93.585 144.945,93.498 144.526,92.193 144.526 C 91.504 144.526,90.528 143.836,90.528 143.349 C 90.528 143.248,90.377 143.165,90.194 143.165 C 90.011 143.165,89.634 142.859,89.357 142.484 C 89.080 142.110,88.732 141.804,88.582 141.804 C 88.433 141.804,88.144 141.548,87.939 141.237 L 87.568 140.669 82.627 140.669 C 79.086 140.669,77.609 140.746,77.413 140.942 M59.852 148.311 C 58.572 148.648,59.370 149.972,60.854 149.972 C 61.560 149.972,61.771 150.078,61.981 150.539 C 62.123 150.851,62.318 151.106,62.414 151.106 C 62.886 151.106,63.301 151.898,63.301 152.800 C 63.301 154.200,63.784 154.288,64.898 153.089 C 65.856 152.057,65.997 151.555,65.457 151.106 C 65.269 150.951,65.116 150.690,65.116 150.527 C 65.116 149.959,64.408 149.518,63.497 149.518 C 62.769 149.518,62.479 149.384,62.019 148.837 C 61.461 148.175,60.893 148.037,59.852 148.311 M69.531 151.997 C 69.613 152.131,69.830 152.240,70.013 152.240 C 70.531 152.240,70.810 153.244,70.522 154.071 C 70.245 154.866,70.490 155.180,71.394 155.187 C 72.556 155.195,72.714 154.928,71.925 154.284 C 71.402 153.857,71.141 153.417,71.040 152.790 C 70.910 151.981,70.827 151.894,70.139 151.827 C 69.643 151.780,69.432 151.839,69.531 151.997 M60.976 154.301 C 60.757 154.428,60.579 154.680,60.579 154.861 C 60.579 155.316,62.972 155.331,63.146 154.877 C 63.421 154.160,61.907 153.758,60.976 154.301 M59.290 156.062 C 58.801 156.620,58.480 156.778,57.833 156.778 C 56.187 156.778,56.267 157.278,58.214 159.156 C 59.187 160.094,60.063 160.862,60.161 160.862 C 60.259 160.862,60.492 161.155,60.677 161.514 C 60.862 161.872,61.222 162.220,61.477 162.287 C 61.781 162.366,61.940 162.595,61.940 162.952 C 61.940 163.702,63.205 164.852,64.369 165.160 C 66.144 165.629,65.827 166.094,63.573 166.329 C 62.530 166.438,61.991 166.620,61.585 167.002 C 61.189 167.374,60.620 167.574,59.623 167.691 C 58.480 167.826,58.140 167.966,57.792 168.443 C 57.557 168.766,57.172 169.030,56.937 169.030 C 56.703 169.030,56.401 169.234,56.268 169.484 C 55.563 170.801,51.670 171.041,49.982 169.871 C 49.479 169.522,48.697 169.135,48.244 169.010 C 47.088 168.690,46.739 167.904,46.739 165.622 C 46.739 163.842,46.721 163.783,46.228 163.853 C 45.786 163.915,45.696 164.107,45.553 165.286 C 45.251 167.783,44.901 168.158,43.547 167.434 C 42.977 167.129,42.902 164.439,43.449 163.893 C 43.935 163.406,43.919 161.125,43.428 160.936 C 43.229 160.860,42.642 160.343,42.123 159.787 C 41.604 159.231,41.045 158.659,40.880 158.515 C 40.431 158.123,39.855 157.536,39.526 157.135 C 38.410 155.775,34.487 157.653,34.487 159.547 C 34.487 160.130,34.228 160.516,33.125 161.578 C 32.008 162.655,31.763 163.024,31.761 163.634 C 31.756 164.512,31.604 164.783,30.906 165.151 C 30.104 165.574,30.226 170.121,31.051 170.531 C 31.344 170.678,31.705 171.038,31.853 171.332 C 32.102 171.829,32.229 171.861,33.701 171.785 C 35.557 171.690,35.848 171.511,35.848 170.459 C 35.848 169.834,36.052 169.471,36.851 168.672 L 37.854 167.669 40.012 167.669 C 42.151 167.669,42.174 167.675,42.655 168.349 C 43.048 168.902,43.302 169.030,44.004 169.030 C 44.727 169.030,44.970 169.161,45.475 169.824 C 46.072 170.606,46.106 170.618,47.771 170.618 C 49.036 170.618,49.461 170.695,49.461 170.923 C 49.461 171.790,50.211 171.996,53.115 171.930 L 55.922 171.866 56.221 171.242 C 56.480 170.702,56.652 170.618,57.516 170.618 C 58.389 170.618,58.589 170.519,59.119 169.824 C 59.700 169.062,59.784 169.030,61.180 169.030 L 62.635 169.030 64.330 170.747 C 65.761 172.197,66.024 172.581,66.024 173.226 C 66.024 173.955,66.494 174.702,66.952 174.702 C 67.071 174.702,67.279 174.946,67.415 175.244 C 67.551 175.543,67.897 175.894,68.185 176.025 C 68.472 176.156,68.769 176.457,68.844 176.694 C 68.919 176.931,69.234 177.261,69.544 177.427 C 69.967 177.653,70.108 177.913,70.108 178.466 C 70.108 179.501,70.314 179.924,70.933 180.159 C 71.466 180.362,71.469 180.382,71.469 184.067 C 71.469 188.668,71.127 188.315,75.582 188.315 L 79.150 188.315 79.640 187.691 C 80.108 187.096,80.242 187.062,82.549 186.954 C 84.722 186.852,84.990 186.793,85.176 186.370 C 85.289 186.111,85.681 185.728,86.045 185.519 C 86.786 185.094,86.774 184.699,86.009 184.314 C 85.139 183.877,85.040 183.659,85.516 183.228 C 86.027 182.766,86.382 182.907,86.679 183.686 C 87.039 184.634,88.032 184.043,88.032 182.882 C 88.032 181.855,87.662 181.741,83.811 181.582 C 79.486 181.403,79.673 181.533,79.589 178.665 C 79.532 176.725,79.468 176.421,79.070 176.201 C 77.608 175.393,78.028 173.341,79.655 173.341 C 80.554 173.341,81.130 172.877,80.917 172.323 C 80.816 172.060,80.398 171.980,79.122 171.980 C 77.311 171.980,76.790 171.729,77.160 171.037 C 77.318 170.741,77.640 170.618,78.257 170.618 C 78.987 170.618,79.228 170.489,79.735 169.824 C 80.646 168.630,82.221 168.642,82.724 169.848 C 83.055 170.639,83.080 170.652,83.507 170.266 C 84.528 169.342,83.943 167.896,82.548 167.896 C 81.861 167.896,81.594 167.762,81.189 167.215 C 80.578 166.388,80.187 166.348,79.999 167.095 C 79.640 168.525,75.553 168.308,75.553 166.858 C 75.553 166.680,75.361 166.534,75.127 166.534 C 74.089 166.534,74.003 165.286,75.023 165.030 C 75.462 164.920,75.563 164.766,75.509 164.294 L 75.440 163.698 73.057 163.639 C 70.785 163.582,70.652 163.551,70.181 162.975 C 69.781 162.486,69.417 162.339,68.264 162.203 C 66.899 162.042,66.717 161.938,66.137 160.980 C 66.006 160.764,65.480 160.549,64.889 160.471 C 62.948 160.216,60.845 158.436,60.537 156.788 C 60.270 155.359,60.030 155.220,59.290 156.062 M74.557 156.874 C 74.360 157.658,74.612 158.140,75.218 158.140 C 76.577 158.140,76.819 157.582,75.789 156.821 C 74.933 156.188,74.727 156.197,74.557 156.874 M79.961 157.120 C 79.725 157.557,79.352 157.973,79.131 158.043 C 78.591 158.214,78.164 159.026,78.459 159.321 C 78.740 159.602,79.638 159.338,79.635 158.975 C 79.634 158.827,79.955 158.442,80.349 158.118 C 80.938 157.634,81.038 157.423,80.914 156.927 C 80.711 156.120,80.473 156.168,79.961 157.120 M55.388 158.430 C 54.976 158.841,55.084 159.501,55.563 159.501 C 55.949 159.501,56.268 159.093,56.268 158.599 C 56.268 158.281,55.654 158.163,55.388 158.430 M44.421 159.898 C 43.858 160.544,44.176 160.862,45.383 160.862 C 46.643 160.862,46.958 160.573,46.385 159.940 C 45.890 159.393,44.880 159.371,44.421 159.898 M54.044 159.773 C 53.680 160.137,53.698 160.785,54.076 160.930 C 54.690 161.166,55.307 160.219,54.843 159.755 C 54.520 159.432,54.382 159.435,54.044 159.773 M76.725 160.102 C 76.175 160.535,75.588 160.738,74.570 160.844 C 71.956 161.116,71.938 162.450,74.548 162.450 C 75.181 162.450,75.380 162.563,75.553 163.018 C 75.965 164.102,76.913 163.651,76.918 162.369 C 76.922 161.267,77.073 160.980,77.765 160.764 C 78.111 160.656,78.276 160.427,78.276 160.053 C 78.276 159.318,77.697 159.336,76.725 160.102 M46.960 161.444 C 46.302 163.174,47.054 164.182,48.076 162.939 C 48.568 162.340,48.825 162.220,49.612 162.221 C 50.165 162.223,50.600 162.106,50.659 161.940 C 51.089 160.741,47.414 160.249,46.960 161.444 M63.001 161.452 C 63.179 161.917,62.620 162.279,62.228 161.954 C 62.007 161.770,61.998 161.633,62.192 161.399 C 62.533 160.988,62.830 161.007,63.001 161.452 M42.505 162.715 C 42.938 163.406,42.302 163.876,41.497 163.460 C 40.771 163.084,40.702 162.905,41.120 162.487 C 41.488 162.120,42.206 162.238,42.505 162.715 M64.433 162.788 C 64.767 163.190,64.232 163.502,63.616 163.266 C 63.248 163.125,63.550 162.450,63.982 162.450 C 64.076 162.450,64.279 162.602,64.433 162.788 M51.320 164.983 L 51.390 166.194 53.829 166.258 C 56.403 166.326,57.175 165.884,55.757 165.153 C 55.476 165.008,55.043 164.710,54.793 164.490 C 54.510 164.241,53.758 164.031,52.795 163.932 L 51.251 163.773 51.320 164.983 M67.158 164.034 C 67.456 164.222,67.449 164.299,67.103 164.645 C 66.644 165.104,66.097 164.768,66.327 164.167 C 66.483 163.760,66.676 163.729,67.158 164.034 M34.584 165.303 C 35.151 165.870,34.244 166.704,33.363 166.424 C 32.595 166.181,33.059 164.946,33.919 164.946 C 34.089 164.946,34.388 165.107,34.584 165.303 M71.510 165.740 C 71.755 166.052,72.145 166.307,72.376 166.307 C 73.118 166.307,74.179 167.417,74.444 168.471 C 74.581 169.013,74.886 169.632,75.124 169.846 C 75.361 170.061,75.666 170.654,75.802 171.165 C 75.938 171.675,76.213 172.276,76.413 172.500 C 76.622 172.735,76.847 173.566,76.942 174.459 C 77.074 175.690,77.228 176.130,77.692 176.593 C 78.527 177.429,78.487 178.417,77.603 178.783 C 77.232 178.936,76.811 179.204,76.667 179.378 C 76.476 179.609,75.802 179.694,74.164 179.694 L 71.923 179.694 71.923 178.811 C 71.923 178.065,72.008 177.906,72.475 177.789 C 74.392 177.308,72.466 175.610,70.002 175.610 C 69.606 175.610,69.338 175.435,69.170 175.068 C 69.034 174.769,68.679 174.414,68.381 174.278 C 67.943 174.079,67.839 173.860,67.839 173.135 C 67.839 172.232,67.395 171.526,66.826 171.526 C 66.662 171.526,66.463 171.272,66.385 170.962 C 66.300 170.622,66.028 170.344,65.700 170.262 C 65.378 170.181,65.100 169.903,65.019 169.581 C 64.937 169.252,64.659 168.981,64.319 168.895 C 63.562 168.706,63.601 168.350,64.379 168.346 C 65.474 168.341,66.033 168.082,66.375 167.421 C 66.610 166.966,66.987 166.703,67.664 166.520 C 68.190 166.379,68.912 166.018,69.268 165.718 C 70.110 165.010,70.941 165.018,71.510 165.740 M75.780 165.740 L 75.780 166.326 77.652 166.260 C 79.350 166.200,79.524 166.152,79.524 165.740 C 79.524 165.328,79.350 165.280,77.652 165.221 L 75.780 165.155 75.780 165.740 M56.495 166.743 C 56.495 167.260,56.806 167.669,57.200 167.669 C 57.651 167.669,57.719 167.487,57.491 166.893 C 57.346 166.515,56.495 166.386,56.495 166.743 M32.887 167.860 C 33.134 168.610,33.121 168.834,32.791 169.472 L 32.408 170.213 32.042 169.691 C 31.619 169.086,31.594 167.807,31.996 167.322 C 32.417 166.815,32.573 166.909,32.887 167.860 M81.376 171.169 C 81.158 171.737,81.787 172.033,82.212 171.563 C 82.419 171.335,82.519 171.080,82.436 170.997 C 82.167 170.728,81.504 170.835,81.376 171.169 M84.399 184.675 L 84.964 185.109 84.310 185.358 C 83.950 185.494,83.579 185.654,83.485 185.712 C 83.391 185.770,83.093 185.638,82.823 185.419 C 81.683 184.496,83.221 183.770,84.399 184.675 " stroke="none" fill="#090e40" fill-rule="evenodd"></path><path id="path2" d="M73.103 110.085 C 72.507 110.681,73.056 111.788,73.805 111.501 C 74.353 111.291,74.467 110.696,74.049 110.234 C 73.602 109.740,73.469 109.719,73.103 110.085 M73.850 110.492 C 74.126 110.938,73.630 111.477,73.304 111.085 C 73.017 110.739,73.137 110.267,73.511 110.267 C 73.621 110.267,73.774 110.368,73.850 110.492 M53.646 113.256 C 53.437 113.913,54.052 114.351,55.182 114.351 C 55.888 114.351,56.091 114.452,56.256 114.887 C 56.517 115.574,57.159 115.825,57.579 115.405 C 57.960 115.024,57.755 114.124,57.286 114.124 C 57.115 114.124,56.793 113.817,56.572 113.443 C 56.038 112.539,53.917 112.403,53.646 113.256 M77.033 113.198 C 76.895 113.633,80.242 117.300,80.777 117.300 C 80.900 117.300,80.998 118.018,80.998 118.918 L 80.998 120.537 82.360 121.820 L 83.721 123.104 83.721 124.611 C 83.721 126.026,83.762 126.147,84.402 126.602 C 85.088 127.091,85.379 128.967,84.945 130.101 C 84.293 131.799,81.225 129.272,81.225 127.037 L 81.225 125.621 79.864 124.334 C 78.745 123.275,78.503 122.915,78.503 122.311 C 78.503 121.225,76.809 119.569,75.700 119.569 C 75.074 119.569,74.800 119.423,74.419 118.888 C 74.023 118.333,73.772 118.208,73.057 118.208 C 72.342 118.208,72.091 118.082,71.696 117.527 C 71.214 116.849,71.201 116.846,68.973 116.846 C 66.746 116.846,66.733 116.843,66.251 116.166 L 65.766 115.485 63.314 115.485 C 60.614 115.485,60.087 115.700,60.571 116.605 C 60.758 116.955,61.044 117.073,61.705 117.073 C 62.193 117.073,62.722 117.222,62.888 117.406 C 63.053 117.588,63.303 117.869,63.444 118.030 C 63.584 118.190,63.891 118.493,64.124 118.702 C 64.358 118.912,64.681 119.244,64.842 119.440 C 65.014 119.649,65.488 119.796,65.994 119.796 C 66.680 119.796,66.916 119.911,67.158 120.363 C 67.325 120.675,67.531 120.930,67.616 120.930 C 67.875 120.930,68.746 121.763,68.746 122.010 C 68.746 122.365,69.339 122.518,70.708 122.518 C 72.019 122.518,72.829 122.803,72.832 123.264 C 72.833 123.415,73.139 123.713,73.512 123.926 C 74.062 124.238,74.192 124.463,74.192 125.099 C 74.192 126.113,74.386 126.602,74.790 126.602 C 75.608 126.602,75.343 127.345,74.107 128.513 C 73.039 129.523,72.830 129.848,72.830 130.498 C 72.830 131.490,72.490 131.821,71.469 131.821 C 70.318 131.821,70.108 132.139,70.108 133.880 C 70.108 134.930,70.006 135.480,69.777 135.670 C 69.275 136.087,68.973 135.747,68.973 134.764 C 68.973 134.041,68.847 133.783,68.293 133.373 C 67.766 132.983,67.612 132.694,67.612 132.088 C 67.612 130.910,63.040 126.375,61.852 126.375 C 61.235 126.375,60.958 126.228,60.579 125.695 C 60.183 125.140,59.932 125.014,59.217 125.014 C 58.502 125.014,58.251 124.889,57.856 124.334 C 57.393 123.683,57.298 123.653,55.701 123.653 C 54.103 123.653,54.008 123.683,53.545 124.334 C 53.150 124.889,52.899 125.014,52.184 125.014 C 51.469 125.014,51.218 125.140,50.822 125.695 C 50.427 126.250,50.176 126.375,49.461 126.375 C 48.746 126.375,48.495 126.501,48.100 127.056 C 47.641 127.700,47.530 127.737,46.049 127.737 C 44.572 127.737,44.455 127.776,43.980 128.417 L 43.477 129.098 39.217 129.098 C 34.832 129.098,34.033 129.280,34.033 130.275 C 34.033 130.377,33.632 130.459,33.142 130.459 C 32.329 130.459,31.537 130.896,31.537 131.345 C 31.537 131.440,31.284 131.653,30.974 131.819 C 30.664 131.985,30.352 132.303,30.281 132.526 C 30.211 132.749,29.964 132.992,29.734 133.065 C 29.504 133.138,29.076 133.551,28.782 133.982 C 28.488 134.414,28.145 134.768,28.020 134.769 C 27.896 134.771,27.589 135.077,27.340 135.451 C 27.090 135.825,26.756 136.131,26.598 136.131 C 26.439 136.131,26.194 136.385,26.053 136.694 C 25.912 137.004,25.601 137.319,25.363 137.395 C 25.125 137.470,24.823 137.767,24.692 138.055 C 24.561 138.342,24.210 138.688,23.911 138.824 C 23.613 138.960,23.369 139.201,23.369 139.360 C 23.368 139.519,23.062 139.853,22.689 140.102 C 22.122 140.481,22.009 140.707,22.009 141.470 C 22.008 142.145,21.882 142.471,21.526 142.718 C 20.463 143.455,20.420 143.577,20.420 145.859 C 20.420 148.355,20.550 148.610,21.820 148.610 C 22.507 148.610,22.774 148.744,23.178 149.291 C 23.657 149.938,23.762 149.972,25.328 149.972 C 26.916 149.972,26.988 149.995,27.376 150.652 C 27.597 151.027,27.884 151.333,28.013 151.334 C 28.142 151.334,28.452 151.640,28.701 152.014 L 29.155 152.693 32.345 152.694 L 35.536 152.694 36.039 152.014 C 36.397 151.529,36.732 151.333,37.201 151.333 C 37.673 151.333,37.996 151.525,38.344 152.014 C 38.801 152.656,38.916 152.694,40.374 152.694 C 41.874 152.694,41.938 152.718,42.526 153.488 L 43.131 154.282 46.054 154.282 L 48.976 154.282 49.461 154.963 C 49.848 155.507,50.114 155.645,50.781 155.648 C 52.641 155.656,54.423 158.725,52.944 159.375 C 52.676 159.492,52.278 159.891,52.060 160.261 L 51.663 160.933 51.072 160.215 C 50.517 159.539,50.394 159.497,48.966 159.499 C 47.540 159.501,47.421 159.461,46.965 158.820 C 46.485 158.145,46.464 158.140,44.305 158.140 L 42.129 158.140 40.718 156.665 L 39.307 155.190 37.897 155.190 L 36.487 155.190 34.708 156.984 C 33.189 158.514,32.918 158.905,32.857 159.649 C 32.803 160.298,32.653 160.580,32.272 160.747 C 31.991 160.870,31.704 161.148,31.635 161.365 C 31.566 161.581,31.210 161.972,30.843 162.233 C 30.302 162.618,30.176 162.874,30.176 163.585 C 30.176 164.300,30.050 164.551,29.495 164.946 C 28.514 165.645,28.445 170.618,29.417 170.618 C 29.596 170.618,29.917 170.924,30.130 171.297 C 30.342 171.671,30.649 171.977,30.810 171.978 C 30.972 171.979,31.278 172.285,31.491 172.659 C 31.704 173.032,31.998 173.339,32.146 173.339 C 32.293 173.340,32.632 173.647,32.898 174.022 C 33.292 174.574,33.546 174.702,34.248 174.702 C 34.970 174.702,35.214 174.833,35.719 175.496 L 36.325 176.290 38.547 176.290 C 41.500 176.290,42.172 175.789,40.782 174.622 C 39.374 173.439,39.814 171.980,41.579 171.980 C 42.229 171.980,42.496 171.840,42.881 171.299 C 43.229 170.810,43.552 170.618,44.025 170.618 C 44.493 170.618,44.828 170.815,45.186 171.299 C 45.656 171.934,45.789 171.980,47.178 171.983 C 48.808 171.987,49.036 172.072,49.435 172.830 C 49.675 173.287,49.875 173.341,51.314 173.341 C 52.888 173.341,53.772 173.761,53.772 174.510 C 53.772 174.616,54.219 174.702,54.766 174.702 C 55.635 174.702,55.836 174.802,56.366 175.496 C 57.199 176.589,58.578 176.651,59.168 175.622 C 59.380 175.254,59.783 174.847,60.065 174.719 C 60.473 174.533,60.579 174.300,60.579 173.582 C 60.579 173.027,60.719 172.565,60.941 172.386 C 61.141 172.225,61.589 171.802,61.938 171.445 L 62.571 170.798 63.503 171.703 C 64.218 172.396,64.436 172.779,64.436 173.344 C 64.436 173.975,64.745 174.384,66.591 176.194 L 68.746 178.308 68.746 180.460 C 68.746 182.592,68.753 182.617,69.427 183.097 C 70.107 183.581,70.108 183.585,70.109 185.892 L 70.111 188.202 70.790 188.588 C 71.163 188.801,71.469 189.122,71.469 189.302 C 71.469 189.763,71.974 189.904,73.628 189.904 C 74.969 189.904,75.102 189.950,75.553 190.584 L 76.038 191.265 78.389 191.265 C 80.732 191.265,80.742 191.263,81.216 190.598 C 81.477 190.231,81.868 189.874,82.084 189.806 C 82.300 189.737,82.578 189.450,82.702 189.168 C 82.895 188.729,83.122 188.647,84.288 188.597 C 85.993 188.524,86.670 188.374,86.670 188.068 C 86.670 187.472,87.360 187.181,88.774 187.181 C 90.528 187.181,91.494 186.529,90.651 185.913 C 90.411 185.737,89.926 185.593,89.574 185.593 C 87.908 185.593,87.950 185.180,89.798 183.397 L 91.519 181.736 92.936 181.736 C 93.921 181.736,94.461 181.627,94.709 181.379 C 95.588 180.500,94.906 180.147,92.324 180.147 L 90.128 180.147 89.522 179.353 C 88.933 178.581,88.873 178.559,87.351 178.559 C 85.829 178.559,85.769 178.581,85.180 179.353 C 84.606 180.106,84.503 180.147,83.209 180.147 C 80.623 180.147,80.302 177.799,82.587 175.592 L 83.948 174.276 83.951 172.844 C 83.955 171.272,84.044 171.042,84.799 170.644 C 85.266 170.398,85.309 170.215,85.309 168.479 C 85.309 166.296,85.320 166.307,83.238 166.307 L 81.884 166.307 80.193 164.617 C 77.978 162.402,77.979 162.229,80.197 160.039 C 81.561 158.692,82.027 158.366,82.587 158.366 C 83.700 158.366,89.620 152.351,89.620 151.220 C 89.620 150.783,89.518 150.425,89.393 150.425 C 89.268 150.425,89.166 150.787,89.166 151.229 C 89.166 152.353,83.675 157.913,82.566 157.913 C 82.017 157.913,81.536 158.263,80.080 159.725 C 77.624 162.190,77.619 162.513,79.998 164.845 L 81.720 166.534 83.129 166.534 C 84.885 166.534,85.082 166.729,85.082 168.466 C 85.082 169.711,85.013 169.920,84.402 170.505 C 83.788 171.093,83.721 171.296,83.721 172.573 C 83.721 173.904,83.389 174.702,82.836 174.702 C 82.741 174.702,82.533 174.946,82.373 175.244 C 82.213 175.543,81.839 175.917,81.541 176.077 C 81.040 176.345,80.998 176.503,80.998 178.136 C 80.998 180.243,81.136 180.376,83.309 180.371 C 84.840 180.367,85.056 180.288,85.446 179.580 C 85.900 178.760,88.811 178.796,89.208 179.627 C 89.507 180.252,89.545 180.262,92.005 180.374 C 95.113 180.516,95.657 181.088,92.868 181.282 L 91.239 181.395 89.538 183.199 C 87.554 185.304,87.520 185.747,89.338 185.864 C 91.180 185.982,90.776 186.589,88.762 186.727 C 87.227 186.833,87.069 186.893,86.534 187.578 C 85.983 188.282,85.887 188.315,84.401 188.315 C 82.937 188.315,82.816 188.355,82.369 188.983 C 82.108 189.350,81.717 189.706,81.501 189.775 C 81.285 189.843,81.006 190.130,80.883 190.412 C 80.557 191.155,76.325 191.205,75.918 190.471 C 75.525 189.761,75.311 189.684,73.735 189.680 C 72.289 189.677,72.235 189.655,71.296 188.685 L 70.335 187.694 70.335 185.524 C 70.335 183.373,70.329 183.351,69.654 182.870 C 68.980 182.390,68.973 182.364,68.973 180.252 L 68.973 178.119 66.931 176.100 C 65.214 174.402,64.889 173.967,64.889 173.362 C 64.889 172.696,64.232 171.863,62.709 170.598 C 62.301 170.259,60.352 172.349,60.352 173.125 C 60.352 174.381,59.647 175.018,59.337 174.042 C 59.108 173.319,58.632 173.047,58.097 173.333 C 57.431 173.690,57.518 174.312,58.300 174.774 C 59.210 175.311,58.986 175.837,57.847 175.837 C 57.142 175.837,56.889 175.709,56.495 175.156 C 56.105 174.609,55.844 174.475,55.168 174.475 C 54.517 174.475,54.192 174.321,53.730 173.795 C 53.183 173.171,53.010 173.114,51.679 173.114 C 50.361 173.114,50.166 173.051,49.575 172.433 C 48.987 171.820,48.784 171.753,47.508 171.753 C 46.238 171.753,46.023 171.683,45.412 171.072 C 44.912 170.572,44.518 170.391,43.927 170.391 C 43.296 170.391,43.013 170.538,42.619 171.072 C 42.216 171.617,41.947 171.753,41.267 171.753 C 39.582 171.753,39.054 173.603,40.418 174.725 C 41.500 175.614,41.136 175.837,38.603 175.837 C 36.266 175.837,35.848 175.679,35.848 174.795 C 35.848 174.159,35.378 173.981,34.535 174.300 C 33.888 174.544,33.804 174.487,31.457 172.187 L 29.044 169.824 29.042 167.751 C 29.041 165.719,29.055 165.667,29.720 165.142 C 30.234 164.736,30.399 164.419,30.401 163.835 C 30.402 163.190,30.642 162.827,31.877 161.598 C 33.073 160.408,33.352 159.994,33.352 159.412 C 33.352 158.827,33.637 158.412,34.889 157.169 L 36.427 155.644 37.874 155.644 L 39.321 155.644 40.648 157.005 L 41.976 158.366 44.075 158.366 C 46.112 158.366,46.191 158.386,46.815 159.047 C 47.398 159.665,47.591 159.728,48.900 159.728 C 50.010 159.728,50.411 159.819,50.639 160.125 C 51.400 161.143,51.592 161.136,52.711 160.048 C 54.086 158.712,54.249 157.263,53.091 156.665 C 52.717 156.471,52.411 156.199,52.411 156.060 C 52.411 155.618,51.644 155.205,50.808 155.197 C 50.178 155.192,49.890 155.040,49.497 154.509 L 48.994 153.829 46.094 153.829 L 43.194 153.829 42.690 153.148 C 42.216 152.506,42.098 152.467,40.621 152.467 C 39.140 152.467,39.029 152.430,38.571 151.787 C 37.792 150.693,35.394 151.068,35.394 152.283 C 35.394 152.825,29.345 152.476,29.092 151.920 C 28.954 151.619,28.632 151.306,28.375 151.224 C 28.117 151.142,27.907 150.980,27.907 150.864 C 27.907 150.194,26.966 149.745,25.562 149.745 C 24.251 149.745,24.072 149.685,23.518 149.064 C 23.107 148.603,22.699 148.383,22.252 148.383 C 20.920 148.383,20.874 148.300,20.874 145.914 C 20.874 143.760,20.886 143.709,21.554 143.123 C 22.102 142.642,22.235 142.344,22.235 141.597 C 22.235 141.087,22.317 140.669,22.418 140.669 C 22.664 140.669,27.907 135.465,27.907 135.220 C 27.907 135.114,28.117 134.961,28.375 134.879 C 28.632 134.798,28.949 134.496,29.080 134.208 C 29.211 133.921,29.562 133.575,29.861 133.439 C 30.159 133.303,30.403 133.058,30.403 132.896 C 30.403 132.733,30.709 132.418,31.083 132.197 C 31.458 131.976,31.764 131.659,31.764 131.492 C 31.764 131.110,32.267 130.913,33.242 130.913 C 33.827 130.913,34.113 130.757,34.487 130.233 L 34.971 129.552 39.176 129.552 L 43.380 129.552 44.016 128.871 C 44.590 128.257,44.788 128.191,46.058 128.191 C 47.328 128.191,47.526 128.125,48.100 127.510 C 48.577 127.000,48.938 126.829,49.545 126.829 C 50.182 126.829,50.463 126.684,50.858 126.149 C 51.252 125.616,51.537 125.467,52.170 125.464 C 53.110 125.460,53.378 125.316,53.746 124.617 C 54.210 123.737,57.134 123.859,57.820 124.787 C 58.216 125.322,58.496 125.468,59.133 125.468 C 59.740 125.468,60.102 125.638,60.579 126.149 C 61.022 126.624,61.428 126.829,61.922 126.829 C 63.024 126.829,67.158 131.038,67.158 132.159 C 67.158 132.765,67.311 133.055,67.839 133.445 C 68.340 133.815,68.520 134.133,68.520 134.649 C 68.520 135.317,69.049 136.362,69.383 136.355 C 69.998 136.341,70.228 135.809,70.335 134.155 L 70.448 132.388 71.356 132.314 C 72.564 132.217,73.057 131.736,73.057 130.657 C 73.057 129.924,73.162 129.736,73.738 129.438 C 74.112 129.245,74.419 128.955,74.419 128.795 C 74.419 128.634,74.725 128.276,75.099 128.000 C 75.474 127.723,75.780 127.365,75.780 127.205 C 75.780 127.045,75.474 126.688,75.099 126.411 C 74.565 126.017,74.419 125.735,74.419 125.103 C 74.419 123.620,72.786 122.292,70.964 122.292 L 69.516 122.292 68.280 120.932 C 67.142 119.680,66.969 119.573,66.081 119.571 C 65.550 119.570,65.116 119.465,65.116 119.337 C 65.116 118.629,62.576 116.619,61.681 116.619 C 60.938 116.619,60.786 116.547,60.848 116.222 C 60.914 115.880,61.245 115.816,63.230 115.761 L 65.535 115.696 65.942 116.385 L 66.349 117.073 68.694 117.073 L 71.039 117.073 71.276 117.754 C 71.496 118.385,71.595 118.434,72.620 118.434 C 73.620 118.434,73.760 118.500,74.078 119.115 C 74.382 119.702,74.558 119.796,75.350 119.796 C 76.693 119.796,78.276 121.378,78.276 122.719 C 78.276 123.416,78.389 123.698,78.747 123.889 C 80.276 124.708,80.998 125.853,80.998 127.461 C 80.998 128.933,81.028 129.018,81.684 129.405 C 82.061 129.628,82.533 130.059,82.731 130.362 C 83.226 131.117,84.668 131.145,85.183 130.409 C 85.841 129.469,85.659 127.353,84.855 126.602 C 84.241 126.029,84.175 125.829,84.175 124.568 C 84.175 123.058,83.903 122.292,83.368 122.292 C 83.182 122.292,82.919 122.048,82.784 121.749 C 82.648 121.451,82.279 121.090,81.965 120.947 C 81.412 120.695,81.397 120.632,81.504 118.968 L 81.614 117.250 80.900 116.951 C 80.507 116.787,80.051 116.401,79.886 116.094 C 79.722 115.787,79.352 115.428,79.065 115.297 C 78.777 115.166,78.480 114.864,78.404 114.626 C 78.329 114.387,78.003 114.072,77.681 113.926 C 76.917 113.577,77.331 112.989,78.340 112.989 C 78.922 112.989,79.447 113.415,81.697 115.712 C 84.112 118.176,84.441 118.434,85.168 118.434 C 85.636 118.434,86.094 118.588,86.264 118.801 C 86.425 119.003,86.838 119.434,87.181 119.759 C 87.613 120.169,87.805 120.578,87.805 121.090 C 87.805 121.697,88.068 122.092,89.280 123.304 C 90.091 124.115,90.754 124.859,90.754 124.956 C 90.754 125.054,90.984 125.234,91.265 125.357 C 91.739 125.566,91.780 125.744,91.840 127.891 L 91.904 130.200 91.273 130.502 C 90.275 130.978,90.229 132.721,91.196 133.436 C 91.883 133.944,91.889 133.966,91.889 136.082 L 91.889 138.215 93.250 139.535 C 94.833 141.070,94.807 140.988,93.942 141.716 C 93.190 142.349,93.236 142.858,94.075 143.177 C 95.414 143.686,94.874 144.977,92.215 147.629 C 90.898 148.944,89.867 150.067,89.925 150.126 C 89.984 150.184,91.164 149.103,92.548 147.724 C 95.464 144.819,95.707 144.179,94.358 142.948 L 93.652 142.302 94.226 141.926 C 95.247 141.257,95.176 140.927,93.709 139.540 L 92.343 138.248 92.343 136.062 C 92.343 133.897,92.336 133.872,91.662 133.373 C 91.123 132.975,90.981 132.698,90.981 132.048 C 90.981 131.397,91.123 131.120,91.662 130.722 C 92.571 130.050,92.727 126.013,91.872 125.296 C 89.416 123.236,88.032 121.579,88.032 120.699 C 88.032 120.202,87.945 119.796,87.840 119.796 C 87.551 119.796,86.670 118.982,86.670 118.716 C 86.670 118.424,86.124 118.208,85.389 118.208 C 84.671 118.208,83.948 117.824,83.948 117.444 C 83.948 117.282,83.704 117.019,83.406 116.860 C 83.107 116.700,82.752 116.326,82.616 116.027 C 82.481 115.729,82.220 115.485,82.037 115.485 C 81.854 115.485,81.524 115.179,81.303 114.804 C 81.081 114.430,80.775 114.124,80.622 114.124 C 80.469 114.124,80.162 113.817,79.941 113.443 C 79.432 112.580,77.287 112.400,77.033 113.198 M56.114 113.307 C 56.294 113.777,56.071 113.897,55.020 113.897 C 53.940 113.897,53.666 113.730,54.029 113.294 C 54.368 112.885,55.956 112.895,56.114 113.307 M57.369 115.184 C 57.030 115.593,56.604 115.211,56.807 114.681 C 56.927 114.370,57.016 114.351,57.294 114.582 C 57.558 114.801,57.575 114.936,57.369 115.184 M70.293 118.693 L 69.684 118.916 70.520 119.664 C 71.772 120.783,72.277 121.000,72.881 120.676 C 73.411 120.393,73.121 120.166,71.639 119.706 C 71.398 119.632,71.242 119.358,71.242 119.009 C 71.242 118.382,71.191 118.365,70.293 118.693 M84.175 120.403 C 84.175 121.236,85.920 122.847,86.218 122.290 C 86.523 121.719,86.179 121.157,85.524 121.157 C 85.272 121.157,85.086 120.961,85.041 120.649 C 84.952 120.021,84.175 119.801,84.175 120.403 M88.495 125.223 C 88.164 125.843,88.191 129.167,88.531 129.507 C 89.460 130.436,90.528 129.566,90.528 127.879 C 90.528 126.546,88.915 124.439,88.495 125.223 M77.394 126.750 C 77.255 127.055,77.140 127.734,77.138 128.258 C 77.136 128.782,77.048 129.347,76.944 129.512 C 76.569 130.102,77.266 131.450,78.197 131.938 L 79.070 132.395 79.353 131.855 C 79.767 131.067,79.699 129.997,79.182 129.149 C 78.933 128.741,78.729 128.121,78.729 127.772 C 78.729 127.386,78.517 126.953,78.188 126.667 L 77.646 126.196 77.394 126.750 M37.913 131.598 C 37.363 131.970,36.770 132.275,36.593 132.275 C 35.614 132.275,35.407 132.670,35.878 133.645 C 36.457 134.843,36.845 134.732,38.798 132.808 C 39.996 131.627,40.209 131.314,39.932 131.137 C 39.383 130.787,38.971 130.880,37.913 131.598 M41.339 132.093 C 41.189 132.243,41.066 132.501,41.066 132.666 C 41.066 132.831,40.809 133.064,40.495 133.184 C 40.181 133.303,39.825 133.660,39.705 133.976 C 39.585 134.293,39.229 134.649,38.915 134.769 C 38.601 134.888,38.344 135.133,38.344 135.313 C 38.344 135.493,38.067 135.842,37.728 136.088 C 37.358 136.358,36.973 136.974,36.764 137.632 C 36.467 138.563,36.301 138.759,35.653 138.944 C 35.051 139.115,34.800 139.372,34.461 140.161 C 33.947 141.361,33.953 141.238,34.389 141.674 C 35.390 142.674,37.436 141.723,37.436 140.258 C 37.436 139.125,37.812 139.412,37.960 140.657 C 38.116 141.978,38.674 143.165,39.138 143.165 C 39.319 143.165,39.625 143.471,39.818 143.846 C 40.213 144.608,40.935 144.751,41.255 144.129 C 41.535 143.584,41.347 143.174,40.702 142.929 C 40.166 142.725,40.159 142.680,40.159 139.697 L 40.159 136.671 40.839 136.167 C 41.379 135.768,41.520 135.493,41.520 134.837 C 41.520 134.181,41.673 133.882,42.258 133.393 C 42.988 132.782,42.991 132.773,42.563 132.299 C 42.072 131.756,41.733 131.699,41.339 132.093 M42.314 132.744 C 42.314 132.919,42.136 133.097,41.917 133.139 C 41.526 133.214,41.364 132.733,41.676 132.421 C 41.914 132.183,42.314 132.386,42.314 132.744 M41.066 134.641 C 41.066 135.500,40.967 135.718,40.386 136.132 L 39.705 136.616 39.705 139.650 C 39.705 142.723,39.557 143.276,38.909 142.629 C 38.678 142.398,38.571 141.820,38.571 140.814 C 38.571 139.434,38.527 139.308,37.890 138.854 C 36.731 138.029,36.930 137.304,38.854 135.342 C 40.804 133.354,41.066 133.271,41.066 134.641 M82.494 134.276 C 82.312 134.629,82.003 135.049,81.807 135.212 C 81.601 135.383,81.452 135.861,81.452 136.351 C 81.452 136.905,81.297 137.336,81.003 137.603 C 80.481 138.075,80.412 138.036,78.746 136.319 L 77.716 135.259 76.381 136.650 L 75.045 138.041 74.378 137.294 C 72.877 135.614,72.367 138.220,73.437 142.101 C 73.538 142.468,73.602 142.477,74.044 142.187 C 74.316 142.009,74.895 141.787,75.329 141.694 C 75.784 141.596,76.422 141.198,76.832 140.756 L 77.543 139.989 82.430 139.989 L 87.316 139.989 88.010 140.572 C 89.811 142.088,89.976 137.846,88.182 136.133 L 87.238 135.232 86.973 135.852 C 86.828 136.193,86.586 136.804,86.435 137.209 C 86.083 138.159,85.899 138.138,85.442 137.096 C 85.236 136.628,84.922 135.990,84.742 135.678 C 84.563 135.366,84.241 134.779,84.027 134.373 C 83.546 133.464,82.934 133.425,82.494 134.276 M29.081 140.514 C 28.685 140.935,28.588 141.314,28.588 142.429 C 28.588 143.953,28.282 144.420,27.874 143.523 C 27.557 142.828,26.954 142.598,26.327 142.934 C 25.626 143.309,25.728 144.217,26.517 144.625 C 26.875 144.810,27.223 145.169,27.289 145.422 C 27.355 145.675,27.660 145.978,27.967 146.094 C 28.274 146.211,28.581 146.517,28.648 146.775 C 28.715 147.033,29.027 147.341,29.340 147.460 C 29.654 147.579,29.979 147.893,30.062 148.157 C 30.146 148.420,30.436 148.737,30.706 148.860 C 30.976 148.983,31.452 149.236,31.764 149.421 C 32.189 149.675,32.910 149.743,34.646 149.695 C 37.335 149.621,38.085 149.267,36.500 148.819 C 35.065 148.413,31.991 145.403,31.991 144.404 C 31.991 143.922,31.779 143.500,31.310 143.052 C 30.817 142.579,30.630 142.189,30.630 141.633 C 30.630 140.074,29.953 139.585,29.081 140.514 M25.109 140.821 C 25.026 140.904,24.957 141.159,24.957 141.388 C 24.957 141.643,24.793 141.804,24.531 141.804 C 23.107 141.804,23.210 145.155,24.680 146.625 L 25.635 147.580 26.144 147.071 C 26.719 146.496,26.551 145.948,25.676 145.550 C 25.049 145.265,24.919 142.181,25.525 141.949 C 25.948 141.786,25.981 140.669,25.562 140.669 C 25.396 140.669,25.192 140.737,25.109 140.821 M40.822 143.980 C 40.627 144.215,40.508 144.221,40.275 144.006 C 39.849 143.614,40.314 143.050,40.759 143.419 C 40.990 143.611,41.007 143.757,40.822 143.980 M65.041 143.543 C 64.821 143.763,64.862 145.266,65.097 145.637 C 65.537 146.332,66.091 145.718,65.930 144.714 C 65.727 143.443,65.474 143.110,65.041 143.543 M67.045 145.433 C 66.513 146.276,66.464 146.595,66.344 149.989 L 66.215 153.639 67.613 154.982 C 68.911 156.229,71.533 157.118,70.902 156.098 C 70.825 155.973,70.612 155.871,70.429 155.871 C 70.019 155.871,69.654 154.962,69.654 153.943 C 69.654 153.378,69.536 153.141,69.200 153.035 C 68.366 152.770,68.253 152.163,68.421 148.848 C 68.647 144.411,68.274 143.487,67.045 145.433 M38.963 146.252 C 38.765 146.449,39.210 147.022,39.563 147.024 C 39.703 147.024,39.988 147.323,40.196 147.688 C 40.479 148.186,40.691 148.320,41.047 148.227 C 41.674 148.063,41.653 147.335,41.010 146.996 C 40.729 146.848,40.447 146.649,40.383 146.552 C 40.211 146.291,39.148 146.066,38.963 146.252 M42.571 146.268 C 42.213 146.367,42.165 146.545,42.262 147.412 C 42.396 148.595,42.659 148.829,43.864 148.834 C 44.589 148.837,44.901 149.006,45.754 149.858 C 46.932 151.037,47.738 151.339,48.274 150.802 C 48.678 150.399,48.145 149.518,47.497 149.518 C 47.293 149.518,47.192 149.221,47.192 148.624 C 47.192 147.547,47.562 147.225,47.869 148.034 C 47.992 148.355,48.335 148.711,48.632 148.824 C 48.929 148.937,49.227 149.240,49.295 149.498 C 49.362 149.755,49.682 150.067,50.006 150.190 C 50.330 150.313,50.596 150.575,50.596 150.771 C 50.596 150.967,50.901 151.301,51.275 151.514 C 51.833 151.831,51.954 152.047,51.955 152.725 C 51.957 153.706,52.223 153.821,54.503 153.826 C 55.932 153.829,56.059 153.871,56.530 154.509 C 57.286 155.531,58.176 155.439,59.355 154.217 C 60.717 152.806,60.466 152.240,58.476 152.240 C 57.106 152.240,56.996 152.198,56.081 151.319 C 55.554 150.813,54.815 150.291,54.440 150.160 C 54.060 150.028,53.602 149.621,53.406 149.242 C 53.105 148.658,52.960 148.580,52.395 148.693 C 51.502 148.871,51.097 148.680,50.686 147.885 C 50.364 147.263,50.273 147.225,49.438 147.366 C 48.425 147.537,47.873 147.236,47.873 146.512 C 47.873 146.026,46.491 146.080,46.323 146.573 C 46.281 146.695,45.856 146.795,45.377 146.795 C 44.899 146.795,44.473 146.695,44.432 146.573 C 44.339 146.303,43.152 146.108,42.571 146.268 M63.678 146.283 C 63.612 146.389,63.636 146.603,63.731 146.757 C 63.940 147.095,64.718 146.849,64.597 146.484 C 64.490 146.165,63.839 146.022,63.678 146.283 M77.487 146.322 C 76.864 146.565,77.508 146.902,79.013 147.120 C 79.981 147.261,80.091 147.232,80.091 146.839 C 80.091 146.246,78.493 145.929,77.487 146.322 M74.802 146.651 C 74.584 147.220,74.613 148.661,74.849 149.035 C 75.245 149.659,75.615 147.851,75.266 146.996 C 75.011 146.371,74.932 146.312,74.802 146.651 M83.892 146.774 C 82.919 147.338,83.102 147.706,84.345 147.685 C 84.938 147.675,85.295 147.615,85.139 147.553 C 84.983 147.490,84.855 147.248,84.855 147.017 C 84.855 146.420,84.608 146.358,83.892 146.774 M78.458 148.772 L 77.620 149.116 78.094 149.758 C 78.586 150.422,78.360 151.787,77.759 151.787 C 77.630 151.787,77.682 151.965,77.873 152.184 C 78.065 152.402,78.290 152.805,78.374 153.080 C 78.458 153.355,78.904 153.810,79.365 154.091 C 79.827 154.373,80.238 154.684,80.280 154.783 C 80.392 155.049,83.267 155.004,83.267 154.736 C 83.267 154.611,82.853 154.509,82.348 154.509 C 81.530 154.509,81.402 154.434,81.191 153.829 C 80.942 153.114,80.655 152.955,80.475 153.432 C 80.416 153.588,80.193 153.310,79.979 152.815 C 79.595 151.927,79.596 151.790,80.004 149.234 C 80.161 148.253,79.907 148.177,78.458 148.772 M85.111 150.277 C 84.913 150.516,84.907 150.744,85.087 151.139 C 85.374 151.768,84.736 153.690,84.414 153.168 C 84.281 152.954,84.202 152.977,84.093 153.261 C 83.881 153.812,83.894 153.829,84.515 153.829 C 84.827 153.829,85.082 153.731,85.082 153.611 C 85.082 153.491,85.344 153.151,85.663 152.854 C 86.161 152.393,86.234 152.155,86.174 151.202 C 86.099 150.025,85.647 149.631,85.111 150.277 M73.738 152.998 C 73.738 153.360,73.642 153.569,73.511 153.488 C 73.386 153.411,73.284 153.552,73.284 153.802 C 73.284 154.504,73.620 154.550,74.204 153.930 L 74.735 153.364 74.237 152.865 L 73.738 152.367 73.738 152.998 M63.868 155.644 C 63.791 155.769,63.173 155.871,62.494 155.871 C 60.192 155.871,62.005 158.654,64.575 159.065 C 67.242 159.491,67.754 159.520,69.427 159.342 C 71.587 159.112,71.839 158.556,69.878 158.345 C 68.490 158.196,67.612 157.761,67.612 157.223 C 67.612 156.761,67.165 156.324,66.694 156.324 C 66.488 156.324,66.085 156.120,65.797 155.871 C 65.246 155.393,64.106 155.259,63.868 155.644 M79.101 155.983 C 79.172 156.169,79.322 156.265,79.434 156.196 C 79.754 155.998,79.671 155.644,79.304 155.644 C 79.101 155.644,79.022 155.777,79.101 155.983 M73.284 157.332 C 73.284 157.637,73.386 157.949,73.511 158.026 C 73.643 158.108,73.738 157.877,73.738 157.472 C 73.738 157.091,73.636 156.778,73.511 156.778 C 73.386 156.778,73.284 157.027,73.284 157.332 M56.702 158.966 C 56.306 159.980,56.186 161.238,56.469 161.413 C 56.608 161.499,56.721 161.863,56.721 162.221 C 56.721 163.082,57.260 163.595,58.035 163.472 C 58.373 163.419,59.263 163.307,60.011 163.225 C 61.182 163.096,61.301 163.042,60.862 162.841 C 60.581 162.713,60.352 162.419,60.352 162.188 C 60.352 161.771,58.224 159.501,57.833 159.501 C 57.721 159.501,57.629 159.360,57.629 159.188 C 57.629 158.451,56.966 158.291,56.702 158.966 M44.488 162.282 C 44.136 163.349,44.126 164.759,44.468 165.396 C 44.755 165.933,44.772 165.915,45.070 164.748 C 45.239 164.088,45.530 163.329,45.718 163.062 C 46.307 162.220,46.163 161.543,45.395 161.543 C 44.848 161.543,44.689 161.672,44.488 162.282 M48.153 163.847 C 47.543 164.641,47.419 165.000,47.419 165.979 L 47.419 167.156 48.270 167.296 C 49.661 167.526,54.639 167.464,54.793 167.215 C 54.882 167.070,54.198 166.988,52.902 166.988 C 50.576 166.988,50.598 167.006,50.592 164.984 C 50.586 162.758,49.411 162.210,48.153 163.847 M57.913 165.096 C 57.497 165.264,57.566 165.726,58.074 166.186 C 58.607 166.669,59.217 166.499,59.217 165.869 C 59.217 165.503,58.572 164.888,58.268 164.964 C 58.228 164.974,58.069 165.033,57.913 165.096 M69.116 166.871 C 68.715 167.174,68.771 167.269,70.080 168.514 C 71.242 169.621,71.469 169.960,71.469 170.598 C 71.469 171.147,71.643 171.509,72.092 171.895 C 72.434 172.189,72.868 172.915,73.056 173.509 C 73.381 174.535,73.442 174.592,74.296 174.662 C 75.395 174.752,75.866 174.279,75.538 173.416 C 75.422 173.109,75.326 172.508,75.326 172.080 C 75.326 171.502,75.151 171.147,74.645 170.696 C 74.144 170.249,73.965 169.888,73.965 169.325 C 73.965 167.450,70.600 165.747,69.116 166.871 M76.574 166.977 C 76.188 167.133,76.245 167.185,76.951 167.323 C 77.944 167.516,78.966 167.277,78.476 166.967 C 78.093 166.724,77.186 166.729,76.574 166.977 M38.465 169.695 C 38.276 170.060,37.926 170.421,37.687 170.497 C 36.781 170.785,36.877 171.980,37.806 171.980 C 38.170 171.980,38.440 171.789,38.612 171.412 C 38.820 170.955,39.034 170.845,39.716 170.845 C 40.922 170.845,41.686 170.196,41.267 169.527 C 40.752 168.702,38.922 168.812,38.465 169.695 M40.854 169.615 C 41.233 170.072,40.813 170.383,39.807 170.388 C 38.881 170.393,38.450 169.967,38.976 169.567 C 39.513 169.159,40.496 169.184,40.854 169.615 M80.207 170.157 C 80.126 170.411,79.860 170.726,79.615 170.857 C 79.028 171.171,79.274 171.526,80.080 171.526 C 80.578 171.526,80.755 171.397,80.867 170.951 C 80.947 170.629,81.258 170.281,81.572 170.162 C 82.333 169.873,82.282 169.808,81.243 169.747 C 80.521 169.704,80.326 169.782,80.207 170.157 M38.191 170.994 C 38.396 171.200,37.887 171.778,37.637 171.623 C 37.325 171.430,37.401 170.845,37.739 170.845 C 37.905 170.845,38.108 170.912,38.191 170.994 M34.509 172.415 C 34.246 172.581,34.269 172.714,34.646 173.193 C 35.066 173.728,35.137 173.745,35.588 173.430 C 36.219 172.988,36.209 172.522,35.564 172.349 C 34.910 172.174,34.887 172.175,34.509 172.415 M58.810 174.292 C 58.443 174.659,58.016 174.232,58.220 173.702 C 58.358 173.342,58.404 173.338,58.728 173.662 C 59.006 173.940,59.024 174.078,58.810 174.292 " stroke="none" fill="#ec9e33" fill-rule="evenodd"></path><path id="path3" d="M53.852 127.633 C 53.583 127.924,52.971 128.234,52.490 128.323 C 52.010 128.412,51.398 128.718,51.131 129.003 C 50.864 129.289,50.262 129.594,49.795 129.682 C 48.802 129.868,47.192 131.341,47.192 132.063 C 47.192 132.665,46.778 133.444,46.262 133.810 C 46.031 133.974,45.791 134.539,45.703 135.130 C 45.607 135.770,45.386 136.264,45.122 136.429 C 44.505 136.814,44.503 139.495,45.120 140.023 C 45.352 140.223,45.616 140.778,45.706 141.257 C 45.796 141.736,46.152 142.449,46.496 142.841 C 46.901 143.302,47.173 143.929,47.267 144.616 C 47.439 145.868,48.714 147.246,49.702 147.248 C 50.051 147.249,50.545 147.521,50.936 147.930 C 51.388 148.402,51.805 148.610,52.297 148.610 C 52.789 148.610,53.206 148.819,53.660 149.292 C 54.099 149.750,54.389 149.900,54.542 149.746 C 54.668 149.621,55.254 149.518,55.846 149.518 C 57.204 149.518,57.351 149.267,56.717 148.035 C 56.239 147.105,56.144 147.040,55.160 146.977 C 53.432 146.865,53.744 146.245,55.572 146.159 C 56.965 146.094,57.056 146.122,57.574 146.783 C 57.872 147.164,58.248 147.476,58.409 147.476 C 58.570 147.476,58.963 147.681,59.281 147.931 L 59.860 148.387 60.542 147.704 C 60.917 147.329,61.438 147.022,61.699 147.022 C 63.265 147.022,65.029 143.970,64.073 142.914 C 63.625 142.419,63.833 142.031,64.546 142.031 C 65.397 142.031,65.797 141.450,65.797 140.216 C 65.797 139.311,65.898 139.034,66.364 138.668 C 67.122 138.071,67.136 136.999,66.392 136.511 C 66.015 136.264,65.807 135.856,65.702 135.154 C 65.609 134.537,65.345 133.958,65.015 133.647 C 64.720 133.370,64.412 132.789,64.331 132.356 C 64.135 131.311,62.707 129.888,61.656 129.691 C 61.216 129.608,60.615 129.303,60.320 129.012 C 60.026 128.721,59.390 128.410,58.909 128.322 C 58.427 128.233,57.803 127.912,57.522 127.608 C 56.795 126.824,54.584 126.839,53.852 127.633 M57.856 130.346 C 58.222 130.735,58.631 130.913,59.161 130.913 C 60.275 130.913,63.067 133.618,63.071 134.702 C 63.073 135.159,63.285 135.654,63.642 136.040 C 64.245 136.691,64.542 141.123,63.982 141.123 C 63.857 141.123,63.755 140.865,63.755 140.550 C 63.755 140.098,63.615 139.949,63.087 139.844 C 62.631 139.753,62.396 139.556,62.349 139.225 C 62.306 138.921,62.088 138.714,61.764 138.668 C 61.480 138.627,61.096 138.362,60.910 138.079 C 60.724 137.795,60.318 137.447,60.008 137.306 C 59.086 136.885,59.359 136.585,60.664 136.585 C 62.375 136.585,63.352 134.582,61.752 134.355 C 61.406 134.306,61.143 134.050,60.992 133.618 C 60.843 133.190,60.604 132.955,60.318 132.955 C 60.029 132.955,59.791 132.718,59.637 132.275 L 59.400 131.594 57.168 131.594 C 55.064 131.594,54.928 131.622,54.777 132.097 C 54.690 132.373,53.662 133.541,52.493 134.693 C 51.325 135.845,50.369 136.888,50.369 137.011 C 50.369 137.135,50.088 137.268,49.745 137.308 L 49.121 137.379 49.057 140.062 C 48.991 142.809,48.592 143.674,48.318 141.663 C 48.251 141.169,47.970 140.539,47.694 140.263 C 46.922 139.491,46.962 136.900,47.760 136.040 C 48.097 135.675,48.327 135.158,48.327 134.760 C 48.327 133.732,51.206 130.913,52.256 130.913 C 52.769 130.913,53.183 130.731,53.545 130.346 C 54.017 129.844,54.263 129.779,55.701 129.779 C 57.138 129.779,57.384 129.844,57.856 130.346 M58.763 132.779 C 58.763 132.932,59.383 133.646,60.141 134.367 L 61.518 135.678 60.395 135.678 C 58.713 135.678,58.052 137.187,59.435 137.872 C 59.741 138.025,60.070 138.360,60.166 138.618 C 60.261 138.877,60.589 139.182,60.893 139.298 C 61.198 139.414,61.514 139.719,61.595 139.976 C 61.677 140.232,61.819 140.442,61.912 140.442 C 62.634 140.442,62.931 141.101,62.315 141.336 C 61.960 141.471,61.616 141.785,61.551 142.033 C 61.349 142.806,61.032 142.528,61.032 141.577 C 61.032 140.943,60.889 140.539,60.556 140.238 C 60.294 140.001,59.977 139.705,59.853 139.580 C 59.728 139.455,59.421 139.149,59.172 138.900 C 58.922 138.650,58.616 138.344,58.491 138.219 C 58.366 138.094,58.070 137.778,57.833 137.516 C 57.474 137.118,57.139 137.039,55.814 137.039 C 54.906 137.039,54.226 136.942,54.226 136.812 C 54.226 136.687,54.418 136.585,54.652 136.585 C 54.912 136.585,55.188 136.319,55.360 135.905 C 55.609 135.305,55.753 135.224,56.579 135.221 C 57.807 135.216,58.158 134.964,58.158 134.090 C 58.158 133.210,57.807 132.963,56.551 132.959 C 56.021 132.957,55.587 132.853,55.587 132.728 C 55.587 132.599,56.268 132.501,57.175 132.501 C 58.276 132.501,58.763 132.587,58.763 132.779 M82.694 133.643 C 82.470 133.890,82.354 134.160,82.437 134.242 C 82.519 134.325,82.587 134.270,82.587 134.120 C 82.587 133.971,82.808 133.766,83.079 133.666 C 83.355 133.564,83.468 133.420,83.336 133.338 C 83.207 133.258,82.918 133.395,82.694 133.643 M57.289 134.090 C 57.289 134.490,55.881 134.701,55.533 134.353 C 55.134 133.954,55.609 133.609,56.459 133.680 C 57.015 133.726,57.289 133.862,57.289 134.090 M54.566 135.678 C 54.456 135.855,54.326 135.869,54.175 135.717 C 54.050 135.593,54.022 135.371,54.112 135.224 C 54.222 135.046,54.353 135.033,54.504 135.185 C 54.629 135.309,54.657 135.531,54.566 135.678 M52.297 143.262 C 52.605 143.494,53.295 143.607,54.441 143.612 C 56.272 143.619,56.450 143.992,54.681 144.115 C 53.825 144.175,53.614 144.286,53.362 144.814 C 53.063 145.441,52.638 145.468,52.638 144.859 C 52.638 144.683,52.331 144.380,51.957 144.186 C 51.583 143.992,51.276 143.686,51.276 143.505 C 51.276 143.325,50.970 143.018,50.596 142.825 L 49.915 142.473 49.915 140.318 C 49.915 138.223,49.931 138.156,50.486 137.945 C 50.800 137.826,51.181 137.445,51.333 137.100 C 51.570 136.558,51.624 136.914,51.726 139.696 C 51.831 142.576,51.892 142.956,52.297 143.262 M53.533 137.122 C 53.797 137.816,54.179 137.947,55.946 137.947 C 57.089 137.947,57.402 138.020,57.402 138.287 C 57.402 138.559,57.063 138.627,55.713 138.627 C 53.798 138.627,53.318 138.979,53.318 140.379 C 53.318 141.416,53.994 142.031,55.133 142.031 C 55.800 142.031,56.041 142.124,56.041 142.381 C 56.041 142.671,55.756 142.720,54.396 142.665 L 52.751 142.598 52.688 139.592 C 52.623 136.522,52.946 135.578,53.533 137.122 M72.745 137.521 C 72.573 138.382,72.596 139.689,72.796 140.398 C 72.877 140.686,72.949 139.997,72.954 138.867 C 72.966 136.594,72.950 136.496,72.745 137.521 M89.458 138.968 C 89.460 139.592,89.504 139.820,89.556 139.475 C 89.608 139.130,89.607 138.620,89.553 138.341 C 89.499 138.062,89.456 138.344,89.458 138.968 M57.255 139.463 C 57.340 139.548,57.102 139.748,56.725 139.906 C 56.280 140.093,56.041 140.356,56.041 140.658 C 56.041 141.049,55.897 141.123,55.133 141.123 L 54.226 141.123 54.226 140.216 L 54.226 139.308 55.663 139.308 C 56.453 139.308,57.169 139.378,57.255 139.463 M59.000 139.893 C 59.172 140.214,59.495 140.575,59.719 140.695 C 60.242 140.975,60.297 142.484,59.784 142.484 C 59.597 142.484,59.444 142.337,59.444 142.157 C 59.444 141.701,59.039 141.494,57.874 141.356 C 56.652 141.210,56.504 140.908,57.404 140.396 C 57.777 140.184,58.083 139.852,58.083 139.659 C 58.083 139.104,58.656 139.250,59.000 139.893 M76.832 140.763 C 76.379 141.256,75.815 141.594,75.280 141.694 C 74.761 141.790,74.304 142.058,74.084 142.394 C 73.888 142.693,73.515 142.938,73.255 142.938 C 72.917 142.938,72.821 143.041,72.920 143.297 C 72.995 143.494,73.057 143.744,73.057 143.852 C 73.057 143.960,73.338 144.182,73.681 144.345 C 74.141 144.565,74.324 144.837,74.376 145.379 C 74.429 145.921,74.559 146.115,74.871 146.115 C 75.105 146.115,75.360 146.319,75.440 146.568 C 75.639 147.196,76.337 147.136,76.986 146.435 C 77.488 145.894,77.599 145.867,78.414 146.094 C 78.899 146.229,79.608 146.340,79.988 146.340 C 80.625 146.341,80.683 146.407,80.732 147.192 C 80.866 149.321,82.278 149.770,83.042 147.926 C 83.494 146.835,82.961 146.456,82.240 147.353 L 81.700 148.025 81.548 147.080 C 81.321 145.659,80.840 145.343,79.129 145.489 C 77.101 145.662,77.141 145.707,77.141 143.305 C 77.141 140.497,76.783 140.669,82.627 140.669 L 87.568 140.669 87.939 141.237 C 88.144 141.548,88.440 141.804,88.597 141.804 C 88.755 141.804,89.053 142.033,89.259 142.314 C 89.598 142.777,89.612 142.780,89.409 142.346 C 89.286 142.083,88.925 141.698,88.608 141.490 C 88.291 141.283,88.032 140.965,88.032 140.786 C 88.032 140.114,87.139 139.989,82.348 139.989 L 77.543 139.989 76.832 140.763 M79.632 141.812 C 79.299 142.435,79.526 143.042,80.209 143.353 C 80.518 143.494,80.771 143.706,80.771 143.825 C 80.771 144.442,81.532 144.753,83.043 144.753 C 84.768 144.753,85.213 145.049,84.405 145.658 L 83.890 146.047 84.373 146.173 C 84.707 146.260,84.855 146.478,84.855 146.883 C 84.855 147.318,85.001 147.504,85.425 147.610 C 86.036 147.764,86.267 148.308,86.185 149.404 C 86.009 151.748,86.434 153.062,86.754 151.168 C 86.834 150.697,86.959 149.999,87.031 149.615 C 87.258 148.425,86.768 147.118,85.973 146.788 C 85.095 146.425,85.480 146.123,86.828 146.118 C 88.821 146.111,89.101 144.268,87.379 142.492 L 86.273 141.350 83.077 141.350 C 80.092 141.350,79.863 141.381,79.632 141.812 M68.565 141.742 C 67.227 141.907,66.642 144.526,67.943 144.526 C 68.485 144.526,68.592 145.490,68.421 148.848 C 68.253 152.163,68.366 152.770,69.200 153.035 C 69.540 153.142,69.654 153.378,69.654 153.972 C 69.654 155.339,69.961 155.644,71.338 155.644 C 72.382 155.644,72.603 155.723,72.923 156.211 C 73.127 156.523,73.448 156.778,73.635 156.778 C 73.823 156.778,74.073 157.033,74.192 157.345 C 74.495 158.142,74.566 158.056,74.510 156.961 C 74.478 156.332,74.320 155.912,74.043 155.721 C 73.169 155.118,73.110 154.992,73.224 153.978 C 73.331 153.030,73.293 152.937,72.663 152.612 C 71.779 152.154,71.416 149.765,71.842 147.192 C 72.061 145.863,72.376 146.193,72.382 147.760 C 72.390 149.641,72.750 151.121,73.295 151.502 C 73.539 151.673,73.738 151.947,73.738 152.112 C 73.738 152.526,74.342 153.002,74.514 152.724 C 74.759 152.328,74.170 150.203,73.753 149.980 C 73.441 149.813,73.320 149.349,73.204 147.883 C 72.964 144.836,72.877 144.652,71.625 144.571 C 70.168 144.476,69.806 143.855,70.785 143.131 C 72.282 142.025,71.292 141.405,68.565 141.742 M86.558 143.069 C 87.676 144.254,87.676 145.207,86.557 145.207 C 85.997 145.207,85.763 145.105,85.763 144.862 C 85.763 144.389,85.020 144.125,83.220 143.955 C 81.973 143.838,81.673 143.730,81.556 143.361 C 81.477 143.113,81.145 142.789,80.817 142.641 L 80.221 142.371 81.007 142.216 C 83.183 141.785,85.715 142.174,86.558 143.069 M58.366 142.418 C 58.086 142.472,57.626 142.472,57.345 142.418 C 57.065 142.364,57.294 142.319,57.856 142.319 C 58.417 142.319,58.647 142.364,58.366 142.418 M58.644 143.609 C 58.718 143.729,58.481 143.980,58.118 144.168 C 57.754 144.356,57.397 144.667,57.323 144.858 C 57.219 145.130,56.849 145.199,55.651 145.171 C 54.163 145.137,54.149 145.131,55.224 145.001 C 56.298 144.871,56.532 144.693,56.811 143.789 C 56.946 143.355,58.399 143.212,58.644 143.609 M50.369 143.987 C 50.369 144.288,50.307 144.304,50.028 144.073 C 49.841 143.917,49.688 143.752,49.688 143.704 C 49.688 143.657,49.841 143.619,50.028 143.619 C 50.216 143.619,50.369 143.784,50.369 143.987 M51.730 145.348 C 51.730 145.650,51.668 145.665,51.390 145.434 C 51.202 145.279,51.049 145.113,51.049 145.066 C 51.049 145.019,51.202 144.980,51.390 144.980 C 51.577 144.980,51.730 145.146,51.730 145.348 M74.192 147.816 C 74.192 148.128,74.294 148.383,74.419 148.383 C 74.543 148.383,74.645 148.128,74.645 147.816 C 74.645 147.504,74.543 147.249,74.419 147.249 C 74.294 147.249,74.192 147.504,74.192 147.816 M79.410 147.816 C 79.410 148.169,79.539 148.383,79.750 148.383 C 79.962 148.383,80.091 148.169,80.091 147.816 C 80.091 147.463,79.962 147.249,79.750 147.249 C 79.539 147.249,79.410 147.463,79.410 147.816 M81.245 149.834 C 80.909 150.239,80.668 152.250,80.862 153.025 C 81.051 153.779,81.452 153.558,81.452 152.699 C 81.452 151.265,81.670 151.224,82.834 152.445 C 83.524 153.168,83.986 153.497,84.086 153.335 C 84.409 152.813,84.175 150.099,83.782 149.801 C 83.275 149.418,81.573 149.440,81.245 149.834 M71.040 152.790 C 71.141 153.417,71.402 153.857,71.925 154.284 C 72.714 154.928,72.556 155.195,71.394 155.187 C 70.490 155.180,70.245 154.866,70.522 154.071 C 70.810 153.244,70.531 152.240,70.013 152.240 C 69.830 152.240,69.613 152.131,69.531 151.997 C 69.432 151.839,69.643 151.780,70.139 151.827 C 70.827 151.894,70.910 151.981,71.040 152.790 M84.129 154.101 C 84.341 154.313,84.462 154.313,84.674 154.101 C 84.886 153.889,84.825 153.829,84.402 153.829 C 83.978 153.829,83.918 153.889,84.129 154.101 M75.763 155.777 L 75.213 156.365 75.837 156.864 C 76.180 157.138,76.461 157.478,76.461 157.619 C 76.461 157.760,76.180 157.981,75.837 158.110 C 75.340 158.297,75.582 158.330,77.028 158.272 C 79.228 158.184,79.515 158.075,79.884 157.185 C 80.406 155.923,78.961 154.566,77.971 155.388 C 77.797 155.532,77.569 155.539,77.361 155.407 C 76.803 155.055,76.339 155.162,75.763 155.777 M79.585 155.913 C 79.445 156.334,78.956 156.404,78.956 156.003 C 78.956 155.805,79.118 155.644,79.316 155.644 C 79.513 155.644,79.634 155.765,79.585 155.913 M53.263 161.161 C 52.921 161.294,52.581 161.590,52.508 161.819 C 52.436 162.049,52.001 162.412,51.543 162.628 L 50.709 163.020 50.643 164.748 C 50.567 166.749,50.571 166.753,53.001 166.758 C 54.162 166.761,54.486 166.853,54.998 167.328 C 55.335 167.640,55.709 167.896,55.831 167.896 C 55.952 167.896,56.167 168.151,56.309 168.463 C 56.636 169.181,57.286 169.191,57.749 168.484 C 57.946 168.184,58.357 167.876,58.662 167.799 C 59.438 167.605,59.354 167.146,58.410 166.426 C 57.732 165.909,57.624 165.711,57.739 165.191 C 57.913 164.397,57.548 163.435,57.007 163.263 C 56.682 163.160,56.606 162.958,56.673 162.380 C 56.815 161.164,54.963 160.501,53.263 161.161 M59.940 161.103 C 59.995 161.267,60.174 161.446,60.337 161.500 C 60.508 161.557,60.593 161.472,60.536 161.302 C 60.481 161.138,60.303 160.959,60.139 160.905 C 59.969 160.848,59.884 160.933,59.940 161.103 M62.192 161.399 C 61.998 161.633,62.007 161.770,62.228 161.954 C 62.620 162.279,63.179 161.917,63.001 161.452 C 62.830 161.007,62.533 160.988,62.192 161.399 M41.046 162.588 C 40.788 162.899,40.810 163.002,41.188 163.281 C 41.591 163.577,41.641 163.564,41.706 163.143 C 41.746 162.887,41.931 162.677,42.117 162.677 C 42.302 162.677,42.391 162.575,42.314 162.450 C 42.099 162.103,41.384 162.181,41.046 162.588 M63.530 162.788 C 63.197 163.190,63.732 163.502,64.348 163.266 C 64.716 163.125,64.413 162.450,63.982 162.450 C 63.888 162.450,63.684 162.602,63.530 162.788 M54.793 164.490 C 55.043 164.710,55.476 165.008,55.757 165.153 C 57.175 165.884,56.403 166.326,53.829 166.258 L 51.390 166.194 51.320 164.983 L 51.251 163.773 52.795 163.932 C 53.758 164.031,54.510 164.241,54.793 164.490 M66.327 164.167 C 66.097 164.768,66.644 165.104,67.103 164.645 C 67.449 164.299,67.456 164.222,67.158 164.034 C 66.676 163.729,66.483 163.760,66.327 164.167 M33.255 165.303 C 32.426 166.132,33.359 166.880,34.384 166.208 C 34.690 166.007,34.940 165.802,34.940 165.751 C 34.940 165.530,34.200 164.946,33.919 164.946 C 33.750 164.946,33.451 165.107,33.255 165.303 M77.141 166.496 C 77.141 166.600,77.626 166.785,78.219 166.907 L 79.297 167.129 78.219 167.311 C 76.953 167.525,76.828 167.816,77.916 168.020 C 79.308 168.282,80.507 167.423,79.852 166.633 C 79.560 166.281,77.141 166.159,77.141 166.496 M57.491 166.893 C 57.719 167.487,57.651 167.669,57.200 167.669 C 56.806 167.669,56.495 167.260,56.495 166.743 C 56.495 166.386,57.346 166.515,57.491 166.893 M32.672 168.576 C 32.672 168.826,32.774 169.030,32.898 169.030 C 33.023 169.030,33.125 168.826,33.125 168.576 C 33.125 168.327,33.023 168.123,32.898 168.123 C 32.774 168.123,32.672 168.327,32.672 168.576 M80.771 169.356 C 80.771 169.556,81.057 169.714,81.509 169.764 L 82.246 169.845 81.629 170.110 C 81.277 170.261,80.949 170.623,80.867 170.951 C 80.776 171.313,80.563 171.526,80.293 171.526 C 80.057 171.526,79.864 171.628,79.864 171.753 C 79.864 172.166,80.559 171.988,81.066 171.444 C 81.341 171.149,81.786 170.839,82.055 170.755 C 83.217 170.390,82.824 169.030,81.558 169.030 C 81.025 169.030,80.771 169.135,80.771 169.356 M82.497 184.592 C 82.296 185.114,82.603 185.508,82.856 185.055 C 82.970 184.851,83.205 184.685,83.378 184.685 C 83.552 184.685,83.757 184.583,83.834 184.458 C 83.916 184.327,83.694 184.231,83.305 184.231 C 82.902 184.231,82.580 184.375,82.497 184.592 " stroke="none" fill="#7c7c7c" fill-rule="evenodd"></path></g></svg>